<svg preserveAspectRatio="xMidYMid meet" width="100%" height="100%" overflow="visible" style="display: block;" viewBox="0 0 48 48" fill="none" xmlns="http://www.w3.org/2000/svg">
<g id="Group 302" filter="url(#filter0_d_0_4)">
<circle id="Ellipse 43" cx="24" cy="20" r="20" fill="white"/>
<path id="Vector" d="M19.0664 11.1933C19.9489 11.2355 20.659 11.9011 20.7586 12.7777L21.0586 15.3851C21.1371 16.0601 20.816 16.7315 20.243 17.0983L19.0664 17.8483C20.4281 21.0217 22.9757 23.566 26.147 24.9289L26.897 23.7558C27.2602 23.1827 27.9259 22.8617 28.6102 22.9402L31.2176 23.2402C32.0942 23.3421 32.7598 24.0534 32.802 24.9323L33 29H31.4309C22.3712 29 15 21.6291 15 12.5691V11L19.0677 11.1945L19.0664 11.1933Z" fill="var(--fill-0, #03BD4A)"/>
</g>
<defs>
<filter id="filter0_d_0_4" x="0" y="0" width="48" height="48" filterUnits="userSpaceOnUse" color-interpolation-filters="sRGB">
<feFlood flood-opacity="0" result="BackgroundImageFix"/>
<feColorMatrix in="SourceAlpha" type="matrix" values="0 0 0 0 0 0 0 0 0 0 0 0 0 0 0 0 0 0 127 0" result="hardAlpha"/>
<feOffset dy="4"/>
<feGaussianBlur stdDeviation="2"/>
<feComposite in2="hardAlpha" operator="out"/>
<feColorMatrix type="matrix" values="0 0 0 0 0 0 0 0 0 0 0 0 0 0 0 0 0 0 0.25 0"/>
<feBlend mode="normal" in2="BackgroundImageFix" result="effect1_dropShadow_0_4"/>
<feBlend mode="normal" in="SourceGraphic" in2="effect1_dropShadow_0_4" result="shape"/>
</filter>
</defs>
</svg>
