<svg preserveAspectRatio="none" width="100%" height="100%" overflow="visible" style="display: block;" viewBox="0 0 82.7921 10.8136" fill="none" xmlns="http://www.w3.org/2000/svg">
<g id="MAXSCEND">
<path id="Vector" d="M77.6656 10.6646H73.9511V0.143826H77.6963C78.7502 0.143826 79.6575 0.354446 80.4181 0.775687C81.1787 1.1935 81.7637 1.79454 82.173 2.5788C82.5857 3.36307 82.7921 4.30144 82.7921 5.39393C82.7921 6.48984 82.5857 7.43164 82.173 8.21932C81.7637 9.00701 81.1753 9.61147 80.4079 10.0327C79.6439 10.454 78.7297 10.6646 77.6656 10.6646ZM76.1665 8.75872H77.5735C78.2283 8.75872 78.7792 8.64228 79.226 8.4094C79.6763 8.17309 80.0139 7.80836 80.2391 7.3152C80.4676 6.81861 80.5818 6.17819 80.5818 5.39393C80.5818 4.61651 80.4676 3.98123 80.2391 3.48807C80.0139 2.99491 79.678 2.63189 79.2311 2.39901C78.7843 2.16612 78.2335 2.04968 77.5786 2.04968H76.1665V8.75872Z" fill="var(--fill-0, white)"/>
<path id="Vector_2" d="M72.1208 0.143826V10.6646H70.2073L65.6487 4.04287H65.5719V10.6646H63.3566V0.143826H65.3008L69.8236 6.76039H69.9157V0.143826H72.1208Z" fill="var(--fill-0, white)"/>
<path id="Vector_3" d="M54.5347 10.6646V0.143826H61.5952V1.97777H56.7501V4.48466H61.232V6.3186H56.7501V8.83064H61.6157V10.6646H54.5347Z" fill="var(--fill-0, white)"/>
<path id="Vector_4" d="M52.946 3.82714H50.7051C50.6642 3.53604 50.5806 3.27747 50.4544 3.05144C50.3282 2.82199 50.1662 2.62678 49.9683 2.46581C49.7705 2.30485 49.542 2.18156 49.2828 2.09594C49.0269 2.01033 48.749 1.96752 48.4488 1.96752C47.9065 1.96752 47.4341 2.10279 47.0316 2.37335C46.6291 2.64048 46.317 3.03089 46.0953 3.5446C45.8736 4.05489 45.7628 4.67476 45.7628 5.40423C45.7628 6.15424 45.8736 6.78439 46.0953 7.29467C46.3204 7.80496 46.6342 8.19024 47.0367 8.45052C47.4392 8.7108 47.9048 8.84094 48.4335 8.84094C48.7302 8.84094 49.0048 8.80155 49.2572 8.72278C49.513 8.64402 49.7398 8.52929 49.9377 8.3786C50.1355 8.22449 50.2992 8.03784 50.4288 7.81866C50.5618 7.59947 50.6539 7.34947 50.7051 7.06864L52.946 7.07892C52.8881 7.5618 52.7431 8.02757 52.5112 8.4762C52.2826 8.92142 51.9739 9.3204 51.5851 9.67315C51.1997 10.0225 50.7392 10.2999 50.2037 10.5054C49.6716 10.7074 49.0696 10.8084 48.3976 10.8084C47.4631 10.8084 46.6274 10.5961 45.8907 10.1714C45.1573 9.74678 44.5775 9.13204 44.1511 8.32723C43.7282 7.52242 43.5167 6.54808 43.5167 5.40423C43.5167 4.25694 43.7316 3.2809 44.1613 2.47609C44.5911 1.67128 45.1744 1.05825 45.9111 0.637012C46.6479 0.212346 47.4767 1.33514e-05 48.3976 1.33514e-05C49.0048 1.33514e-05 49.5676 0.0856316 50.086 0.256868C50.6079 0.428104 51.0701 0.678109 51.4725 1.00688C51.875 1.33223 52.2025 1.73121 52.4549 2.20382C52.7107 2.67643 52.8744 3.21754 52.946 3.82714Z" fill="var(--fill-0, white)"/>
<path id="Vector_5" d="M39.9443 3.16959C39.9033 2.7552 39.7277 2.43328 39.4173 2.20382C39.1069 1.97437 38.6857 1.85964 38.1536 1.85964C37.792 1.85964 37.4867 1.91101 37.2378 2.01375C36.9888 2.11307 36.7978 2.25177 36.6647 2.42985C36.5351 2.60794 36.4703 2.81 36.4703 3.03603C36.4635 3.22439 36.5027 3.38878 36.588 3.52919C36.6767 3.6696 36.7978 3.79118 36.9512 3.89392C37.1047 3.99324 37.2821 4.08057 37.4833 4.15592C37.6846 4.22784 37.8995 4.28948 38.128 4.34085L39.0694 4.56688C39.5264 4.66962 39.946 4.80661 40.328 4.97785C40.71 5.14909 41.0409 5.35971 41.3206 5.60971C41.6003 5.85972 41.8168 6.15424 41.9703 6.49329C42.1272 6.83234 42.2074 7.22104 42.2108 7.65941C42.2074 8.30326 42.0437 8.86149 41.7196 9.3341C41.399 9.80328 40.9351 10.168 40.328 10.4283C39.7243 10.6852 38.9961 10.8136 38.1433 10.8136C37.2974 10.8136 36.5607 10.6834 35.9331 10.4232C35.3089 10.1629 34.8212 9.7776 34.4698 9.26732C34.1219 8.75361 33.9394 8.11832 33.9224 7.36146H36.0661C36.09 7.7142 36.1906 8.00873 36.368 8.24504C36.5488 8.47792 36.7892 8.65429 37.0894 8.77416C37.3929 8.8906 37.7357 8.94882 38.1178 8.94882C38.493 8.94882 38.8187 8.89402 39.095 8.78443C39.3747 8.67484 39.5913 8.52244 39.7447 8.32723C39.8982 8.13202 39.975 7.9077 39.975 7.65427C39.975 7.41796 39.9051 7.21933 39.7652 7.05837C39.6288 6.89741 39.4275 6.76042 39.1615 6.6474C38.8988 6.53439 38.5765 6.43164 38.1945 6.33918L37.0536 6.0515C36.1702 5.83574 35.4726 5.49841 34.961 5.03949C34.4494 4.58058 34.1953 3.96242 34.1987 3.18501C34.1953 2.54801 34.3641 1.99149 34.7052 1.51545C35.0497 1.03942 35.5221 0.667835 36.1224 0.400706C36.7227 0.133578 37.4049 1.33514e-05 38.1689 1.33514e-05C38.9466 1.33514e-05 39.6254 0.133578 40.2052 0.400706C40.7885 0.667835 41.2421 1.03942 41.5661 1.51545C41.8902 1.99149 42.0573 2.54287 42.0675 3.16959H39.9443Z" fill="var(--fill-0, white)"/>
<path id="Vector_6" d="M26.0382 0.143826L28.1513 3.72951H28.2331L30.3564 0.143826H32.8583L29.6606 5.4042L32.9299 10.6646H30.382L28.2331 7.07375H28.1513L26.0024 10.6646H23.4647L26.7443 5.4042L23.5261 0.143826H26.0382Z" fill="var(--fill-0, white)"/>
<path id="Vector_7" d="M14.9895 10.6646H12.6155L16.2328 0.143826H19.0877L22.6998 10.6646H20.3258L17.7011 2.54798H17.6193L14.9895 10.6646ZM14.8411 6.52922H20.4486V8.26556H14.8411V6.52922Z" fill="var(--fill-0, white)"/>
<path id="Vector_8" d="M1.04904e-05 0.143826H2.73212L5.61771 7.21246H5.7405L8.6261 0.143826H11.3582V10.6646H9.20935V3.81684H9.12238L6.41074 10.6132H4.94747L2.23583 3.79116H2.14886V10.6646H1.04904e-05V0.143826Z" fill="var(--fill-0, white)"/>
</g>
</svg>
