<svg preserveAspectRatio="none" width="100%" height="100%" overflow="visible" style="display: block;" viewBox="0 0 50.3124 43.3639" fill="none" xmlns="http://www.w3.org/2000/svg">
<path id="path30030" d="M50.3124 39.4888H35.446C36.1631 40.4323 36.7325 41.3264 37.1285 42.1969L32.3785 43.2629C30.0539 39.1664 26.9607 35.7146 23.0777 32.9077L27.2347 30.5478C29.2618 32.1124 31.0428 33.776 32.6012 35.59H35.2726C36.634 33.776 37.6465 32.1382 38.3401 30.6724L43.3127 31.7901C42.5442 33.1806 41.7543 34.4466 40.9131 35.59H50.3124V39.4888ZM43.3127 24.3148V5.14109C43.3127 4.81869 43.1885 4.59517 42.9402 4.44472C42.694 4.32221 42.0754 4.24698 41.11 4.24698C40.2687 4.24698 39.3055 4.29642 38.2159 4.42108L40.0461 0.29875C40.7889 0.247167 41.506 0.223526 42.1739 0.223526C44.2031 0.223526 45.7101 0.496484 46.6755 1.06819C47.6409 1.63775 48.1097 2.60708 48.1097 3.94823V24.3148H43.3127ZM18.6509 26.2019H48.1119V29.9266H18.6509V26.2019ZM32.5262 15.5221H18.7751V19.1243H32.5262V15.5221ZM13.8517 22.7996V4.7929H18.7751V12.0209H32.5262V8.51761H20.6545V4.7929H37.4004V22.7996H13.8517ZM9.029 31.4677L5.27013 28.6113C8.26267 26.9219 10.8357 25.1337 12.9613 23.2209L16.7951 26.002C14.8899 27.7172 12.2934 29.529 9.029 31.4677ZM3.33932 23.8678V0H8.26267V23.8184L3.33932 23.8678ZM24.9336 39.4888H12.6402C13.0854 40.0111 13.6034 40.7805 14.2221 41.7993L9.62194 43.3639C6.80279 38.9429 3.58763 35.4911 0 33.056L3.88303 30.3995C6.03432 31.9147 7.93944 33.6513 9.62194 35.59H11.5014C13.0619 33.3784 14.1985 31.616 14.8899 30.2985L19.6399 31.3924C19.169 32.6347 18.3534 34.0253 17.1911 35.59H24.9336V39.4888Z" fill="var(--fill-0, white)"/>
</svg>
