<svg preserveAspectRatio="none" width="100%" height="100%" overflow="visible" style="display: block;" viewBox="0 0 122.442 14.0808" fill="none" xmlns="http://www.w3.org/2000/svg">
<g id="20th&#194;&#160;Anniversary">
<path id="Vector" d="M116.461 14.0808C116.185 14.0808 115.926 14.0585 115.684 14.014C115.445 13.9729 115.247 13.9198 115.09 13.8548L115.581 12.2212C115.837 12.2999 116.067 12.3427 116.272 12.3496C116.48 12.3564 116.659 12.3085 116.809 12.2057C116.963 12.103 117.087 11.9283 117.183 11.6818L117.31 11.3479L114.491 3.23126H116.784L118.41 9.02589H118.492L120.135 3.23126H122.442L119.388 11.9746C119.241 12.3992 119.042 12.7691 118.789 13.0842C118.54 13.4027 118.225 13.6476 117.843 13.8188C117.461 13.9935 117 14.0808 116.461 14.0808Z" fill="var(--fill-0, white)"/>
<path id="Vector_2" d="M108.981 11.1218V3.23127H111.094V4.60801H111.176C111.319 4.11827 111.56 3.7484 111.897 3.49839C112.235 3.24496 112.624 3.11825 113.064 3.11825C113.173 3.11825 113.291 3.1251 113.417 3.1388C113.543 3.1525 113.654 3.17133 113.749 3.19531V5.13712C113.647 5.1063 113.506 5.0789 113.325 5.05493C113.144 5.03096 112.979 5.01897 112.828 5.01897C112.508 5.01897 112.221 5.08918 111.969 5.22959C111.72 5.36658 111.522 5.55837 111.375 5.80495C111.232 6.05153 111.161 6.33578 111.161 6.6577V11.1218H108.981Z" fill="var(--fill-0, white)"/>
<path id="Vector_3" d="M102.865 11.2707C102.363 11.2707 101.916 11.1834 101.524 11.0088C101.132 10.8307 100.821 10.5687 100.593 10.2228C100.368 9.87346 100.255 9.43852 100.255 8.91796C100.255 8.4796 100.335 8.11144 100.496 7.81349C100.656 7.51554 100.874 7.27581 101.151 7.0943C101.427 6.91278 101.741 6.7758 102.092 6.68333C102.447 6.59086 102.818 6.52579 103.207 6.48812C103.664 6.44017 104.033 6.39565 104.312 6.35455C104.592 6.31003 104.795 6.24496 104.921 6.15935C105.047 6.07373 105.111 5.94701 105.111 5.7792V5.74838C105.111 5.42303 105.008 5.17131 104.804 4.99323C104.602 4.81514 104.316 4.7261 103.944 4.7261C103.552 4.7261 103.24 4.81343 103.008 4.98809C102.776 5.15933 102.622 5.37508 102.547 5.63536L100.531 5.47098C100.634 4.99152 100.835 4.57712 101.135 4.2278C101.435 3.87505 101.822 3.6045 102.297 3.41614C102.774 3.22436 103.327 3.12847 103.954 3.12847C104.391 3.12847 104.809 3.17984 105.208 3.28258C105.61 3.38532 105.967 3.54457 106.277 3.76033C106.591 3.97608 106.838 4.25349 107.019 4.59253C107.2 4.92816 107.29 5.33056 107.29 5.79975V11.1218H105.223V10.0276H105.162C105.036 10.2742 104.867 10.4916 104.655 10.68C104.444 10.8649 104.19 11.0105 103.893 11.1166C103.596 11.2194 103.253 11.2707 102.865 11.2707ZM103.489 9.76044C103.809 9.76044 104.092 9.69709 104.338 9.57037C104.584 9.44023 104.776 9.26557 104.916 9.04639C105.056 8.82721 105.126 8.57891 105.126 8.30151V7.46417C105.058 7.50869 104.964 7.54978 104.845 7.58746C104.729 7.6217 104.597 7.65424 104.451 7.68506C104.304 7.71246 104.157 7.73814 104.011 7.76212C103.864 7.78266 103.731 7.8015 103.611 7.81862C103.356 7.8563 103.132 7.91623 102.941 7.99842C102.75 8.08062 102.602 8.19192 102.496 8.33233C102.39 8.46932 102.338 8.64056 102.338 8.84604C102.338 9.14399 102.445 9.37174 102.66 9.52927C102.878 9.68339 103.154 9.76044 103.489 9.76044Z" fill="var(--fill-0, white)"/>
<path id="Vector_4" d="M99.0721 5.48125L97.0768 5.60454C97.0426 5.4333 96.9693 5.27919 96.8568 5.1422C96.7442 5.00179 96.5958 4.89049 96.4116 4.80829C96.2309 4.72267 96.0143 4.67987 95.7619 4.67987C95.4242 4.67987 95.1394 4.75178 94.9074 4.89562C94.6755 5.03604 94.5595 5.2244 94.5595 5.4607C94.5595 5.64906 94.6346 5.80831 94.7847 5.93845C94.9347 6.06859 95.1922 6.17304 95.5572 6.25181L96.9795 6.53949C97.7436 6.69703 98.3132 6.95046 98.6884 7.29978C99.0636 7.6491 99.2512 8.10801 99.2512 8.67652C99.2512 9.19365 99.0994 9.64743 98.7958 10.0378C98.4957 10.4283 98.083 10.7331 97.5577 10.9522C97.0358 11.168 96.4338 11.2759 95.7516 11.2759C94.7113 11.2759 93.8825 11.0584 93.2651 10.6235C92.6512 10.1851 92.2913 9.58921 92.1856 8.83577L94.3293 8.72275C94.3941 9.04125 94.551 9.28441 94.8 9.45222C95.049 9.6166 95.3679 9.6988 95.7567 9.6988C96.1388 9.6988 96.4457 9.62517 96.6777 9.4779C96.913 9.32722 97.0324 9.13372 97.0358 8.89741C97.0324 8.69878 96.9488 8.5361 96.7851 8.40939C96.6214 8.27925 96.369 8.17993 96.0279 8.11144L94.667 7.83917C93.8995 7.68506 93.3282 7.41793 92.953 7.03779C92.5812 6.65764 92.3953 6.17304 92.3953 5.58399C92.3953 5.07713 92.5318 4.64048 92.8046 4.27404C93.0809 3.90759 93.4681 3.62505 93.966 3.42642C94.4674 3.22778 95.0541 3.12847 95.7261 3.12847C96.7186 3.12847 97.4997 3.33909 98.0693 3.76033C98.6423 4.18157 98.9766 4.75521 99.0721 5.48125Z" fill="var(--fill-0, white)"/>
<path id="Vector_5" d="M86.6382 11.1218V3.23127H88.7512V4.60801H88.8331C88.9763 4.11827 89.2168 3.7484 89.5545 3.49839C89.8921 3.24496 90.281 3.11825 90.721 3.11825C90.8301 3.11825 90.9478 3.1251 91.074 3.1388C91.2002 3.1525 91.311 3.17133 91.4066 3.19531V5.13712C91.3042 5.1063 91.1627 5.0789 90.9819 5.05493C90.8011 5.03096 90.6357 5.01897 90.4856 5.01897C90.165 5.01897 89.8785 5.08918 89.6261 5.22959C89.3771 5.36658 89.1793 5.55837 89.0326 5.80495C88.8893 6.05153 88.8177 6.33578 88.8177 6.6577V11.1218H86.6382Z" fill="var(--fill-0, white)"/>
<path id="Vector_6" d="M81.6089 11.2759C80.8005 11.2759 80.1047 11.1115 79.5214 10.7827C78.9416 10.4505 78.4948 9.98134 78.181 9.37516C77.8672 8.76556 77.7103 8.04466 77.7103 7.21245C77.7103 6.40079 77.8672 5.68845 78.181 5.07542C78.4948 4.4624 78.9365 3.98465 79.5061 3.64217C80.0791 3.2997 80.7511 3.12847 81.5219 3.12847C82.0404 3.12847 82.523 3.21237 82.9698 3.38018C83.4201 3.54457 83.8123 3.79286 84.1466 4.12506C84.4843 4.45726 84.7469 4.87507 84.9345 5.37851C85.1221 5.87852 85.2159 6.46415 85.2159 7.13539V7.73643H78.58V6.38024H83.1643C83.1643 6.06517 83.096 5.78605 82.9596 5.5429C82.8232 5.29974 82.6339 5.10967 82.3917 4.97268C82.1529 4.83227 81.8749 4.76206 81.5577 4.76206C81.2269 4.76206 80.9335 4.83911 80.6777 4.99323C80.4253 5.14391 80.2275 5.34769 80.0842 5.60454C79.941 5.85797 79.8676 6.14051 79.8642 6.45216V7.74157C79.8642 8.13199 79.9359 8.46932 80.0791 8.75357C80.2258 9.03783 80.4321 9.25701 80.6982 9.41112C80.9642 9.56523 81.2797 9.64229 81.6447 9.64229C81.8869 9.64229 82.1086 9.60804 82.3098 9.53955C82.5111 9.47105 82.6833 9.36831 82.8266 9.23132C82.9698 9.09433 83.079 8.92652 83.154 8.72789L85.1698 8.86145C85.0675 9.34776 84.8577 9.77243 84.5405 10.1355C84.2267 10.495 83.8208 10.7759 83.3229 10.9779C82.8283 11.1766 82.257 11.2759 81.6089 11.2759Z" fill="var(--fill-0, white)"/>
<path id="Vector_7" d="M77.1653 3.23126L74.4179 11.1218H71.9621L69.2146 3.23126H71.5169L73.149 8.87692H73.2309L74.8579 3.23126H77.1653Z" fill="var(--fill-0, white)"/>
<path id="Vector_8" d="M65.9133 11.1218V3.23123H68.0928V11.1218H65.9133ZM67.0082 2.21409C66.6841 2.21409 66.4061 2.10621 66.1742 1.89045C65.9457 1.67127 65.8314 1.40928 65.8314 1.10448C65.8314 0.8031 65.9457 0.544533 66.1742 0.328776C66.4061 0.109593 66.6841 1.90735e-06 67.0082 1.90735e-06C67.3322 1.90735e-06 67.6085 0.109593 67.837 0.328776C68.0689 0.544533 68.1849 0.8031 68.1849 1.10448C68.1849 1.40928 68.0689 1.67127 67.837 1.89045C67.6085 2.10621 67.3322 2.21409 67.0082 2.21409Z" fill="var(--fill-0, white)"/>
<path id="Vector_9" d="M59.1303 6.56004V11.1218H56.9507V3.23121H59.028V4.62336H59.12C59.294 4.16444 59.5856 3.80142 59.9949 3.53429C60.4042 3.26374 60.9005 3.12847 61.4838 3.12847C62.0295 3.12847 62.5053 3.24833 62.9112 3.48806C63.3171 3.72779 63.6326 4.07026 63.8577 4.51548C64.0829 4.95727 64.1954 5.48468 64.1954 6.0977V11.1218H62.0159V6.48812C62.0193 6.00523 61.8965 5.62851 61.6475 5.35796C61.3985 5.08398 61.0557 4.94699 60.6191 4.94699C60.3258 4.94699 60.0666 5.01035 59.8414 5.13707C59.6197 5.26378 59.4458 5.44872 59.3196 5.69187C59.1968 5.9316 59.1337 6.22099 59.1303 6.56004Z" fill="var(--fill-0, white)"/>
<path id="Vector_10" d="M50.168 6.56004V11.1218H47.9885V3.23121H50.0657V4.62336H50.1578C50.3318 4.16444 50.6234 3.80142 51.0327 3.53429C51.442 3.26374 51.9383 3.12847 52.5215 3.12847C53.0673 3.12847 53.5431 3.24833 53.949 3.48806C54.3549 3.72779 54.6704 4.07026 54.8955 4.51548C55.1206 4.95727 55.2332 5.48468 55.2332 6.0977V11.1218H53.0536V6.48812C53.0571 6.00523 52.9343 5.62851 52.6853 5.35796C52.4363 5.08398 52.0935 4.94699 51.6569 4.94699C51.3636 4.94699 51.1043 5.01035 50.8792 5.13707C50.6575 5.26378 50.4836 5.44872 50.3574 5.69187C50.2346 5.9316 50.1715 6.22099 50.168 6.56004Z" fill="var(--fill-0, white)"/>
<path id="Vector_11" d="M39.0578 11.1218H36.6838L40.3011 0.601034H43.156L46.7681 11.1218H44.3941L41.7694 3.00519H41.6876L39.0578 11.1218ZM38.9094 6.98643H44.5169V8.72277H38.9094V6.98643Z" fill="var(--fill-0, white)"/>
<path id="Vector_12" d="M27.0653 6.56005V11.1218H24.8858V0.601034H27.0039V4.62337H27.096C27.2734 4.15761 27.5599 3.79288 27.9555 3.52917C28.3512 3.26204 28.8475 3.12848 29.4444 3.12848C29.9901 3.12848 30.4659 3.24835 30.8718 3.48808C31.2811 3.72438 31.5983 4.06514 31.8235 4.51036C32.052 4.95215 32.1645 5.48127 32.1611 6.09772V11.1218H29.9816V6.48813C29.985 6.00182 29.8622 5.62339 29.6132 5.35284C29.3676 5.08229 29.0231 4.94701 28.5797 4.94701C28.283 4.94701 28.0203 5.01037 27.7918 5.13708C27.5667 5.2638 27.3893 5.44873 27.2597 5.69189C27.1335 5.93162 27.0687 6.22101 27.0653 6.56005Z" fill="var(--fill-0, white)"/>
<path id="Vector_13" d="M23.2971 3.23122V4.87509H18.5645V3.23122H23.2971ZM19.6389 1.34077H21.8184V8.69708C21.8184 8.89914 21.8491 9.05667 21.9105 9.16969C21.9719 9.27928 22.0572 9.35634 22.1664 9.40086C22.2789 9.44538 22.4085 9.46764 22.5552 9.46764C22.6575 9.46764 22.7598 9.45908 22.8622 9.44196C22.9645 9.42141 23.0429 9.406 23.0975 9.39572L23.4403 11.0242C23.3312 11.0584 23.1777 11.0978 22.9798 11.1423C22.782 11.1903 22.5416 11.2194 22.2585 11.2297C21.7332 11.2502 21.2727 11.18 20.8771 11.019C20.4848 10.8581 20.1795 10.6081 19.9612 10.269C19.7429 9.92998 19.6355 9.50189 19.6389 8.98476V1.34077Z" fill="var(--fill-0, white)"/>
<path id="Vector_14" d="M13.2858 11.353C12.4058 11.3496 11.6486 11.1321 11.0142 10.7006C10.3832 10.2691 9.89713 9.64404 9.55604 8.82553C9.21837 8.00702 9.05124 7.02242 9.05465 5.87171C9.05465 4.72443 9.22348 3.74667 9.56116 2.93843C9.90225 2.1302 10.3883 1.51546 11.0193 1.09422C11.6537 0.669553 12.4092 0.45722 13.2858 0.45722C14.1624 0.45722 14.9162 0.669553 15.5472 1.09422C16.1817 1.51888 16.6694 2.13533 17.0105 2.94357C17.3516 3.74838 17.5204 4.72443 17.517 5.87171C17.517 7.02584 17.3465 8.01216 17.0054 8.83067C16.6677 9.64918 16.1834 10.2742 15.5524 10.7057C14.9213 11.1372 14.1658 11.353 13.2858 11.353ZM13.2858 9.50876C13.8861 9.50876 14.3654 9.20568 14.7235 8.5995C15.0817 7.99333 15.259 7.08406 15.2556 5.87171C15.2556 5.07375 15.1737 4.40935 15.01 3.87852C14.8497 3.34769 14.6212 2.94871 14.3244 2.68158C14.0311 2.41445 13.6849 2.28089 13.2858 2.28089C12.6889 2.28089 12.2114 2.58055 11.8533 3.17988C11.4951 3.7792 11.3143 4.67648 11.3109 5.87171C11.3109 6.67994 11.3911 7.35461 11.5514 7.89572C11.7151 8.4334 11.9454 8.83752 12.2421 9.10807C12.5388 9.3752 12.8868 9.50876 13.2858 9.50876Z" fill="var(--fill-0, white)"/>
<path id="Vector_15" d="M0.102326 11.1218V9.51904L3.83211 6.05151C4.14932 5.74328 4.41537 5.46588 4.63025 5.2193C4.84855 4.97272 5.01398 4.73128 5.12654 4.49497C5.23909 4.25524 5.29537 3.99667 5.29537 3.71927C5.29537 3.41104 5.22545 3.14563 5.0856 2.92302C4.94576 2.69699 4.75475 2.52404 4.51258 2.40418C4.27041 2.28089 3.99583 2.21924 3.68885 2.21924C3.36823 2.21924 3.08854 2.28431 2.84978 2.41445C2.61102 2.54459 2.42683 2.73124 2.29722 2.97439C2.16761 3.21755 2.1028 3.50694 2.1028 3.84256H0C0 3.15419 0.155195 2.55658 0.465584 2.04972C0.775973 1.54286 1.21086 1.15073 1.77024 0.873324C2.32962 0.595922 2.97428 0.45722 3.7042 0.45722C4.45459 0.45722 5.10778 0.590784 5.66375 0.857913C6.22313 1.12162 6.65802 1.48806 6.9684 1.95725C7.27879 2.42644 7.43399 2.96412 7.43399 3.57029C7.43399 3.96756 7.35554 4.35969 7.19864 4.74669C7.04515 5.13368 6.77057 5.56348 6.37491 6.0361C5.97925 6.50528 5.42158 7.06865 4.70188 7.7262L3.17211 9.23136V9.30328H7.57213V11.1218H0.102326Z" fill="var(--fill-0, white)"/>
</g>
</svg>
