<svg width="339" height="365" viewBox="0 0 339 365" fill="none" xmlns="http://www.w3.org/2000/svg">
<path d="M42.8671 108.263H28.7672V100.936H42.8671V108.263ZM23.8953 108.263H10.538V100.936H23.8953V108.263ZM12.4173 85.5382V89.7852H42.8671V96.8865H28.7672V91.6722H23.8953V96.8865H10.538V85.5382H5.44339V107.194C5.44339 110.248 4.99593 113.453 4.13113 116.806C3.24064 120.159 2.00339 122.841 0.395813 124.877L4.92314 127.385C7.69306 123.66 9.40121 118.669 10.0198 112.359H23.8953V126.044H28.7672V112.359H42.8671V121.178C42.8671 121.55 42.6937 121.921 42.3212 122.246C41.9766 122.568 41.5807 122.742 41.1355 122.742L34.7286 122.766L36.2635 127.062C37.6484 127.163 38.9841 127.187 40.2685 127.187C43.0897 127.187 45.0441 126.691 46.1572 125.721C47.2938 124.728 47.8397 123.561 47.8397 122.246V85.5382H12.4173Z" fill="white"/>
<path d="M107.723 87.7974H92.8571C93.5742 86.8539 94.1436 85.9598 94.5396 85.0893L89.7896 84.0232C87.4649 88.1198 84.3718 91.5715 80.4888 94.3785L84.6458 96.7384C86.6729 95.1737 88.4539 93.5102 90.0122 91.6962H92.6837C94.0451 93.5102 95.0576 95.1479 95.7511 96.6138L100.724 95.4961C99.9553 94.1055 99.1654 92.8396 98.3241 91.6962H107.723V87.7974ZM100.724 102.971V122.145C100.724 122.467 100.6 122.691 100.351 122.841C100.105 122.964 99.4865 123.039 98.5211 123.039C97.6798 123.039 96.7166 122.99 95.627 122.865L97.4572 126.987C98.2 127.039 98.9171 127.063 99.5849 127.063C101.614 127.063 103.121 126.79 104.087 126.218C105.052 125.648 105.521 124.679 105.521 123.338V102.971H100.724ZM76.062 101.084H105.523V97.3596H76.062V101.084ZM89.9373 111.764H76.1862V108.162H89.9373V111.764ZM71.2628 104.487V122.493H76.1862V115.265H89.9373V118.769H78.0656V122.493H94.8114V104.487H71.2628ZM66.4401 95.8185L62.6812 98.6749C65.6737 100.364 68.2467 102.152 70.3723 104.065L74.2061 101.284C72.301 99.569 69.7045 97.7572 66.4401 95.8185ZM60.7504 103.418V127.286H65.6737V103.468L60.7504 103.418ZM82.3446 87.7974H70.0512C70.4965 87.2751 71.0145 86.5057 71.6331 85.4869L67.033 83.9222C64.2139 88.3433 60.9987 91.7951 57.4111 94.2302L61.2941 96.8867C63.4454 95.3715 65.3505 93.6348 67.033 91.6962H68.9125C70.4729 93.9078 71.6096 95.6702 72.301 96.9877L77.051 95.8937C76.58 94.6515 75.7645 93.2609 74.6021 91.6962H82.3446V87.7974Z" fill="white"/>
<path d="M137.678 108.46H125.31V104.164H137.678V108.46ZM142.773 104.164H155.387V108.46H142.773V104.164ZM142.773 96.3404H155.387V100.39H142.773V96.3404ZM142.773 115.54V112.237H160.36V92.5663H127.189V96.3404H137.678V100.39H125.31V92.5663H120.314V112.237H137.678V115.54H115.219V119.462H137.678V127.062H142.773V119.462H165.234V115.54H142.773ZM128.921 83.7241L124.445 86.0841C127.66 88.5923 129.812 90.6276 130.85 92.1923L135.279 90.0817C133.697 87.7734 131.592 85.6606 128.921 83.7241ZM151.356 84.1217C149.402 86.5547 147.202 88.4676 144.776 89.8346L149.304 92.2182C152.099 90.5783 154.424 88.4181 156.303 85.7853L151.356 84.1217Z" fill="white"/>
<path d="M189.08 104.959H178.715V95.8935H189.08V104.959ZM189.08 119.314H178.715V109.058H189.08V119.314ZM184.752 91.6466C186.261 88.7408 187.149 86.4819 187.421 84.9409L182.129 84.2208C181.337 86.9031 180.224 89.3877 178.79 91.6466H173.67V127.213H178.715V123.512H189.08V126.74H194.001V91.6466H184.752ZM205.901 94.3546C206.245 93.51 206.568 92.6911 206.84 91.8959C207.803 88.9901 208.471 86.7054 208.867 85.0397L203.822 84.1219C202.139 91.1006 199.245 97.4346 195.14 103.096L199.072 106.077C201.324 103.345 203.351 100.016 205.132 96.1429C205.404 95.5712 205.652 94.95 205.901 94.3546ZM208.844 91.8959L207.112 96.1429H216.633C216.659 99.7924 216.462 104.91 216.04 111.465C215.644 118.023 215.026 121.55 214.21 122.096C213.369 122.618 212.602 122.865 211.885 122.865L204.218 122.914L206.121 127.213C211.564 127.187 214.976 126.865 216.387 126.218C217.798 125.599 218.862 124.604 219.553 123.288C220.221 121.947 220.765 117.552 221.111 110.1C221.458 102.649 221.657 96.5641 221.706 91.8959H208.844ZM205.479 103.27L201.003 105.653C203.822 108.486 206.442 111.987 208.916 116.185L213.395 113.726C211.909 110.82 209.263 107.343 205.479 103.27Z" fill="white"/>
<path d="M262.593 122.891C256.93 122.891 253.218 122.816 251.439 122.618C249.681 122.444 247.802 121.971 245.824 121.251C243.844 120.507 242.087 119.538 240.58 118.296C241.691 116.31 242.705 113.924 243.694 111.119V107.195H236.521C239.143 104.364 241.47 101.508 243.523 98.6254V94.6772H229.646V98.6254H237.437C235.607 101.258 233.207 104.091 230.288 107.096V111.119H238.426C237.067 115.962 233.974 120.557 229.2 124.928L233.085 127.535C234.864 125.872 236.622 123.959 238.377 121.75C240.109 123.14 242.138 124.232 244.463 125.027C246.787 125.797 249.163 126.293 251.537 126.517C253.937 126.717 258.76 126.839 266.006 126.839C269.321 126.839 273.403 126.815 278.226 126.74L279.834 122.592C273.973 122.792 268.234 122.891 262.593 122.891ZM234.297 83.9738L230.956 87.0021C234.494 88.9902 237.362 91.0256 239.565 93.1125L243.052 90.2325C240.58 87.8468 237.66 85.762 234.297 83.9738ZM255.718 95.2983H251.76V89.4372H255.718V95.2983ZM260.194 89.4372H264.126V95.2983H260.194V89.4372ZM268.778 89.4372H272.487V95.2983H268.778V89.4372ZM262.394 102.849L257.993 106.599H271.301C269.246 108.957 266.624 110.969 263.46 112.609C260.887 110.846 258.488 109.355 256.236 108.115C255.915 107.915 255.594 107.741 255.296 107.592C255.001 107.392 254.703 107.244 254.406 107.096L254.729 106.896C254.776 106.846 254.851 106.823 254.9 106.773C255.767 106.126 256.632 105.432 257.548 104.661C258.017 104.263 258.835 103.543 259.625 102.849C260.566 101.978 261.579 100.762 262.716 99.1735H277.312V85.7362H246.912V99.1735H256.805C254.455 102.129 250.399 105.009 244.66 107.865L247.678 111.119C248.568 110.672 249.508 110.15 250.448 109.529C253.466 110.995 256.311 112.684 258.982 114.571C255.172 116.06 250.867 117.178 246.045 117.874L248.767 121.649C262.544 119.216 272.091 114.173 277.434 106.599V102.849H262.394Z" fill="white"/>
<path d="M307.389 112.335C304.914 112.956 302.739 113.427 300.811 113.726V108.088H306.648V104.114H300.811V95.8202H296.11V104.114H291.906C293.687 99.6201 294.948 96.0673 295.665 93.4839H307.166V89.5357H296.804L297.94 84.8911L293.068 84.2463C292.794 85.9593 292.424 87.7238 291.906 89.5357H286.833V93.4839H290.915C290.223 96.5144 289.061 99.9425 287.477 103.766V108.088H296.11V114.719C292.82 115.366 289.556 115.836 286.266 116.135L287.353 120.034C288.07 119.985 290.99 119.563 296.11 118.768V127.286H300.811V117.799C303.234 117.377 305.732 116.855 308.305 116.234L307.389 112.335ZM327.971 105.382H314.859V102.502H327.971V105.382ZM327.971 111.987H314.859V108.957H327.971V111.987ZM327.971 118.396C322.504 118.669 318.126 118.818 314.859 118.867V115.366H327.971V118.396ZM336.503 118.147C334.895 118.272 333.684 118.295 332.892 118.246V102.5H336.28V98.7991H307.044V102.5H309.938V119.116C308.007 119.265 306.498 119.29 305.411 119.265L305.781 122.966L327.971 122.196V127.286H332.892V121.947C334.696 121.872 336.008 121.848 336.85 121.848L336.503 118.147ZM308.996 85.4886V96.5638H313.871V89.1381H328.934V92.9638H315.75V96.5638H333.979V85.4886H308.996Z" fill="white"/>
<path d="M8.48529 137.196C6.60371 145.045 3.78456 151.502 0 156.593L2.57299 161.113C3.71178 159.598 4.62581 158.332 5.31936 157.288V180.336H10.1913V148L13.4065 138.561L8.48529 137.196ZM25.032 171.593H18.5503V162.8H25.032V171.593ZM13.8025 175.716H29.7563V158.876H13.8025V175.716ZM24.118 146.285V137.518H19.2439V146.285H12.4176V150.335H19.2439V156.991H24.118V150.335H30.9936V146.285H24.118ZM43.2634 169.16C45.86 164.541 47.4932 158.033 48.1354 149.638H50.6356V145.391H39.1813C40.0483 142.859 40.7654 140.375 41.3091 137.991L36.5356 137.196C34.4314 145.989 31.7107 152.321 28.397 156.222L32.477 158.829C34.5555 156.295 36.2637 153.24 37.623 149.638H43.09C42.9659 154.756 42.1503 159.45 40.5663 163.72C39.7764 161.734 39.1085 159.424 38.6119 156.84L34.0846 158.704C34.9023 162.379 36.1139 165.857 37.7471 169.111C35.8185 171.967 32.7018 174.847 28.397 177.704L31.959 180.659C35.1249 178.621 37.9462 176.139 40.3694 173.207C42.2488 175.692 44.7233 178.174 47.7415 180.708L51.3998 177.678C48.1846 175.17 45.4896 172.339 43.2634 169.16Z" fill="white"/>
<path d="M184.157 154.631C182.055 151.054 180.026 147.777 178.097 144.822H186.409C185.814 148.149 185.074 151.403 184.157 154.631ZM187.225 160.17C189.648 153.612 191.131 147.106 191.701 140.673H172.951V144.822H176.785L173.868 146.709C177.305 152.047 180.052 156.643 182.13 160.518C180.101 164.988 176.565 170.104 171.517 175.866L174.833 178.896C179.234 173.878 182.55 169.407 184.752 165.485C186.531 169.111 188.066 172.562 189.353 175.866L193.409 173.456C191.206 168.414 189.154 163.993 187.225 160.17ZM207.087 164.765H199.816V159.003H207.087V164.765ZM207.087 174.351H199.816V168.614H207.087V174.351ZM211.985 174.351V168.614H220.344V164.765H211.985V159.003H220.344V155.127H211.985V149.415H221.532V145.441H212.48C211.884 142.909 210.996 140.299 209.857 137.568L205.257 138.711C206.321 141.071 207.113 143.306 207.605 145.441H200.606C201.819 142.958 202.785 140.575 203.549 138.264L199.073 137.048C196.402 144.125 193.557 149.763 190.59 153.911L192.938 158.257C193.21 157.934 193.456 157.612 193.704 157.313C194.126 156.791 194.595 156.146 195.115 155.426C195.956 154.233 196.549 153.29 196.994 152.619C197.54 151.749 198.208 150.683 198.949 149.415H207.087V155.127H199.816V151.476L195.115 158.555V180.188H199.816V178.299H222.101V174.351H211.985Z" fill="white"/>
<path d="M327.771 164.019H314.339V161.337H327.771V164.019ZM327.771 170.252H314.339V167.321H327.771V170.252ZM314.339 149.465H327.054V152.295H314.339V149.465ZM332.793 164.019V158.083H314.339V155.476H332.273V146.335H314.339V143.679H336.132V140.326H314.339V137.568H309.293V140.326H287.427V143.679H309.293V146.335H298.46V149.465H309.293V152.297H296.58V146.335H291.434V155.476H309.293V158.083H290.445V161.337H309.293V164.019H286.958V167.323H309.293V170.252H290.445V173.506H309.293V175.617C309.293 175.817 309.195 175.989 308.972 176.189C308.75 176.386 308.527 176.487 308.33 176.487L300.66 176.636L302.193 180.337C306.969 180.337 309.837 180.287 310.777 180.163C311.716 180.012 312.534 179.64 313.251 178.97C313.968 178.299 314.339 177.504 314.339 176.537V173.506H332.793V167.323H336.8V164.019H332.793Z" fill="white"/>
<path d="M246.212 158.077H235.848V149.011H246.212V158.077ZM246.212 172.432H235.848V162.175H246.212V172.432ZM241.884 144.764C243.391 141.858 244.282 139.599 244.554 138.058L239.262 137.338C238.47 140.021 237.357 142.505 235.923 144.764H230.8V180.33H235.848V176.629H246.212V179.858H251.134V144.764H241.884ZM263.031 147.472C263.378 146.628 263.699 145.809 263.971 145.013C264.936 142.107 265.604 139.823 266 138.159L260.955 137.239C259.272 144.218 256.378 150.552 252.273 156.213L256.205 159.194C258.455 156.463 260.484 153.133 262.265 149.26C262.537 148.689 262.785 148.068 263.031 147.472ZM265.974 145.013L264.245 149.26H273.766C273.792 152.91 273.593 158.027 273.173 164.585C272.777 171.14 272.158 174.667 271.343 175.213C270.502 175.735 269.735 175.985 269.018 175.985L261.349 176.034L263.254 180.33C268.695 180.305 272.109 179.982 273.52 179.335C274.929 178.716 275.995 177.721 276.686 176.406C277.354 175.065 277.897 170.669 278.244 163.218C278.591 155.766 278.788 149.682 278.837 145.013H265.974ZM262.611 156.387L258.134 158.773C260.955 161.604 263.575 165.105 266.049 169.302L270.525 166.844C269.042 163.938 266.396 160.46 262.611 156.387Z" fill="white"/>
<path d="M150.544 161.566V159.416H65.6661V161.566H150.544Z" fill="white"/>
<path d="M142.843 153.374L153.417 160.49L142.768 167.224" fill="white"/>
<path d="M336.782 208.156L334.177 208.317C334.133 208.093 334.037 207.892 333.89 207.713C333.743 207.53 333.549 207.385 333.309 207.277C333.073 207.166 332.79 207.11 332.461 207.11C332.02 207.11 331.648 207.204 331.345 207.391C331.042 207.575 330.891 207.821 330.891 208.129C330.891 208.375 330.989 208.583 331.185 208.753C331.381 208.923 331.717 209.059 332.193 209.162L334.05 209.537C335.048 209.743 335.791 210.074 336.281 210.53C336.771 210.986 337.016 211.585 337.016 212.327C337.016 213.002 336.818 213.595 336.422 214.105C336.03 214.614 335.491 215.012 334.805 215.298C334.124 215.58 333.338 215.721 332.447 215.721C331.089 215.721 330.007 215.437 329.201 214.869C328.4 214.297 327.93 213.519 327.792 212.535L330.59 212.388C330.675 212.804 330.88 213.121 331.205 213.34C331.53 213.555 331.946 213.662 332.454 213.662C332.953 213.662 333.353 213.566 333.656 213.374C333.964 213.177 334.119 212.924 334.124 212.616C334.119 212.356 334.01 212.144 333.797 211.979C333.583 211.809 333.253 211.679 332.808 211.59L331.031 211.234C330.029 211.033 329.283 210.684 328.794 210.188C328.308 209.692 328.066 209.059 328.066 208.29C328.066 207.628 328.244 207.058 328.6 206.58C328.961 206.101 329.466 205.733 330.116 205.473C330.771 205.214 331.537 205.084 332.414 205.084C333.71 205.084 334.729 205.359 335.473 205.909C336.221 206.459 336.658 207.208 336.782 208.156Z" fill="white"/>
<path d="M320.965 219.597C320.044 219.597 319.253 219.47 318.594 219.215C317.94 218.965 317.419 218.623 317.031 218.189C316.644 217.755 316.392 217.268 316.277 216.727L318.908 216.371C318.988 216.577 319.115 216.769 319.289 216.948C319.463 217.127 319.692 217.27 319.977 217.377C320.266 217.489 320.618 217.545 321.032 217.545C321.651 217.545 322.161 217.393 322.562 217.089C322.967 216.789 323.17 216.286 323.17 215.58V213.695H323.049C322.925 213.982 322.738 214.252 322.488 214.507C322.239 214.762 321.918 214.97 321.527 215.131C321.135 215.292 320.667 215.372 320.124 215.372C319.354 215.372 318.652 215.193 318.02 214.836C317.392 214.473 316.891 213.921 316.517 213.179C316.147 212.432 315.963 211.489 315.963 210.349C315.963 209.182 316.152 208.207 316.53 207.425C316.909 206.642 317.412 206.057 318.04 205.668C318.672 205.279 319.365 205.084 320.117 205.084C320.692 205.084 321.173 205.183 321.56 205.379C321.947 205.572 322.259 205.813 322.495 206.104C322.736 206.39 322.92 206.671 323.049 206.949H323.156V205.218H325.982V215.62C325.982 216.497 325.768 217.23 325.341 217.82C324.913 218.41 324.321 218.853 323.564 219.148C322.811 219.447 321.945 219.597 320.965 219.597ZM321.026 213.226C321.484 213.226 321.872 213.112 322.188 212.884C322.508 212.651 322.753 212.321 322.923 211.891C323.096 211.458 323.183 210.939 323.183 210.335C323.183 209.732 323.098 209.209 322.929 208.766C322.76 208.319 322.515 207.973 322.195 207.727C321.874 207.481 321.484 207.358 321.026 207.358C320.558 207.358 320.164 207.485 319.843 207.74C319.523 207.99 319.28 208.339 319.115 208.786C318.951 209.233 318.868 209.75 318.868 210.335C318.868 210.93 318.951 211.444 319.115 211.878C319.285 212.307 319.527 212.64 319.843 212.877C320.164 213.11 320.558 213.226 321.026 213.226Z" fill="white"/>
<path d="M307.488 209.564V215.52H304.643V205.218H307.355V207.036H307.475C307.702 206.437 308.083 205.963 308.617 205.614C309.151 205.261 309.799 205.084 310.561 205.084C311.273 205.084 311.894 205.241 312.424 205.554C312.954 205.867 313.366 206.314 313.66 206.895C313.954 207.472 314.101 208.16 314.101 208.961V215.52H311.255V209.47C311.26 208.84 311.099 208.348 310.774 207.995C310.449 207.637 310.002 207.458 309.432 207.458C309.049 207.458 308.71 207.541 308.417 207.707C308.127 207.872 307.9 208.113 307.735 208.431C307.575 208.744 307.493 209.122 307.488 209.564Z" fill="white"/>
<path d="M299.518 215.52V205.218H302.363V215.52H299.518ZM300.947 203.891C300.524 203.891 300.161 203.75 299.859 203.468C299.56 203.182 299.411 202.84 299.411 202.442C299.411 202.049 299.56 201.711 299.859 201.429C300.161 201.143 300.524 201 300.947 201C301.37 201 301.731 201.143 302.029 201.429C302.332 201.711 302.484 202.049 302.484 202.442C302.484 202.84 302.332 203.182 302.029 203.468C301.731 203.75 301.37 203.891 300.947 203.891Z" fill="white"/>
<path d="M290.626 209.564V215.52H287.78V201.785H290.546V207.036H290.666C290.897 206.428 291.271 205.952 291.788 205.607C292.304 205.259 292.952 205.084 293.732 205.084C294.444 205.084 295.065 205.241 295.595 205.554C296.13 205.862 296.544 206.307 296.838 206.888C297.136 207.465 297.283 208.156 297.278 208.961V215.52H294.433V209.47C294.437 208.835 294.277 208.341 293.952 207.988C293.631 207.635 293.182 207.458 292.603 207.458C292.215 207.458 291.873 207.541 291.574 207.707C291.28 207.872 291.049 208.113 290.88 208.431C290.715 208.744 290.63 209.122 290.626 209.564Z" fill="white"/>
<path d="M285.707 205.218V207.365H279.528V205.218H285.707ZM280.931 202.75H283.776V212.354C283.776 212.618 283.816 212.824 283.897 212.971C283.977 213.114 284.088 213.215 284.23 213.273C284.377 213.331 284.547 213.36 284.738 213.36C284.872 213.36 285.005 213.349 285.139 213.327C285.272 213.3 285.375 213.28 285.446 213.266L285.894 215.392C285.751 215.437 285.551 215.488 285.293 215.547C285.034 215.609 284.72 215.647 284.351 215.661C283.665 215.687 283.064 215.596 282.547 215.386C282.035 215.175 281.637 214.849 281.352 214.406C281.067 213.964 280.926 213.405 280.931 212.73V202.75Z" fill="white"/>
<path d="M274.043 205.218V207.365H267.864V205.218H274.043ZM269.267 202.75H272.112V212.354C272.112 212.618 272.152 212.824 272.232 212.971C272.313 213.114 272.424 213.215 272.566 213.273C272.713 213.331 272.883 213.36 273.074 213.36C273.208 213.36 273.341 213.349 273.475 213.327C273.608 213.3 273.711 213.28 273.782 213.266L274.23 215.392C274.087 215.437 273.887 215.488 273.628 215.547C273.37 215.609 273.056 215.647 272.687 215.661C272.001 215.687 271.4 215.596 270.883 215.386C270.371 215.175 269.973 214.849 269.688 214.406C269.403 213.964 269.262 213.405 269.267 212.73V202.75Z" fill="white"/>
<path d="M266.306 201.785V215.52H263.461V201.785H266.306Z" fill="white"/>
<path d="M258.339 211.134V205.218H261.185V215.52H258.453V213.648H258.346C258.114 214.252 257.729 214.737 257.19 215.104C256.656 215.47 256.004 215.654 255.233 215.654C254.548 215.654 253.944 215.497 253.423 215.184C252.902 214.871 252.495 214.426 252.201 213.85C251.911 213.273 251.764 212.582 251.76 211.777V205.218H254.605V211.268C254.61 211.876 254.772 212.356 255.093 212.71C255.414 213.063 255.843 213.239 256.382 213.239C256.725 213.239 257.046 213.161 257.344 213.005C257.642 212.844 257.883 212.607 258.065 212.294C258.252 211.981 258.344 211.594 258.339 211.134Z" fill="white"/>
<path d="M245.356 215.721C244.305 215.721 243.401 215.497 242.644 215.05C241.892 214.599 241.313 213.973 240.908 213.172C240.507 212.372 240.306 211.451 240.306 210.409C240.306 209.354 240.509 208.429 240.914 207.633C241.324 206.832 241.905 206.209 242.658 205.762C243.41 205.31 244.305 205.084 245.343 205.084C246.238 205.084 247.021 205.247 247.694 205.574C248.366 205.9 248.898 206.359 249.29 206.949C249.682 207.539 249.898 208.232 249.938 209.028H247.253C247.177 208.514 246.977 208.1 246.652 207.787C246.331 207.47 245.91 207.311 245.389 207.311C244.949 207.311 244.563 207.432 244.234 207.673C243.909 207.91 243.655 208.256 243.472 208.713C243.29 209.169 243.199 209.721 243.199 210.369C243.199 211.026 243.288 211.585 243.466 212.046C243.648 212.506 243.904 212.857 244.234 213.099C244.563 213.34 244.949 213.461 245.389 213.461C245.714 213.461 246.006 213.394 246.264 213.26C246.527 213.125 246.743 212.931 246.912 212.676C247.086 212.417 247.2 212.106 247.253 211.744H249.938C249.894 212.531 249.68 213.224 249.297 213.823C248.918 214.418 248.395 214.883 247.727 215.218C247.059 215.553 246.269 215.721 245.356 215.721Z" fill="white"/>
<path d="M226.436 207.323H224.009V215.52H221.207V207.323H219.664V205.964L221.207 205.208V204.453C221.207 203.571 221.351 202.892 221.639 202.413C221.94 201.922 222.36 201.576 222.899 201.374C223.451 201.173 224.097 201.072 224.837 201.072C225.388 201.072 225.884 201.116 226.323 201.204C226.774 201.293 227.138 201.393 227.414 201.507L226.699 203.565C226.486 203.502 226.254 203.446 226.003 203.395C225.752 203.332 225.464 203.301 225.138 203.301C224.749 203.301 224.461 203.42 224.272 203.66C224.097 203.899 224.009 204.201 224.009 204.566V205.208H226.436V207.323ZM233.715 207.323H231.288V215.52H228.486V207.323H226.943V205.964L228.486 205.208V204.453C228.486 203.571 228.63 202.892 228.918 202.413C229.219 201.922 229.639 201.576 230.179 201.374C230.73 201.173 231.376 201.072 232.116 201.072C232.668 201.072 233.163 201.116 233.602 201.204C234.053 201.293 234.417 201.393 234.693 201.507L233.978 203.565C233.765 203.502 233.533 203.446 233.282 203.395C233.031 203.332 232.743 203.301 232.417 203.301C232.028 203.301 231.74 203.42 231.552 203.66C231.376 203.899 231.288 204.201 231.288 204.566V205.208H233.715V207.323ZM238.116 205.208V215.52H235.313V205.208H238.116ZM236.724 201.167C237.138 201.167 237.495 201.267 237.796 201.469C238.097 201.658 238.248 202.017 238.248 202.545C238.248 203.062 238.097 203.42 237.796 203.622C237.495 203.823 237.138 203.924 236.724 203.924C236.298 203.924 235.934 203.823 235.633 203.622C235.345 203.42 235.201 203.062 235.201 202.545C235.201 202.017 235.345 201.658 235.633 201.469C235.934 201.267 236.298 201.167 236.724 201.167Z" fill="white"/>
<path d="M215.299 215.52V205.218H218.144V215.52H215.299ZM216.728 203.891C216.305 203.891 215.942 203.75 215.64 203.468C215.341 203.182 215.192 202.84 215.192 202.442C215.192 202.049 215.341 201.711 215.64 201.429C215.942 201.143 216.305 201 216.728 201C217.151 201 217.512 201.143 217.81 201.429C218.113 201.711 218.265 202.049 218.265 202.442C218.265 202.84 218.113 203.182 217.81 203.468C217.512 203.75 217.151 203.891 216.728 203.891Z" fill="white"/>
<path d="M207.122 215.687C206.342 215.687 205.637 215.486 205.004 215.084C204.376 214.677 203.878 214.08 203.508 213.293C203.143 212.502 202.96 211.531 202.96 210.382C202.96 209.202 203.15 208.221 203.528 207.438C203.907 206.651 204.41 206.063 205.038 205.674C205.67 205.281 206.362 205.084 207.115 205.084C207.689 205.084 208.168 205.183 208.551 205.379C208.938 205.572 209.25 205.813 209.486 206.104C209.727 206.39 209.909 206.671 210.034 206.949H210.121V201.785H212.959V215.52H210.154V213.87H210.034C209.9 214.156 209.711 214.44 209.466 214.722C209.226 214.999 208.912 215.229 208.524 215.412C208.141 215.596 207.674 215.687 207.122 215.687ZM208.023 213.414C208.482 213.414 208.869 213.289 209.186 213.038C209.506 212.783 209.751 212.428 209.92 211.972C210.094 211.516 210.181 210.982 210.181 210.369C210.181 209.756 210.096 209.224 209.927 208.773C209.758 208.321 209.513 207.973 209.192 207.727C208.872 207.481 208.482 207.358 208.023 207.358C207.556 207.358 207.162 207.485 206.841 207.74C206.521 207.995 206.278 208.348 206.113 208.8C205.948 209.251 205.866 209.774 205.866 210.369C205.866 210.968 205.948 211.498 206.113 211.958C206.282 212.415 206.525 212.772 206.841 213.032C207.162 213.286 207.556 213.414 208.023 213.414Z" fill="white"/>
<path d="M192.088 215.721C191.05 215.721 190.153 215.5 189.396 215.057C188.644 214.61 188.062 213.988 187.653 213.192C187.243 212.392 187.038 211.464 187.038 210.409C187.038 209.345 187.243 208.415 187.653 207.619C188.062 206.819 188.644 206.198 189.396 205.755C190.153 205.308 191.05 205.084 192.088 205.084C193.125 205.084 194.021 205.308 194.773 205.755C195.53 206.198 196.113 206.819 196.523 207.619C196.933 208.415 197.138 209.345 197.138 210.409C197.138 211.464 196.933 212.392 196.523 213.192C196.113 213.988 195.53 214.61 194.773 215.057C194.021 215.5 193.125 215.721 192.088 215.721ZM192.101 213.508C192.573 213.508 192.967 213.374 193.284 213.105C193.6 212.833 193.838 212.461 193.998 211.992C194.163 211.523 194.245 210.988 194.245 210.389C194.245 209.79 194.163 209.256 193.998 208.786C193.838 208.317 193.6 207.946 193.284 207.673C192.967 207.4 192.573 207.264 192.101 207.264C191.625 207.264 191.224 207.4 190.899 207.673C190.578 207.946 190.336 208.317 190.171 208.786C190.011 209.256 189.93 209.79 189.93 210.389C189.93 210.988 190.011 211.523 190.171 211.992C190.336 212.461 190.578 212.833 190.899 213.105C191.224 213.374 191.625 213.508 192.101 213.508Z" fill="white"/>
<path d="M178.671 215.52H173.822V201.785H178.711C180.087 201.785 181.271 202.06 182.264 202.61C183.257 203.155 184.021 203.94 184.555 204.964C185.094 205.987 185.364 207.212 185.364 208.639C185.364 210.069 185.094 211.299 184.555 212.327C184.021 213.356 183.253 214.145 182.251 214.695C181.253 215.245 180.06 215.52 178.671 215.52ZM176.714 213.032H178.551C179.406 213.032 180.125 212.88 180.708 212.575C181.296 212.267 181.737 211.791 182.031 211.147C182.329 210.499 182.478 209.663 182.478 208.639C182.478 207.624 182.329 206.794 182.031 206.151C181.737 205.507 181.298 205.033 180.715 204.729C180.131 204.425 179.412 204.273 178.557 204.273H176.714V213.032Z" fill="white"/>
<path d="M205.268 225.709V231.665H202.423V217.93H205.188V223.181H205.308C205.54 222.573 205.914 222.097 206.43 221.752C206.947 221.404 207.595 221.229 208.374 221.229C209.086 221.229 209.708 221.386 210.237 221.699C210.772 222.007 211.186 222.452 211.48 223.033C211.778 223.61 211.925 224.301 211.921 225.106V231.665H209.075V225.615C209.08 224.981 208.919 224.486 208.594 224.133C208.274 223.78 207.824 223.603 207.245 223.603C206.858 223.603 206.515 223.686 206.216 223.852C205.923 224.017 205.691 224.258 205.522 224.576C205.357 224.889 205.272 225.267 205.268 225.709Z" fill="white"/>
<path d="M200.349 221.363V223.51H194.17V221.363H200.349ZM195.573 218.895H198.418V228.499C198.418 228.763 198.458 228.969 198.539 229.116C198.619 229.259 198.73 229.36 198.873 229.418C199.019 229.476 199.189 229.505 199.38 229.505C199.514 229.505 199.647 229.494 199.781 229.472C199.915 229.445 200.017 229.425 200.088 229.411L200.536 231.537C200.393 231.582 200.193 231.633 199.935 231.692C199.676 231.754 199.362 231.792 198.993 231.806C198.307 231.832 197.706 231.741 197.189 231.531C196.677 231.32 196.279 230.994 195.994 230.551C195.709 230.109 195.568 229.55 195.573 228.875V218.895Z" fill="white"/>
<path d="M189.767 231.665V221.363H192.612V231.665H189.767ZM191.196 220.036C190.773 220.036 190.41 219.895 190.108 219.613C189.809 219.327 189.66 218.985 189.66 218.587C189.66 218.194 189.809 217.856 190.108 217.574C190.41 217.288 190.773 217.145 191.196 217.145C191.619 217.145 191.98 217.288 192.278 217.574C192.581 217.856 192.733 218.194 192.733 218.587C192.733 218.985 192.581 219.327 192.278 219.613C191.98 219.895 191.619 220.036 191.196 220.036Z" fill="white"/>
<path d="M175.792 231.665L173 221.363H175.879L177.469 228.285H177.562L179.219 221.363H182.044L183.727 228.244H183.814L185.377 221.363H188.249L185.464 231.665H182.451L180.688 225.186H180.561L178.798 231.665H175.792Z" fill="white"/>
<path d="M316.736 248.011C315.685 248.011 314.781 247.787 314.024 247.34C313.271 246.888 312.693 246.263 312.287 245.462C311.887 244.662 311.686 243.741 311.686 242.699C311.686 241.644 311.889 240.718 312.294 239.923C312.704 239.122 313.285 238.499 314.037 238.051C314.79 237.6 315.685 237.374 316.723 237.374C317.618 237.374 318.401 237.537 319.074 237.864C319.746 238.19 320.278 238.648 320.67 239.239C321.062 239.829 321.278 240.522 321.318 241.318H318.633C318.557 240.803 318.357 240.39 318.032 240.077C317.711 239.759 317.29 239.601 316.769 239.601C316.328 239.601 315.943 239.721 315.614 239.963C315.289 240.2 315.035 240.546 314.852 241.002C314.67 241.458 314.578 242.011 314.578 242.659C314.578 243.316 314.667 243.875 314.846 244.335C315.028 244.796 315.284 245.147 315.614 245.388C315.943 245.63 316.328 245.751 316.769 245.751C317.094 245.751 317.386 245.684 317.644 245.549C317.907 245.415 318.123 245.221 318.292 244.966C318.466 244.707 318.579 244.396 318.633 244.034H321.318C321.273 244.821 321.06 245.514 320.677 246.113C320.298 246.707 319.775 247.172 319.107 247.508C318.439 247.843 317.649 248.011 316.736 248.011Z" fill="white"/>
<path d="M306.976 247.81V237.508H309.821V247.81H306.976ZM308.405 236.18C307.982 236.18 307.619 236.04 307.316 235.758C307.018 235.472 306.869 235.13 306.869 234.732C306.869 234.338 307.018 234.001 307.316 233.719C307.619 233.433 307.982 233.29 308.405 233.29C308.828 233.29 309.189 233.433 309.487 233.719C309.79 234.001 309.941 234.338 309.941 234.732C309.941 235.13 309.79 235.472 309.487 235.758C309.189 236.04 308.828 236.18 308.405 236.18Z" fill="white"/>
<path d="M299.695 251.887C298.773 251.887 297.983 251.76 297.324 251.505C296.669 251.254 296.148 250.912 295.761 250.479C295.374 250.045 295.122 249.558 295.006 249.017L297.638 248.661C297.718 248.867 297.845 249.059 298.019 249.238C298.192 249.417 298.422 249.56 298.707 249.667C298.996 249.779 299.348 249.835 299.762 249.835C300.381 249.835 300.891 249.683 301.292 249.379C301.697 249.079 301.899 248.576 301.899 247.87V245.985H301.779C301.654 246.271 301.467 246.542 301.218 246.797C300.969 247.052 300.648 247.26 300.256 247.42C299.864 247.581 299.397 247.662 298.854 247.662C298.083 247.662 297.382 247.483 296.75 247.125C296.122 246.763 295.621 246.211 295.247 245.469C294.877 244.722 294.692 243.779 294.692 242.639C294.692 241.472 294.882 240.497 295.26 239.715C295.639 238.932 296.142 238.347 296.77 237.958C297.402 237.569 298.094 237.374 298.847 237.374C299.421 237.374 299.902 237.472 300.29 237.669C300.677 237.861 300.989 238.103 301.225 238.393C301.465 238.68 301.65 238.961 301.779 239.239H301.886V237.508H304.711V247.91C304.711 248.786 304.498 249.52 304.07 250.11C303.643 250.7 303.05 251.143 302.293 251.438C301.541 251.737 300.675 251.887 299.695 251.887ZM299.755 245.516C300.214 245.516 300.601 245.402 300.918 245.174C301.238 244.941 301.483 244.61 301.652 244.181C301.826 243.748 301.913 243.229 301.913 242.625C301.913 242.022 301.828 241.499 301.659 241.056C301.49 240.609 301.245 240.262 300.924 240.016C300.604 239.771 300.214 239.648 299.755 239.648C299.288 239.648 298.894 239.775 298.573 240.03C298.252 240.28 298.01 240.629 297.845 241.076C297.68 241.523 297.598 242.04 297.598 242.625C297.598 243.22 297.68 243.734 297.845 244.168C298.014 244.597 298.257 244.93 298.573 245.167C298.894 245.4 299.288 245.516 299.755 245.516Z" fill="white"/>
<path d="M288.173 248.011C287.136 248.011 286.238 247.789 285.481 247.347C284.729 246.9 284.148 246.278 283.738 245.482C283.328 244.682 283.124 243.754 283.124 242.699C283.124 241.635 283.328 240.705 283.738 239.909C284.148 239.109 284.729 238.487 285.481 238.045C286.238 237.598 287.136 237.374 288.173 237.374C289.211 237.374 290.106 237.598 290.858 238.045C291.615 238.487 292.199 239.109 292.608 239.909C293.018 240.705 293.223 241.635 293.223 242.699C293.223 243.754 293.018 244.682 292.608 245.482C292.199 246.278 291.615 246.9 290.858 247.347C290.106 247.789 289.211 248.011 288.173 248.011ZM288.187 245.798C288.659 245.798 289.053 245.663 289.369 245.395C289.685 245.122 289.923 244.751 290.084 244.282C290.248 243.812 290.331 243.278 290.331 242.679C290.331 242.08 290.248 241.546 290.084 241.076C289.923 240.607 289.685 240.236 289.369 239.963C289.053 239.69 288.659 239.554 288.187 239.554C287.71 239.554 287.309 239.69 286.984 239.963C286.664 240.236 286.421 240.607 286.256 241.076C286.096 241.546 286.016 242.08 286.016 242.679C286.016 243.278 286.096 243.812 286.256 244.282C286.421 244.751 286.664 245.122 286.984 245.395C287.309 245.663 287.71 245.798 288.187 245.798Z" fill="white"/>
<path d="M281.258 234.074V247.809H278.413V234.074H281.258Z" fill="white"/>
<path d="M267.494 248.011C266.438 248.011 265.53 247.796 264.768 247.367C264.011 246.933 263.428 246.321 263.018 245.529C262.609 244.733 262.404 243.792 262.404 242.706C262.404 241.646 262.609 240.716 263.018 239.916C263.428 239.116 264.005 238.492 264.748 238.045C265.496 237.598 266.374 237.374 267.38 237.374C268.057 237.374 268.687 237.484 269.27 237.703C269.858 237.917 270.37 238.241 270.807 238.675C271.247 239.109 271.59 239.654 271.835 240.312C272.08 240.964 272.203 241.729 272.203 242.605V243.39H263.539V241.619H269.524C269.524 241.208 269.435 240.844 269.257 240.526C269.079 240.209 268.832 239.961 268.516 239.782C268.204 239.598 267.841 239.507 267.427 239.507C266.995 239.507 266.612 239.607 266.278 239.809C265.948 240.005 265.69 240.271 265.503 240.607C265.316 240.938 265.22 241.306 265.216 241.713V243.397C265.216 243.906 265.309 244.347 265.496 244.718C265.688 245.089 265.957 245.375 266.305 245.576C266.652 245.777 267.064 245.878 267.54 245.878C267.857 245.878 268.146 245.833 268.409 245.744C268.671 245.654 268.896 245.52 269.083 245.341C269.27 245.163 269.413 244.944 269.511 244.684L272.143 244.859C272.009 245.493 271.735 246.048 271.321 246.522C270.911 246.991 270.381 247.358 269.731 247.622C269.086 247.881 268.34 248.011 267.494 248.011Z" fill="white"/>
<path d="M260.539 234.074V247.809H257.693V234.074H260.539Z" fill="white"/>
<path d="M245.791 251.672V237.508H248.596V239.239H248.723C248.847 238.961 249.028 238.68 249.264 238.393C249.504 238.103 249.816 237.861 250.199 237.669C250.586 237.472 251.067 237.374 251.642 237.374C252.39 237.374 253.08 237.571 253.712 237.964C254.345 238.353 254.85 238.941 255.229 239.728C255.607 240.511 255.796 241.492 255.796 242.672C255.796 243.821 255.611 244.792 255.242 245.583C254.877 246.37 254.378 246.967 253.746 247.374C253.118 247.776 252.414 247.977 251.635 247.977C251.083 247.977 250.613 247.885 250.226 247.702C249.843 247.519 249.529 247.289 249.284 247.011C249.039 246.73 248.852 246.446 248.723 246.16H248.636V251.672H245.791ZM248.576 242.659C248.576 243.271 248.66 243.806 248.83 244.262C248.999 244.718 249.244 245.073 249.564 245.328C249.885 245.578 250.275 245.704 250.733 245.704C251.196 245.704 251.588 245.576 251.909 245.321C252.229 245.062 252.472 244.704 252.637 244.248C252.806 243.788 252.891 243.258 252.891 242.659C252.891 242.064 252.808 241.541 252.644 241.09C252.479 240.638 252.236 240.285 251.916 240.03C251.595 239.775 251.201 239.648 250.733 239.648C250.27 239.648 249.878 239.771 249.558 240.016C249.242 240.262 248.999 240.611 248.83 241.063C248.66 241.514 248.576 242.046 248.576 242.659Z" fill="white"/>
<path d="M228.635 247.809V237.508H231.346V239.326H231.467C231.68 238.722 232.037 238.246 232.535 237.897C233.034 237.548 233.631 237.374 234.325 237.374C235.029 237.374 235.628 237.551 236.122 237.904C236.616 238.253 236.946 238.727 237.111 239.326H237.218C237.427 238.736 237.805 238.264 238.353 237.911C238.905 237.553 239.558 237.374 240.31 237.374C241.268 237.374 242.045 237.68 242.641 238.293C243.242 238.901 243.543 239.764 243.543 240.882V247.809H240.704V241.445C240.704 240.873 240.553 240.443 240.25 240.157C239.947 239.871 239.569 239.728 239.115 239.728C238.598 239.728 238.195 239.894 237.906 240.224C237.616 240.551 237.471 240.982 237.471 241.519V247.809H234.713V241.385C234.713 240.879 234.568 240.477 234.279 240.177C233.994 239.878 233.617 239.728 233.15 239.728C232.834 239.728 232.549 239.809 232.295 239.97C232.045 240.126 231.847 240.347 231.7 240.633C231.553 240.915 231.48 241.246 231.48 241.626V247.809H228.635Z" fill="white"/>
<path d="M223.51 247.81V237.508H226.355V247.81H223.51ZM224.939 236.18C224.516 236.18 224.153 236.04 223.85 235.758C223.552 235.472 223.403 235.13 223.403 234.732C223.403 234.338 223.552 234.001 223.85 233.719C224.153 233.433 224.516 233.29 224.939 233.29C225.362 233.29 225.723 233.433 226.021 233.719C226.324 234.001 226.475 234.338 226.475 234.732C226.475 235.13 226.324 235.472 226.021 235.758C225.723 236.04 225.362 236.18 224.939 236.18Z" fill="white"/>
<path d="M221.484 240.446L218.879 240.607C218.835 240.383 218.739 240.182 218.592 240.003C218.445 239.82 218.251 239.674 218.011 239.567C217.775 239.455 217.492 239.399 217.163 239.399C216.722 239.399 216.35 239.493 216.047 239.681C215.744 239.864 215.593 240.11 215.593 240.419C215.593 240.665 215.691 240.873 215.887 241.043C216.083 241.212 216.419 241.349 216.895 241.452L218.752 241.827C219.75 242.033 220.493 242.364 220.983 242.82C221.473 243.276 221.718 243.875 221.718 244.617C221.718 245.292 221.52 245.885 221.124 246.394C220.732 246.904 220.193 247.302 219.507 247.588C218.826 247.87 218.04 248.011 217.149 248.011C215.791 248.011 214.709 247.727 213.903 247.159C213.102 246.587 212.632 245.809 212.494 244.825L215.292 244.678C215.377 245.093 215.582 245.411 215.907 245.63C216.232 245.844 216.648 245.952 217.156 245.952C217.655 245.952 218.055 245.856 218.358 245.663C218.666 245.467 218.821 245.214 218.826 244.906C218.821 244.646 218.712 244.434 218.499 244.268C218.285 244.099 217.955 243.969 217.51 243.879L215.733 243.524C214.731 243.323 213.986 242.974 213.496 242.478C213.01 241.981 212.768 241.349 212.768 240.58C212.768 239.918 212.946 239.348 213.302 238.87C213.663 238.391 214.168 238.022 214.818 237.763C215.473 237.504 216.239 237.374 217.116 237.374C218.412 237.374 219.431 237.649 220.175 238.199C220.923 238.749 221.36 239.498 221.484 240.446Z" fill="white"/>
<path d="M3.688 363.27V361.91C6.92 359.03 8.808 356.806 8.808 354.966C8.808 353.798 8.168 353.062 7.032 353.062C6.168 353.062 5.464 353.622 4.872 354.278L3.56 353.014C4.664 351.83 5.72 351.206 7.336 351.206C9.576 351.206 11.064 352.646 11.064 354.854C11.064 356.998 9.272 359.302 7.112 361.43C7.72 361.35 8.504 361.286 9.064 361.286H11.624V363.27H3.688ZM17.1575 363.494C14.7415 363.494 13.1415 361.382 13.1415 357.286C13.1415 353.206 14.7415 351.206 17.1575 351.206C19.5735 351.206 21.1735 353.222 21.1735 357.286C21.1735 361.382 19.5735 363.494 17.1575 363.494ZM17.1575 361.654C18.1815 361.654 18.9335 360.63 18.9335 357.286C18.9335 353.99 18.1815 353.014 17.1575 353.014C16.1335 353.014 15.3655 353.99 15.3655 357.286C15.3655 360.63 16.1335 361.654 17.1575 361.654ZM22.563 363.27V361.91C25.795 359.03 27.683 356.806 27.683 354.966C27.683 353.798 27.043 353.062 25.907 353.062C25.043 353.062 24.339 353.622 23.747 354.278L22.435 353.014C23.539 351.83 24.595 351.206 26.211 351.206C28.451 351.206 29.939 352.646 29.939 354.854C29.939 356.998 28.147 359.302 25.987 361.43C26.595 361.35 27.379 361.286 27.939 361.286H30.499V363.27H22.563ZM36.3685 363.494C34.1285 363.494 32.1125 361.67 32.1125 357.51C32.1125 353.094 34.3045 351.206 36.6885 351.206C38.1445 351.206 39.2005 351.814 39.9045 352.55L38.6565 353.958C38.2405 353.494 37.5205 353.094 36.8485 353.094C35.4725 353.094 34.3685 354.118 34.2565 357.062C34.9125 356.262 35.9205 355.814 36.6725 355.814C38.6565 355.814 40.0805 356.998 40.0805 359.526C40.0805 361.958 38.3845 363.494 36.3685 363.494ZM34.3045 358.726C34.5285 360.886 35.3285 361.718 36.3205 361.718C37.2165 361.718 37.9365 360.966 37.9365 359.526C37.9365 358.118 37.2645 357.478 36.2405 357.478C35.6165 357.478 34.8965 357.83 34.3045 358.726ZM41.39 359.43H43.934V355.222H48.638V353.286H45.198C44.526 354.438 43.774 355.462 43.006 356.23C42.638 355.894 41.822 355.27 41.342 354.982C42.782 353.75 44.03 351.702 44.718 349.606L46.686 350.118C46.526 350.566 46.35 350.998 46.158 351.43H55.246V353.286H50.622V355.222H54.862V357.014H50.622V359.43H56.11V361.27H50.622V364.71H48.638V361.27H41.39V359.43ZM45.854 359.43H48.638V357.014H45.854V359.43ZM61.118 363.494C59.262 363.494 57.998 362.79 57.166 361.846L58.27 360.358C58.974 361.046 59.822 361.574 60.91 361.574C62.11 361.574 62.926 360.982 62.926 359.926C62.926 358.758 62.238 358.038 59.678 358.038V356.342C61.838 356.342 62.542 355.606 62.542 354.534C62.542 353.606 61.966 353.062 60.958 353.062C60.11 353.062 59.422 353.446 58.734 354.102L57.518 352.646C58.542 351.766 59.678 351.206 61.07 351.206C63.358 351.206 64.91 352.326 64.91 354.358C64.91 355.638 64.19 356.566 62.942 357.062V357.142C64.27 357.51 65.294 358.502 65.294 360.07C65.294 362.246 63.39 363.494 61.118 363.494ZM69.1795 350.438H79.6435V362.262C79.6435 363.414 79.3555 363.974 78.6195 364.294C77.8515 364.63 76.7315 364.662 75.0675 364.662C74.9555 364.102 74.5715 363.174 74.2675 362.646C75.4035 362.71 76.7315 362.694 77.0995 362.694C77.4835 362.694 77.5955 362.566 77.5955 362.23V359.91H70.7315C70.3155 361.702 69.5155 363.462 68.0115 364.71C67.7235 364.31 66.9555 363.59 66.5235 363.318C68.9715 361.254 69.1795 358.166 69.1795 355.718V350.438ZM71.1635 352.31V354.262H77.5955V352.31H71.1635ZM71.1635 356.086C71.1475 356.694 71.1155 357.366 71.0515 358.038H77.5955V356.086H71.1635ZM82.8755 363.27V361.91C86.1075 359.03 87.9955 356.806 87.9955 354.966C87.9955 353.798 87.3555 353.062 86.2195 353.062C85.3555 353.062 84.6515 353.622 84.0595 354.278L82.7475 353.014C83.8515 351.83 84.9075 351.206 86.5235 351.206C88.7635 351.206 90.2515 352.646 90.2515 354.854C90.2515 356.998 88.4595 359.302 86.2995 361.43C86.9075 361.35 87.6915 361.286 88.2515 361.286H90.8115V363.27H82.8755ZM96.681 363.494C94.441 363.494 92.425 361.67 92.425 357.51C92.425 353.094 94.617 351.206 97.001 351.206C98.457 351.206 99.513 351.814 100.217 352.55L98.969 353.958C98.553 353.494 97.833 353.094 97.161 353.094C95.785 353.094 94.681 354.118 94.569 357.062C95.225 356.262 96.233 355.814 96.985 355.814C98.969 355.814 100.393 356.998 100.393 359.526C100.393 361.958 98.697 363.494 96.681 363.494ZM94.617 358.726C94.841 360.886 95.641 361.718 96.633 361.718C97.529 361.718 98.249 360.966 98.249 359.526C98.249 358.118 97.577 357.478 96.553 357.478C95.929 357.478 95.209 357.83 94.617 358.726ZM105.495 357.91V361.526H112.631V357.91H105.495ZM105.495 356.022H112.631V352.582H105.495V356.022ZM103.527 350.646H114.695V364.486H112.631V363.462H105.495V364.518H103.527V350.646ZM117.847 359.542V357.846H122.215V359.542H117.847ZM127.352 363.494C125.496 363.494 124.232 362.79 123.4 361.846L124.504 360.358C125.208 361.046 126.056 361.574 127.144 361.574C128.344 361.574 129.16 360.982 129.16 359.926C129.16 358.758 128.472 358.038 125.912 358.038V356.342C128.072 356.342 128.776 355.606 128.776 354.534C128.776 353.606 128.2 353.062 127.192 353.062C126.344 353.062 125.656 353.446 124.968 354.102L123.752 352.646C124.776 351.766 125.912 351.206 127.304 351.206C129.592 351.206 131.144 352.326 131.144 354.358C131.144 355.638 130.424 356.566 129.176 357.062V357.142C130.504 357.51 131.528 358.502 131.528 360.07C131.528 362.246 129.624 363.494 127.352 363.494ZM135.414 350.438H145.878V362.262C145.878 363.414 145.59 363.974 144.854 364.294C144.086 364.63 142.966 364.662 141.302 364.662C141.19 364.102 140.806 363.174 140.502 362.646C141.638 362.71 142.966 362.694 143.334 362.694C143.718 362.694 143.83 362.566 143.83 362.23V359.91H136.966C136.55 361.702 135.75 363.462 134.246 364.71C133.958 364.31 133.19 363.59 132.758 363.318C135.206 361.254 135.414 358.166 135.414 355.718V350.438ZM137.398 352.31V354.262H143.83V352.31H137.398ZM137.398 356.086C137.382 356.694 137.35 357.366 137.286 358.038H143.83V356.086H137.398ZM149.11 363.27V361.91C152.342 359.03 154.23 356.806 154.23 354.966C154.23 353.798 153.59 353.062 152.454 353.062C151.59 353.062 150.886 353.622 150.294 354.278L148.982 353.014C150.086 351.83 151.142 351.206 152.758 351.206C154.998 351.206 156.486 352.646 156.486 354.854C156.486 356.998 154.694 359.302 152.534 361.43C153.142 361.35 153.926 361.286 154.486 361.286H157.046V363.27H149.11ZM160.835 363.27C161.043 359.158 161.731 356.534 163.987 353.398H158.659V351.414H166.531V352.854C163.779 356.214 163.411 358.646 163.203 363.27H160.835ZM171.729 357.91V361.526H178.865V357.91H171.729ZM171.729 356.022H178.865V352.582H171.729V356.022ZM169.761 350.646H180.929V364.486H178.865V363.462H171.729V364.518H169.761V350.646Z" fill="white"/>
<path d="M4.696 327.408H17.48V329.28H11.688C11.64 330.176 11.592 331.088 11.48 331.984H18.36V333.872H13.08V338.448C13.08 339.072 13.192 339.152 13.88 339.152C14.184 339.152 15.464 339.152 15.832 339.152C16.488 339.152 16.584 338.832 16.68 336.768C17.096 337.104 17.976 337.44 18.52 337.568C18.296 340.304 17.752 341.04 15.992 341.04C15.576 341.04 14.008 341.04 13.608 341.04C11.576 341.04 11.048 340.416 11.048 338.48V334.352C10.296 337.232 8.616 339.824 4.76 341.408C4.488 340.912 3.96 340.208 3.464 339.808C7 338.464 8.504 336.304 9.176 333.872H3.736V331.984H9.528C9.64 331.088 9.688 330.176 9.72 329.28H4.696V327.408ZM27.976 330.816V331.68H31.816V330.816H27.976ZM27.976 328.56V329.424H31.816V328.56H27.976ZM26.328 327.072H33.56V333.168H28.984C28.84 333.504 28.68 333.84 28.504 334.16H34.328C34.328 334.16 34.296 334.64 34.28 334.864C34.04 338.704 33.8 340.24 33.336 340.784C33.032 341.184 32.712 341.312 32.264 341.376C31.896 341.44 31.304 341.456 30.68 341.424C30.664 340.944 30.488 340.256 30.232 339.808C30.744 339.856 31.176 339.872 31.416 339.872C31.608 339.872 31.752 339.84 31.896 339.68C32.152 339.392 32.344 338.32 32.52 335.696H31.928C31.24 338.08 30.04 340.144 28.552 341.456C28.312 341.216 27.736 340.736 27.416 340.512C28.792 339.408 29.832 337.68 30.424 335.696H29.768C29 337.536 27.736 339.2 26.376 340.256C26.184 340.032 25.736 339.6 25.4 339.36C22.696 340.72 22.168 341.008 21.864 341.296C21.704 340.976 21.272 340.384 21 340.128C21.368 339.872 21.992 339.232 21.992 338.384V335.952H19.816V334.224H21.992V332.656H20.728V331.456L20.216 331.984C20.088 331.568 19.624 330.56 19.336 330.096C20.28 329.216 21.144 327.856 21.624 326.448L23.304 326.96C23.176 327.296 23.048 327.648 22.888 327.984H25.736V329.728H21.976C21.72 330.16 21.448 330.56 21.144 330.944H25.4V332.656H23.592V334.224H25.496V335.696C26.216 334.992 26.84 334.112 27.288 333.168H26.328V327.072ZM25.544 339.104C26.664 338.24 27.624 337.04 28.248 335.696H27.544V335.68C27.08 336.32 26.552 336.88 26.04 337.328C25.768 337.056 25.16 336.544 24.808 336.304L25.24 335.952H23.592V338.384L25.32 337.584C25.352 338.032 25.448 338.672 25.544 339.104ZM43 331.872C44.12 331.872 45.048 332.8 45.048 333.92C45.048 335.04 44.12 335.968 43 335.968C41.88 335.968 40.952 335.04 40.952 333.92C40.952 332.8 41.88 331.872 43 331.872ZM55.416 333.696H57.352V338.576C57.352 339.2 57.48 339.264 58.296 339.264C58.664 339.264 60.2 339.264 60.664 339.264C61.4 339.264 61.528 338.976 61.624 337.12C62.024 337.424 62.872 337.744 63.416 337.872C63.16 340.448 62.616 341.12 60.808 341.12C60.344 341.12 58.504 341.12 58.088 341.12C55.96 341.12 55.416 340.528 55.416 338.592V333.696ZM62.952 334.592L64.776 334.064C65.544 335.616 66.248 337.6 66.44 338.944L64.456 339.536C64.312 338.256 63.672 336.208 62.952 334.592ZM53.048 334.16L54.856 334.72C54.52 336.384 54.008 338.432 53.256 339.76L51.432 338.816C52.168 337.6 52.744 335.824 53.048 334.16ZM57.704 331.904L59.368 331.088C60.264 332.32 61.208 333.968 61.56 335.088L59.752 336.016C59.464 334.912 58.568 333.2 57.704 331.904ZM60.952 326.4H62.856V328.336H66.104V330.192H62.856V331.712H60.952V330.192H57.032V331.696H55.128V330.192H51.944V328.336H55.128V326.4H57.032V328.336H60.952V326.4ZM71.24 333.904V334.848H78.792V333.904H71.24ZM71.24 331.536V332.464H78.792V331.536H71.24ZM67.752 337.312H73.944V336.384H69.336V330.016H73.816V326.4H75.8V327.488H81.576V329.104H75.8V330.016H80.792V336.384H75.944V337.312H82.296V339.04H75.944V341.424H73.944V339.04H67.752V337.312ZM91 331.872C92.12 331.872 93.048 332.8 93.048 333.92C93.048 335.04 92.12 335.968 91 335.968C89.88 335.968 88.952 335.04 88.952 333.92C88.952 332.8 89.88 331.872 91 331.872ZM105.912 326.416H108.024C108.008 327.664 107.992 329.024 107.864 330.416H114.248V332.384H108.632C109.688 335.648 111.672 338.352 114.68 339.648C114.2 340.064 113.544 340.88 113.24 341.44C110.296 339.968 108.44 337.392 107.208 334.08C106.856 335.296 106.328 336.48 105.576 337.568L106.04 337.248C107 338.096 108.264 339.312 108.856 340.144L107.144 341.392C106.664 340.64 105.64 339.536 104.728 338.64C103.768 339.712 102.504 340.672 100.856 341.44C100.552 340.928 99.96 340.224 99.416 339.808C103.368 338.096 104.904 335.296 105.512 332.384H99.896V330.416H105.784C105.912 329.024 105.896 327.648 105.912 326.416ZM116.088 327.952L117.144 326.592C118.024 326.96 119.144 327.584 119.704 328.08L118.584 329.584C118.072 329.072 116.968 328.368 116.088 327.952ZM115.48 332.208L116.504 330.832C117.384 331.168 118.52 331.76 119.08 332.24L117.992 333.76C117.464 333.264 116.36 332.608 115.48 332.208ZM115.704 340.288C116.312 339.04 117.16 337.008 117.8 335.12L119.336 336.128C118.792 337.84 118.104 339.696 117.448 341.264L115.704 340.288ZM125.224 326.944H130.104V339.44C130.104 340.208 129.96 340.672 129.464 340.944C128.984 341.232 128.312 341.28 127.32 341.264C127.24 340.832 127 340.096 126.744 339.68C127.336 339.712 127.928 339.712 128.12 339.712C128.328 339.696 128.392 339.632 128.392 339.408V336.224H126.76C126.552 338.128 126.024 340.112 124.84 341.488C124.536 341.2 123.8 340.72 123.416 340.528C123.752 340.144 124.024 339.712 124.248 339.248H121.208V340.336H119.576V333.712H121.176V331.264H119.112V329.52H121.176V326.912H122.92V329.52H124.76V331.264H122.92V333.712H124.456V338.784C125.144 337.072 125.224 335.072 125.224 333.392V326.944ZM126.904 328.64V330.736H128.392V328.64H126.904ZM126.904 332.416V333.392L126.888 334.544H128.392V332.416H126.904ZM121.208 335.36V337.6H122.792V335.36H121.208ZM133.08 326.432L134.824 326.784C134.712 327.408 134.6 328.032 134.456 328.656H136.184L136.472 328.592L137.72 328.944C137.4 330.208 136.936 331.6 136.52 332.512L135.064 332.016C135.24 331.568 135.432 330.976 135.592 330.352H134.008C133.624 331.648 133.144 332.816 132.6 333.712C132.328 333.376 131.624 332.72 131.24 332.432C132.136 330.992 132.76 328.704 133.08 326.432ZM133.448 341.488C133.272 341.056 132.696 340.304 132.376 339.968C132.76 339.664 133.384 338.928 133.384 338.128V332.144H135.16V337.648L136.456 336.56C136.584 337.024 136.856 337.68 137.048 338.016C134.184 340.512 133.704 341.056 133.448 341.472V341.488ZM144.936 326.512L146.232 328.048C144.472 328.72 142.056 329.056 139.8 329.2V330.832H144.344L144.664 330.784L145.864 331.104C145.496 333.824 144.776 335.984 143.704 337.68C144.472 338.64 145.416 339.408 146.552 339.904C146.152 340.272 145.592 340.976 145.32 341.472C144.216 340.896 143.32 340.128 142.552 339.184C141.704 340.112 140.728 340.864 139.592 341.44C139.336 340.96 138.84 340.24 138.456 339.856C139.624 339.344 140.632 338.56 141.464 337.552C140.728 336.176 140.184 334.56 139.768 332.784C139.688 334.976 139.384 337.664 138.456 339.856C138.2 340.448 137.912 341.008 137.56 341.504C137.224 341.184 136.408 340.608 135.976 340.432C137.784 337.824 137.928 334.016 137.928 331.424V327.648C140.44 327.52 143.256 327.168 144.936 326.512ZM143.784 332.544H141.352C141.64 333.76 142.04 334.896 142.552 335.92C143.096 334.928 143.496 333.792 143.784 332.544ZM151.672 335.2H155.016V330.496H157V332H161.912V333.744H157V335.2H161.16V341.232H159.208V340.608H153.56V341.232H151.672V335.2ZM153.56 338.912H159.208V336.96H153.56V338.912ZM154.248 326.784L156.184 326.4C156.504 326.928 156.792 327.616 156.968 328.192H162.312V330.016H150.776V332.272C150.776 334.896 150.536 338.912 149.032 341.44C148.664 341.104 147.8 340.512 147.32 340.32C148.696 338.016 148.792 334.624 148.792 332.256V328.192H154.824C154.68 327.712 154.472 327.2 154.248 326.784Z" fill="white"/>
<path d="M60.3 55.38V56.56H69.74V55.38H60.3ZM60.3 52.42V53.58H69.74V52.42H60.3ZM55.94 59.64H63.68V58.48H57.92V50.52H63.52V46H66V47.36H73.22V49.38H66V50.52H72.24V58.48H66.18V59.64H74.12V61.8H66.18V64.78H63.68V61.8H55.94V59.64ZM83.18 62.04H87.64V58.28H84.02V56.06H87.64V52.56H85.5C85.16 53.6 84.76 54.52 84.32 55.28C83.96 55 83.24 54.56 82.7 54.26V62.12C82.7 63.16 82.56 63.84 81.96 64.22C81.36 64.62 80.58 64.68 79.38 64.68C79.32 64.06 79.06 62.98 78.78 62.38C79.38 62.4 80.02 62.4 80.22 62.4C80.44 62.4 80.5 62.32 80.5 62.08V58.16H78.54C78.38 60.52 78.04 62.98 77.3 64.8C76.88 64.46 75.9 63.92 75.36 63.72C76.44 60.98 76.52 56.92 76.52 54V46.7H82.7V53.44C83.58 51.78 84.18 49.38 84.52 47.04L86.78 47.44C86.62 48.4 86.42 49.36 86.18 50.28H87.64V46.26H89.98V50.28H93.88V52.56H89.98V56.06H93.6V58.28H89.98V62.04H94.38V64.3H83.18V62.04ZM78.66 48.88V51.28H80.5V48.88H78.66ZM78.66 53.44V53.98L78.64 55.94H80.5V53.44H78.66ZM98.7 46L100.84 46.8C99.76 48.54 98.1 50.44 96.56 51.66C96.3 51.16 95.74 50.26 95.36 49.82C96.62 48.84 98.02 47.24 98.7 46ZM101.48 56.52H106.92V59.64L108.26 58.88C108.36 59.42 108.58 60.18 108.74 60.58C106.06 62.24 105.54 62.7 105.22 63.1C105.1 62.58 104.72 61.62 104.42 61.18C104.72 60.98 105.06 60.58 105.06 59.78V58.32H103.5V58.84C103.5 60.62 103.16 63.04 101.66 64.64C101.38 64.2 100.56 63.34 100.18 63.06C101.34 61.78 101.48 60.12 101.48 58.8V56.52ZM110.12 51.98L109.94 52.56C110.14 54.04 110.4 55.46 110.78 56.78C111.2 55.34 111.46 53.74 111.64 51.98H110.12ZM100.74 53.78H107.08C108.18 51.82 108.76 48.96 109.08 46.02L111.26 46.38C111.1 47.6 110.9 48.8 110.64 49.96H114.38V51.98H113.7C113.36 54.96 112.82 57.5 111.9 59.64C112.6 60.98 113.5 62.08 114.68 62.8C114.2 63.22 113.48 64.1 113.16 64.7C112.16 63.96 111.34 62.98 110.7 61.8C109.88 63 108.88 64.02 107.64 64.86C107.42 64.42 106.74 63.52 106.34 63.12C107.8 62.2 108.88 61 109.68 59.52C109.26 58.28 108.94 56.92 108.68 55.48L108.2 56.22C108.04 55.98 107.76 55.56 107.46 55.18V55.8H100.74V53.78ZM99.02 50.22L100.94 50.9V47.7H102.48V50.86H103.34V46H105.08V50.86H105.96V47.7H107.56V52.76H100.94V51.26C100.6 51.94 100.24 52.62 99.82 53.32V64.8H97.64V56.46C97.26 56.94 96.88 57.38 96.5 57.76C96.28 57.26 95.62 56.08 95.22 55.58C96.64 54.24 98.1 52.2 99.02 50.22ZM115.86 63V61.3C119.9 57.7 122.26 54.92 122.26 52.62C122.26 51.16 121.46 50.24 120.04 50.24C118.96 50.24 118.08 50.94 117.34 51.76L115.7 50.18C117.08 48.7 118.4 47.92 120.42 47.92C123.22 47.92 125.08 49.72 125.08 52.48C125.08 55.16 122.84 58.04 120.14 60.7C120.9 60.6 121.88 60.52 122.58 60.52H125.78V63H115.86ZM132.697 63.28C129.677 63.28 127.677 60.64 127.677 55.52C127.677 50.42 129.677 47.92 132.697 47.92C135.717 47.92 137.717 50.44 137.717 55.52C137.717 60.64 135.717 63.28 132.697 63.28ZM132.697 60.98C133.977 60.98 134.917 59.7 134.917 55.52C134.917 51.4 133.977 50.18 132.697 50.18C131.417 50.18 130.457 51.4 130.457 55.52C130.457 59.7 131.417 60.98 132.697 60.98ZM141.134 46.96H156.634V62.14C156.634 63.38 156.374 63.98 155.594 64.38C154.814 64.74 153.674 64.76 151.934 64.76C151.854 64.14 151.514 63.14 151.194 62.54C152.234 62.6 153.414 62.58 153.754 62.58C154.114 62.58 154.234 62.46 154.234 62.12V49.18H143.514V53.94C143.514 57.22 143.174 61.98 140.994 64.88C140.594 64.44 139.574 63.64 139.054 63.36C140.974 60.74 141.134 56.86 141.134 53.94V46.96ZM147.574 49.48H149.854V50.82H152.994V52.64H149.854V53.9H153.394V55.8H144.154V53.9H147.574V52.64H144.574V50.82H147.574V49.48ZM144.894 56.94H152.634V62.4H147.054V63.5H144.894V56.94ZM147.054 58.76V60.58H150.414V58.76H147.054ZM159.394 58.2H162.574V52.94H168.454V50.52H164.154C163.314 51.96 162.374 53.24 161.414 54.2C160.954 53.78 159.934 53 159.334 52.64C161.134 51.1 162.694 48.54 163.554 45.92L166.014 46.56C165.814 47.12 165.594 47.66 165.354 48.2H176.714V50.52H170.934V52.94H176.234V55.18H170.934V58.2H177.794V60.5H170.934V64.8H168.454V60.5H159.394V58.2ZM164.974 58.2H168.454V55.18H164.974V58.2ZM187.294 46.68L189.454 45.86C190.074 46.58 190.674 47.56 191.014 48.34H197.794V50.64H183.054V53.46C183.054 56.68 182.774 61.6 181.034 64.72C180.594 64.32 179.534 63.6 178.954 63.38C180.534 60.52 180.654 56.34 180.654 53.46V48.34H188.314C188.034 47.78 187.654 47.18 187.294 46.68ZM189.174 51.16H191.734C191.674 52.06 191.594 53 191.474 53.94H197.454V56.18H191.534C192.874 58.96 195.254 61.44 198.114 62.68C197.554 63.18 196.774 64.12 196.414 64.74C193.894 63.44 191.834 61.28 190.314 58.66C189.314 61.08 187.574 63.28 184.434 64.8C184.134 64.22 183.454 63.4 182.854 62.94C186.414 61.34 187.894 58.84 188.554 56.18H183.694V53.94H188.954C189.054 53 189.114 52.06 189.174 51.16ZM199.534 62.54H217.674V64.48H199.534V62.54ZM204.534 59.76V60.68H212.874V59.76H204.534ZM204.534 57.76V58.66H212.874V57.76H204.534ZM202.274 56.52H215.254V61.9H202.274V56.52ZM209.074 51.92C208.954 51.48 208.574 50.64 208.374 50.3C208.594 50.22 208.734 50.12 208.854 49.92C208.974 49.78 209.174 48.88 209.234 48.54H211.034L210.674 50H212.054C212.114 49.44 212.154 48.84 212.174 48.16H208.694V46.54H217.314V48.16H214.134C214.114 48.82 214.074 49.42 214.014 50H217.674V51.66H213.734L213.654 52H214.634V53.98C214.634 54.38 214.674 54.44 215.014 54.44C215.174 54.44 215.754 54.44 215.914 54.44C216.234 54.44 216.314 54.28 216.374 53.02C216.714 53.28 217.494 53.56 217.994 53.68C217.814 55.56 217.334 56.06 216.154 56.06C215.854 56.06 215.014 56.06 214.694 56.06C213.094 56.06 212.754 55.56 212.754 53.98V53.94C211.994 55.02 210.794 55.82 208.914 56.42C208.714 55.92 208.214 55.16 207.814 54.78C210.134 54.14 211.194 53.18 211.714 51.66H210.754C209.954 51.66 209.254 51.76 209.074 51.92ZM206.174 50.22H202.854V51H206.174V50.22ZM206.174 48.76V48.04H202.854V48.76H206.174ZM200.454 56.4C200.334 55.88 199.914 54.98 199.594 54.54C200.034 54.32 200.614 53.86 200.614 53V46.54H208.114V52.52H206.494C207.094 53.48 207.674 54.66 207.954 55.46L206.234 56.12C206.154 55.84 206.034 55.54 205.894 55.2C201.554 56.02 200.894 56.2 200.454 56.4ZM204.754 52.9L205.854 52.52H202.854V54.12L205.214 53.72L204.754 52.9ZM228.774 45.92L230.914 47L230.234 47.92C232.814 50.3 235.474 51.66 238.194 52.64C237.574 53.2 236.874 54.1 236.554 54.86C235.574 54.4 234.594 53.92 233.634 53.34V54.68H223.614V53.7C222.734 54.24 221.814 54.72 220.914 55.14C220.534 54.46 219.834 53.56 219.154 52.94C222.854 51.5 226.654 49.04 228.774 45.92ZM225.474 52.46H232.254C231.114 51.68 229.954 50.76 228.774 49.62C227.774 50.66 226.654 51.6 225.474 52.46ZM222.294 56.4H235.274V64.68H232.694V63.88H224.754V64.76H222.294V56.4ZM224.754 61.66H232.694V58.5H224.754V61.66ZM248.914 46.2L251.214 46.8C250.934 47.62 250.594 48.46 250.234 49.28H258.034V51.56H252.334V53.66H257.534V55.84H252.334V58.1H257.794V60.34H252.334V64.78H249.854V51.56H249.114C248.294 53.06 247.394 54.42 246.474 55.46C246.094 55.02 245.154 54.16 244.634 53.78C246.414 51.98 247.994 49.08 248.914 46.2ZM243.614 46.08L245.934 46.82C245.414 48.22 244.754 49.64 244.014 51V64.76H241.594V54.72C241.194 55.24 240.774 55.72 240.354 56.16C240.134 55.58 239.454 54.2 239.034 53.6C240.854 51.8 242.594 48.94 243.614 46.08ZM275.294 49.64L277.934 50.28C277.314 52.4 276.534 54.7 275.874 56.2L273.694 55.58C274.294 53.98 274.974 51.52 275.294 49.64ZM266.394 49.68L268.694 50C268.594 52.16 268.154 54.78 267.454 56.48L265.114 55.56C265.774 54.14 266.234 51.68 266.394 49.68ZM263.654 46L265.954 46.74C265.454 48 264.854 49.3 264.174 50.54V64.76H261.654V54.4C261.194 55 260.714 55.56 260.234 56.04C260.014 55.44 259.354 54.1 258.934 53.48C260.814 51.68 262.614 48.84 263.654 46ZM270.134 46.28H272.734C272.714 49.04 272.714 51.52 272.534 53.74C273.174 58.04 274.594 61.2 278.234 62.5C277.694 62.98 276.954 64.02 276.614 64.7C273.994 63.58 272.454 61.66 271.494 59C270.574 61.48 268.974 63.42 266.134 64.82C265.814 64.2 265.034 63.26 264.454 62.8C270.474 59.96 270.114 54.86 270.134 46.28ZM285.694 47.76L287.714 47C288.414 48.32 289.134 50.06 289.374 51.18L287.214 52.04C287.014 50.92 286.374 49.14 285.694 47.76ZM295.154 46.86L297.614 47.7C296.894 49.22 296.094 50.86 295.454 51.96L293.494 51.18C294.074 50.02 294.794 48.2 295.154 46.86ZM284.954 57.24H290.234V54.56H285.774V52.34H290.234V46.28H292.654V52.34H297.214V54.56H292.654V57.24H298.034V59.46H292.654V64.8H290.234V59.46H284.954V57.24ZM283.694 46.06L285.914 46.78C285.394 48.06 284.754 49.4 284.034 50.66V64.74H281.754V54.12C281.214 54.82 280.654 55.46 280.094 56.02C279.874 55.44 279.234 54.14 278.834 53.56C280.734 51.76 282.594 48.92 283.694 46.06ZM307.234 46.02H309.854C309.834 47.68 309.814 49.52 309.614 51.4H317.514V53.88H310.434C311.774 57.78 314.194 60.94 317.954 62.46C317.354 62.98 316.554 64.04 316.174 64.72C312.534 63.04 310.214 60.1 308.654 56.2C307.554 59.56 305.394 62.68 301.134 64.72C300.754 64.08 300.034 63.22 299.334 62.7C303.934 60.64 305.834 57.34 306.634 53.88H299.714V51.4H307.034C307.234 49.52 307.214 47.66 307.234 46.02ZM321.774 64.44C321.634 63.92 321.234 62.68 320.954 62C321.494 61.9 321.914 61.56 322.554 61C323.034 60.64 324.114 59.58 325.194 58.26H320.354V55.92H336.974V58.26H328.534C327.614 59.4 326.514 60.54 325.394 61.56L332.374 61.16C331.814 60.54 331.234 59.92 330.654 59.38L332.714 58.32C334.454 59.86 336.294 61.96 337.214 63.48L335.034 64.78C334.794 64.32 334.454 63.8 334.054 63.26C324.154 64 322.774 64.06 321.774 64.44ZM328.514 45.9L330.694 46.94L330.034 47.8C331.994 49.44 335.154 51.26 338.134 52.2C337.594 52.68 336.814 53.66 336.434 54.3C335.394 53.88 334.334 53.34 333.314 52.74V54.24H323.934V52.9C322.954 53.5 321.914 54.02 320.854 54.5C320.514 53.9 319.694 52.84 319.134 52.36C322.954 50.92 326.594 48.48 328.514 45.9ZM325.294 52.04H332.174C330.854 51.16 329.614 50.22 328.634 49.32C327.634 50.3 326.514 51.22 325.294 52.04Z" fill="white"/>
<path d="M80.8293 10.6646H77.1149V0.143814H80.86C81.914 0.143814 82.8212 0.354435 83.5819 0.775676C84.3425 1.19349 84.9275 1.79453 85.3368 2.57879C85.7495 3.36305 85.9558 4.30143 85.9558 5.39392C85.9558 6.48983 85.7495 7.43163 85.3368 8.21931C84.9275 9.007 84.3391 9.61146 83.5716 10.0327C82.8076 10.4539 81.8935 10.6646 80.8293 10.6646ZM79.3302 8.75871H80.7372C81.3921 8.75871 81.943 8.64227 82.3898 8.40939C82.84 8.17308 83.1777 7.80835 83.4028 7.31519C83.6313 6.8186 83.7456 6.17818 83.7456 5.39392C83.7456 4.6165 83.6313 3.98122 83.4028 3.48806C83.1777 2.9949 82.8417 2.63188 82.3949 2.39899C81.9481 2.16611 81.3972 2.04967 80.7423 2.04967H79.3302V8.75871Z" fill="white"/>
<path d="M75.2846 0.143814V10.6646H73.3711L68.8124 4.04286H68.7357V10.6646H66.5203V0.143814H68.4645L72.9873 6.76038H73.0794V0.143814H75.2846Z" fill="white"/>
<path d="M57.6985 10.6646V0.143814H64.759V1.97775H59.9138V4.48465H64.3957V6.31859H59.9138V8.83063H64.7795V10.6646H57.6985Z" fill="white"/>
<path d="M56.1098 3.82713H53.8689C53.8279 3.53603 53.7444 3.27746 53.6182 3.05143C53.492 2.82197 53.3299 2.62676 53.1321 2.4658C52.9343 2.30484 52.7057 2.18155 52.4465 2.09593C52.1907 2.01031 51.9127 1.9675 51.6126 1.9675C51.0702 1.9675 50.5978 2.10278 50.1953 2.37333C49.7929 2.64046 49.4808 3.03088 49.2591 3.54459C49.0374 4.05487 48.9265 4.67475 48.9265 5.40421C48.9265 6.15423 49.0374 6.78438 49.2591 7.29466C49.4842 7.80494 49.798 8.19023 50.2005 8.45051C50.6029 8.71078 51.0685 8.84092 51.5972 8.84092C51.894 8.84092 52.1685 8.80154 52.4209 8.72277C52.6768 8.644 52.9036 8.52927 53.1014 8.37859C53.2992 8.22447 53.463 8.03783 53.5926 7.81864C53.7256 7.59946 53.8177 7.34946 53.8689 7.06863L56.1098 7.0789C56.0518 7.56179 55.9068 8.02755 55.6749 8.47619C55.4464 8.9214 55.1377 9.32038 54.7489 9.67313C54.3634 10.0225 53.903 10.2999 53.3675 10.5053C52.8354 10.7074 52.2333 10.8084 51.5614 10.8084C50.6268 10.8084 49.7912 10.5961 49.0544 10.1714C48.3211 9.74676 47.7412 9.13202 47.3149 8.32722C46.8919 7.52241 46.6805 6.54807 46.6805 5.40421C46.6805 4.25693 46.8953 3.28089 47.3251 2.47608C47.7549 1.67127 48.3381 1.05824 49.0749 0.636999C49.8116 0.212333 50.6405 0 51.5614 0C52.1685 0 52.7313 0.0856182 53.2498 0.256854C53.7716 0.428091 54.2338 0.678095 54.6363 1.00687C55.0388 1.33222 55.3662 1.7312 55.6186 2.20381C55.8744 2.67642 56.0382 3.21753 56.1098 3.82713Z" fill="white"/>
<path d="M43.108 3.16958C43.0671 2.75519 42.8914 2.43327 42.5811 2.20381C42.2707 1.97435 41.8494 1.85962 41.3173 1.85962C40.9558 1.85962 40.6505 1.911 40.4015 2.01374C40.1525 2.11305 39.9615 2.25176 39.8285 2.42984C39.6989 2.60793 39.6341 2.80999 39.6341 3.03602C39.6272 3.22438 39.6665 3.38876 39.7517 3.52918C39.8404 3.66959 39.9615 3.79117 40.115 3.89391C40.2685 3.99323 40.4459 4.08056 40.6471 4.1559C40.8483 4.22782 41.0632 4.28947 41.2917 4.34084L42.2332 4.56687C42.6902 4.66961 43.1097 4.8066 43.4918 4.97784C43.8738 5.14907 44.2046 5.35969 44.4843 5.6097C44.764 5.8597 44.9806 6.15423 45.1341 6.49328C45.291 6.83232 45.3711 7.22103 45.3746 7.65939C45.3711 8.30324 45.2074 8.86147 44.8834 9.33408C44.5628 9.80327 44.0989 10.168 43.4918 10.4283C42.888 10.6851 42.1598 10.8136 41.3071 10.8136C40.4612 10.8136 39.7245 10.6834 39.0969 10.4231C38.4727 10.1629 37.9849 9.77759 37.6336 9.2673C37.2857 8.75359 37.1032 8.11831 37.0862 7.36144H39.2299C39.2538 7.71419 39.3544 8.00872 39.5317 8.24502C39.7125 8.4779 39.953 8.65428 40.2531 8.77414C40.5567 8.89058 40.8995 8.9488 41.2815 8.9488C41.6567 8.9488 41.9825 8.89401 42.2587 8.78442C42.5384 8.67482 42.755 8.52242 42.9085 8.32722C43.062 8.13201 43.1387 7.90769 43.1387 7.65426C43.1387 7.41795 43.0688 7.21932 42.929 7.05836C42.7925 6.89739 42.5913 6.7604 42.3252 6.64739C42.0626 6.53437 41.7403 6.43163 41.3583 6.33916L40.2173 6.05149C39.3339 5.83573 38.6364 5.49839 38.1248 5.03948C37.6131 4.58057 37.359 3.9624 37.3624 3.18499C37.359 2.54799 37.5279 1.99148 37.8689 1.51544C38.2134 1.0394 38.6858 0.667821 39.2862 0.400693C39.8865 0.133564 40.5686 0 41.3327 0C42.1104 0 42.7891 0.133564 43.369 0.400693C43.9522 0.667821 44.4059 1.0394 44.7299 1.51544C45.0539 1.99148 45.2211 2.54286 45.2313 3.16958H43.108Z" fill="white"/>
<path d="M29.202 0.143814L31.315 3.7295H31.3969L33.5201 0.143814H36.022L32.8243 5.40419L36.0936 10.6646H33.5457L31.3969 7.07374H31.315L29.1662 10.6646H26.6285L29.908 5.40419L26.6899 0.143814H29.202Z" fill="white"/>
<path d="M18.1533 10.6646H15.7793L19.3965 0.143814H22.2514L25.8635 10.6646H23.4896L20.8649 2.54797H20.783L18.1533 10.6646ZM18.0049 6.52921H23.6124V8.26555H18.0049V6.52921Z" fill="white"/>
<path d="M3.16376 0.143814H5.89586L8.78146 7.21244H8.90425L11.7898 0.143814H14.5219V10.6646H12.3731V3.81683H12.2861L9.57448 10.6132H8.11122L5.39958 3.79114H5.3126V10.6646H3.16376V0.143814Z" fill="white"/>
<path d="M119.461 29.2984C119.185 29.2984 118.926 29.2761 118.683 29.2316C118.445 29.1905 118.247 29.1374 118.09 29.0723L118.581 27.4388C118.837 27.5175 119.067 27.5603 119.272 27.5672C119.48 27.574 119.659 27.5261 119.809 27.4233C119.963 27.3206 120.087 27.1459 120.183 26.8994L120.31 26.5654L117.491 18.4489H119.783L121.41 24.2435H121.492L123.135 18.4489H125.442L122.388 27.1922C122.241 27.6168 122.041 27.9867 121.789 28.3018C121.54 28.6203 121.225 28.8652 120.843 29.0364C120.461 29.211 120 29.2984 119.461 29.2984Z" fill="white"/>
<path d="M111.981 26.3394V18.4489H114.094V19.8256H114.176C114.319 19.3359 114.56 18.966 114.897 18.716C115.235 18.4626 115.624 18.3358 116.064 18.3358C116.173 18.3358 116.291 18.3427 116.417 18.3564C116.543 18.3701 116.654 18.3889 116.749 18.4129V20.3547C116.647 20.3239 116.506 20.2965 116.325 20.2725C116.144 20.2486 115.979 20.2366 115.828 20.2366C115.508 20.2366 115.221 20.3068 114.969 20.4472C114.72 20.5842 114.522 20.776 114.375 21.0225C114.232 21.2691 114.161 21.5534 114.161 21.8753V26.3394H111.981Z" fill="white"/>
<path d="M105.865 26.4883C105.363 26.4883 104.916 26.401 104.524 26.2263C104.132 26.0483 103.821 25.7863 103.593 25.4404C103.368 25.091 103.255 24.6561 103.255 24.1355C103.255 23.6972 103.335 23.329 103.496 23.0311C103.656 22.7331 103.874 22.4934 104.151 22.3119C104.427 22.1304 104.741 21.9934 105.092 21.9009C105.447 21.8084 105.818 21.7434 106.207 21.7057C106.664 21.6578 107.033 21.6132 107.312 21.5721C107.592 21.5276 107.795 21.4626 107.921 21.3769C108.047 21.2913 108.111 21.1646 108.111 20.9968V20.966C108.111 20.6406 108.008 20.3889 107.804 20.2108C107.602 20.0327 107.316 19.9437 106.944 19.9437C106.552 19.9437 106.24 20.031 106.008 20.2057C105.776 20.3769 105.622 20.5927 105.547 20.853L103.531 20.6886C103.634 20.2091 103.835 19.7947 104.135 19.4454C104.435 19.0926 104.822 18.8221 105.297 18.6337C105.774 18.4419 106.327 18.3461 106.954 18.3461C107.391 18.3461 107.809 18.3974 108.208 18.5002C108.61 18.6029 108.967 18.7622 109.277 18.9779C109.591 19.1937 109.838 19.4711 110.019 19.8101C110.2 20.1457 110.29 20.5482 110.29 21.0173V26.3394H108.223V25.2452H108.162C108.036 25.4917 107.867 25.7092 107.655 25.8976C107.444 26.0825 107.19 26.2281 106.893 26.3342C106.596 26.437 106.253 26.4883 105.865 26.4883ZM106.489 24.978C106.809 24.978 107.092 24.9147 107.338 24.788C107.584 24.6578 107.776 24.4832 107.916 24.264C108.056 24.0448 108.126 23.7965 108.126 23.5191V22.6818C108.058 22.7263 107.964 22.7674 107.845 22.805C107.729 22.8393 107.597 22.8718 107.451 22.9026C107.304 22.93 107.157 22.9557 107.011 22.9797C106.864 23.0003 106.731 23.0191 106.611 23.0362C106.356 23.0739 106.132 23.1338 105.941 23.216C105.75 23.2982 105.602 23.4095 105.496 23.5499C105.39 23.6869 105.338 23.8581 105.338 24.0636C105.338 24.3616 105.445 24.5893 105.66 24.7469C105.878 24.901 106.154 24.978 106.489 24.978Z" fill="white"/>
<path d="M102.072 20.6988L100.077 20.8221C100.043 20.6509 99.9693 20.4968 99.8568 20.3598C99.7442 20.2194 99.5958 20.1081 99.4116 20.0259C99.2309 19.9403 99.0143 19.8975 98.7619 19.8975C98.4242 19.8975 98.1394 19.9694 97.9074 20.1132C97.6755 20.2536 97.5595 20.442 97.5595 20.6783C97.5595 20.8667 97.6346 21.0259 97.7847 21.156C97.9347 21.2862 98.1923 21.3906 98.5572 21.4694L99.9796 21.7571C100.744 21.9146 101.313 22.168 101.688 22.5174C102.064 22.8667 102.251 23.3256 102.251 23.8941C102.251 24.4112 102.099 24.865 101.796 25.2554C101.496 25.6459 101.083 25.9507 100.558 26.1698C100.036 26.3856 99.4338 26.4935 98.7516 26.4935C97.7113 26.4935 96.8825 26.276 96.2651 25.8411C95.6512 25.4027 95.2913 24.8068 95.1856 24.0534L97.3293 23.9403C97.3941 24.2588 97.551 24.502 97.8 24.6698C98.049 24.8342 98.3679 24.9164 98.7568 24.9164C99.1388 24.9164 99.4458 24.8428 99.6777 24.6955C99.913 24.5448 100.032 24.3513 100.036 24.115C100.032 23.9164 99.9489 23.7537 99.7851 23.627C99.6214 23.4968 99.369 23.3975 99.0279 23.329L97.667 23.0568C96.8995 22.9026 96.3282 22.6355 95.953 22.2554C95.5812 21.8752 95.3953 21.3906 95.3953 20.8016C95.3953 20.2947 95.5318 19.8581 95.8046 19.4916C96.0809 19.1252 96.4681 18.8426 96.9661 18.644C97.4674 18.4454 98.0541 18.3461 98.7261 18.3461C99.7186 18.3461 100.5 18.5567 101.069 18.9779C101.642 19.3992 101.977 19.9728 102.072 20.6988Z" fill="white"/>
<path d="M89.6382 26.3394V18.4489H91.7512V19.8256H91.833C91.9763 19.3359 92.2168 18.966 92.5544 18.716C92.8921 18.4626 93.281 18.3358 93.721 18.3358C93.8301 18.3358 93.9478 18.3427 94.074 18.3564C94.2002 18.3701 94.311 18.3889 94.4065 18.4129V20.3547C94.3042 20.3239 94.1627 20.2965 93.9819 20.2725C93.8011 20.2486 93.6357 20.2366 93.4856 20.2366C93.165 20.2366 92.8785 20.3068 92.6261 20.4472C92.3771 20.5842 92.1792 20.776 92.0326 21.0225C91.8893 21.2691 91.8177 21.5534 91.8177 21.8753V26.3394H89.6382Z" fill="white"/>
<path d="M84.6089 26.4935C83.8005 26.4935 83.1047 26.3291 82.5214 26.0003C81.9416 25.6681 81.4948 25.1989 81.181 24.5928C80.8672 23.9831 80.7103 23.2622 80.7103 22.43C80.7103 21.6184 80.8672 20.906 81.181 20.293C81.4948 19.68 81.9365 19.2022 82.5061 18.8598C83.0791 18.5173 83.7511 18.3461 84.5219 18.3461C85.0404 18.3461 85.523 18.43 85.9698 18.5978C86.4201 18.7622 86.8123 19.0105 87.1466 19.3426C87.4843 19.6748 87.7469 20.0927 87.9345 20.5961C88.1221 21.0961 88.2159 21.6817 88.2159 22.353V22.954H81.58V21.5978H86.1642C86.1642 21.2828 86.096 21.0036 85.9596 20.7605C85.8232 20.5173 85.6339 20.3273 85.3917 20.1903C85.1529 20.0499 84.8749 19.9796 84.5577 19.9796C84.2269 19.9796 83.9335 20.0567 83.6777 20.2108C83.4253 20.3615 83.2275 20.5653 83.0842 20.8221C82.941 21.0756 82.8676 21.3581 82.8642 21.6697V22.9592C82.8642 23.3496 82.9359 23.6869 83.0791 23.9712C83.2258 24.2554 83.4321 24.4746 83.6982 24.6287C83.9642 24.7828 84.2797 24.8599 84.6447 24.8599C84.8869 24.8599 85.1086 24.8256 85.3098 24.7571C85.5111 24.6886 85.6833 24.5859 85.8266 24.4489C85.9698 24.3119 86.079 24.1441 86.154 23.9455L88.1698 24.079C88.0675 24.5654 87.8577 24.99 87.5405 25.353C87.2267 25.7126 86.8208 25.9935 86.3228 26.1955C85.8283 26.3942 85.257 26.4935 84.6089 26.4935Z" fill="white"/>
<path d="M80.1653 18.4489L77.4179 26.3394H74.9621L72.2146 18.4489H74.5169L76.149 24.0945H76.2309L77.8579 18.4489H80.1653Z" fill="white"/>
<path d="M68.9133 26.3394V18.4488H71.0928V26.3394H68.9133ZM70.0082 17.4317C69.6841 17.4317 69.4062 17.3238 69.1742 17.108C68.9457 16.8889 68.8314 16.6269 68.8314 16.3221C68.8314 16.0207 68.9457 15.7621 69.1742 15.5464C69.4062 15.3272 69.6841 15.2176 70.0082 15.2176C70.3322 15.2176 70.6085 15.3272 70.837 15.5464C71.0689 15.7621 71.1849 16.0207 71.1849 16.3221C71.1849 16.6269 71.0689 16.8889 70.837 17.108C70.6085 17.3238 70.3322 17.4317 70.0082 17.4317Z" fill="white"/>
<path d="M62.1303 21.7776V26.3394H59.9507V18.4488H62.028V19.8409H62.12C62.294 19.382 62.5856 19.019 62.9949 18.7519C63.4042 18.4813 63.9005 18.3461 64.4838 18.3461C65.0295 18.3461 65.5053 18.4659 65.9112 18.7056C66.3171 18.9454 66.6326 19.2879 66.8577 19.7331C67.0829 20.1749 67.1954 20.7023 67.1954 21.3153V26.3394H65.0159V21.7057C65.0193 21.2228 64.8965 20.8461 64.6475 20.5755C64.3985 20.3016 64.0557 20.1646 63.6191 20.1646C63.3258 20.1646 63.0666 20.2279 62.8414 20.3547C62.6197 20.4814 62.4458 20.6663 62.3196 20.9095C62.1968 21.1492 62.1337 21.4386 62.1303 21.7776Z" fill="white"/>
<path d="M53.168 21.7776V26.3394H50.9885V18.4488H53.0657V19.8409H53.1578C53.3318 19.382 53.6234 19.019 54.0327 18.7519C54.442 18.4813 54.9383 18.3461 55.5215 18.3461C56.0673 18.3461 56.5431 18.4659 56.949 18.7056C57.3549 18.9454 57.6704 19.2879 57.8955 19.7331C58.1206 20.1749 58.2332 20.7023 58.2332 21.3153V26.3394H56.0536V21.7057C56.057 21.2228 55.9343 20.8461 55.6853 20.5755C55.4363 20.3016 55.0935 20.1646 54.6569 20.1646C54.3635 20.1646 54.1043 20.2279 53.8792 20.3547C53.6575 20.4814 53.4835 20.6663 53.3573 20.9095C53.2346 21.1492 53.1714 21.4386 53.168 21.7776Z" fill="white"/>
<path d="M42.0578 26.3394H39.6838L43.3011 15.8186H46.156L49.7681 26.3394H47.3941L44.7694 18.2228H44.6876L42.0578 26.3394ZM41.9094 22.204H47.5169V23.9404H41.9094V22.204Z" fill="white"/>
<path d="M30.0653 21.7776V26.3394H27.8857V15.8186H30.0039V19.841H30.096C30.2734 19.3752 30.5599 19.0105 30.9555 18.7468C31.3512 18.4796 31.8475 18.3461 32.4444 18.3461C32.9901 18.3461 33.4659 18.4659 33.8718 18.7057C34.2811 18.942 34.5983 19.2827 34.8234 19.7279C35.052 20.1697 35.1645 20.6989 35.1611 21.3153V26.3394H32.9816V21.7057C32.985 21.2194 32.8622 20.841 32.6132 20.5704C32.3676 20.2999 32.0231 20.1646 31.5797 20.1646C31.283 20.1646 31.0203 20.228 30.7918 20.3547C30.5667 20.4814 30.3893 20.6663 30.2597 20.9095C30.1335 21.1492 30.0687 21.4386 30.0653 21.7776Z" fill="white"/>
<path d="M26.2971 18.4488V20.0927H21.5645V18.4488H26.2971ZM22.6389 16.5584H24.8185V23.9147C24.8185 24.1167 24.8491 24.2743 24.9105 24.3873C24.9719 24.4969 25.0572 24.5739 25.1664 24.6185C25.2789 24.663 25.4085 24.6852 25.5552 24.6852C25.6575 24.6852 25.7599 24.6767 25.8622 24.6595C25.9645 24.639 26.043 24.6236 26.0975 24.6133L26.4403 26.2418C26.3312 26.276 26.1777 26.3154 25.9799 26.3599C25.782 26.4079 25.5416 26.437 25.2585 26.4473C24.7332 26.4678 24.2727 26.3976 23.8771 26.2366C23.4848 26.0757 23.1795 25.8257 22.9612 25.4866C22.7429 25.1476 22.6355 24.7195 22.6389 24.2023V16.5584Z" fill="white"/>
<path d="M16.2858 26.5706C15.4058 26.5671 14.6486 26.3497 14.0142 25.9182C13.3832 25.4866 12.8971 24.8616 12.556 24.0431C12.2184 23.2246 12.0512 22.24 12.0546 21.0893C12.0546 19.942 12.2235 18.9643 12.5612 18.156C12.9022 17.3478 13.3883 16.733 14.0193 16.3118C14.6537 15.8871 15.4092 15.6748 16.2858 15.6748C17.1624 15.6748 17.9162 15.8871 18.5472 16.3118C19.1817 16.7365 19.6694 17.3529 20.0105 18.1612C20.3516 18.966 20.5204 19.942 20.517 21.0893C20.517 22.2434 20.3465 23.2297 20.0054 24.0483C19.6677 24.8668 19.1834 25.4918 18.5524 25.9233C17.9213 26.3548 17.1658 26.5706 16.2858 26.5706ZM16.2858 24.7263C16.8861 24.7263 17.3654 24.4233 17.7235 23.8171C18.0817 23.2109 18.259 22.3016 18.2556 21.0893C18.2556 20.2913 18.1737 19.6269 18.01 19.0961C17.8497 18.5653 17.6212 18.1663 17.3244 17.8992C17.0311 17.632 16.6849 17.4985 16.2858 17.4985C15.6889 17.4985 15.2114 17.7981 14.8533 18.3975C14.4951 18.9968 14.3143 19.8941 14.3109 21.0893C14.3109 21.8975 14.3911 22.5722 14.5514 23.1133C14.7151 23.651 14.9454 24.0551 15.2421 24.3257C15.5388 24.5928 15.8868 24.7263 16.2858 24.7263Z" fill="white"/>
<path d="M3.10233 26.3394V24.7366L6.83211 21.2691C7.14932 20.9609 7.41537 20.6835 7.63025 20.4369C7.84855 20.1903 8.01398 19.9489 8.12654 19.7126C8.23909 19.4728 8.29537 19.2143 8.29537 18.9369C8.29537 18.6286 8.22545 18.3632 8.08561 18.1406C7.94576 17.9146 7.75475 17.7416 7.51258 17.6218C7.27041 17.4985 6.99583 17.4368 6.68885 17.4368C6.36823 17.4368 6.08854 17.5019 5.84978 17.632C5.61102 17.7622 5.42683 17.9488 5.29722 18.192C5.16761 18.4351 5.1028 18.7245 5.1028 19.0601H3C3 18.3718 3.15519 17.7742 3.46558 17.2673C3.77597 16.7604 4.21086 16.3683 4.77024 16.0909C5.32962 15.8135 5.97428 15.6748 6.7042 15.6748C7.45459 15.6748 8.10778 15.8084 8.66375 16.0755C9.22313 16.3392 9.65802 16.7056 9.9684 17.1748C10.2788 17.644 10.434 18.1817 10.434 18.7879C10.434 19.1851 10.3555 19.5773 10.1986 19.9643C10.0451 20.3513 9.77057 20.7811 9.37491 21.2537C8.97925 21.7229 8.42158 22.2862 7.70188 22.9438L6.17211 24.4489V24.5209H10.5721V26.3394H3.10233Z" fill="white"/>
</svg>
