<svg preserveAspectRatio="none" width="100%" height="100%" overflow="visible" style="display: block;" viewBox="0 0 50.6335 43.5617" fill="none" xmlns="http://www.w3.org/2000/svg">
<path id="path30036" d="M33.3932 4.6446C27.7292 4.6446 24.0174 4.71983 22.2386 4.91756C20.4811 5.09165 18.6017 5.5645 16.6238 6.28451C14.6438 7.02816 12.8863 7.99748 11.3794 9.23977C12.4903 11.2257 13.505 13.6114 14.4939 16.4162V20.3408H7.32081C9.94303 23.1714 12.2699 26.0278 14.3227 28.91V32.8583H0.445243V28.91H8.23699C6.40678 26.2771 4.00718 23.4444 1.08742 20.4397V16.4162H9.22594C7.86666 11.5739 4.77351 6.97872 0 2.60708L3.88517 0C5.664 1.66355 7.42142 3.57641 9.1767 5.78587C10.9084 4.39529 12.9377 3.30345 15.2624 2.50821C17.5871 1.73877 19.9631 1.24229 22.337 1.01876C24.7366 0.818877 29.5594 0.696368 36.8053 0.696368C40.121 0.696368 44.2031 0.72001 49.0259 0.795235L50.6335 4.94335C44.7725 4.74347 39.0336 4.6446 33.3932 4.6446ZM5.09674 43.5617L1.75528 40.5333C5.29368 38.5453 8.16206 36.5099 10.3647 34.4229L13.8517 37.303C11.3794 39.6887 8.45961 41.7735 5.09674 43.5617ZM26.5176 32.2371H22.5597V38.0982H26.5176V32.2371ZM30.9936 38.0982H34.9258V32.2371H30.9936V38.0982ZM39.5773 38.0982H43.287V32.2371H39.5773V38.0982ZM33.1941 24.6867L28.7931 20.9362H42.1011C40.0461 18.5784 37.4239 16.5667 34.2601 14.9268C31.6871 16.6892 29.2875 18.1808 27.0356 19.4209C26.7145 19.6208 26.3935 19.7949 26.0959 19.9432C25.8005 20.1431 25.503 20.2914 25.2054 20.4397L25.5287 20.6396C25.5758 20.689 25.6507 20.7126 25.6999 20.7621C26.5668 21.409 27.4316 22.1032 28.3478 22.8748C28.8166 23.2724 29.6343 23.9925 30.4242 24.6867C31.366 25.5571 32.3785 26.7736 33.5152 28.3619H48.1119V41.7993H17.7112V28.3619H27.605C25.2547 25.4067 21.1982 22.5266 15.4593 19.6702L18.4776 16.4162C19.368 16.8633 20.3078 17.3856 21.2475 18.0067C24.2657 16.5409 27.1106 14.8516 29.782 12.9645C25.9718 11.475 21.667 10.3574 16.8443 9.66103L19.5671 5.88689C33.3439 8.31988 42.891 13.3621 48.2339 20.9362V24.6867H33.1941Z" fill="var(--fill-0, white)"/>
</svg>
