<svg preserveAspectRatio="none" width="100%" height="100%" overflow="visible" style="display: block;" viewBox="0 0 49.8416 42.7686" fill="none" xmlns="http://www.w3.org/2000/svg">
<path id="path30044" d="M40.8125 16.3173H27.3803V18.9996H40.8125V16.3173ZM40.8125 10.0843H27.3803V13.016H40.8125V10.0843ZM27.3803 30.8722H40.0953V28.0417H27.3803V30.8722ZM45.8343 16.3173V22.2537H27.3803V24.8607H45.3143V34.0017H27.3803V36.6581H49.1737V40.011H27.3803V42.7686H22.3348V40.011H0.468776V36.6581H22.3348V34.0017H11.5015V30.8722H22.3348V28.0395H9.62194V34.0017H4.47611V24.8607H22.3348V22.2537H3.48708V18.9996H22.3348V16.3173H0V13.0139H22.3348V10.0843H3.48708V6.83038H22.3348V4.71979C22.3348 4.51991 22.2366 4.34799 22.0139 4.1481C21.7913 3.95037 21.5686 3.84927 21.3717 3.84927L13.7019 3.70103L15.2347 0C20.0104 0 22.8785 0.0494199 23.8182 0.174078C24.7579 0.324528 25.5757 0.696339 26.2928 1.36692C27.0099 2.03749 27.3803 2.83277 27.3803 3.79995V6.83038H45.8343V13.0139H49.8416V16.3173H45.8343Z" fill="var(--fill-0, white)"/>
</svg>
