<svg preserveAspectRatio="none" width="100%" height="100%" overflow="visible" style="display: block;" viewBox="0 0 38.9208 14.665" fill="none" xmlns="http://www.w3.org/2000/svg">
<g id="with&#194;&#160;">
<path id="Vector" d="M32.268 8.56425V14.5197H29.4226V0.78466H32.1879V6.03588H32.3081C32.5396 5.42782 32.9137 4.95166 33.4302 4.60739C33.9468 4.25865 34.5947 4.08428 35.3739 4.08428C36.0864 4.08428 36.7076 4.24076 37.2375 4.55374C37.7719 4.86224 38.186 5.3071 38.4799 5.88834C38.7782 6.4651 38.9252 7.15587 38.9207 7.96066V14.5197H36.0753V8.47036C36.0797 7.83547 35.9194 7.34142 35.5944 6.98821C35.2738 6.635 34.824 6.45839 34.2451 6.45839C33.8577 6.45839 33.5148 6.54111 33.2165 6.70654C32.9226 6.87196 32.691 7.1134 32.5218 7.43084C32.3571 7.74381 32.2725 8.12162 32.268 8.56425Z" fill="var(--fill-0, white)"/>
<path id="Vector_2" d="M27.3487 4.21839V6.36448H21.1702V4.21839H27.3487ZM22.5729 1.75038H25.4184V11.3541C25.4184 11.6179 25.4584 11.8236 25.5386 11.9711C25.6187 12.1142 25.7301 12.2148 25.8726 12.2729C26.0195 12.3311 26.1887 12.3601 26.3802 12.3601C26.5138 12.3601 26.6474 12.349 26.781 12.3266C26.9145 12.2998 27.017 12.2796 27.0882 12.2662L27.5357 14.3922C27.3932 14.4369 27.1928 14.4883 26.9346 14.5465C26.6763 14.6091 26.3624 14.6471 25.9928 14.6605C25.307 14.6873 24.7059 14.5956 24.1893 14.3855C23.6773 14.1754 23.2787 13.849 22.9937 13.4063C22.7087 12.9637 22.5685 12.4048 22.5729 11.7297V1.75038Z" fill="var(--fill-0, white)"/>
<path id="Vector_3" d="M16.7669 14.5197V4.21842H19.6123V14.5197H16.7669ZM18.1963 2.89052C17.7732 2.89052 17.4103 2.74969 17.1075 2.46801C16.8092 2.18187 16.66 1.83983 16.66 1.44191C16.66 1.04846 16.8092 0.710898 17.1075 0.429223C17.4103 0.143077 17.7732 3.8147e-06 18.1963 3.8147e-06C18.6193 3.8147e-06 18.98 0.143077 19.2783 0.429223C19.5811 0.710898 19.7325 1.04846 19.7325 1.44191C19.7325 1.83983 19.5811 2.18187 19.2783 2.46801C18.98 2.74969 18.6193 2.89052 18.1963 2.89052Z" fill="var(--fill-0, white)"/>
<path id="Vector_4" d="M2.79202 14.5196L2.52724e-05 4.21833H2.87885L4.46855 11.1395H4.56206L6.21855 4.21833H9.04394L10.7272 11.0992H10.814L12.377 4.21833H15.2491L12.4638 14.5196H9.45139L7.68802 8.04106H7.56111L5.79775 14.5196H2.79202Z" fill="var(--fill-0, white)"/>
</g>
</svg>
