<svg preserveAspectRatio="none" width="100%" height="100%" overflow="visible" style="display: block;" viewBox="0 0 48.037 43.091" fill="none" xmlns="http://www.w3.org/2000/svg">
<path id="path30046" d="M15.4121 22.2537H5.04758V31.3193H15.4121V22.2537ZM15.4121 7.89859H5.04758V18.1549H15.4121V7.89859ZM11.0839 35.5663C12.5909 38.4721 13.4815 40.731 13.7534 42.272L8.46175 42.9921C7.66973 40.3098 6.5565 37.8252 5.12231 35.5663H0V0H5.04758V3.70103H15.4121V0.472779H20.3335V35.5663H11.0839ZM32.2309 32.8582C32.5776 33.7028 32.8986 34.5218 33.1705 35.317C34.1359 38.2229 34.8038 40.5075 35.1998 42.171L30.1545 43.091C28.472 36.1123 25.5779 29.7783 21.4723 24.1171L25.4046 21.136C27.6543 23.8678 29.6835 27.197 31.4645 31.07C31.7363 31.6417 31.9847 32.2628 32.2309 32.8582ZM35.1742 35.317L33.4446 31.07H42.9659C42.9916 27.4205 42.7926 22.3031 42.373 15.7456C41.977 9.19031 41.3582 5.66332 40.5426 5.1174C39.7014 4.59513 38.9352 4.34579 38.2181 4.34579L30.5483 4.29634L32.4535 0C37.8949 0.0257914 41.3091 0.348211 42.7198 0.995146C44.1283 1.61414 45.1943 2.60921 45.8857 3.92457C46.5536 5.26572 47.0971 9.66098 47.4439 17.1125C47.7906 24.5641 47.9878 30.6488 48.037 35.317H35.1742ZM31.8112 23.9431L27.3333 21.5572C30.1546 18.7266 32.7746 15.2255 35.2492 11.0279L39.725 13.4867C38.2416 16.3925 35.5958 19.8702 31.8112 23.9431Z" fill="var(--fill-0, white)"/>
</svg>
