<svg preserveAspectRatio="none" width="100%" height="100%" overflow="visible" style="display: block;" viewBox="0 0 50.5842 43.1404" fill="none" xmlns="http://www.w3.org/2000/svg">
<path id="path30042" d="M12.6402 25.5571C10.5381 29.1335 8.50884 32.4112 6.58017 35.3665H14.8921C14.297 32.0394 13.5563 28.7854 12.6402 25.5571ZM15.7076 20.0184C18.1308 26.5759 19.6142 33.0818 20.1836 39.5146H1.43419V35.3665H5.26799L2.35037 33.4794C5.78815 28.1406 8.53453 23.5454 10.613 19.6702C8.58376 15.1997 5.04751 10.0844 0 4.32221L3.31577 1.29172C7.71682 6.3103 11.0326 10.7808 13.2353 14.7033C15.0141 11.0774 16.5489 7.62566 17.8354 4.32221L21.8918 6.73156C19.6891 11.7738 17.6363 16.1949 15.7076 20.0184ZM35.5702 15.4233H28.2986V21.1855H35.5702V15.4233ZM35.5702 5.83745H28.2986V11.5739H35.5702V5.83745ZM40.4678 5.83745V11.5739H48.8268V15.4233H40.4678V21.1855H48.8268V25.0607H40.4678V30.7735H50.0148V34.7475H40.9623C40.3672 37.2793 39.4789 39.8886 38.3401 42.6203L33.74 41.4769C34.8038 39.117 35.5958 36.8817 36.0882 34.7475H29.0885C30.3022 37.2299 31.2676 39.6135 32.0318 41.9239L27.5558 43.1404C24.8843 36.0628 22.0395 30.4253 19.0726 26.2771L21.4209 21.9313C21.6927 22.2537 21.9389 22.5761 22.1872 22.8748C22.6089 23.3971 23.0777 24.0419 23.5978 24.7619C24.4391 25.9548 25.032 26.8983 25.4773 27.5689C26.0231 28.4393 26.691 29.5054 27.4316 30.7735H35.5702V25.0607H28.2986V28.7123L23.5978 21.6325V0H28.2986V1.88922H50.5842V5.83745H40.4678Z" fill="var(--fill-0, white)"/>
</svg>
