<svg preserveAspectRatio="none" width="100%" height="100%" overflow="visible" style="display: block;" viewBox="0 0 163.195 18.5972" fill="none" xmlns="http://www.w3.org/2000/svg">
<g id="Do&#194;&#160;di&#239;&#172;&#131;cult&#194;&#160;things&#194;&#160;">
<path id="Vector" d="M162.961 7.15582L160.356 7.31677C160.311 7.09322 160.215 6.89203 160.069 6.71318C159.922 6.52987 159.728 6.38456 159.487 6.27726C159.251 6.16548 158.969 6.1096 158.639 6.1096C158.198 6.1096 157.826 6.20349 157.524 6.39127C157.221 6.57458 157.069 6.82049 157.069 7.12899C157.069 7.3749 157.167 7.5828 157.363 7.7527C157.559 7.9226 157.896 8.05896 158.372 8.1618L160.229 8.53736C161.226 8.74303 161.97 9.07389 162.46 9.52993C162.95 9.98598 163.195 10.5851 163.195 11.3273C163.195 12.0024 162.996 12.5948 162.6 13.1045C162.208 13.6142 161.669 14.0121 160.984 14.2983C160.302 14.58 159.516 14.7208 158.626 14.7208C157.268 14.7208 156.186 14.4369 155.38 13.8691C154.578 13.2968 154.108 12.5188 153.97 11.5352L156.769 11.3876C156.854 11.8034 157.058 12.1209 157.383 12.34C157.708 12.5546 158.125 12.6619 158.632 12.6619C159.131 12.6619 159.532 12.5658 159.835 12.3735C160.142 12.1768 160.298 11.9242 160.302 11.6157C160.298 11.3563 160.189 11.144 159.975 10.9785C159.761 10.8086 159.432 10.679 158.986 10.5896L157.21 10.2341C156.208 10.0329 155.462 9.68418 154.972 9.1879C154.487 8.69161 154.244 8.05896 154.244 7.28995C154.244 6.62824 154.422 6.05818 154.778 5.57978C155.139 5.10138 155.645 4.73252 156.295 4.4732C156.949 4.21388 157.715 4.08422 158.592 4.08422C159.888 4.08422 160.908 4.35919 161.652 4.90912C162.4 5.45906 162.836 6.20796 162.961 7.15582Z" fill="var(--fill-0, white)"/>
<path id="Vector_2" d="M147.144 18.5972C146.222 18.5972 145.432 18.4698 144.773 18.2149C144.118 17.9645 143.597 17.6225 143.21 17.1888C142.822 16.7551 142.571 16.2678 142.455 15.7268L145.087 15.3713C145.167 15.577 145.294 15.7692 145.467 15.9481C145.641 16.1269 145.87 16.27 146.155 16.3773C146.445 16.4891 146.797 16.545 147.211 16.545C147.83 16.545 148.34 16.393 148.74 16.0889C149.146 15.7894 149.348 15.2864 149.348 14.58V12.6954H149.228C149.103 12.9816 148.916 13.2521 148.667 13.5069C148.418 13.7618 148.097 13.9697 147.705 14.1306C147.313 14.2916 146.846 14.3721 146.302 14.3721C145.532 14.3721 144.831 14.1932 144.198 13.8355C143.57 13.4734 143.07 12.9212 142.696 12.179C142.326 11.4324 142.141 10.489 142.141 9.34885C142.141 8.18192 142.33 7.20723 142.709 6.4248C143.087 5.64237 143.591 5.05667 144.218 4.66769C144.851 4.27871 145.543 4.08422 146.296 4.08422C146.87 4.08422 147.351 4.18258 147.738 4.37931C148.126 4.57156 148.438 4.813 148.674 5.10361C148.914 5.38976 149.099 5.67143 149.228 5.94864H149.335V4.21835H152.16V14.6202C152.16 15.4965 151.946 16.2298 151.519 16.8199C151.092 17.4101 150.499 17.8528 149.742 18.1478C148.99 18.4474 148.124 18.5972 147.144 18.5972ZM147.204 12.226C147.663 12.226 148.05 12.1119 148.366 11.8839C148.687 11.6514 148.932 11.3206 149.101 10.8914C149.275 10.4577 149.362 9.93903 149.362 9.33544C149.362 8.73185 149.277 8.20874 149.108 7.76611C148.939 7.31901 148.694 6.9725 148.373 6.7266C148.052 6.48069 147.663 6.35774 147.204 6.35774C146.737 6.35774 146.342 6.48516 146.022 6.74001C145.701 6.99039 145.459 7.33913 145.294 7.78623C145.129 8.23333 145.047 8.74974 145.047 9.33544C145.047 9.93009 145.129 10.4443 145.294 10.8779C145.463 11.3072 145.706 11.6403 146.022 11.8772C146.342 12.1097 146.737 12.226 147.204 12.226Z" fill="var(--fill-0, white)"/>
<path id="Vector_3" d="M133.667 8.56419V14.5196H130.821V4.21835H133.533V6.03582H133.653C133.88 5.43671 134.261 4.96278 134.795 4.61404C135.33 4.26083 135.978 4.08422 136.739 4.08422C137.452 4.08422 138.073 4.24071 138.603 4.55368C139.133 4.86665 139.545 5.31375 139.838 5.89499C140.132 6.47175 140.279 7.16029 140.279 7.9606V14.5196H137.434V8.4703C137.438 7.83988 137.278 7.34807 136.953 6.99486C136.628 6.63718 136.18 6.45834 135.61 6.45834C135.227 6.45834 134.889 6.54105 134.595 6.70648C134.306 6.87191 134.079 7.11334 133.914 7.43078C133.753 7.74376 133.671 8.12156 133.667 8.56419Z" fill="var(--fill-0, white)"/>
<path id="Vector_4" d="M125.696 14.5197V4.21841H128.542V14.5197H125.696ZM127.126 2.89052C126.703 2.89052 126.34 2.74968 126.037 2.46801C125.739 2.18186 125.59 1.83983 125.59 1.44191C125.59 1.04846 125.739 0.710894 126.037 0.42922C126.34 0.143073 126.703 0 127.126 0C127.549 0 127.909 0.143073 128.208 0.42922C128.511 0.710894 128.662 1.04846 128.662 1.44191C128.662 1.83983 128.511 2.18186 128.208 2.46801C127.909 2.74968 127.549 2.89052 127.126 2.89052Z" fill="var(--fill-0, white)"/>
<path id="Vector_5" d="M116.804 8.56418V14.5196H113.959V0.784595H116.724V6.03582H116.844C117.076 5.42776 117.45 4.95159 117.966 4.60732C118.483 4.25858 119.131 4.08421 119.91 4.08421C120.623 4.08421 121.244 4.2407 121.774 4.55367C122.308 4.86217 122.722 5.30704 123.016 5.88827C123.314 6.46504 123.461 7.15581 123.457 7.96059V14.5196H120.611V8.47029C120.616 7.83541 120.456 7.34136 120.131 6.98815C119.81 6.63493 119.36 6.45833 118.781 6.45833C118.394 6.45833 118.051 6.54104 117.753 6.70647C117.459 6.8719 117.227 7.11333 117.058 7.43078C116.893 7.74375 116.809 8.12155 116.804 8.56418Z" fill="var(--fill-0, white)"/>
<path id="Vector_6" d="M111.885 4.21844V6.36453H105.707V4.21844H111.885ZM107.109 1.75043H109.955V11.3542C109.955 11.618 109.995 11.8237 110.075 11.9712C110.155 12.1143 110.266 12.2149 110.409 12.273C110.556 12.3311 110.725 12.3602 110.917 12.3602C111.05 12.3602 111.184 12.349 111.317 12.3266C111.451 12.2998 111.553 12.2797 111.625 12.2663L112.072 14.3923C111.93 14.437 111.729 14.4884 111.471 14.5465C111.213 14.6091 110.899 14.6471 110.529 14.6605C109.843 14.6874 109.242 14.5957 108.726 14.3856C108.214 14.1754 107.815 13.849 107.53 13.4064C107.245 12.9638 107.105 12.4049 107.109 11.7298V1.75043Z" fill="var(--fill-0, white)"/>
<path id="Vector_7" d="M100.221 4.21844V6.36453H94.0426V4.21844H100.221ZM95.4453 1.75043H98.2907V11.3542C98.2907 11.618 98.3308 11.8237 98.4109 11.9712C98.4911 12.1143 98.6024 12.2149 98.7449 12.273C98.8918 12.3311 99.061 12.3602 99.2525 12.3602C99.3861 12.3602 99.5197 12.349 99.6533 12.3266C99.7869 12.2998 99.8893 12.2797 99.9605 12.2663L100.408 14.3923C100.266 14.437 100.065 14.4884 99.8069 14.5465C99.5486 14.6091 99.2347 14.6471 98.8651 14.6605C98.1794 14.6874 97.5782 14.5957 97.0617 14.3856C96.5496 14.1754 96.151 13.849 95.8661 13.4064C95.5811 12.9638 95.4408 12.4049 95.4453 11.7298V1.75043Z" fill="var(--fill-0, white)"/>
<path id="Vector_8" d="M92.4846 0.784595V14.5196H89.6392V0.784595H92.4846Z" fill="var(--fill-0, white)"/>
<path id="Vector_9" d="M84.5177 10.1335V4.21833H87.3632V14.5196H84.6313V12.6484H84.5244C84.2929 13.252 83.9077 13.7371 83.3689 14.1038C82.8345 14.4704 82.1822 14.6537 81.4118 14.6537C80.7261 14.6537 80.1227 14.4972 79.6017 14.1842C79.0807 13.8713 78.6733 13.4264 78.3794 12.8496C78.0899 12.2729 77.943 11.5821 77.9385 10.7773V4.21833H80.7839V10.2676C80.7884 10.8757 80.9509 11.3563 81.2715 11.7095C81.5922 12.0627 82.0219 12.2393 82.5607 12.2393C82.9035 12.2393 83.2242 12.1611 83.5225 12.0046C83.8209 11.8437 84.0613 11.6067 84.2439 11.2937C84.4309 10.9808 84.5222 10.594 84.5177 10.1335Z" fill="var(--fill-0, white)"/>
<path id="Vector_10" d="M71.5345 14.7208C70.4836 14.7208 69.5797 14.4972 68.8227 14.0501C68.0701 13.5986 67.4912 12.9726 67.086 12.1723C66.6852 11.372 66.4849 10.451 66.4849 9.40921C66.4849 8.35405 66.6875 7.42855 67.0927 6.63271C67.5024 5.83239 68.0835 5.20868 68.836 4.76158C69.5886 4.31001 70.4836 4.08422 71.5211 4.08422C72.4162 4.08422 73.1999 4.24741 73.8723 4.5738C74.5447 4.90018 75.0768 5.35846 75.4687 5.94864C75.8605 6.53881 76.0765 7.23182 76.1166 8.02767H73.4315C73.3558 7.5135 73.1554 7.09993 72.8303 6.78696C72.5097 6.46951 72.0889 6.31079 71.5679 6.31079C71.1271 6.31079 70.7419 6.43151 70.4124 6.67295C70.0873 6.90991 69.8335 7.25641 69.6509 7.71246C69.4683 8.1685 69.3771 8.72068 69.3771 9.36897C69.3771 10.0262 69.4661 10.5851 69.6442 11.0456C69.8268 11.5061 70.0828 11.8571 70.4124 12.0985C70.7419 12.34 71.1271 12.4607 71.5679 12.4607C71.893 12.4607 72.1846 12.3936 72.4429 12.2595C72.7056 12.1254 72.9216 11.9309 73.0908 11.676C73.2645 11.4167 73.378 11.106 73.4315 10.7438H76.1166C76.072 11.5307 75.8583 12.2237 75.4753 12.8228C75.0968 13.4175 74.5736 13.8825 73.9057 14.2178C73.2377 14.5531 72.4473 14.7208 71.5345 14.7208Z" fill="var(--fill-0, white)"/>
<path id="Vector_11" d="M52.614 6.3233H50.1876V14.5197H47.3851V6.3233H45.8427V4.96354L47.3851 4.20811V3.45269C47.3851 2.57136 47.5293 1.89148 47.8177 1.41304C48.1186 0.922016 48.5387 0.575779 49.0779 0.374333C49.6296 0.172886 50.2754 0.0721626 51.0152 0.0721626C51.567 0.0721626 52.0623 0.116229 52.5012 0.204362C52.9526 0.292495 53.3162 0.393218 53.5921 0.506532L52.8773 2.56506C52.6642 2.50211 52.4322 2.44546 52.1814 2.39509C51.9306 2.33214 51.6422 2.30067 51.3162 2.30067C50.9275 2.30067 50.639 2.42027 50.451 2.65949C50.2754 2.89871 50.1876 3.20088 50.1876 3.566V4.20811H52.614V6.3233ZM59.8932 6.3233H57.4668V14.5197H54.6642V6.3233H53.1219V4.96354L54.6642 4.20811V3.45269C54.6642 2.57136 54.8084 1.89148 55.0968 1.41304C55.3978 0.922016 55.8179 0.575779 56.357 0.374333C56.9088 0.172886 57.5546 0.0721626 58.2944 0.0721626C58.8461 0.0721626 59.3414 0.116229 59.7803 0.204362C60.2317 0.292495 60.5954 0.393218 60.8713 0.506532L60.1565 2.56506C59.9433 2.50211 59.7114 2.44546 59.4606 2.39509C59.2098 2.33214 58.9214 2.30067 58.5953 2.30067C58.2066 2.30067 57.9182 2.42027 57.7301 2.65949C57.5546 2.89871 57.4668 3.20088 57.4668 3.566V4.20811H59.8932V6.3233ZM64.2945 4.20811V14.5197H61.492V4.20811H64.2945ZM62.9027 0.166591C63.3165 0.166591 63.6738 0.267314 63.9748 0.468761C64.2757 0.657617 64.4262 1.01644 64.4262 1.54524C64.4262 2.06145 64.2757 2.42027 63.9748 2.62172C63.6738 2.82317 63.3165 2.92389 62.9027 2.92389C62.4763 2.92389 62.1127 2.82317 61.8117 2.62172C61.5233 2.42027 61.3791 2.06145 61.3791 1.54524C61.3791 1.01644 61.5233 0.657617 61.8117 0.468761C62.1127 0.267314 62.4763 0.166591 62.9027 0.166591Z" fill="var(--fill-0, white)"/>
<path id="Vector_12" d="M41.4774 14.5197V4.21841H44.3229V14.5197H41.4774ZM42.9068 2.89052C42.4838 2.89052 42.1209 2.74968 41.8181 2.46801C41.5197 2.18186 41.3706 1.83983 41.3706 1.44191C41.3706 1.04846 41.5197 0.710894 41.8181 0.42922C42.1209 0.143073 42.4838 0 42.9068 0C43.3299 0 43.6905 0.143073 43.9889 0.42922C44.2917 0.710894 44.4431 1.04846 44.4431 1.44191C44.4431 1.83983 44.2917 2.18186 43.9889 2.46801C43.6905 2.74968 43.3299 2.89052 42.9068 2.89052Z" fill="var(--fill-0, white)"/>
<path id="Vector_13" d="M33.3002 14.6873C32.5209 14.6873 31.8151 14.4861 31.1828 14.0837C30.5549 13.6768 30.0562 13.0799 29.6866 12.293C29.3215 11.5016 29.1389 10.5314 29.1389 9.38238C29.1389 8.20203 29.3281 7.22064 29.7066 6.43821C30.0851 5.65131 30.5883 5.06337 31.2162 4.67439C31.8485 4.28094 32.5409 4.08421 33.2935 4.08421C33.8679 4.08421 34.3466 4.18258 34.7296 4.3793C35.117 4.57156 35.4287 4.81299 35.6647 5.10361C35.9051 5.38975 36.0877 5.67143 36.2124 5.94863H36.2992V0.784595H39.138V14.5196H36.3326V12.8698H36.2124C36.0788 13.1559 35.8895 13.4398 35.6446 13.7215C35.4042 13.9987 35.0902 14.229 34.7028 14.4123C34.3199 14.5956 33.8523 14.6873 33.3002 14.6873ZM34.2019 12.4137C34.6605 12.4137 35.0479 12.2885 35.3641 12.0382C35.6847 11.7833 35.9296 11.4279 36.0988 10.9718C36.2725 10.5158 36.3593 9.9815 36.3593 9.36897C36.3593 8.75644 36.2747 8.22438 36.1055 7.77281C35.9363 7.32124 35.6914 6.9725 35.3708 6.72659C35.0502 6.48068 34.6605 6.35773 34.2019 6.35773C33.7343 6.35773 33.3402 6.48516 33.0196 6.74C32.699 6.99485 32.4563 7.34806 32.2916 7.79964C32.1268 8.25121 32.0444 8.77432 32.0444 9.36897C32.0444 9.96809 32.1268 10.4979 32.2916 10.9584C32.4608 11.4145 32.7035 11.7721 33.0196 12.0315C33.3402 12.2863 33.7343 12.4137 34.2019 12.4137Z" fill="var(--fill-0, white)"/>
<path id="Vector_14" d="M18.2664 14.7208C17.2289 14.7208 16.3316 14.4995 15.5746 14.0568C14.8221 13.6097 14.241 12.9883 13.8313 12.1924C13.4216 11.3921 13.2168 10.4644 13.2168 9.40921C13.2168 8.34511 13.4216 7.41514 13.8313 6.61929C14.241 5.81898 14.8221 5.19751 15.5746 4.75487C16.3316 4.30777 17.2289 4.08422 18.2664 4.08422C19.304 4.08422 20.199 4.30777 20.9516 4.75487C21.7086 5.19751 22.2919 5.81898 22.7016 6.61929C23.1112 7.41514 23.3161 8.34511 23.3161 9.40921C23.3161 10.4644 23.1112 11.3921 22.7016 12.1924C22.2919 12.9883 21.7086 13.6097 20.9516 14.0568C20.199 14.4995 19.304 14.7208 18.2664 14.7208ZM18.2798 12.5076C18.7518 12.5076 19.1459 12.3735 19.462 12.1052C19.7782 11.8325 20.0164 11.4614 20.1767 10.992C20.3415 10.5225 20.4239 9.98821 20.4239 9.38909C20.4239 8.78998 20.3415 8.25569 20.1767 7.78623C20.0164 7.31677 19.7782 6.94568 19.462 6.67295C19.1459 6.40021 18.7518 6.26385 18.2798 6.26385C17.8033 6.26385 17.4026 6.40021 17.0775 6.67295C16.7569 6.94568 16.5142 7.31677 16.3494 7.78623C16.1891 8.25569 16.109 8.78998 16.109 9.38909C16.109 9.98821 16.1891 10.5225 16.3494 10.992C16.5142 11.4614 16.7569 11.8325 17.0775 12.1052C17.4026 12.3735 17.8033 12.5076 18.2798 12.5076Z" fill="var(--fill-0, white)"/>
<path id="Vector_15" d="M4.84925 14.5196H0V0.784595H4.88933C6.26528 0.784595 7.44977 1.05956 8.44277 1.6095C9.43578 2.15496 10.1995 2.93963 10.7338 3.9635C11.2726 4.98736 11.542 6.21242 11.542 7.63868C11.542 9.06941 11.2726 10.2989 10.7338 11.3273C10.1995 12.3556 9.43132 13.1448 8.42941 13.6947C7.43195 14.2446 6.23857 14.5196 4.84925 14.5196ZM2.89218 12.0315H4.72902C5.58398 12.0315 6.30313 11.8794 6.88647 11.5754C7.47426 11.2669 7.9151 10.7908 8.20899 10.1469C8.50734 9.49863 8.65651 8.66255 8.65651 7.63868C8.65651 6.62376 8.50734 5.79438 8.20899 5.15055C7.9151 4.50673 7.47648 4.0328 6.89315 3.72877C6.30981 3.42474 5.59066 3.27272 4.7357 3.27272H2.89218V12.0315Z" fill="var(--fill-0, white)"/>
</g>
</svg>
