<svg preserveAspectRatio="none" width="100%" height="100%" overflow="visible" style="display: block;" viewBox="0 0 50.0148 43.3382" fill="none" xmlns="http://www.w3.org/2000/svg">
<path id="path30032" d="M22.4589 18.602H10.0907V22.8985H22.4589V18.602ZM27.5535 22.8985H40.1682V18.602H27.5535V22.8985ZM27.5535 30.7219H40.1682V26.6726H27.5535V30.7219ZM27.5535 11.5222V14.8258H45.1408V34.496H11.9703V30.7219H22.4589V26.6726H10.0907V34.496H5.09461V14.8258H22.4589V11.5222H0V7.59989H22.4589V0H27.5535V7.59989H50.0148V11.5222H27.5535ZM13.7019 43.3382L9.2258 40.9782C12.441 38.47 14.5924 36.4347 15.6306 34.87L20.0594 36.9806C18.4775 39.2889 16.3734 41.4017 13.7019 43.3382ZM36.1373 42.9406C34.183 40.5076 31.9825 38.5947 29.5572 37.2277L34.0845 34.8441C36.8801 36.484 39.2049 38.6442 41.0843 41.277L36.1373 42.9406Z" fill="var(--fill-0, white)"/>
</svg>
