<svg preserveAspectRatio="none" width="100%" height="100%" overflow="visible" style="display: block;" viewBox="0 0 25 25" fill="none" xmlns="http://www.w3.org/2000/svg">
<path id="Vector" fill-rule="evenodd" clip-rule="evenodd" d="M0.287813 2.20913C0.309786 2.1188 0.33542 2.03213 0.364718 1.95035C0.544164 1.46087 0.932352 1.12519 1.44383 1.01897L6.19985 0.0314442C6.90055 -0.113814 7.58903 0.254824 7.8576 0.917634L9.85957 5.86623C10.0952 6.44727 9.9499 7.082 9.48481 7.50314L7.67447 9.1425C7.1703 9.59901 7.08121 10.2972 7.36318 10.9161C8.58146 13.5894 11.4098 16.4213 14.0845 17.6372C14.7035 17.9191 15.4017 17.83 15.857 17.3259L17.4965 15.5156C17.9176 15.0518 18.5524 14.9065 19.1335 15.1409L24.0823 17.1428C24.7452 17.4113 25.1138 18.0998 24.9685 18.8004L23.981 23.5562C23.8748 24.0677 23.5403 24.4559 23.0495 24.6353C22.9678 24.6646 22.8823 24.6902 22.7908 24.7122C12.2168 27.2219 -2.22192 12.7838 0.287813 2.20913Z" fill="var(--fill-0, #5B5652)"/>
</svg>
