<svg preserveAspectRatio="none" width="100%" height="100%" overflow="visible" style="display: block;" viewBox="0 0 288 138.4" fill="none" xmlns="http://www.w3.org/2000/svg">
<g id="20&#229;&#145;&#168;&#229;&#185;&#180;">
<g id="Group">
<path id="Vector" d="M188.514 101.54V98.5364L185.589 93.8551C185.537 93.7826 185.568 93.7101 185.661 93.7101H186.436C186.498 93.7101 186.55 93.7308 186.571 93.793L188.979 97.7286L191.377 93.793C191.397 93.7308 191.439 93.7101 191.511 93.7101H192.265C192.348 93.7101 192.389 93.7826 192.348 93.8551L189.423 98.5157V101.54C189.423 101.623 189.372 101.664 189.31 101.664H188.638C188.565 101.664 188.524 101.623 188.524 101.54H188.514Z" fill="var(--fill-0, #FF7600)"/>
<path id="Vector_2" d="M194.208 101.54V93.824C194.208 93.7515 194.25 93.7101 194.332 93.7101H199.107C199.18 93.7101 199.231 93.7515 199.231 93.824V94.4454C199.231 94.5179 199.18 94.5697 199.107 94.5697H195.118V97.1175H198.756C198.818 97.1175 198.87 97.159 198.87 97.2418V97.8529C198.87 97.915 198.818 97.9668 198.756 97.9668H195.118V100.794H199.242C199.304 100.794 199.345 100.846 199.345 100.908V101.53C199.345 101.612 199.304 101.654 199.242 101.654H194.332C194.25 101.654 194.208 101.612 194.208 101.53V101.54Z" fill="var(--fill-0, #FF7600)"/>
<path id="Vector_3" d="M200.678 101.53L203.82 93.8033C203.851 93.7308 203.903 93.7101 203.965 93.7101H204.595C204.657 93.7101 204.709 93.7308 204.73 93.8033L207.892 101.53C207.923 101.612 207.892 101.664 207.799 101.664H207.024C207.024 101.664 206.91 101.644 206.89 101.581L206.145 99.6757H202.404L201.66 101.581C201.619 101.644 201.577 101.664 201.515 101.664H200.771C200.689 101.664 200.647 101.612 200.689 101.53H200.678ZM204.254 94.839L202.714 98.8264H205.825L204.264 94.839H204.254Z" fill="var(--fill-0, #FF7600)"/>
<path id="Vector_4" d="M209.752 101.54V93.824C209.752 93.7515 209.794 93.7101 209.876 93.7101H212.181C214.269 93.7101 215.158 94.6836 215.158 96.3097C215.158 97.3765 214.713 98.2361 213.731 98.6504L215.385 101.519C215.426 101.602 215.385 101.664 215.302 101.664H214.527C214.465 101.664 214.424 101.633 214.403 101.592L212.853 98.8782C212.646 98.9197 212.419 98.93 212.181 98.93H210.662V101.54C210.662 101.623 210.621 101.664 210.538 101.664H209.876C209.794 101.664 209.752 101.623 209.752 101.54ZM210.662 98.0807H212.13C213.597 98.0807 214.217 97.48 214.217 96.3201C214.217 95.1601 213.597 94.5697 212.13 94.5697H210.662V98.0807Z" fill="var(--fill-0, #FF7600)"/>
<path id="Vector_5" d="M216.863 99.7274C216.842 99.6445 216.873 99.6031 216.946 99.5824L217.586 99.4167C217.648 99.396 217.7 99.4167 217.731 99.4995C218.072 100.483 218.651 100.929 219.674 100.929C220.697 100.929 221.38 100.473 221.38 99.6446C221.38 98.816 220.77 98.4017 219.757 98.0599L219.157 97.8528C217.835 97.3971 217.07 96.7032 217.07 95.6468C217.07 94.4143 218.145 93.5547 219.571 93.5547C220.883 93.5547 221.814 94.1864 222.165 95.4603C222.186 95.5432 222.165 95.595 222.093 95.6053L221.41 95.7814C221.338 95.8021 221.297 95.7814 221.276 95.7089C220.987 94.8286 220.439 94.4454 219.571 94.4454C218.651 94.4454 218.01 94.9321 218.01 95.626C218.01 96.2578 218.527 96.7135 219.633 97.076L220.16 97.2521C221.628 97.7389 222.32 98.3914 222.32 99.6549C222.32 100.918 221.235 101.83 219.685 101.83C218.258 101.83 217.287 101.126 216.873 99.7378L216.863 99.7274Z" fill="var(--fill-0, #FF7600)"/>
</g>
<g id="Group_2">
<path id="Vector_6" d="M262.141 23.2307V7.9335H256.416C256.261 7.9335 256.188 7.81957 256.188 7.66421V6.29708C256.188 6.14173 256.261 6.04853 256.416 6.04853H269.862C269.996 6.04853 270.089 6.14173 270.089 6.29708V7.66421C270.089 7.81957 269.996 7.9335 269.862 7.9335H264.136V23.2307C264.136 23.4068 264.043 23.5 263.867 23.5H262.41C262.234 23.5 262.141 23.4068 262.141 23.2307Z" fill="var(--fill-0, #FF7600)"/>
<path id="Vector_7" d="M274.358 23.2308V6.2971C274.358 6.14175 274.451 6.04855 274.626 6.04855H276.084C276.259 6.04855 276.352 6.14175 276.352 6.2971V13.5574H286.026V6.2971C286.026 6.14175 286.119 6.04855 286.274 6.04855H287.752C287.907 6.04855 288 6.14175 288 6.2971V23.2308C288 23.4068 287.907 23.5001 287.752 23.5001H286.274C286.119 23.5001 286.026 23.4068 286.026 23.2308V15.4527H276.352V23.2308C276.352 23.4068 276.259 23.5001 276.084 23.5001H274.626C274.451 23.5001 274.358 23.4068 274.358 23.2308Z" fill="var(--fill-0, #FF7600)"/>
</g>
<path id="Vector_8" d="M256.963 31.8684C251.651 21.7082 243.972 13.8162 234.154 8.40988C229.286 5.73778 223.839 3.69746 217.948 2.36141C212.026 1.015 205.473 0.331431 198.487 0.331431C191.5 0.331431 185.093 1.015 179.191 2.36141C173.321 3.69746 167.853 5.73778 162.944 8.40988C153.043 13.8059 145.323 21.6979 140.011 31.8581C134.636 42.1425 131.908 54.7677 131.908 69.3607C131.908 83.9537 134.636 96.5892 140.011 106.874C144.403 115.284 150.449 122.14 158.025 127.318H39.687C48.7303 120.037 57.7839 112.756 66.8272 105.475C77.9892 95.8953 87.0634 87.3922 93.9673 80.6394C96.0137 78.6405 102.918 71.836 110.09 61.9037C113.49 57.2016 115.95 53.3488 117.49 48.1807C118.741 43.9654 119.382 39.6672 119.382 35.3898C119.382 28.3263 117.077 22.1329 112.529 16.9648C107.972 11.7966 101.533 7.69524 93.3679 4.77457C86.7844 2.41318 78.1442 0 63.9953 0C63.2305 0 62.4347 4.42544e-06 61.6493 0.0207184C54.1666 0.155359 45.7228 1.07713 39.6147 2.44425C33.3722 3.84244 27.5846 5.96562 22.417 8.75164C17.2391 11.548 12.7329 14.9555 9.02258 18.8911C5.69466 22.4229 2.90416 26.4828 0.754447 30.9467L0 32.5106L15.4924 35.5866L16.1332 34.323C18.1692 30.2942 20.7323 26.7935 23.8122 23.8521C36.6381 11.5688 53.7635 11.8587 59.4479 11.983C65.3803 12.1177 73.8964 12.4284 82.1852 17.959C84.6553 19.6058 89.7506 23.1064 92.8098 29.7867C93.2439 30.7291 95.2282 35.2241 95.1662 41.6143C95.0422 55.762 85.0171 66.5747 77.4621 74.7256C71.7467 80.888 66.5171 84.9272 61.1015 89.1218C53.4742 95.0149 47.2214 98.7227 42.8599 101.509C33.6513 107.381 19.8332 115.915 1.39525 126.365L1.28155 126.49C1.05418 126.738 0.888824 126.977 0.775138 127.194L0.651121 127.453V138.4H201.391H203.386V138.286C208.564 138.038 213.473 137.396 217.989 136.37C223.88 135.034 229.337 133.004 234.195 130.322C244.013 124.916 251.692 117.024 257.005 106.863C262.389 96.5788 265.118 83.9537 265.118 69.3503C265.118 54.747 262.389 42.1322 257.005 31.8477L256.963 31.8684ZM172.091 111.98C163.626 102.348 159.337 88.0136 159.337 69.3814C159.337 50.7492 163.626 36.4151 172.091 26.7831C174.292 24.2768 188.803 9.27986 209.101 11.838C223.86 13.7023 232.81 23.7589 235.497 26.7831C247.775 40.589 248.054 57.3984 248.251 69.3814C248.292 72.2089 248.437 96.8378 235.569 113.771C230.175 120.876 224.862 123.507 223.26 124.242C222.02 124.812 217.132 126.925 209.101 126.925C193.247 126.925 180.803 121.902 172.091 111.98Z" fill="var(--fill-0, #FF7600)"/>
<path id="Vector_9" d="M203.427 69.5473C202.983 69.5473 202.538 69.4126 202.166 69.1433C201.588 68.7291 201.236 68.0559 201.236 67.3412V30.9882C201.236 29.7765 202.218 28.7822 203.438 28.7822C204.657 28.7822 205.639 29.7661 205.639 30.9882V64.2238L224.449 57.4917C225.596 57.0775 226.847 57.6782 227.26 58.8278C227.674 59.9774 227.074 61.2306 225.927 61.6449L204.182 69.4333C203.944 69.5162 203.696 69.5576 203.438 69.5576L203.427 69.5473Z" fill="var(--fill-0, #FF7600)"/>
</g>
</svg>
