<svg width="296" height="346" viewBox="0 0 296 346" fill="none" xmlns="http://www.w3.org/2000/svg">
<path d="M118.595 99.52V102.616H121.607V103.66H114.443V102.616H117.467V99.52H114.899V98.488H117.467V96.328H118.595V98.488H121.151V99.52H118.595ZM115.619 94.684H121.619V95.752H115.163C114.755 96.604 114.287 97.42 113.735 98.164V103.924H112.619V99.46C112.235 99.832 111.815 100.192 111.371 100.504C111.251 100.204 110.999 99.724 110.819 99.46C112.139 98.56 113.159 97.216 113.903 95.752H111.143V94.684H114.383C114.635 94.096 114.815 93.508 114.971 92.92L116.135 93.208C115.979 93.7 115.811 94.192 115.619 94.684ZM130.487 100.012V101.08H123.083V100.012H130.487ZM125.771 97.48H133.127C133.127 97.48 133.115 97.828 133.079 97.996C132.767 101.368 132.443 102.772 131.891 103.312C131.543 103.66 131.195 103.756 130.643 103.792C130.175 103.828 129.323 103.816 128.471 103.768C128.447 103.444 128.279 102.976 128.051 102.652C128.975 102.736 129.911 102.748 130.295 102.748C130.583 102.748 130.763 102.736 130.931 102.604C131.339 102.268 131.651 101.032 131.891 98.512H124.343C124.715 97.156 125.195 94.864 125.471 93.172L126.611 93.28C126.539 93.664 126.467 94.072 126.383 94.492H132.887V95.56H126.179C126.047 96.232 125.903 96.892 125.771 97.48ZM138.582 102.748L137.526 102.196C138.126 101.272 138.582 99.892 138.822 98.68L139.878 98.992C139.614 100.216 139.194 101.752 138.582 102.748ZM141.51 96.736H140.406V95.512H137.874V94.432H140.406V92.932H141.51V94.432H144.618V92.944H145.722V94.432H148.29V95.512H145.722V96.748H144.618V95.512H141.51V96.736ZM142.182 96.82L143.142 96.364C143.814 97.324 144.522 98.596 144.81 99.436L143.754 99.964C143.514 99.136 142.83 97.816 142.182 96.82ZM142.398 102.64H144.486C145.086 102.64 145.194 102.388 145.266 100.912C145.506 101.104 145.998 101.272 146.298 101.356C146.142 103.228 145.818 103.72 144.558 103.72H142.302C140.886 103.72 140.514 103.372 140.514 102.136V98.248H141.63V102.124C141.63 102.568 141.75 102.64 142.398 102.64ZM146.13 98.896L147.186 98.596C147.774 99.772 148.338 101.296 148.494 102.268L147.354 102.628C147.21 101.668 146.682 100.096 146.13 98.896ZM152.754 94.264L152.07 95.152C151.626 94.804 150.738 94.24 150.102 93.832L150.762 93.052C151.374 93.4 152.286 93.928 152.754 94.264ZM152.178 97.396L151.506 98.296C151.062 97.96 150.174 97.408 149.526 97.036L150.174 96.232C150.798 96.568 151.698 97.072 152.178 97.396ZM151.494 99.34L152.382 99.964C151.914 101.212 151.302 102.652 150.75 103.78L149.742 103.18C150.246 102.244 150.966 100.708 151.494 99.34ZM154.194 94.54V96.808C154.194 98.896 153.978 101.932 152.574 103.912C152.382 103.732 151.902 103.444 151.638 103.324C152.982 101.452 153.102 98.752 153.102 96.808V93.532H160.446V94.54H154.194ZM155.094 100.54L156.09 100.816C155.706 101.68 155.13 102.652 154.638 103.252C154.434 103.108 154.002 102.844 153.75 102.712C154.266 102.148 154.782 101.308 155.094 100.54ZM155.766 98.248V99.124H159.006V98.248H155.766ZM155.766 96.592V97.456H159.006V96.592H155.766ZM160.05 99.952H157.854V102.844C157.854 103.348 157.77 103.624 157.41 103.768C157.062 103.936 156.534 103.948 155.754 103.936C155.718 103.66 155.574 103.252 155.466 102.976C155.97 103 156.462 102.988 156.606 102.988C156.75 102.988 156.798 102.94 156.798 102.808V99.952H154.77V95.752H156.486C156.606 95.38 156.738 94.936 156.81 94.612L158.058 94.84C157.902 95.164 157.734 95.464 157.59 95.752H160.05V99.952ZM158.454 100.792L159.414 100.432C159.858 101.152 160.422 102.124 160.686 102.712L159.666 103.156C159.414 102.556 158.886 101.548 158.454 100.792ZM171.458 95.62V94.996H169.67V95.62H171.458ZM171.458 96.928V96.304H169.67V96.928H171.458ZM171.458 98.284V97.612H169.67V98.284H171.458ZM167.738 99.004L166.622 99.424V102.676C166.622 103.228 166.514 103.528 166.214 103.696C165.878 103.888 165.422 103.924 164.702 103.924C164.678 103.636 164.534 103.156 164.402 102.868C164.846 102.88 165.254 102.88 165.386 102.88C165.53 102.868 165.578 102.832 165.578 102.676V99.82L164.522 100.216L164.222 99.148C164.606 99.028 165.074 98.872 165.578 98.692V96.304H164.33V95.272H165.578V92.932H166.622V95.272H167.618V95.8C168.326 95.068 168.914 94.024 169.226 92.92L170.186 93.16C170.078 93.508 169.958 93.856 169.802 94.192H171.53C171.374 93.892 171.17 93.532 170.99 93.256L171.986 92.896C172.274 93.28 172.61 93.808 172.754 94.156L172.658 94.192H174.818V94.996H172.454V95.62H174.434V96.304H172.454V96.928H174.434V97.612H172.454V98.284H174.938V99.1H169.67V99.376H168.71V96.088C168.482 96.388 168.254 96.652 168.002 96.88C167.93 96.748 167.762 96.472 167.618 96.244V96.304H166.622V98.332L167.57 97.996L167.738 99.004ZM172.922 100.684H175.046C175.046 100.684 175.022 100.96 174.998 101.104C174.854 102.592 174.71 103.264 174.398 103.552C174.182 103.78 173.942 103.852 173.582 103.876C173.282 103.9 172.706 103.9 172.106 103.864C172.094 103.576 171.974 103.192 171.806 102.928C172.37 102.976 172.934 102.988 173.162 102.988C173.366 102.988 173.486 102.976 173.582 102.892C173.738 102.76 173.858 102.352 173.954 101.512H171.674C171.77 101.236 171.89 100.912 171.998 100.576H170.654C170.39 102.328 169.574 103.348 168.074 103.996C167.954 103.78 167.582 103.36 167.354 103.18C168.662 102.7 169.358 101.908 169.55 100.576H168.002V99.676H173.258C173.15 100 173.03 100.348 172.922 100.684ZM187.178 99.064V100.156H182.366V102.508C182.366 103.24 182.162 103.552 181.658 103.72C181.166 103.9 180.35 103.924 179.114 103.912C179.042 103.612 178.826 103.108 178.646 102.808C179.606 102.844 180.566 102.844 180.842 102.832C181.106 102.832 181.202 102.748 181.202 102.496V100.156H176.378V99.064H181.202V97.36H177.194V96.292H181.202V94.66C179.918 94.768 178.61 94.852 177.398 94.9C177.386 94.624 177.242 94.168 177.134 93.928C179.966 93.796 183.35 93.484 185.222 92.944L186.05 93.856C185.006 94.156 183.734 94.36 182.366 94.528V96.292H186.494V97.36H182.366V99.064H187.178ZM194.306 100.456V102.556C194.954 102.688 195.662 102.724 196.394 102.724C196.85 102.736 198.722 102.724 199.31 102.712C199.154 102.976 198.974 103.492 198.914 103.792H196.346C193.874 103.792 191.954 103.372 190.73 101.416C190.346 102.424 189.794 103.336 189.002 103.972C188.81 103.756 188.426 103.408 188.174 103.24C189.566 102.16 190.13 100.096 190.31 98.38L191.474 98.524C191.39 99.052 191.282 99.592 191.138 100.132C191.618 101.188 192.302 101.836 193.166 102.22V97.756H188.534V96.724H193.154V95.284H189.578V94.252H193.154V92.944H194.294V94.252H198.098V95.284H194.294V96.724H198.986V97.756H194.306V99.448H198.194V100.456H194.306ZM208.31 100.444V96.088H203.798V95.032H208.31V92.992H209.45V95.032H211.01V96.088H209.45V100.456C209.45 101.152 209.282 101.464 208.814 101.632C208.358 101.812 207.59 101.848 206.474 101.848C206.426 101.524 206.246 101.02 206.09 100.708C206.906 100.744 207.758 100.744 207.998 100.732C208.226 100.72 208.31 100.66 208.31 100.444ZM204.266 97.336L205.154 96.844C205.754 97.552 206.51 98.536 206.846 99.16L205.91 99.736C205.586 99.112 204.854 98.08 204.266 97.336ZM203.33 95.272L202.406 95.92C202.082 95.344 201.314 94.48 200.666 93.856L201.53 93.28C202.19 93.88 202.97 94.708 203.33 95.272ZM203.018 97.36V101.404C203.234 101.548 203.474 101.728 203.834 101.932C204.602 102.4 205.67 102.484 206.99 102.484C208.31 102.484 210.17 102.376 211.334 102.232C211.19 102.544 211.01 103.12 210.986 103.456C210.158 103.504 208.118 103.576 206.954 103.576C205.466 103.576 204.47 103.444 203.606 102.94C203.09 102.64 202.694 102.244 202.43 102.244C202.058 102.244 201.506 102.988 200.978 103.756L200.186 102.664C200.786 102.016 201.398 101.524 201.926 101.308V98.404H200.402V97.36H203.018ZM215.006 94.756H214.478C214.094 95.356 213.674 95.884 213.254 96.292C213.05 96.124 212.594 95.884 212.318 95.752C213.146 95.056 213.866 93.976 214.274 92.872L215.294 93.124C215.186 93.4 215.066 93.652 214.946 93.916H217.886V94.756H216.122C216.314 95.128 216.494 95.512 216.59 95.8L215.606 96.16C215.51 95.788 215.246 95.212 215.006 94.756ZM217.118 99.052H214.742C214.706 99.376 214.658 99.688 214.61 99.988H217.118V99.052ZM218.222 97.192V98.128H221.042V97.192H218.222ZM218.222 99.988H222.614C222.614 99.988 222.602 100.264 222.578 100.42C222.434 102.04 222.29 102.772 221.978 103.084C221.75 103.324 221.51 103.408 221.15 103.432C220.85 103.456 220.262 103.468 219.65 103.432C219.638 103.12 219.506 102.7 219.338 102.412C219.878 102.472 220.43 102.484 220.634 102.472C220.838 102.472 220.958 102.46 221.054 102.376C221.198 102.22 221.306 101.824 221.414 100.936H218.222V103.936H217.118V101.392C216.086 102.484 214.634 103.408 213.278 103.924C213.11 103.672 212.81 103.252 212.558 103.048C213.89 102.64 215.294 101.836 216.254 100.936H213.362C213.53 100.18 213.698 99.04 213.794 98.128H217.118V97.192H213.374V96.268H222.134V99.052H218.222V99.988ZM219.734 93.904H223.154V94.744H221.21C221.498 95.092 221.738 95.476 221.87 95.764L220.91 96.16C220.742 95.776 220.37 95.2 219.998 94.744H219.338C219.026 95.32 218.666 95.836 218.306 96.232C218.078 96.064 217.598 95.788 217.334 95.656C218.042 94.996 218.618 93.94 218.942 92.872L220.022 93.112C219.938 93.388 219.842 93.64 219.734 93.904ZM230.133 102.1C230.901 102.1 231.501 101.404 231.501 100.264C231.501 99.124 230.997 98.488 230.049 98.488C229.533 98.488 228.933 98.764 228.405 99.52C228.549 101.272 229.185 102.1 230.133 102.1ZM232.641 94.948L231.885 95.788C231.561 95.404 231.021 95.128 230.505 95.128C229.377 95.128 228.441 95.98 228.381 98.5C228.897 97.864 229.665 97.48 230.301 97.48C231.789 97.48 232.785 98.392 232.785 100.264C232.785 102.016 231.585 103.156 230.145 103.156C228.465 103.156 227.097 101.752 227.097 98.752C227.097 95.356 228.693 94 230.433 94C231.417 94 232.137 94.42 232.641 94.948ZM239.636 100.216H242.048V98.092H239.636V100.216ZM247.412 100.216V101.296H243.2V103.948H242.048V101.296H236.588V100.216H238.52V97.048H242.048V95.392H239.3C238.784 96.28 238.184 97.072 237.572 97.672C237.356 97.48 236.876 97.12 236.6 96.952C237.704 96.004 238.664 94.48 239.216 92.884L240.344 93.184C240.2 93.556 240.032 93.952 239.876 94.312H246.824V95.392H243.2V97.048H246.548V98.092H243.2V100.216H247.412ZM250.052 101.728H252.284V99.076H250.052V101.728ZM252.284 95.824H250.052V98.104H252.284V95.824ZM255.68 94.792H259.16C259.16 94.792 259.16 95.176 259.148 95.32C258.98 100.732 258.836 102.592 258.356 103.192C258.056 103.588 257.768 103.696 257.312 103.756C256.892 103.804 256.184 103.792 255.5 103.756C255.476 103.456 255.344 102.988 255.14 102.676C255.908 102.736 256.604 102.748 256.904 102.748C257.144 102.748 257.276 102.712 257.408 102.544C257.792 102.148 257.948 100.336 258.104 95.812H255.272C254.936 96.58 254.564 97.276 254.18 97.828C254 97.66 253.58 97.36 253.304 97.204V102.712H250.052V103.624H249.032V94.852H250.376C250.544 94.276 250.724 93.484 250.796 92.908L252.008 93.112C251.804 93.712 251.576 94.348 251.384 94.852H253.304V97.12C254.096 96.088 254.732 94.492 255.092 92.908L256.172 93.16C256.028 93.712 255.872 94.264 255.68 94.792ZM257.216 100.204L256.28 100.792C255.944 100.06 255.164 98.884 254.528 98.02L255.404 97.528C256.04 98.356 256.856 99.496 257.216 100.204ZM270.92 101.044L270.056 101.848C269.468 101.248 268.58 100.492 267.584 99.688C266.684 100.624 265.556 101.344 264.176 101.884C264.056 101.644 263.732 101.14 263.516 100.912C264.824 100.468 265.892 99.844 266.732 99.016C265.784 98.272 264.788 97.552 263.912 96.94L264.668 96.268C265.508 96.856 266.468 97.528 267.416 98.212C267.944 97.528 268.34 96.712 268.652 95.764H263.552V94.72H266.912C266.744 94.264 266.456 93.652 266.18 93.196L267.248 92.848C267.572 93.376 267.956 94.096 268.112 94.564L267.644 94.72H271.292V95.764H269.816C269.432 96.976 268.928 98.008 268.28 98.872C269.312 99.652 270.272 100.432 270.92 101.044ZM263.3 95.26L262.352 95.932C262.04 95.392 261.308 94.588 260.696 94.024L261.572 93.424C262.196 93.952 262.94 94.72 263.3 95.26ZM263.144 97.384V101.584C263.384 101.692 263.648 101.896 264.044 102.112C264.812 102.52 265.88 102.592 267.164 102.592C268.448 102.592 270.332 102.496 271.532 102.34C271.4 102.664 271.208 103.252 271.184 103.588C270.296 103.648 268.328 103.708 267.128 103.708C265.7 103.708 264.68 103.576 263.852 103.144C263.348 102.868 262.952 102.544 262.688 102.544C262.304 102.544 261.74 103.216 261.2 103.876L260.42 102.784C260.972 102.256 261.56 101.812 262.076 101.608V98.416H260.624V97.384H263.144ZM272.552 97.72H283.472V98.932H272.552V97.72ZM287.636 100.216H290.048V98.092H287.636V100.216ZM295.412 100.216V101.296H291.2V103.948H290.048V101.296H284.588V100.216H286.52V97.048H290.048V95.392H287.3C286.784 96.28 286.184 97.072 285.572 97.672C285.356 97.48 284.876 97.12 284.6 96.952C285.704 96.004 286.664 94.48 287.216 92.884L288.344 93.184C288.2 93.556 288.032 93.952 287.876 94.312H294.824V95.392H291.2V97.048H294.548V98.092H291.2V100.216H295.412Z" fill="white"/>
<g clip-path="url(#clip0_400_525)">
<path d="M199.717 333.539C202.387 340.812 209.378 346 217.585 346C225.792 346 232.785 340.812 235.452 333.539H199.717Z" fill="url(#paint0_radial_400_525)"/>
<path d="M234.752 333.539C234.231 334.895 233.558 336.176 232.746 337.359H226.158C226.595 336.173 226.954 334.892 227.236 333.539H226.872C226.593 334.879 226.226 336.162 225.778 337.359H217.762V333.539H217.403V337.359H209.387C208.939 336.162 208.573 334.881 208.293 333.539H207.929C208.209 334.892 208.573 336.173 209.007 337.359H202.419C201.607 336.176 200.934 334.897 200.413 333.539H200.02C200.968 336.078 202.449 338.356 204.331 340.235C207.683 343.583 212.298 345.664 217.401 345.714V345.718H217.76V345.714C222.863 345.666 227.479 343.583 230.831 340.235C232.714 338.356 234.195 336.078 235.143 333.539H234.75H234.752ZM202.678 337.718H209.146C209.503 338.638 209.901 339.499 210.337 340.287C210.583 340.728 210.84 341.144 211.106 341.536H206.38C204.97 340.448 203.722 339.163 202.678 337.718ZM206.865 341.898H211.361C212.484 343.449 213.78 344.583 215.177 345.194C212.102 344.789 209.268 343.626 206.865 341.898ZM217.403 345.348C215.356 345.278 213.423 344.056 211.802 341.898H217.403V345.348ZM217.403 341.536H211.545C211.233 341.094 210.935 340.623 210.651 340.112C210.235 339.363 209.862 338.561 209.53 337.718H217.405V341.536H217.403ZM217.762 337.718H225.637C225.305 338.563 224.932 339.363 224.516 340.112C224.232 340.623 223.934 341.094 223.623 341.536H217.762V337.718ZM217.762 341.898H223.363C221.742 344.058 219.809 345.278 217.762 345.348V341.898ZM219.989 345.196C221.385 344.585 222.681 343.449 223.807 341.898H228.305C225.901 343.629 223.065 344.792 219.991 345.196H219.989ZM230.574 339.976C230.013 340.535 229.417 341.053 228.789 341.539H224.064C224.33 341.146 224.589 340.73 224.835 340.289C225.274 339.501 225.672 338.64 226.026 337.72H232.494C231.914 338.522 231.275 339.279 230.577 339.978L230.574 339.976Z" fill="#00AFEC"/>
<path d="M225.603 310.378V312.629H227.857V311.007C227.514 310.787 227.166 310.576 226.809 310.378H225.603ZM225.603 317.849H227.857V315.598H225.603V317.849ZM228.216 312.988V315.239H230.47V313.025C230.456 313.013 230.443 313 230.429 312.988H228.214H228.216ZM222.99 310.019H225.244V309.606C224.516 309.286 223.764 309.009 222.99 308.781V310.022V310.019ZM204.698 317.849H206.951V315.598H204.698V317.849ZM209.564 310.019V309.767C209.387 309.849 209.212 309.933 209.037 310.019H209.564ZM207.31 315.239H209.564V312.988H207.31V315.239ZM206.951 312.629V311.244C206.319 311.671 205.716 312.132 205.141 312.629H206.951ZM217.764 315.239H220.018V312.988H217.764V315.239ZM230.831 315.598V317.849H233.083V315.982C232.99 315.853 232.896 315.728 232.801 315.6H230.831V315.598ZM217.764 310.019H220.018V308.154C219.279 308.061 218.529 308.009 217.764 308V310.019ZM220.377 312.629H222.631V310.378H220.377V312.629ZM222.99 315.239H225.244V312.988H222.99V315.239ZM220.377 317.849H222.631V315.598H220.377V317.849ZM201.725 317.849V316.505C201.434 316.941 201.161 317.388 200.909 317.849H201.725ZM212.536 320.459H214.79V318.208H212.536V320.459ZM217.764 320.459H220.018V318.208H217.764V320.459ZM202.085 320.459H204.338V318.208H202.085V320.459ZM207.31 320.459H209.564V318.208H207.31V320.459ZM228.216 320.459H230.47V318.208H228.216V320.459ZM209.923 312.629H212.177V310.378H209.923V312.629ZM222.99 320.459H225.244V318.208H222.99V320.459ZM234.449 318.208H233.442V320.459H235.45C235.166 319.682 234.829 318.933 234.449 318.208ZM212.536 315.239H214.79V312.988H212.536V315.239ZM204.338 315.239V313.363C203.733 313.949 203.167 314.576 202.644 315.239H204.338ZM209.923 317.849H212.177V315.598H209.923V317.849ZM215.149 317.849H217.403V315.598H215.149V317.849ZM212.536 310.019H214.79V308.204C214.024 308.318 213.271 308.475 212.536 308.677V310.019ZM215.149 312.629H217.403V310.378H215.149V312.629Z" fill="url(#paint1_radial_400_525)"/>
<path d="M209.923 320.459H212.177V318.208H209.923V320.459ZM215.149 320.459H217.403V318.208H215.149V320.459ZM199.717 320.459H201.725V318.208H200.718C200.338 318.933 200.002 319.682 199.717 320.459ZM204.698 320.459H206.951V318.208H204.698V320.459ZM230.831 320.459H233.083V318.208H230.831V320.459ZM220.377 320.459H222.631V318.208H220.377V320.459ZM225.603 320.459H227.857V318.208H225.603V320.459ZM207.31 317.849H209.564V315.598H207.31V317.849ZM228.216 317.849H230.47V315.598H228.216V317.849ZM217.764 317.849H220.018V315.598H217.764V317.849ZM233.442 316.505V317.849H234.258C234.004 317.388 233.731 316.943 233.442 316.505ZM222.99 317.849H225.244V315.598H222.99V317.849ZM212.536 317.849H214.79V315.598H212.536V317.849ZM202.085 315.98V317.847H204.338V315.596H202.367C202.271 315.723 202.176 315.848 202.085 315.978V315.98ZM225.603 315.239H227.857V312.988H225.603V315.239ZM204.698 313.025V315.239H206.951V312.988H204.738C204.725 313 204.711 313.013 204.698 313.025ZM230.831 313.363V315.239H232.523C232 314.576 231.434 313.951 230.831 313.363ZM220.377 315.239H222.631V312.988H220.377V315.239ZM209.923 315.239H212.177V312.988H209.923V315.239ZM215.149 315.239H217.403V312.988H215.149V315.239ZM228.216 311.244V312.629H230.026C229.453 312.132 228.848 311.671 228.216 311.244ZM207.31 311.005V312.627H209.564V310.376H208.359C208.002 310.574 207.654 310.785 207.31 311.005ZM217.764 312.629H220.018V310.378H217.764V312.629ZM222.99 312.629H225.244V310.378H222.99V312.629ZM212.536 312.629H214.79V310.378H212.536V312.629ZM225.603 309.765V310.017H226.129C225.956 309.931 225.778 309.847 225.603 309.765ZM220.377 310.019H222.631V308.675C221.896 308.472 221.144 308.316 220.377 308.202V310.017V310.019ZM209.923 310.019H212.177V308.779C211.404 309.006 210.651 309.283 209.923 309.604V310.017V310.019ZM215.149 310.019H217.403V308C216.641 308.007 215.888 308.059 215.149 308.154V310.019Z" fill="url(#paint2_radial_400_525)"/>
<path d="M170.614 321.179H167V332.821H170.614V321.179Z" fill="white"/>
<path d="M175.15 327.001L180.974 321.179H176.437L170.614 327.001H175.15Z" fill="white"/>
<path d="M173.64 325.559H169.042L176.947 332.821H181.545L173.64 325.559Z" fill="white"/>
<path d="M268.165 321.177H264.554V332.818H268.165V321.177Z" fill="white"/>
<path d="M236.139 325.05C236.139 324.509 236.578 324.069 237.119 324.069L235.541 323.469L236.139 325.048V325.05Z" fill="white"/>
<path d="M236.139 328.952C236.139 329.495 236.578 329.934 237.119 329.934L235.541 330.533L236.139 328.952Z" fill="white"/>
<path d="M245.417 321.177H235.95V324.069H245.417V321.177Z" fill="white"/>
<path d="M232.528 324.069C232.528 322.472 233.822 321.177 235.418 321.177V324.069H232.528Z" fill="white"/>
<path d="M235.416 321.177L232.528 324.069V329.934L235.416 332.821H236.139V321.177H235.416Z" fill="white"/>
<path d="M232.528 329.934C232.528 331.528 233.822 332.821 235.418 332.821V329.934H232.528Z" fill="white"/>
<path d="M245.417 329.934H235.95V332.821H245.417V329.934Z" fill="white"/>
<path d="M245.417 325.559H234.786V328.446H245.417V325.559Z" fill="white"/>
<path d="M246.502 332.821H250.113V325.897L249.738 321.177H246.502V332.821Z" fill="white"/>
<path d="M257.191 329.672L252.106 322.41C251.189 321.104 249.388 320.786 248.081 321.702L247.489 322.117L254.987 332.821L257.191 329.672Z" fill="white"/>
<path d="M263.471 332.821H259.858V325.897L260.233 321.177H263.471V332.821Z" fill="white"/>
<path d="M252.783 329.672L257.87 322.41C258.787 321.104 260.588 320.786 261.895 321.702L262.487 322.117L254.987 332.821L252.783 329.672Z" fill="white"/>
<path d="M221.826 324.069H231.443V321.177H220.359C218.765 321.177 217.471 322.472 217.471 324.069V325.559C217.471 327.153 218.765 328.446 220.359 328.446H224.682V325.559H221.828C221.416 325.559 221.082 325.225 221.082 324.814C221.082 324.403 221.416 324.069 221.828 324.069H221.826Z" fill="white"/>
<path d="M227.086 329.934H217.469V332.821H228.553C230.147 332.821 231.443 331.528 231.443 329.934V328.446C231.443 326.853 230.149 325.559 228.553 325.559H224.232V328.446H227.086C227.497 328.446 227.832 328.78 227.832 329.191C227.832 329.602 227.5 329.934 227.086 329.934Z" fill="white"/>
<path d="M185.702 321.179H182.089V332.821H185.702V321.179Z" fill="white"/>
<path d="M186.785 332.821H190.396V325.897L189.589 321.179H186.785V332.821Z" fill="white"/>
<path d="M201.33 321.179H197.716V328.107L198.524 332.821H201.33V321.179Z" fill="white"/>
<path d="M191.633 322.024C190.505 320.898 188.674 320.898 187.547 322.024L187.037 322.535L196.484 331.973C197.612 333.1 199.44 333.102 200.57 331.973L201.082 331.462L191.638 322.022L191.633 322.024Z" fill="white"/>
<path d="M216.384 321.179H205.835V324.071H216.384V321.179Z" fill="white"/>
<path d="M202.412 324.069C202.412 322.472 203.706 321.177 205.302 321.177V324.069H202.412Z" fill="white"/>
<path d="M206.026 325.05C206.026 324.509 206.464 324.069 207.006 324.069L205.427 323.469L206.026 325.048V325.05Z" fill="white"/>
<path d="M206.026 328.952C206.026 329.495 206.464 329.934 207.006 329.934L205.427 330.533L206.026 328.952Z" fill="white"/>
<path d="M212.773 328.952C212.773 329.495 212.334 329.934 211.793 329.934L213.371 330.533L212.773 328.952Z" fill="white"/>
<path d="M205.302 321.179L202.412 324.069V329.934L205.302 332.821H206.026V321.179H205.302Z" fill="white"/>
<path d="M202.412 329.934C202.412 331.528 203.706 332.821 205.302 332.821V329.934H202.412Z" fill="white"/>
<path d="M216.386 327.515H212.773V332.821H213.496L216.386 329.934V327.515Z" fill="white"/>
<path d="M205.835 329.934L205.832 332.821H212.964V329.934H205.835Z" fill="white"/>
<path d="M216.386 329.934C216.386 331.528 215.092 332.821 213.496 332.821V329.934H216.386Z" fill="white"/>
<path d="M216.386 325.559H209.4V328.446H216.386V325.559Z" fill="white"/>
<path d="M289.965 332.41H288.227L289.178 329H290.913L289.965 332.41Z" fill="white"/>
<path d="M294.267 332.41H296L295.05 329H293.317L294.267 332.41Z" fill="white"/>
<path d="M291.673 323.521C291.732 323.317 291.814 323.035 291.893 322.758L289.96 322.762C289.878 323.019 289.803 323.308 289.737 323.521H289V328.637H291.122C291.122 328.637 291.122 331.215 291.122 331.406H290.533V332.796H292.28C292.725 332.796 293.087 332.435 293.087 331.989V328.637H294.349C294.795 328.637 295.159 328.275 295.159 327.828V323.521H291.677H291.673ZM293.292 327.074C293.292 327.194 293.196 327.29 293.073 327.29H290.863V326.669H293.294V327.072L293.292 327.074ZM293.294 325.484H290.863V324.864H293.294V325.484Z" fill="white"/>
<path d="M286.208 323.71C286.105 322.849 285.846 322.006 285.432 321.179H283.572C283.952 322.247 284.227 323.09 284.297 323.71H286.21H286.208Z" fill="white"/>
<path d="M283.777 324.278C284.052 324.968 284.277 325.793 284.45 326.758H286.362C286.156 325.69 285.915 324.864 285.639 324.278H283.777Z" fill="white"/>
<path d="M295.568 322.831V321.334H286.674V329.134C286.704 329.913 286.576 330.304 286.258 330.69V332.823C287.943 331.926 288.739 330.561 288.639 328.721V322.833H295.568V322.831Z" fill="white"/>
<path d="M284.42 327.428C284.352 329.082 284.157 330.804 283.468 332.594H285.535C285.983 330.976 286.258 329.254 286.362 327.428H284.42Z" fill="white"/>
<path d="M270.928 325.815H272.898L272.422 332.414H270.455L270.931 325.815H270.928ZM272.713 324.689V323.707H270.335V322.158H272.713V321.279H274.937V322.158H277.678V321.279H279.85V322.158H282.281V323.707H279.85V324.689H277.678V323.707H274.937V324.689H272.713ZM273.334 325.332H275.713V330.577C275.679 331.163 275.936 331.437 276.488 331.403H280.006L280.002 332.798H275.349C273.946 332.798 273.332 332.228 273.332 330.888V325.332H273.334ZM281.853 325.815L282.385 332.412H280.416L279.89 325.815H281.853Z" fill="white"/>
<path d="M279.135 330.286H277.191L276.363 325.325H278.305L279.135 330.286Z" fill="white"/>
</g>
<defs>
<radialGradient id="paint0_radial_400_525" cx="0" cy="0" r="1" gradientUnits="userSpaceOnUse" gradientTransform="translate(217.583 346) scale(12.4757 12.4615)">
<stop stop-color="#00AFEC"/>
<stop offset="0.14" stop-color="#0096D9"/>
<stop offset="0.4" stop-color="#0071BD"/>
<stop offset="0.63" stop-color="#0056A8"/>
<stop offset="0.84" stop-color="#00459C"/>
<stop offset="1" stop-color="#004098"/>
</radialGradient>
<radialGradient id="paint1_radial_400_525" cx="0" cy="0" r="1" gradientUnits="userSpaceOnUse" gradientTransform="translate(218.178 314.231) scale(12.9851 12.9703)">
<stop stop-color="#FFE100"/>
<stop offset="1" stop-color="#F6AB00"/>
</radialGradient>
<radialGradient id="paint2_radial_400_525" cx="0" cy="0" r="1" gradientUnits="userSpaceOnUse" gradientTransform="translate(216.989 314.231) scale(12.9851 12.9703)">
<stop stop-color="#FFF100"/>
<stop offset="1" stop-color="#FABE00"/>
</radialGradient>
<clipPath id="clip0_400_525">
<rect width="129" height="38" fill="white" transform="translate(167 308)"/>
</clipPath>
</defs>
</svg>
