<svg width="136" height="37" viewBox="160 310 136 37" fill="none" xmlns="http://www.w3.org/2000/svg">
<path d="M111.2 99.52V102.616H114.212V103.66H107.048V102.616H110.072V99.52H107.504V98.488H110.072V96.328H111.2V98.488H113.756V99.52H111.2ZM108.224 94.684H114.224V95.752H107.768C107.36 96.604 106.892 97.42 106.34 98.164V103.924H105.224V99.46C104.84 99.832 104.42 100.192 103.976 100.504C103.856 100.204 103.604 99.724 103.424 99.46C104.744 98.56 105.764 97.216 106.508 95.752H103.748V94.684H106.988C107.24 94.096 107.42 93.508 107.576 92.92L108.74 93.208C108.584 93.7 108.416 94.192 108.224 94.684ZM123.092 100.012V101.08H115.688V100.012H123.092ZM118.376 97.48H125.732C125.732 97.48 125.72 97.828 125.684 97.996C125.372 101.368 125.048 102.772 124.496 103.312C124.148 103.66 123.8 103.756 123.248 103.792C122.78 103.828 121.928 103.816 121.076 103.768C121.052 103.444 120.884 102.976 120.656 102.652C121.58 102.736 122.516 102.748 122.9 102.748C123.188 102.748 123.368 102.736 123.536 102.604C123.944 102.268 124.256 101.032 124.496 98.512H116.948C117.32 97.156 117.8 94.864 118.076 93.172L119.216 93.28C119.144 93.664 119.072 94.072 118.988 94.492H125.492V95.56H118.784C118.652 96.232 118.508 96.892 118.376 97.48ZM132.172 99.388H134.584L134.236 98.2C133.936 97.24 133.672 96.256 133.396 95.26H133.348C133.096 96.268 132.82 97.24 132.532 98.2L132.172 99.388ZM135.664 103L134.92 100.48H131.848L131.092 103H129.676L132.604 94.168H134.212L137.14 103H135.664ZM138.305 103V94.168H139.901L141.521 98.632C141.725 99.22 141.905 99.82 142.109 100.42H142.169C142.373 99.82 142.541 99.22 142.745 98.632L144.341 94.168H145.949V103H144.653V98.632C144.653 97.84 144.761 96.7 144.833 95.896H144.785L144.077 97.936L142.541 102.148H141.677L140.129 97.936L139.433 95.896H139.385C139.445 96.7 139.553 97.84 139.553 98.632V103H138.305ZM149.598 99.388H152.01L151.662 98.2C151.362 97.24 151.098 96.256 150.822 95.26H150.774C150.522 96.268 150.246 97.24 149.958 98.2L149.598 99.388ZM153.09 103L152.346 100.48H149.274L148.518 103H147.102L150.03 94.168H151.638L154.566 103H153.09ZM156.71 103V95.332H154.118V94.168H160.706V95.332H158.102V103H156.71ZM171.458 95.62V94.996H169.67V95.62H171.458ZM171.458 96.928V96.304H169.67V96.928H171.458ZM171.458 98.284V97.612H169.67V98.284H171.458ZM167.738 99.004L166.622 99.424V102.676C166.622 103.228 166.514 103.528 166.214 103.696C165.878 103.888 165.422 103.924 164.702 103.924C164.678 103.636 164.534 103.156 164.402 102.868C164.846 102.88 165.254 102.88 165.386 102.88C165.53 102.868 165.578 102.832 165.578 102.676V99.82L164.522 100.216L164.222 99.148C164.606 99.028 165.074 98.872 165.578 98.692V96.304H164.33V95.272H165.578V92.932H166.622V95.272H167.618V95.8C168.326 95.068 168.914 94.024 169.226 92.92L170.186 93.16C170.078 93.508 169.958 93.856 169.802 94.192H171.53C171.374 93.892 171.17 93.532 170.99 93.256L171.986 92.896C172.274 93.28 172.61 93.808 172.754 94.156L172.658 94.192H174.818V94.996H172.454V95.62H174.434V96.304H172.454V96.928H174.434V97.612H172.454V98.284H174.938V99.1H169.67V99.376H168.71V96.088C168.482 96.388 168.254 96.652 168.002 96.88C167.93 96.748 167.762 96.472 167.618 96.244V96.304H166.622V98.332L167.57 97.996L167.738 99.004ZM172.922 100.684H175.046C175.046 100.684 175.022 100.96 174.998 101.104C174.854 102.592 174.71 103.264 174.398 103.552C174.182 103.78 173.942 103.852 173.582 103.876C173.282 103.9 172.706 103.9 172.106 103.864C172.094 103.576 171.974 103.192 171.806 102.928C172.37 102.976 172.934 102.988 173.162 102.988C173.366 102.988 173.486 102.976 173.582 102.892C173.738 102.76 173.858 102.352 173.954 101.512H171.674C171.77 101.236 171.89 100.912 171.998 100.576H170.654C170.39 102.328 169.574 103.348 168.074 103.996C167.954 103.78 167.582 103.36 167.354 103.18C168.662 102.7 169.358 101.908 169.55 100.576H168.002V99.676H173.258C173.15 100 173.03 100.348 172.922 100.684ZM187.178 99.064V100.156H182.366V102.508C182.366 103.24 182.162 103.552 181.658 103.72C181.166 103.9 180.35 103.924 179.114 103.912C179.042 103.612 178.826 103.108 178.646 102.808C179.606 102.844 180.566 102.844 180.842 102.832C181.106 102.832 181.202 102.748 181.202 102.496V100.156H176.378V99.064H181.202V97.36H177.194V96.292H181.202V94.66C179.918 94.768 178.61 94.852 177.398 94.9C177.386 94.624 177.242 94.168 177.134 93.928C179.966 93.796 183.35 93.484 185.222 92.944L186.05 93.856C185.006 94.156 183.734 94.36 182.366 94.528V96.292H186.494V97.36H182.366V99.064H187.178ZM194.306 100.456V102.556C194.954 102.688 195.662 102.724 196.394 102.724C196.85 102.736 198.722 102.724 199.31 102.712C199.154 102.976 198.974 103.492 198.914 103.792H196.346C193.874 103.792 191.954 103.372 190.73 101.416C190.346 102.424 189.794 103.336 189.002 103.972C188.81 103.756 188.426 103.408 188.174 103.24C189.566 102.16 190.13 100.096 190.31 98.38L191.474 98.524C191.39 99.052 191.282 99.592 191.138 100.132C191.618 101.188 192.302 101.836 193.166 102.22V97.756H188.534V96.724H193.154V95.284H189.578V94.252H193.154V92.944H194.294V94.252H198.098V95.284H194.294V96.724H198.986V97.756H194.306V99.448H198.194V100.456H194.306ZM208.31 100.444V96.088H203.798V95.032H208.31V92.992H209.45V95.032H211.01V96.088H209.45V100.456C209.45 101.152 209.282 101.464 208.814 101.632C208.358 101.812 207.59 101.848 206.474 101.848C206.426 101.524 206.246 101.02 206.09 100.708C206.906 100.744 207.758 100.744 207.998 100.732C208.226 100.72 208.31 100.66 208.31 100.444ZM204.266 97.336L205.154 96.844C205.754 97.552 206.51 98.536 206.846 99.16L205.91 99.736C205.586 99.112 204.854 98.08 204.266 97.336ZM203.33 95.272L202.406 95.92C202.082 95.344 201.314 94.48 200.666 93.856L201.53 93.28C202.19 93.88 202.97 94.708 203.33 95.272ZM203.018 97.36V101.404C203.234 101.548 203.474 101.728 203.834 101.932C204.602 102.4 205.67 102.484 206.99 102.484C208.31 102.484 210.17 102.376 211.334 102.232C211.19 102.544 211.01 103.12 210.986 103.456C210.158 103.504 208.118 103.576 206.954 103.576C205.466 103.576 204.47 103.444 203.606 102.94C203.09 102.64 202.694 102.244 202.43 102.244C202.058 102.244 201.506 102.988 200.978 103.756L200.186 102.664C200.786 102.016 201.398 101.524 201.926 101.308V98.404H200.402V97.36H203.018ZM215.006 94.756H214.478C214.094 95.356 213.674 95.884 213.254 96.292C213.05 96.124 212.594 95.884 212.318 95.752C213.146 95.056 213.866 93.976 214.274 92.872L215.294 93.124C215.186 93.4 215.066 93.652 214.946 93.916H217.886V94.756H216.122C216.314 95.128 216.494 95.512 216.59 95.8L215.606 96.16C215.51 95.788 215.246 95.212 215.006 94.756ZM217.118 99.052H214.742C214.706 99.376 214.658 99.688 214.61 99.988H217.118V99.052ZM218.222 97.192V98.128H221.042V97.192H218.222ZM218.222 99.988H222.614C222.614 99.988 222.602 100.264 222.578 100.42C222.434 102.04 222.29 102.772 221.978 103.084C221.75 103.324 221.51 103.408 221.15 103.432C220.85 103.456 220.262 103.468 219.65 103.432C219.638 103.12 219.506 102.7 219.338 102.412C219.878 102.472 220.43 102.484 220.634 102.472C220.838 102.472 220.958 102.46 221.054 102.376C221.198 102.22 221.306 101.824 221.414 100.936H218.222V103.936H217.118V101.392C216.086 102.484 214.634 103.408 213.278 103.924C213.11 103.672 212.81 103.252 212.558 103.048C213.89 102.64 215.294 101.836 216.254 100.936H213.362C213.53 100.18 213.698 99.04 213.794 98.128H217.118V97.192H213.374V96.268H222.134V99.052H218.222V99.988ZM219.734 93.904H223.154V94.744H221.21C221.498 95.092 221.738 95.476 221.87 95.764L220.91 96.16C220.742 95.776 220.37 95.2 219.998 94.744H219.338C219.026 95.32 218.666 95.836 218.306 96.232C218.078 96.064 217.598 95.788 217.334 95.656C218.042 94.996 218.618 93.94 218.942 92.872L220.022 93.112C219.938 93.388 219.842 93.64 219.734 93.904ZM230.133 102.1C230.901 102.1 231.501 101.404 231.501 100.264C231.501 99.124 230.997 98.488 230.049 98.488C229.533 98.488 228.933 98.764 228.405 99.52C228.549 101.272 229.185 102.1 230.133 102.1ZM232.641 94.948L231.885 95.788C231.561 95.404 231.021 95.128 230.505 95.128C229.377 95.128 228.441 95.98 228.381 98.5C228.897 97.864 229.665 97.48 230.301 97.48C231.789 97.48 232.785 98.392 232.785 100.264C232.785 102.016 231.585 103.156 230.145 103.156C228.465 103.156 227.097 101.752 227.097 98.752C227.097 95.356 228.693 94 230.433 94C231.417 94 232.137 94.42 232.641 94.948ZM239.636 100.216H242.048V98.092H239.636V100.216ZM247.412 100.216V101.296H243.2V103.948H242.048V101.296H236.588V100.216H238.52V97.048H242.048V95.392H239.3C238.784 96.28 238.184 97.072 237.572 97.672C237.356 97.48 236.876 97.12 236.6 96.952C237.704 96.004 238.664 94.48 239.216 92.884L240.344 93.184C240.2 93.556 240.032 93.952 239.876 94.312H246.824V95.392H243.2V97.048H246.548V98.092H243.2V100.216H247.412ZM250.052 101.728H252.284V99.076H250.052V101.728ZM252.284 95.824H250.052V98.104H252.284V95.824ZM255.68 94.792H259.16C259.16 94.792 259.16 95.176 259.148 95.32C258.98 100.732 258.836 102.592 258.356 103.192C258.056 103.588 257.768 103.696 257.312 103.756C256.892 103.804 256.184 103.792 255.5 103.756C255.476 103.456 255.344 102.988 255.14 102.676C255.908 102.736 256.604 102.748 256.904 102.748C257.144 102.748 257.276 102.712 257.408 102.544C257.792 102.148 257.948 100.336 258.104 95.812H255.272C254.936 96.58 254.564 97.276 254.18 97.828C254 97.66 253.58 97.36 253.304 97.204V102.712H250.052V103.624H249.032V94.852H250.376C250.544 94.276 250.724 93.484 250.796 92.908L252.008 93.112C251.804 93.712 251.576 94.348 251.384 94.852H253.304V97.12C254.096 96.088 254.732 94.492 255.092 92.908L256.172 93.16C256.028 93.712 255.872 94.264 255.68 94.792ZM257.216 100.204L256.28 100.792C255.944 100.06 255.164 98.884 254.528 98.02L255.404 97.528C256.04 98.356 256.856 99.496 257.216 100.204ZM270.92 101.044L270.056 101.848C269.468 101.248 268.58 100.492 267.584 99.688C266.684 100.624 265.556 101.344 264.176 101.884C264.056 101.644 263.732 101.14 263.516 100.912C264.824 100.468 265.892 99.844 266.732 99.016C265.784 98.272 264.788 97.552 263.912 96.94L264.668 96.268C265.508 96.856 266.468 97.528 267.416 98.212C267.944 97.528 268.34 96.712 268.652 95.764H263.552V94.72H266.912C266.744 94.264 266.456 93.652 266.18 93.196L267.248 92.848C267.572 93.376 267.956 94.096 268.112 94.564L267.644 94.72H271.292V95.764H269.816C269.432 96.976 268.928 98.008 268.28 98.872C269.312 99.652 270.272 100.432 270.92 101.044ZM263.3 95.26L262.352 95.932C262.04 95.392 261.308 94.588 260.696 94.024L261.572 93.424C262.196 93.952 262.94 94.72 263.3 95.26ZM263.144 97.384V101.584C263.384 101.692 263.648 101.896 264.044 102.112C264.812 102.52 265.88 102.592 267.164 102.592C268.448 102.592 270.332 102.496 271.532 102.34C271.4 102.664 271.208 103.252 271.184 103.588C270.296 103.648 268.328 103.708 267.128 103.708C265.7 103.708 264.68 103.576 263.852 103.144C263.348 102.868 262.952 102.544 262.688 102.544C262.304 102.544 261.74 103.216 261.2 103.876L260.42 102.784C260.972 102.256 261.56 101.812 262.076 101.608V98.416H260.624V97.384H263.144ZM272.552 97.72H283.472V98.932H272.552V97.72ZM287.636 100.216H290.048V98.092H287.636V100.216ZM295.412 100.216V101.296H291.2V103.948H290.048V101.296H284.588V100.216H286.52V97.048H290.048V95.392H287.3C286.784 96.28 286.184 97.072 285.572 97.672C285.356 97.48 284.876 97.12 284.6 96.952C285.704 96.004 286.664 94.48 287.216 92.884L288.344 93.184C288.2 93.556 288.032 93.952 287.876 94.312H294.824V95.392H291.2V97.048H294.548V98.092H291.2V100.216H295.412Z" fill="white"/>
<g clip-path="url(#clip0_400_533)">
<path d="M192.281 316.308L178.43 316.297L176.288 318.443L192.281 318.451C194.725 318.451 196.701 320.374 196.701 322.742V342.843H198.918L198.925 322.742C198.925 319.188 195.95 316.308 192.281 316.308ZM203.359 342.843L203.357 322.742C203.357 316.821 198.397 312.001 192.28 312.001L182.714 312L180.572 314.146L192.281 314.149C197.173 314.149 201.139 318.004 201.139 322.742V342.843H203.359ZM192.281 320.597L174.149 320.593L172 322.738H172.029L172 322.742L172.001 332.106C172.001 337.568 176.199 342.089 181.658 342.762L183.704 340.702L183.078 340.698C178.184 340.698 174.217 336.842 174.217 332.106V322.738H176.437L176.432 332.106C176.432 335.656 179.407 338.538 183.078 338.538H185.861L187.999 336.393H183.078C180.632 336.393 178.657 334.472 178.657 332.106V322.738H180.855L180.857 332.106C180.864 333.29 181.853 334.246 183.077 334.246H190.137L192.273 332.108L183.077 332.106V322.74L192.28 322.742V342.843H194.501L194.501 322.742C194.494 321.556 193.504 320.597 192.281 320.597Z" fill="white"/>
<path d="M266.399 328.099V323.905H273.397H273.589V323.718V322.375V322.186H273.397H266.399V318.105H274.246H274.436V317.916V316.572V316.384H274.246H264.722H264.532V316.572V329.632V329.818H264.722H274.339H274.529V329.632V328.288V328.099H274.339H266.399ZM219.064 332.742H218.963L218.907 332.826L215.484 337.908L212.061 332.826L212.005 332.742H211.904H210.78H210.591V332.93V342.672V342.86H210.78H211.862H212.052V342.672V335.406L215.285 340.107L215.341 340.188H215.442H215.499H215.599L215.655 340.107L218.889 335.394V342.673V342.861H219.079H220.188H220.378V342.673V332.931V332.743H220.188H219.064V332.742ZM276.234 341.468V332.93V332.742H276.045H274.936H274.747V332.93V342.672V342.86H274.936H279.922H280.112V342.672V341.657V341.468H279.922H276.234ZM211.772 329.819L211.823 329.709L213.334 326.369H220.258L221.752 329.708L221.801 329.819H221.926H223.524H223.819L223.697 329.554L217.694 316.402L217.645 316.291H217.522H216.129H216.006L215.956 316.402L209.952 329.554L209.83 329.819H210.126H211.649H211.772ZM216.807 318.657L219.507 324.668H214.089L216.807 318.657ZM227.233 329.819H227.421V329.633V325.212H230.432C233.103 325.212 235.797 323.833 235.797 320.752V320.714C235.797 318.084 233.787 316.384 230.676 316.384H225.746H225.556V316.572V329.632V329.818H225.746H227.233V329.819ZM227.422 318.122H230.564C232.692 318.122 233.912 319.087 233.912 320.77V320.808C233.912 322.438 232.568 323.492 230.488 323.492H227.421L227.422 318.122ZM261.611 329.819V329.633V316.572V316.384H261.422H259.934H259.743V316.572V329.632V329.818H259.934H261.422H261.611V329.819ZM285.506 337.088C283.377 336.635 282.987 336.157 282.987 335.38V335.352C282.987 334.537 283.769 333.968 284.889 333.968C285.886 333.968 286.749 334.291 287.605 334.983L287.758 335.108L287.879 334.951L288.524 334.103L288.635 333.957L288.49 333.842C287.401 332.974 286.333 332.603 284.919 332.603C282.938 332.603 281.499 333.801 281.499 335.451V335.478C281.499 337.348 282.877 338.027 284.948 338.473C286.982 338.897 287.354 339.368 287.354 340.139V340.167C287.354 341.045 286.55 341.635 285.353 341.635C284.104 341.635 283.165 341.25 282.111 340.306L281.965 340.176L281.837 340.324L281.15 341.133L281.032 341.272L281.169 341.395C282.407 342.49 283.724 343.001 285.312 343.001C287.399 343.001 288.857 341.791 288.857 340.058V340.029C288.857 338.476 287.854 337.596 285.506 337.088ZM281.587 329.819C285.756 329.819 288.779 326.996 288.779 323.101V323.064C288.779 319.193 285.756 316.383 281.587 316.383H277.015H276.825V316.572V329.632V329.818H277.015H281.587V329.819ZM278.692 318.122H281.587C284.69 318.122 286.857 320.17 286.857 323.101V323.139C286.857 326.049 284.69 328.081 281.587 328.081H278.692V318.122ZM227.705 332.783L227.654 332.673H227.532H226.491H226.369L226.319 332.783L221.84 342.594L221.719 342.86H222.014H223.151H223.273L223.325 342.749L224.438 340.286H229.542L230.642 342.748L230.692 342.86H230.815H232.009H232.304L232.182 342.594L227.705 332.783ZM225.045 338.921L226.996 334.603L228.937 338.921H225.045ZM257.625 329.819V329.633V328.271V328.082H257.436H251.67V316.572V316.384H251.481H249.993H249.803V316.572V329.632V329.818H249.993H257.436H257.625V329.819ZM255.376 338.805C256.962 338.418 257.909 337.337 257.909 335.853V335.825C257.909 335.02 257.62 334.292 257.095 333.772C256.426 333.108 255.385 332.742 254.166 332.742H249.94H249.751V332.93V342.672V342.86H249.94H251.05H251.239V342.672V339.075H253.761L256.556 342.785L256.613 342.86H256.708H258.07H258.451L258.221 342.559L255.376 338.805ZM251.239 337.71V334.136H254.083C255.56 334.136 256.407 334.766 256.407 335.868V335.896C256.407 336.998 255.49 337.71 254.07 337.71L251.239 337.71ZM241.819 341.483V338.45H246.991H247.182V338.261V337.26V337.07H246.991H241.819V334.123H247.622H247.813V333.933V332.932V332.743H247.622H240.52H240.33V332.932V342.673V342.862H240.52H247.694H247.884V342.673V341.672V341.484H247.694H241.819V341.483ZM260.133 332.742H259.942V332.93V342.672V342.86H260.133H261.241H261.432V342.672V332.93V332.742H261.241H260.133ZM247.948 320.751V320.713C247.948 318.084 245.938 316.383 242.827 316.383H237.897H237.707V316.572V329.632V329.818H237.897H239.384H239.574V329.632V325.211H242.583C245.254 325.212 247.948 323.833 247.948 320.751ZM239.574 318.122H242.714C244.841 318.122 246.063 319.087 246.063 320.77V320.808C246.063 322.438 244.718 323.492 242.639 323.492H239.573L239.574 318.122ZM230.901 332.742H230.712V332.93V333.946V334.136H230.901H234.01V342.672V342.86H234.199H235.326H235.517V342.672V334.136H238.626H238.815V333.946V332.93V332.742H238.626H230.901ZM268.805 332.783L268.753 332.673H268.633H267.593H267.47L267.421 332.783L262.942 342.594L262.82 342.86H263.116H264.252H264.374L264.426 342.749L265.539 340.286H270.643L271.744 342.748L271.793 342.86H271.917H273.111H273.406L273.284 342.594L268.805 332.783ZM266.146 338.921L268.097 334.603L270.038 338.921H266.146Z" fill="white"/>
<path d="M291.237 340.642V340.627C291.237 339.344 292.289 338.269 293.625 338.269C294.959 338.269 295.999 339.331 295.999 340.616V340.627C295.999 341.912 294.946 342.99 293.612 342.99C292.277 342.99 291.237 341.928 291.237 340.642ZM295.783 340.627V340.616C295.783 339.435 294.855 338.472 293.626 338.472C292.389 338.472 291.454 339.448 291.454 340.627V340.642C291.454 341.821 292.382 342.785 293.612 342.785C294.847 342.785 295.783 341.808 295.783 340.627ZM292.684 339.351H293.776C294.085 339.351 294.34 339.448 294.499 339.605C294.618 339.715 294.696 339.879 294.696 340.073V340.087C294.696 340.478 294.432 340.711 294.066 340.797L294.822 341.769H294.374L293.671 340.856H293.658H293.045V341.769H292.683L292.684 339.351ZM293.742 340.536C294.086 340.536 294.324 340.381 294.324 340.107V340.095C294.324 339.84 294.113 339.675 293.765 339.675H293.046V340.536H293.742Z" fill="white"/>
</g>
<defs>
<clipPath id="clip0_400_533">
<rect width="124" height="31" fill="white" transform="translate(172 312)"/>
</clipPath>
</defs>
</svg>
