<svg width="101" height="12" viewBox="0 0 101 12" fill="none" xmlns="http://www.w3.org/2000/svg">
<path d="M7.77664 6.67201V9.76801H10.7886V10.812H3.62464V9.76801H6.64864V6.67201H4.08064V5.64001H6.64864V3.48001H7.77664V5.64001H10.3326V6.67201H7.77664ZM4.80064 1.83601H10.8006V2.90401H4.34464C3.93664 3.75601 3.46864 4.57201 2.91664 5.31601V11.076H1.80064V6.61201C1.41664 6.98401 0.996641 7.34401 0.552641 7.65601C0.432641 7.35601 0.180641 6.87601 0.000640631 6.61201C1.32064 5.71201 2.34064 4.36801 3.08464 2.90401H0.324641V1.83601H3.56464C3.81664 1.24801 3.99664 0.660008 4.15264 0.0720077L5.31664 0.360008C5.16064 0.852008 4.99264 1.34401 4.80064 1.83601ZM19.6686 7.16401V8.23201H12.2646V7.16401H19.6686ZM14.9526 4.63201H22.3086C22.3086 4.63201 22.2966 4.98001 22.2606 5.14801C21.9486 8.52001 21.6246 9.92401 21.0726 10.464C20.7246 10.812 20.3766 10.908 19.8246 10.944C19.3566 10.98 18.5046 10.968 17.6526 10.92C17.6286 10.596 17.4606 10.128 17.2326 9.80401C18.1566 9.88801 19.0926 9.90001 19.4766 9.90001C19.7646 9.90001 19.9446 9.88801 20.1126 9.75601C20.5206 9.42001 20.8326 8.18401 21.0726 5.66401H13.5246C13.8966 4.30801 14.3766 2.01601 14.6526 0.324007L15.7926 0.432007C15.7206 0.816007 15.6486 1.22401 15.5646 1.64401H22.0686V2.71201H15.3606C15.2286 3.38401 15.0846 4.04401 14.9526 4.63201ZM30.296 1.62001H33.968C34.028 1.45201 34.076 1.30801 34.124 1.16401H30.5C30.44 1.32001 30.368 1.47601 30.296 1.62001ZM35.936 3.30001L36.56 4.00801C36.056 4.20001 35.468 4.39201 34.88 4.57201C35.444 5.25601 36.368 5.71201 37.568 5.90401C37.364 6.08401 37.1 6.45601 36.98 6.70801C35.636 6.40801 34.64 5.74801 34.028 4.78801C33.776 4.84801 33.548 4.90801 33.32 4.95601C33.56 5.65201 33.44 6.30001 33.056 6.62401C32.756 6.90001 32.444 6.96001 32.072 6.97201C31.868 6.97201 31.604 6.97201 31.364 6.96001C31.34 6.74401 31.268 6.42001 31.124 6.20401C31.4 6.22801 31.7 6.24001 31.88 6.24001C32.072 6.24001 32.228 6.22801 32.36 6.10801C32.54 5.96401 32.624 5.65201 32.528 5.28001C31.28 5.96401 29.384 6.58801 27.788 6.82801C27.704 6.63601 27.536 6.37201 27.38 6.19201C29.084 6.00001 31.136 5.40001 32.3 4.71601C32.228 4.60801 32.156 4.50001 32.06 4.39201C31.064 4.87201 29.492 5.35201 28.28 5.60401C28.196 5.44801 28.028 5.20801 27.884 5.06401C29.096 4.89601 30.728 4.46401 31.688 4.00801C31.58 3.92401 31.472 3.84001 31.352 3.75601C30.332 4.12801 29.108 4.39201 28.064 4.58401C27.98 4.44001 27.764 4.14001 27.656 4.02001C28.796 3.87601 30.14 3.62401 31.16 3.28801H27.08V2.60401H33.608C33.668 2.47201 33.716 2.34001 33.776 2.19601H28.952C29.264 1.60801 29.648 0.720008 29.924 7.86781e-06L30.92 0.168008C30.86 0.300008 30.812 0.444008 30.752 0.588007H34.412L34.592 0.540007L35.336 0.708007C35.144 1.35601 34.928 2.00401 34.7 2.60401H37.412V3.28801H32.444C32.348 3.34801 32.252 3.39601 32.132 3.45601C32.48 3.69601 32.756 3.98401 32.96 4.27201C33.968 4.03201 35.168 3.62401 35.936 3.30001ZM28.112 8.62801H29.072V7.92001H28.112V8.62801ZM30.908 7.92001H29.948V8.62801H30.908V7.92001ZM30.548 9.52801L31.268 9.26401C31.64 9.74401 32.024 10.38 32.204 10.8L31.436 11.112C31.388 10.98 31.328 10.824 31.244 10.656C29.66 10.764 28.1 10.836 26.912 10.908L26.84 10.104C27.452 10.08 28.232 10.056 29.072 10.032V9.26401H27.296V7.28401H29.072V6.67201H29.948V7.28401H31.76V9.26401H29.948V9.99601L30.836 9.96001C30.74 9.81601 30.644 9.67201 30.548 9.52801ZM35.264 9.99601L36.2 9.96001C36.068 9.81601 35.96 9.66001 35.828 9.51601L36.344 9.28801H35.264V9.99601ZM33.356 8.65201H34.388V7.92001H33.356V8.65201ZM36.284 7.92001H35.264V8.65201H36.284V7.92001ZM37.772 10.764L37.004 11.16C36.92 11.016 36.812 10.836 36.704 10.644C35.144 10.752 33.572 10.848 32.372 10.908L32.288 10.104C32.864 10.092 33.596 10.068 34.388 10.032V9.28801H32.528V7.28401H34.388V6.64801H35.264V7.28401H37.16V9.28801H36.656C37.088 9.75601 37.544 10.344 37.772 10.764ZM42.824 5.07601H45.896V1.88401H42.824V4.63201C42.824 4.77601 42.824 4.92001 42.824 5.07601ZM49.628 5.07601V6.14401H47.06V11.112H45.896V6.14401H42.752C42.572 7.98001 41.936 9.80401 39.8 11.148C39.608 10.896 39.176 10.5 38.9 10.32C40.784 9.16801 41.408 7.65601 41.6 6.14401H38.912V5.07601H41.684C41.684 4.92001 41.684 4.77601 41.684 4.63201V1.88401H39.32V0.828008H49.256V1.88401H47.06V5.07601H49.628ZM60.6393 2.77201V2.14801H58.8513V2.77201H60.6393ZM60.6393 4.08001V3.45601H58.8513V4.08001H60.6393ZM60.6393 5.43601V4.76401H58.8513V5.43601H60.6393ZM56.9193 6.15601L55.8033 6.57601V9.82801C55.8033 10.38 55.6953 10.68 55.3953 10.848C55.0593 11.04 54.6033 11.076 53.8833 11.076C53.8593 10.788 53.7153 10.308 53.5833 10.02C54.0273 10.032 54.4353 10.032 54.5673 10.032C54.7113 10.02 54.7593 9.98401 54.7593 9.82801V6.97201L53.7033 7.36801L53.4033 6.30001C53.7873 6.18001 54.2553 6.02401 54.7593 5.84401V3.45601H53.5113V2.42401H54.7593V0.0840075H55.8033V2.42401H56.7993V2.95201C57.5073 2.22001 58.0953 1.17601 58.4073 0.0720077L59.3673 0.312007C59.2593 0.660008 59.1393 1.00801 58.9833 1.34401H60.7113C60.5553 1.04401 60.3513 0.684008 60.1713 0.408008L61.1673 0.0480072C61.4553 0.432007 61.7913 0.960008 61.9353 1.30801L61.8393 1.34401H63.9993V2.14801H61.6353V2.77201H63.6153V3.45601H61.6353V4.08001H63.6153V4.76401H61.6353V5.43601H64.1193V6.25201H58.8513V6.52801H57.8913V3.24001C57.6633 3.54001 57.4353 3.80401 57.1833 4.03201C57.1113 3.90001 56.9433 3.62401 56.7993 3.39601V3.45601H55.8033V5.48401L56.7513 5.14801L56.9193 6.15601ZM62.1033 7.83601H64.2273C64.2273 7.83601 64.2033 8.11201 64.1793 8.25601C64.0353 9.74401 63.8913 10.416 63.5793 10.704C63.3633 10.932 63.1233 11.004 62.7633 11.028C62.4633 11.052 61.8873 11.052 61.2873 11.016C61.2753 10.728 61.1553 10.344 60.9873 10.08C61.5513 10.128 62.1153 10.14 62.3433 10.14C62.5473 10.14 62.6673 10.128 62.7633 10.044C62.9193 9.91201 63.0393 9.50401 63.1353 8.66401H60.8553C60.9513 8.38801 61.0713 8.06401 61.1793 7.72801H59.8353C59.5713 9.48001 58.7553 10.5 57.2553 11.148C57.1353 10.932 56.7633 10.512 56.5353 10.332C57.8433 9.85201 58.5393 9.06001 58.7313 7.72801H57.1833V6.82801H62.4393C62.3313 7.15201 62.2113 7.50001 62.1033 7.83601ZM76.3593 6.21601V7.30801H71.5473V9.66001C71.5473 10.392 71.3433 10.704 70.8393 10.872C70.3473 11.052 69.5313 11.076 68.2953 11.064C68.2233 10.764 68.0073 10.26 67.8273 9.96001C68.7873 9.99601 69.7473 9.99601 70.0233 9.98401C70.2873 9.98401 70.3833 9.90001 70.3833 9.64801V7.30801H65.5593V6.21601H70.3833V4.51201H66.3753V3.44401H70.3833V1.81201C69.0993 1.92001 67.7913 2.00401 66.5793 2.05201C66.5673 1.77601 66.4233 1.32001 66.3153 1.08001C69.1473 0.948008 72.5313 0.636008 74.4033 0.0960073L75.2313 1.00801C74.1873 1.30801 72.9153 1.51201 71.5473 1.68001V3.44401H75.6753V4.51201H71.5473V6.21601H76.3593ZM85.8633 1.04401L86.5953 1.48801C85.0713 4.18801 81.6273 5.72401 78.3993 6.37201C78.2913 6.09601 78.0633 5.62801 77.8713 5.38801C79.1553 5.17201 80.4753 4.80001 81.6633 4.27201C81.3033 3.94801 80.8593 3.61201 80.4513 3.33601L81.2793 2.79601C81.7233 3.07201 82.2513 3.44401 82.6593 3.78001C83.5233 3.30001 84.2913 2.73601 84.8673 2.08801H81.6513C80.8833 2.66401 79.9953 3.20401 78.9753 3.68401C78.8073 3.42001 78.4713 3.06001 78.2193 2.88001C80.1273 2.11201 81.5673 1.03201 82.3353 0.0600078L83.5473 0.336008C83.3313 0.600007 83.0793 0.852008 82.8033 1.10401H85.6713L85.8633 1.04401ZM87.5073 5.32801L88.2753 5.77201C86.6073 9.33601 82.6113 10.668 78.2433 11.136C78.1713 10.812 77.9793 10.32 77.7993 10.056C79.7913 9.88801 81.6873 9.52801 83.2953 8.85601C82.9233 8.49601 82.4553 8.11201 82.0593 7.82401L82.9713 7.27201C83.4033 7.58401 83.9193 7.98001 84.3393 8.36401C85.2633 7.83601 86.0433 7.18801 86.6073 6.37201H83.5953C82.6233 7.12801 81.4233 7.80001 79.9833 8.36401C79.8393 8.08801 79.5273 7.69201 79.2873 7.50001C81.7113 6.67201 83.3913 5.42401 84.2793 4.24801L85.5033 4.52401C85.2633 4.82401 85.0233 5.10001 84.7473 5.37601H87.3153L87.5073 5.32801ZM92.5833 7.36801H94.9953V5.24401H92.5833V7.36801ZM100.359 7.36801V8.44801H96.1473V11.1H94.9953V8.44801H89.5353V7.36801H91.4673V4.20001H94.9953V2.54401H92.2473C91.7313 3.43201 91.1313 4.22401 90.5193 4.82401C90.3033 4.63201 89.8233 4.27201 89.5473 4.10401C90.6513 3.15601 91.6113 1.63201 92.1633 0.0360074L93.2913 0.336008C93.1473 0.708007 92.9793 1.10401 92.8233 1.46401H99.7713V2.54401H96.1473V4.20001H99.4953V5.24401H96.1473V7.36801H100.359Z" fill="white"/>
</svg>
