<svg width="105" height="43" viewBox="175 295 105 43" fill="none" xmlns="http://www.w3.org/2000/svg">
<path d="M94.595 99.52V102.616H97.607V103.66H90.443V102.616H93.467V99.52H90.899V98.488H93.467V96.328H94.595V98.488H97.151V99.52H94.595ZM91.619 94.684H97.619V95.752H91.163C90.755 96.604 90.287 97.42 89.735 98.164V103.924H88.619V99.46C88.235 99.832 87.815 100.192 87.371 100.504C87.251 100.204 86.999 99.724 86.819 99.46C88.139 98.56 89.159 97.216 89.903 95.752H87.143V94.684H90.383C90.635 94.096 90.815 93.508 90.971 92.92L92.135 93.208C91.979 93.7 91.811 94.192 91.619 94.684ZM106.487 100.012V101.08H99.083V100.012H106.487ZM101.771 97.48H109.127C109.127 97.48 109.115 97.828 109.079 97.996C108.767 101.368 108.443 102.772 107.891 103.312C107.543 103.66 107.195 103.756 106.643 103.792C106.175 103.828 105.323 103.816 104.471 103.768C104.447 103.444 104.279 102.976 104.051 102.652C104.975 102.736 105.911 102.748 106.295 102.748C106.583 102.748 106.763 102.736 106.931 102.604C107.339 102.268 107.651 101.032 107.891 98.512H100.343C100.715 97.156 101.195 94.864 101.471 93.172L102.611 93.28C102.539 93.664 102.467 94.072 102.383 94.492H108.887V95.56H102.179C102.047 96.232 101.903 96.892 101.771 97.48ZM116.802 95.872V93.172H117.954V103.804H116.802V101.26C115.806 101.692 114.786 102.112 113.958 102.46L113.466 101.332C114.306 101.056 115.554 100.588 116.802 100.12V96.988H113.85V95.872H116.802ZM121.446 102.616H122.91C123.438 102.616 123.51 102.112 123.594 100.168C123.882 100.372 124.362 100.6 124.662 100.672C124.554 102.892 124.254 103.708 123.018 103.708H121.314C120.078 103.708 119.73 103.3 119.73 101.872V93.172H120.882V96.964C121.902 96.328 122.922 95.596 123.606 94.972L124.482 95.92C123.462 96.688 122.118 97.468 120.882 98.152V101.884C120.882 102.508 120.966 102.616 121.446 102.616ZM136.314 96.016H130.242C130.206 96.58 130.17 97.156 130.098 97.72H135.198C135.198 97.72 135.186 98.068 135.15 98.224C134.922 101.536 134.694 102.856 134.214 103.348C133.89 103.672 133.578 103.768 133.074 103.816C132.63 103.852 131.85 103.84 131.046 103.792C131.034 103.468 130.878 103.012 130.65 102.7C131.502 102.772 132.318 102.784 132.654 102.784C132.918 102.784 133.074 102.76 133.23 102.64C133.566 102.364 133.782 101.248 133.974 98.8H129.93C129.546 100.864 128.67 102.796 126.45 103.996C126.282 103.696 125.934 103.312 125.634 103.084C128.61 101.572 128.886 98.656 129.006 96.016H125.862V94.924H130.998C130.842 94.444 130.518 93.76 130.242 93.244L131.334 92.836C131.646 93.376 132.018 94.096 132.186 94.576L131.382 94.924H136.314V96.016ZM143.382 97.216V96.436C142.83 96.604 142.29 96.76 141.75 96.892C141.69 96.64 141.498 96.244 141.342 96.016C142.014 95.836 142.71 95.632 143.382 95.416V93.1H144.498V95.008C145.566 94.588 146.538 94.12 147.246 93.628L148.062 94.492C147.09 95.104 145.83 95.632 144.498 96.088V97.216C144.498 97.612 144.594 97.684 145.11 97.684H146.814C147.246 97.684 147.33 97.48 147.378 96.412C147.63 96.592 148.074 96.76 148.362 96.82C148.242 98.248 147.942 98.644 146.91 98.644H144.978C143.706 98.644 143.382 98.332 143.382 97.216ZM139.686 98.956V95.968C139.266 96.34 138.834 96.7 138.414 96.976C138.234 96.772 137.838 96.328 137.61 96.148C138.858 95.38 140.13 94.168 140.886 92.908L141.93 93.28C141.618 93.808 141.21 94.336 140.79 94.828V98.956H139.686ZM148.434 100.3V101.38H143.658V103.948H142.482V101.38H137.718V100.3H142.482V98.932H143.658V100.3H148.434ZM150.99 97.264H155.19C154.662 96.508 153.822 95.524 153.066 94.672C152.49 95.632 151.782 96.508 150.99 97.264ZM156.234 96.868L155.43 97.612C155.382 97.528 155.322 97.456 155.262 97.372C155.262 97.468 155.262 97.588 155.25 97.672C155.142 99.7 155.01 100.528 154.746 100.84C154.542 101.056 154.326 101.14 154.014 101.188C153.762 101.212 153.282 101.212 152.802 101.188C152.778 100.912 152.67 100.516 152.514 100.24C152.946 100.288 153.33 100.3 153.498 100.3C153.666 100.3 153.762 100.276 153.834 100.18C153.978 100.024 154.074 99.496 154.146 98.236H151.854V102.268C151.854 102.736 151.962 102.808 152.538 102.808H154.422C154.938 102.808 155.034 102.556 155.094 101.2C155.334 101.392 155.766 101.56 156.066 101.62C155.934 103.288 155.634 103.768 154.506 103.768H152.418C151.158 103.768 150.786 103.468 150.786 102.268V97.456C150.594 97.612 150.414 97.768 150.21 97.924C150.03 97.684 149.646 97.3 149.406 97.12C150.882 96.088 152.142 94.468 152.778 92.932L153.798 93.256C153.726 93.436 153.642 93.592 153.558 93.76C154.518 94.756 155.682 96.04 156.234 96.868ZM157.698 94.312V100.972H156.63V94.312H157.698ZM158.934 93.136H160.038V102.556C160.038 103.24 159.87 103.552 159.438 103.72C159.006 103.9 158.298 103.924 157.194 103.924C157.134 103.624 156.966 103.144 156.81 102.844C157.602 102.88 158.382 102.88 158.61 102.868C158.838 102.856 158.934 102.784 158.934 102.556V93.136ZM171.458 95.62V94.996H169.67V95.62H171.458ZM171.458 96.928V96.304H169.67V96.928H171.458ZM171.458 98.284V97.612H169.67V98.284H171.458ZM167.738 99.004L166.622 99.424V102.676C166.622 103.228 166.514 103.528 166.214 103.696C165.878 103.888 165.422 103.924 164.702 103.924C164.678 103.636 164.534 103.156 164.402 102.868C164.846 102.88 165.254 102.88 165.386 102.88C165.53 102.868 165.578 102.832 165.578 102.676V99.82L164.522 100.216L164.222 99.148C164.606 99.028 165.074 98.872 165.578 98.692V96.304H164.33V95.272H165.578V92.932H166.622V95.272H167.618V95.8C168.326 95.068 168.914 94.024 169.226 92.92L170.186 93.16C170.078 93.508 169.958 93.856 169.802 94.192H171.53C171.374 93.892 171.17 93.532 170.99 93.256L171.986 92.896C172.274 93.28 172.61 93.808 172.754 94.156L172.658 94.192H174.818V94.996H172.454V95.62H174.434V96.304H172.454V96.928H174.434V97.612H172.454V98.284H174.938V99.1H169.67V99.376H168.71V96.088C168.482 96.388 168.254 96.652 168.002 96.88C167.93 96.748 167.762 96.472 167.618 96.244V96.304H166.622V98.332L167.57 97.996L167.738 99.004ZM172.922 100.684H175.046C175.046 100.684 175.022 100.96 174.998 101.104C174.854 102.592 174.71 103.264 174.398 103.552C174.182 103.78 173.942 103.852 173.582 103.876C173.282 103.9 172.706 103.9 172.106 103.864C172.094 103.576 171.974 103.192 171.806 102.928C172.37 102.976 172.934 102.988 173.162 102.988C173.366 102.988 173.486 102.976 173.582 102.892C173.738 102.76 173.858 102.352 173.954 101.512H171.674C171.77 101.236 171.89 100.912 171.998 100.576H170.654C170.39 102.328 169.574 103.348 168.074 103.996C167.954 103.78 167.582 103.36 167.354 103.18C168.662 102.7 169.358 101.908 169.55 100.576H168.002V99.676H173.258C173.15 100 173.03 100.348 172.922 100.684ZM187.178 99.064V100.156H182.366V102.508C182.366 103.24 182.162 103.552 181.658 103.72C181.166 103.9 180.35 103.924 179.114 103.912C179.042 103.612 178.826 103.108 178.646 102.808C179.606 102.844 180.566 102.844 180.842 102.832C181.106 102.832 181.202 102.748 181.202 102.496V100.156H176.378V99.064H181.202V97.36H177.194V96.292H181.202V94.66C179.918 94.768 178.61 94.852 177.398 94.9C177.386 94.624 177.242 94.168 177.134 93.928C179.966 93.796 183.35 93.484 185.222 92.944L186.05 93.856C185.006 94.156 183.734 94.36 182.366 94.528V96.292H186.494V97.36H182.366V99.064H187.178ZM194.306 100.456V102.556C194.954 102.688 195.662 102.724 196.394 102.724C196.85 102.736 198.722 102.724 199.31 102.712C199.154 102.976 198.974 103.492 198.914 103.792H196.346C193.874 103.792 191.954 103.372 190.73 101.416C190.346 102.424 189.794 103.336 189.002 103.972C188.81 103.756 188.426 103.408 188.174 103.24C189.566 102.16 190.13 100.096 190.31 98.38L191.474 98.524C191.39 99.052 191.282 99.592 191.138 100.132C191.618 101.188 192.302 101.836 193.166 102.22V97.756H188.534V96.724H193.154V95.284H189.578V94.252H193.154V92.944H194.294V94.252H198.098V95.284H194.294V96.724H198.986V97.756H194.306V99.448H198.194V100.456H194.306ZM208.31 100.444V96.088H203.798V95.032H208.31V92.992H209.45V95.032H211.01V96.088H209.45V100.456C209.45 101.152 209.282 101.464 208.814 101.632C208.358 101.812 207.59 101.848 206.474 101.848C206.426 101.524 206.246 101.02 206.09 100.708C206.906 100.744 207.758 100.744 207.998 100.732C208.226 100.72 208.31 100.66 208.31 100.444ZM204.266 97.336L205.154 96.844C205.754 97.552 206.51 98.536 206.846 99.16L205.91 99.736C205.586 99.112 204.854 98.08 204.266 97.336ZM203.33 95.272L202.406 95.92C202.082 95.344 201.314 94.48 200.666 93.856L201.53 93.28C202.19 93.88 202.97 94.708 203.33 95.272ZM203.018 97.36V101.404C203.234 101.548 203.474 101.728 203.834 101.932C204.602 102.4 205.67 102.484 206.99 102.484C208.31 102.484 210.17 102.376 211.334 102.232C211.19 102.544 211.01 103.12 210.986 103.456C210.158 103.504 208.118 103.576 206.954 103.576C205.466 103.576 204.47 103.444 203.606 102.94C203.09 102.64 202.694 102.244 202.43 102.244C202.058 102.244 201.506 102.988 200.978 103.756L200.186 102.664C200.786 102.016 201.398 101.524 201.926 101.308V98.404H200.402V97.36H203.018ZM215.006 94.756H214.478C214.094 95.356 213.674 95.884 213.254 96.292C213.05 96.124 212.594 95.884 212.318 95.752C213.146 95.056 213.866 93.976 214.274 92.872L215.294 93.124C215.186 93.4 215.066 93.652 214.946 93.916H217.886V94.756H216.122C216.314 95.128 216.494 95.512 216.59 95.8L215.606 96.16C215.51 95.788 215.246 95.212 215.006 94.756ZM217.118 99.052H214.742C214.706 99.376 214.658 99.688 214.61 99.988H217.118V99.052ZM218.222 97.192V98.128H221.042V97.192H218.222ZM218.222 99.988H222.614C222.614 99.988 222.602 100.264 222.578 100.42C222.434 102.04 222.29 102.772 221.978 103.084C221.75 103.324 221.51 103.408 221.15 103.432C220.85 103.456 220.262 103.468 219.65 103.432C219.638 103.12 219.506 102.7 219.338 102.412C219.878 102.472 220.43 102.484 220.634 102.472C220.838 102.472 220.958 102.46 221.054 102.376C221.198 102.22 221.306 101.824 221.414 100.936H218.222V103.936H217.118V101.392C216.086 102.484 214.634 103.408 213.278 103.924C213.11 103.672 212.81 103.252 212.558 103.048C213.89 102.64 215.294 101.836 216.254 100.936H213.362C213.53 100.18 213.698 99.04 213.794 98.128H217.118V97.192H213.374V96.268H222.134V99.052H218.222V99.988ZM219.734 93.904H223.154V94.744H221.21C221.498 95.092 221.738 95.476 221.87 95.764L220.91 96.16C220.742 95.776 220.37 95.2 219.998 94.744H219.338C219.026 95.32 218.666 95.836 218.306 96.232C218.078 96.064 217.598 95.788 217.334 95.656C218.042 94.996 218.618 93.94 218.942 92.872L220.022 93.112C219.938 93.388 219.842 93.64 219.734 93.904ZM230.133 102.1C230.901 102.1 231.501 101.404 231.501 100.264C231.501 99.124 230.997 98.488 230.049 98.488C229.533 98.488 228.933 98.764 228.405 99.52C228.549 101.272 229.185 102.1 230.133 102.1ZM232.641 94.948L231.885 95.788C231.561 95.404 231.021 95.128 230.505 95.128C229.377 95.128 228.441 95.98 228.381 98.5C228.897 97.864 229.665 97.48 230.301 97.48C231.789 97.48 232.785 98.392 232.785 100.264C232.785 102.016 231.585 103.156 230.145 103.156C228.465 103.156 227.097 101.752 227.097 98.752C227.097 95.356 228.693 94 230.433 94C231.417 94 232.137 94.42 232.641 94.948ZM239.636 100.216H242.048V98.092H239.636V100.216ZM247.412 100.216V101.296H243.2V103.948H242.048V101.296H236.588V100.216H238.52V97.048H242.048V95.392H239.3C238.784 96.28 238.184 97.072 237.572 97.672C237.356 97.48 236.876 97.12 236.6 96.952C237.704 96.004 238.664 94.48 239.216 92.884L240.344 93.184C240.2 93.556 240.032 93.952 239.876 94.312H246.824V95.392H243.2V97.048H246.548V98.092H243.2V100.216H247.412ZM250.052 101.728H252.284V99.076H250.052V101.728ZM252.284 95.824H250.052V98.104H252.284V95.824ZM255.68 94.792H259.16C259.16 94.792 259.16 95.176 259.148 95.32C258.98 100.732 258.836 102.592 258.356 103.192C258.056 103.588 257.768 103.696 257.312 103.756C256.892 103.804 256.184 103.792 255.5 103.756C255.476 103.456 255.344 102.988 255.14 102.676C255.908 102.736 256.604 102.748 256.904 102.748C257.144 102.748 257.276 102.712 257.408 102.544C257.792 102.148 257.948 100.336 258.104 95.812H255.272C254.936 96.58 254.564 97.276 254.18 97.828C254 97.66 253.58 97.36 253.304 97.204V102.712H250.052V103.624H249.032V94.852H250.376C250.544 94.276 250.724 93.484 250.796 92.908L252.008 93.112C251.804 93.712 251.576 94.348 251.384 94.852H253.304V97.12C254.096 96.088 254.732 94.492 255.092 92.908L256.172 93.16C256.028 93.712 255.872 94.264 255.68 94.792ZM257.216 100.204L256.28 100.792C255.944 100.06 255.164 98.884 254.528 98.02L255.404 97.528C256.04 98.356 256.856 99.496 257.216 100.204ZM270.92 101.044L270.056 101.848C269.468 101.248 268.58 100.492 267.584 99.688C266.684 100.624 265.556 101.344 264.176 101.884C264.056 101.644 263.732 101.14 263.516 100.912C264.824 100.468 265.892 99.844 266.732 99.016C265.784 98.272 264.788 97.552 263.912 96.94L264.668 96.268C265.508 96.856 266.468 97.528 267.416 98.212C267.944 97.528 268.34 96.712 268.652 95.764H263.552V94.72H266.912C266.744 94.264 266.456 93.652 266.18 93.196L267.248 92.848C267.572 93.376 267.956 94.096 268.112 94.564L267.644 94.72H271.292V95.764H269.816C269.432 96.976 268.928 98.008 268.28 98.872C269.312 99.652 270.272 100.432 270.92 101.044ZM263.3 95.26L262.352 95.932C262.04 95.392 261.308 94.588 260.696 94.024L261.572 93.424C262.196 93.952 262.94 94.72 263.3 95.26ZM263.144 97.384V101.584C263.384 101.692 263.648 101.896 264.044 102.112C264.812 102.52 265.88 102.592 267.164 102.592C268.448 102.592 270.332 102.496 271.532 102.34C271.4 102.664 271.208 103.252 271.184 103.588C270.296 103.648 268.328 103.708 267.128 103.708C265.7 103.708 264.68 103.576 263.852 103.144C263.348 102.868 262.952 102.544 262.688 102.544C262.304 102.544 261.74 103.216 261.2 103.876L260.42 102.784C260.972 102.256 261.56 101.812 262.076 101.608V98.416H260.624V97.384H263.144ZM272.552 97.72H283.472V98.932H272.552V97.72ZM287.636 100.216H290.048V98.092H287.636V100.216ZM295.412 100.216V101.296H291.2V103.948H290.048V101.296H284.588V100.216H286.52V97.048H290.048V95.392H287.3C286.784 96.28 286.184 97.072 285.572 97.672C285.356 97.48 284.876 97.12 284.6 96.952C285.704 96.004 286.664 94.48 287.216 92.884L288.344 93.184C288.2 93.556 288.032 93.952 287.876 94.312H294.824V95.392H291.2V97.048H294.548V98.092H291.2V100.216H295.412Z" fill="white"/>
<g clip-path="url(#clip0_400_523)">
<path d="M231.212 335.768H225.942L226.244 334.137H231.515L231.212 335.768Z" fill="white"/>
<path d="M227.755 342.182C227.906 342.182 228.065 342.125 228.201 342.015C228.336 341.905 228.419 341.759 228.448 341.613L230.366 331.237H232.95L230.947 342.077C230.866 342.514 230.613 342.95 230.209 343.283C229.805 343.616 229.323 343.782 228.875 343.782H224.566L224.863 342.179H227.76L227.755 342.182Z" fill="white"/>
<path d="M234.886 335.768H240.154L240.456 334.137H235.185L234.886 335.768Z" fill="white"/>
<path d="M235.972 342.182C235.821 342.182 235.683 342.125 235.589 342.015C235.495 341.905 235.464 341.759 235.493 341.613L237.41 331.237H234.826L232.822 342.077C232.742 342.514 232.833 342.95 233.114 343.283C233.396 343.616 233.815 343.782 234.266 343.782H238.575L239.164 342.179H235.972V342.182Z" fill="white"/>
<path d="M253.829 333.973C253.829 333.973 253.92 332.549 253.48 331.237H251.041C251.442 332.592 251.427 333.934 251.427 333.934C252.054 333.929 253.201 333.98 253.829 333.973Z" fill="white"/>
<path d="M258.859 334.429H245.104L245.39 332.882H259.146L258.859 334.429Z" fill="white"/>
<path d="M243.098 344L243.423 342.235C243.423 342.235 245.109 341.416 246.271 339.492C246.729 338.731 247.117 337.648 247.383 336.211C247.625 334.897 247.909 333.358 247.909 333.358L250.523 333.376C250.523 333.376 250.16 335.328 249.931 336.577C249.689 337.889 249.191 339.134 248.511 340.166C246.497 343.221 243.098 344 243.098 344Z" fill="white"/>
<path d="M248.803 337.702H254.806L254.107 341.477C254.081 341.623 253.995 341.769 253.86 341.879C253.724 341.989 253.565 342.046 253.414 342.046H250.833V343.621H254.535C254.985 343.621 255.465 343.454 255.871 343.121C256.275 342.789 256.528 342.351 256.608 341.915L257.674 336.157H249.087L248.8 337.702H248.803Z" fill="white"/>
<path d="M291.209 340.97H289.31L290.844 332.674H292.743L291.209 340.97Z" fill="white"/>
<path d="M287.595 331.237C288.377 332.971 289.729 334.339 289.729 334.339L289.463 335.778C288.671 335.556 286.928 334.149 286.142 333.232C284.709 334.913 282.554 336.339 280.694 337.351L280.955 335.94C280.955 335.94 282.544 334.779 285.089 331.24H287.598L287.595 331.237Z" fill="white"/>
<path d="M283.693 342.42C283.544 342.42 283.404 342.363 283.31 342.253C283.216 342.143 283.185 341.997 283.213 341.851L284.266 336.155H282.093L280.991 342.115C280.91 342.553 281.002 342.988 281.283 343.321C281.564 343.654 281.984 343.821 282.432 343.821H287.575L288.156 342.417H283.693V342.42Z" fill="white"/>
<path d="M293.827 331.237L291.865 341.846C291.839 341.992 291.753 342.138 291.618 342.248C291.482 342.358 291.324 342.415 291.172 342.415H289.088L289.12 343.821H291.915C292.366 343.821 292.845 343.654 293.249 343.321C293.653 342.988 293.905 342.55 293.986 342.115L295.997 331.237H293.825H293.827Z" fill="white"/>
<path d="M282.768 335.899L282.513 337.274H286.363L286.035 339.054C286.009 339.2 285.923 339.346 285.79 339.456C285.655 339.566 285.496 339.623 285.344 339.623H284.493L284.537 340.97H286.04C286.488 340.97 286.97 340.804 287.377 340.471C287.78 340.138 288.033 339.7 288.114 339.264L288.737 335.901H282.773L282.768 335.899Z" fill="white"/>
<path d="M269.76 343.785H267.175L268.033 339.149H270.617L269.76 343.785Z" fill="white"/>
<path d="M275.916 341.884H261.723L261.993 340.424H276.184L275.916 341.884Z" fill="white"/>
<path d="M263.783 339.29H266.133L267.313 332.912L264.612 334.818L263.783 339.29Z" fill="white"/>
<path d="M272.923 337.492C272.774 337.492 272.633 337.436 272.54 337.325C272.446 337.213 272.415 337.069 272.443 336.923L273.493 331.237H271.141L270.031 337.246C269.95 337.684 270.041 338.119 270.323 338.452C270.604 338.785 271.023 338.952 271.474 338.952H276.354L276.625 337.492H272.925H272.923Z" fill="white"/>
<path d="M277.333 334.208C272.758 335.996 267.457 336.808 267.457 336.808L267.751 335.22C267.751 335.22 272.404 334.311 277.745 331.985L277.333 334.206V334.208Z" fill="white"/>
<path d="M269.778 331.237C269.778 331.237 266.422 335.353 262.809 336.291L263.054 334.966C263.054 334.966 265.821 333.012 266.957 331.24H269.778V331.237Z" fill="white"/>
<path d="M275.468 312.496C276.164 308.329 272.183 307.615 269.408 307.615H259.896C259.534 307.615 259.224 307.871 259.162 308.224C258.557 311.61 256.541 322.913 256.476 323.284C256.397 323.715 256.535 323.838 256.999 323.838H260.626C260.972 323.838 261.215 323.628 261.277 323.284C261.337 322.941 262.254 317.801 262.254 317.801H266.876L269.046 323.428C269.046 323.428 269.135 323.838 269.656 323.838H273.475C274.053 323.838 274.23 323.715 274.124 323.392C274.043 323.149 272.402 319.166 271.607 317.237C273.457 316.587 275.015 315.24 275.471 312.496M271.292 312.496C270.974 314.289 269.95 314.973 267.715 314.973H262.757L263.575 310.381H268.533C270.406 310.381 271.61 310.706 271.292 312.496Z" fill="white"/>
<path d="M232.596 307.971C232.567 307.871 232.507 307.784 232.413 307.72C232.322 307.656 232.21 307.625 232.095 307.625H225.997C224.991 307.625 224.246 308.217 223.717 308.998C222.149 311.318 215.531 323.164 215.531 323.164C215.435 323.305 215.414 323.471 215.487 323.61C215.56 323.748 215.714 323.825 215.883 323.825H220.012C220.111 323.825 220.213 323.799 220.309 323.748C220.406 323.697 220.484 323.625 220.536 323.543L227.977 310.581L230.803 323.543C230.827 323.625 230.879 323.697 230.957 323.748C231.035 323.799 231.129 323.825 231.228 323.825H235.357C235.527 323.825 235.706 323.751 235.829 323.61C235.951 323.471 235.99 323.302 235.943 323.164L232.596 307.968V307.971Z" fill="white"/>
<path d="M256.171 307.625H252.229C251.864 307.625 251.606 307.807 251.559 308.073L249.66 318.738C249.329 320.605 247.526 321.566 245.658 321.566C243.79 321.566 242.332 320.603 242.665 318.738L244.564 308.073C244.611 307.807 244.421 307.625 244.054 307.625H240.112C239.745 307.625 239.52 307.807 239.474 308.073L237.525 319.017C236.73 323.474 241.704 324.301 245.171 324.301C248.639 324.301 253.907 323.474 254.699 319.017L256.647 308.073C256.694 307.807 256.538 307.625 256.171 307.625Z" fill="white"/>
<path d="M209.091 307C204.193 307 200.173 308.844 200.173 308.844C199.725 309.054 199.535 309.364 199.488 309.63L197.005 323.379C196.958 323.646 197.203 323.827 197.602 323.827H201.14C201.544 323.827 201.775 323.646 201.822 323.379L204.063 310.783C205.24 310.291 206.97 310.009 208.552 310.009C210.422 310.009 211.131 311.003 210.876 312.435C210.62 313.869 208.927 323.377 208.927 323.377C208.88 323.643 209.088 323.825 209.482 323.825H213.082C213.478 323.825 213.715 323.643 213.762 323.377L215.732 312.312C216.417 308.493 213.986 307 209.091 307Z" fill="white"/>
<path d="M292.634 307.971C292.605 307.871 292.545 307.784 292.452 307.72C292.358 307.656 292.248 307.625 292.134 307.625H286.035C285.029 307.625 284.284 308.217 283.755 308.998C282.187 311.318 275.57 323.164 275.57 323.164C275.473 323.305 275.452 323.471 275.525 323.61C275.598 323.748 275.752 323.825 275.921 323.825H280.051C280.15 323.825 280.251 323.799 280.348 323.748C280.444 323.697 280.522 323.625 280.574 323.543L288.015 310.581L290.842 323.543C290.865 323.625 290.917 323.697 290.995 323.748C291.073 323.799 291.167 323.825 291.266 323.825H295.396C295.565 323.825 295.745 323.751 295.867 323.61C295.99 323.471 296.029 323.302 295.982 323.164L292.634 307.968V307.971Z" fill="white"/>
</g>
<defs>
<clipPath id="clip0_400_523">
<rect width="99" height="37" fill="white" transform="translate(197 307)"/>
</clipPath>
</defs>
</svg>
