<svg width="80" height="60" viewBox="220 310 80 60" fill="none" xmlns="http://www.w3.org/2000/svg">
<g clip-path="url(#clip0_400_561)">
<path fill-rule="evenodd" clip-rule="evenodd" d="M232.162 319.061C232.162 314.503 233.626 310.758 236.551 307.814C239.483 304.866 243.226 303.398 247.781 303.398C252.335 303.398 256.113 304.866 259.064 307.802C262.008 310.731 263.488 314.484 263.488 319.061C263.488 323.639 262.008 327.353 259.064 330.285C256.109 333.21 252.354 334.67 247.781 334.67C243.207 334.67 239.483 333.21 236.551 330.285C233.626 327.353 232.162 323.623 232.162 319.061ZM238.426 319.007C238.426 322.359 239.299 325.049 241.028 327.103C242.765 329.156 245.01 330.185 247.777 330.185C250.544 330.185 252.827 329.152 254.583 327.103C256.339 325.049 257.223 322.355 257.223 319.007C257.223 315.659 256.339 312.988 254.583 310.904C252.83 308.823 250.555 307.779 247.777 307.779C244.998 307.779 242.738 308.819 241.017 310.892C239.287 312.965 238.426 315.666 238.426 319.007ZM208.626 329.384H211.547C219.61 329.384 222.711 326.367 222.711 318.945C222.711 311.991 219.741 308.596 212.031 308.596H208.388V327.785L202.619 332.57V306.415C202.619 305.845 202.527 305.271 202.346 305.063C202.174 304.862 202.177 304.677 201.586 304.527V303.937H212.012C221.608 303.937 228.999 307.976 228.999 318.787C228.999 328.933 222.266 334.165 212.012 334.165H202.869L208.626 329.387V329.384ZM186.693 303.937C191.755 303.937 196.428 305.991 196.428 311.644C196.428 314.865 194.314 316.869 191.474 318.059C195.244 319.242 198.457 321.843 198.457 325.816C198.457 328.332 197.577 330.347 195.802 331.873C194.034 333.399 191.655 334.165 188.684 334.165H174.96L180.652 329.445H186.974C188.592 329.445 189.818 329.06 190.663 328.305C191.509 327.546 191.924 326.451 191.924 325.003C191.924 323.554 191.47 322.506 190.571 321.72C189.664 320.934 188.388 320.541 186.759 320.541H180.275V327.966L174.507 332.751V306.219C174.507 305.614 174.414 305.213 174.241 305.009C174.065 304.804 174.072 304.623 173.477 304.473V303.937H186.697H186.693ZM180.271 316.264H186.117C187.339 316.264 188.292 315.913 188.984 315.212C189.676 314.507 190.025 313.543 190.025 312.318C190.025 311.166 189.676 310.26 188.984 309.594C188.296 308.939 187.354 308.6 186.159 308.6H180.271V316.264Z" fill="white"/>
<path fill-rule="evenodd" clip-rule="evenodd" d="M162 303.702H168.188V336.327L162 341.459V303.702ZM169.456 337.737H264.651V342.781H163.376L169.456 337.737Z" fill="white"/>
<path d="M278.995 298.339C278.995 298.339 281.52 299.005 282.185 300.007C282.185 300.007 283.315 300.473 283.115 302.142C283.115 302.142 278.837 303.648 274.452 303.383C274.452 303.383 273.48 303.88 274.998 304.758C274.998 304.758 278.468 306.481 277.604 308.214C277.604 308.214 274.464 310.75 274.571 313.821C274.571 313.821 274.71 316.988 276.474 314.688C276.474 314.688 278.134 312.954 280.194 312.418C280.194 312.418 282.165 312.218 283.142 310.885C283.142 310.885 285.444 308.75 284.979 311.085C284.902 311.463 284.387 311.975 284.164 312.26C283.322 313.331 282.304 314.229 281.17 314.977C280.528 315.401 279.867 315.921 279.199 316.298C278.676 316.591 278.219 316.953 277.607 317.073C276.677 317.258 275.832 317.373 274.706 317.527C273.764 317.658 273.011 317.712 272.054 317.77C270.751 317.847 269.91 317.543 269.325 317.832C269.325 317.832 268.753 319.458 270.893 320.837C271.497 321.227 272.392 321.157 272.992 321.022C274.541 320.687 275.863 320.19 277.435 319.851C278.757 319.562 279.94 319.292 281.216 319.065C282.35 318.865 283.726 318.645 285.009 318.533C285.747 318.468 286.689 318.356 287.431 318.333C289.218 318.283 290.674 318.136 292.408 318.198C292.757 318.209 293.234 318.198 293.876 318.333C294.118 318.383 294.352 318.464 294.579 318.56C294.982 318.737 295.048 318.865 295.205 318.865C295.205 318.865 297.204 317.901 294.879 315.431C294.879 315.431 293.084 312.761 290.494 314.495C290.494 314.495 287.969 315.027 286.043 315.431C286.043 315.431 283.453 316.298 285.843 314.164C285.843 314.164 289.564 310.754 287.039 308.685C287.039 308.685 286.109 306.484 282.123 307.952C282.123 307.952 280.132 308.018 281.989 306.419C281.989 306.419 284.049 305.282 284.448 305.282C284.848 305.282 286.243 304.55 287.504 305.082C287.504 305.082 289.76 303.814 287.969 302.08C287.969 302.08 287.438 301.013 285.513 301.479C285.513 301.479 287.108 296.543 284.248 296.543C284.248 296.543 280.39 294.513 278.999 298.343L278.995 298.339Z" fill="white"/>
<path d="M279.84 322.221C279.84 322.221 279.905 323.415 279.433 324.583C278.968 325.735 275.989 329.38 275.317 330.247C274.283 331.58 273.668 332.404 272.634 333.934C271.743 335.252 270.459 337.333 271.108 339.001C271.108 339.001 271.85 339.841 272.465 340.018C272.465 340.018 272.995 337.895 273.722 336.678C273.722 336.678 275.14 334.242 276.055 333.811C276.055 333.811 276.873 334.763 275.513 338.481C275.513 338.481 273.883 342.322 274.041 344.415C274.041 344.415 274.233 346.842 274.913 347.748C274.913 347.748 275.428 350.587 276.873 347.732C276.873 347.732 277.142 341.49 277.334 337.259C277.396 335.911 277.058 333.63 277.104 331.873C277.104 331.873 280.386 329.122 281.343 326.632C281.343 326.632 282.696 324.02 281.523 323.18C281.523 323.18 280.324 322.221 279.836 322.224L279.84 322.221Z" fill="white"/>
<path d="M285.674 324.19C285.624 323.623 285.125 322.298 287.873 322.248C287.873 322.248 290.075 322.159 290.444 324.005C290.444 324.005 291.224 326.486 287.288 326.105C287.288 326.105 286.747 326.105 286.439 326.305C285.563 326.879 284.556 327.326 283.933 327.538C283.933 327.538 281.708 328.181 283.91 326.305L285.455 324.825C285.455 324.825 285.705 324.517 285.674 324.193V324.19Z" fill="white"/>
<path d="M280.589 329.388C280.589 329.388 282.38 329.846 285.124 328.682C285.124 328.682 288.733 327.688 290.504 327.268C290.504 327.268 291.546 326.948 291.265 326.24C291.265 326.24 292.603 326.513 293.748 326.606C293.748 326.606 296.684 326.725 294.912 329.087C294.912 329.087 292.034 329.206 290.201 329.873C290.201 329.873 287.695 330.694 286.773 330.84C286.242 330.925 285.078 330.436 284.628 330.84C283.925 331.468 282.918 332.231 280.835 330.84C280.835 330.84 280.162 330.054 280.589 329.388Z" fill="white"/>
<path d="M283.531 333.564C283.531 333.564 283.777 334.955 285.183 335.079C285.183 335.079 287.201 334.593 287.324 335.079C287.324 335.079 287.754 335.707 286.44 336.107C285.717 336.331 285.183 336.955 283.531 336.955C283.531 336.955 282.489 337.502 284.019 337.922C284.019 337.922 284.691 337.922 284.568 338.469C284.568 338.469 283.957 339.679 283.896 340.284C283.896 340.284 283.327 341.375 283.181 344.642C283.181 344.642 283.035 346.395 284.076 346.457C284.076 346.457 285.095 346.576 285.287 344.762C285.287 344.762 284.564 342.642 285.909 342.095C285.909 342.095 288.05 340.885 288.235 341.614C288.235 341.614 288.419 342.581 288.235 343.128C288.235 343.128 287.139 343.552 286.432 344.881C286.432 344.881 286.071 347.293 288.319 347.181C289.222 347.135 290.502 346.395 291.909 346.815C291.909 346.815 293.869 346.091 292.889 344.515C292.889 344.515 292.52 343.428 290.871 343.791C290.871 343.791 290.379 342.823 291.055 342.095C291.055 342.095 293.196 341.186 292.343 340.373C292.343 340.373 291.178 338.951 290.137 338.951C290.137 338.951 288.546 339.252 287.016 340.373C287.016 340.373 284.199 341.856 285.056 339.799C285.056 339.799 285.79 337.922 287.962 337.984C287.962 337.984 291.055 338.408 291.298 336.589C291.298 336.589 291.513 335.129 288.973 335.618C288.973 335.618 288.177 335.198 289.034 334.169C289.034 334.169 290.633 334.593 290.444 333.564C290.444 333.564 290.994 331.568 288.484 331.749C288.484 331.749 286.77 332.05 285.729 332.717C285.729 332.717 284.507 333.745 283.527 333.564H283.531Z" fill="white"/>
</g>
<path d="M111.751 99.52V102.616H114.763V103.66H107.599V102.616H110.623V99.52H108.055V98.488H110.623V96.328H111.751V98.488H114.307V99.52H111.751ZM108.775 94.684H114.775V95.752H108.319C107.911 96.604 107.443 97.42 106.891 98.164V103.924H105.775V99.46C105.391 99.832 104.971 100.192 104.527 100.504C104.407 100.204 104.155 99.724 103.975 99.46C105.295 98.56 106.315 97.216 107.059 95.752H104.299V94.684H107.539C107.791 94.096 107.971 93.508 108.127 92.92L109.291 93.208C109.135 93.7 108.967 94.192 108.775 94.684ZM123.643 100.012V101.08H116.239V100.012H123.643ZM118.927 97.48H126.283C126.283 97.48 126.271 97.828 126.235 97.996C125.923 101.368 125.599 102.772 125.047 103.312C124.699 103.66 124.351 103.756 123.799 103.792C123.331 103.828 122.479 103.816 121.627 103.768C121.603 103.444 121.435 102.976 121.207 102.652C122.131 102.736 123.067 102.748 123.451 102.748C123.739 102.748 123.919 102.736 124.087 102.604C124.495 102.268 124.807 101.032 125.047 98.512H117.499C117.871 97.156 118.351 94.864 118.627 93.172L119.767 93.28C119.695 93.664 119.623 94.072 119.539 94.492H126.043V95.56H119.335C119.203 96.232 119.059 96.892 118.927 97.48ZM137.007 94.744L135.843 95.08C135.747 94.552 135.483 93.736 135.267 93.124L136.371 92.848C136.599 93.448 136.875 94.24 137.007 94.744ZM141.087 95.128V96.256H131.403V95.128H141.087ZM135.243 101.62L134.055 101.92C133.887 100.6 133.407 98.572 132.975 97.036L134.103 96.76C134.571 98.32 135.039 100.288 135.243 101.62ZM137.895 102.34H141.579V103.468H130.887V102.34H136.695C137.319 100.852 138.003 98.5 138.363 96.784L139.623 97.024C139.155 98.776 138.483 100.876 137.895 102.34ZM145.227 92.98L146.235 93.28C145.959 94.036 145.623 94.816 145.263 95.548V103.972H144.243V97.324C143.919 97.828 143.571 98.272 143.235 98.668C143.127 98.428 142.815 97.852 142.635 97.6C143.679 96.472 144.639 94.72 145.227 92.98ZM151.839 100.948H147.627V102.604H151.839V100.948ZM146.679 103.936V100.048H152.823V103.9H151.839V103.504H147.627V103.936H146.679ZM146.847 99.172V98.284H152.691V99.172H146.847ZM152.691 96.592V97.48H146.847V96.592H152.691ZM149.667 94.852H153.603V95.764H145.995V94.852H149.511C149.343 94.42 149.007 93.772 148.707 93.292L149.667 92.92C149.991 93.4 150.351 94.048 150.531 94.48L149.667 94.852ZM164.614 95.62V94.996H162.826V95.62H164.614ZM164.614 96.928V96.304H162.826V96.928H164.614ZM164.614 98.284V97.612H162.826V98.284H164.614ZM160.894 99.004L159.778 99.424V102.676C159.778 103.228 159.67 103.528 159.37 103.696C159.034 103.888 158.578 103.924 157.858 103.924C157.834 103.636 157.69 103.156 157.558 102.868C158.002 102.88 158.41 102.88 158.542 102.88C158.686 102.868 158.734 102.832 158.734 102.676V99.82L157.678 100.216L157.378 99.148C157.762 99.028 158.23 98.872 158.734 98.692V96.304H157.486V95.272H158.734V92.932H159.778V95.272H160.774V95.8C161.482 95.068 162.07 94.024 162.382 92.92L163.342 93.16C163.234 93.508 163.114 93.856 162.958 94.192H164.686C164.53 93.892 164.326 93.532 164.146 93.256L165.142 92.896C165.43 93.28 165.766 93.808 165.91 94.156L165.814 94.192H167.974V94.996H165.61V95.62H167.59V96.304H165.61V96.928H167.59V97.612H165.61V98.284H168.094V99.1H162.826V99.376H161.866V96.088C161.638 96.388 161.41 96.652 161.158 96.88C161.086 96.748 160.918 96.472 160.774 96.244V96.304H159.778V98.332L160.726 97.996L160.894 99.004ZM166.078 100.684H168.202C168.202 100.684 168.178 100.96 168.154 101.104C168.01 102.592 167.866 103.264 167.554 103.552C167.338 103.78 167.098 103.852 166.738 103.876C166.438 103.9 165.862 103.9 165.262 103.864C165.25 103.576 165.13 103.192 164.962 102.928C165.526 102.976 166.09 102.988 166.318 102.988C166.522 102.988 166.642 102.976 166.738 102.892C166.894 102.76 167.014 102.352 167.11 101.512H164.83C164.926 101.236 165.046 100.912 165.154 100.576H163.81C163.546 102.328 162.73 103.348 161.23 103.996C161.11 103.78 160.738 103.36 160.51 103.18C161.818 102.7 162.514 101.908 162.706 100.576H161.158V99.676H166.414C166.306 100 166.186 100.348 166.078 100.684ZM180.334 99.064V100.156H175.522V102.508C175.522 103.24 175.318 103.552 174.814 103.72C174.322 103.9 173.506 103.924 172.27 103.912C172.198 103.612 171.982 103.108 171.802 102.808C172.762 102.844 173.722 102.844 173.998 102.832C174.262 102.832 174.358 102.748 174.358 102.496V100.156H169.534V99.064H174.358V97.36H170.35V96.292H174.358V94.66C173.074 94.768 171.766 94.852 170.554 94.9C170.542 94.624 170.398 94.168 170.29 93.928C173.122 93.796 176.506 93.484 178.378 92.944L179.206 93.856C178.162 94.156 176.89 94.36 175.522 94.528V96.292H179.65V97.36H175.522V99.064H180.334ZM187.462 100.456V102.556C188.11 102.688 188.818 102.724 189.55 102.724C190.006 102.736 191.878 102.724 192.466 102.712C192.31 102.976 192.13 103.492 192.07 103.792H189.502C187.03 103.792 185.11 103.372 183.886 101.416C183.502 102.424 182.95 103.336 182.158 103.972C181.966 103.756 181.582 103.408 181.33 103.24C182.722 102.16 183.286 100.096 183.466 98.38L184.63 98.524C184.546 99.052 184.438 99.592 184.294 100.132C184.774 101.188 185.458 101.836 186.322 102.22V97.756H181.69V96.724H186.31V95.284H182.734V94.252H186.31V92.944H187.45V94.252H191.254V95.284H187.45V96.724H192.142V97.756H187.462V99.448H191.35V100.456H187.462ZM201.466 100.444V96.088H196.954V95.032H201.466V92.992H202.606V95.032H204.166V96.088H202.606V100.456C202.606 101.152 202.438 101.464 201.97 101.632C201.514 101.812 200.746 101.848 199.63 101.848C199.582 101.524 199.402 101.02 199.246 100.708C200.062 100.744 200.914 100.744 201.154 100.732C201.382 100.72 201.466 100.66 201.466 100.444ZM197.422 97.336L198.31 96.844C198.91 97.552 199.666 98.536 200.002 99.16L199.066 99.736C198.742 99.112 198.01 98.08 197.422 97.336ZM196.486 95.272L195.562 95.92C195.238 95.344 194.47 94.48 193.822 93.856L194.686 93.28C195.346 93.88 196.126 94.708 196.486 95.272ZM196.174 97.36V101.404C196.39 101.548 196.63 101.728 196.99 101.932C197.758 102.4 198.826 102.484 200.146 102.484C201.466 102.484 203.326 102.376 204.49 102.232C204.346 102.544 204.166 103.12 204.142 103.456C203.314 103.504 201.274 103.576 200.11 103.576C198.622 103.576 197.626 103.444 196.762 102.94C196.246 102.64 195.85 102.244 195.586 102.244C195.214 102.244 194.662 102.988 194.134 103.756L193.342 102.664C193.942 102.016 194.554 101.524 195.082 101.308V98.404H193.558V97.36H196.174ZM208.162 94.756H207.634C207.25 95.356 206.83 95.884 206.41 96.292C206.206 96.124 205.75 95.884 205.474 95.752C206.302 95.056 207.022 93.976 207.43 92.872L208.45 93.124C208.342 93.4 208.222 93.652 208.102 93.916H211.042V94.756H209.278C209.47 95.128 209.65 95.512 209.746 95.8L208.762 96.16C208.666 95.788 208.402 95.212 208.162 94.756ZM210.274 99.052H207.898C207.862 99.376 207.814 99.688 207.766 99.988H210.274V99.052ZM211.378 97.192V98.128H214.198V97.192H211.378ZM211.378 99.988H215.77C215.77 99.988 215.758 100.264 215.734 100.42C215.59 102.04 215.446 102.772 215.134 103.084C214.906 103.324 214.666 103.408 214.306 103.432C214.006 103.456 213.418 103.468 212.806 103.432C212.794 103.12 212.662 102.7 212.494 102.412C213.034 102.472 213.586 102.484 213.79 102.472C213.994 102.472 214.114 102.46 214.21 102.376C214.354 102.22 214.462 101.824 214.57 100.936H211.378V103.936H210.274V101.392C209.242 102.484 207.79 103.408 206.434 103.924C206.266 103.672 205.966 103.252 205.714 103.048C207.046 102.64 208.45 101.836 209.41 100.936H206.518C206.686 100.18 206.854 99.04 206.95 98.128H210.274V97.192H206.53V96.268H215.29V99.052H211.378V99.988ZM212.89 93.904H216.31V94.744H214.366C214.654 95.092 214.894 95.476 215.026 95.764L214.066 96.16C213.898 95.776 213.526 95.2 213.154 94.744H212.494C212.182 95.32 211.822 95.836 211.462 96.232C211.234 96.064 210.754 95.788 210.49 95.656C211.198 94.996 211.774 93.94 212.098 92.872L213.178 93.112C213.094 93.388 212.998 93.64 212.89 93.904ZM220.649 103V101.86H222.581V95.716H220.997V94.84C221.825 94.684 222.413 94.48 222.917 94.168H223.961V101.86H225.689V103H220.649ZM227.493 103V101.86H229.425V95.716H227.841V94.84C228.669 94.684 229.257 94.48 229.761 94.168H230.805V101.86H232.533V103H227.493ZM239.636 100.216H242.048V98.092H239.636V100.216ZM247.412 100.216V101.296H243.2V103.948H242.048V101.296H236.588V100.216H238.52V97.048H242.048V95.392H239.3C238.784 96.28 238.184 97.072 237.572 97.672C237.356 97.48 236.876 97.12 236.6 96.952C237.704 96.004 238.664 94.48 239.216 92.884L240.344 93.184C240.2 93.556 240.032 93.952 239.876 94.312H246.824V95.392H243.2V97.048H246.548V98.092H243.2V100.216H247.412ZM250.052 101.728H252.284V99.076H250.052V101.728ZM252.284 95.824H250.052V98.104H252.284V95.824ZM255.68 94.792H259.16C259.16 94.792 259.16 95.176 259.148 95.32C258.98 100.732 258.836 102.592 258.356 103.192C258.056 103.588 257.768 103.696 257.312 103.756C256.892 103.804 256.184 103.792 255.5 103.756C255.476 103.456 255.344 102.988 255.14 102.676C255.908 102.736 256.604 102.748 256.904 102.748C257.144 102.748 257.276 102.712 257.408 102.544C257.792 102.148 257.948 100.336 258.104 95.812H255.272C254.936 96.58 254.564 97.276 254.18 97.828C254 97.66 253.58 97.36 253.304 97.204V102.712H250.052V103.624H249.032V94.852H250.376C250.544 94.276 250.724 93.484 250.796 92.908L252.008 93.112C251.804 93.712 251.576 94.348 251.384 94.852H253.304V97.12C254.096 96.088 254.732 94.492 255.092 92.908L256.172 93.16C256.028 93.712 255.872 94.264 255.68 94.792ZM257.216 100.204L256.28 100.792C255.944 100.06 255.164 98.884 254.528 98.02L255.404 97.528C256.04 98.356 256.856 99.496 257.216 100.204ZM270.92 101.044L270.056 101.848C269.468 101.248 268.58 100.492 267.584 99.688C266.684 100.624 265.556 101.344 264.176 101.884C264.056 101.644 263.732 101.14 263.516 100.912C264.824 100.468 265.892 99.844 266.732 99.016C265.784 98.272 264.788 97.552 263.912 96.94L264.668 96.268C265.508 96.856 266.468 97.528 267.416 98.212C267.944 97.528 268.34 96.712 268.652 95.764H263.552V94.72H266.912C266.744 94.264 266.456 93.652 266.18 93.196L267.248 92.848C267.572 93.376 267.956 94.096 268.112 94.564L267.644 94.72H271.292V95.764H269.816C269.432 96.976 268.928 98.008 268.28 98.872C269.312 99.652 270.272 100.432 270.92 101.044ZM263.3 95.26L262.352 95.932C262.04 95.392 261.308 94.588 260.696 94.024L261.572 93.424C262.196 93.952 262.94 94.72 263.3 95.26ZM263.144 97.384V101.584C263.384 101.692 263.648 101.896 264.044 102.112C264.812 102.52 265.88 102.592 267.164 102.592C268.448 102.592 270.332 102.496 271.532 102.34C271.4 102.664 271.208 103.252 271.184 103.588C270.296 103.648 268.328 103.708 267.128 103.708C265.7 103.708 264.68 103.576 263.852 103.144C263.348 102.868 262.952 102.544 262.688 102.544C262.304 102.544 261.74 103.216 261.2 103.876L260.42 102.784C260.972 102.256 261.56 101.812 262.076 101.608V98.416H260.624V97.384H263.144ZM272.552 97.72H283.472V98.932H272.552V97.72ZM287.636 100.216H290.048V98.092H287.636V100.216ZM295.412 100.216V101.296H291.2V103.948H290.048V101.296H284.588V100.216H286.52V97.048H290.048V95.392H287.3C286.784 96.28 286.184 97.072 285.572 97.672C285.356 97.48 284.876 97.12 284.6 96.952C285.704 96.004 286.664 94.48 287.216 92.884L288.344 93.184C288.2 93.556 288.032 93.952 287.876 94.312H294.824V95.392H291.2V97.048H294.548V98.092H291.2V100.216H295.412Z" fill="white"/>
<defs>
<clipPath id="clip0_400_561">
<rect width="134" height="53" fill="white" transform="translate(162 296)"/>
</clipPath>
</defs>
</svg>
