<svg width="185" height="12" viewBox="0 0 185 12" fill="none" xmlns="http://www.w3.org/2000/svg">
<path d="M7.77566 6.67201V9.76801H10.7877V10.812H3.62366V9.76801H6.64766V6.67201H4.07966V5.64001H6.64766V3.48001H7.77566V5.64001H10.3317V6.67201H7.77566ZM4.79966 1.83601H10.7997V2.90401H4.34366C3.93566 3.75601 3.46766 4.57201 2.91566 5.31601V11.076H1.79966V6.61201C1.41566 6.98401 0.995664 7.34401 0.551664 7.65601C0.431664 7.35601 0.179664 6.87601 -0.000335932 6.61201C1.31966 5.71201 2.33966 4.36801 3.08366 2.90401H0.323664V1.83601H3.56366C3.81566 1.24801 3.99566 0.660008 4.15166 0.0720077L5.31566 0.360008C5.15966 0.852008 4.99166 1.34401 4.79966 1.83601ZM19.6677 7.16401V8.23201H12.2637V7.16401H19.6677ZM14.9517 4.63201H22.3077C22.3077 4.63201 22.2957 4.98001 22.2597 5.14801C21.9477 8.52001 21.6237 9.92401 21.0717 10.464C20.7237 10.812 20.3757 10.908 19.8237 10.944C19.3557 10.98 18.5037 10.968 17.6517 10.92C17.6277 10.596 17.4597 10.128 17.2317 9.80401C18.1557 9.88801 19.0917 9.90001 19.4757 9.90001C19.7637 9.90001 19.9437 9.88801 20.1117 9.75601C20.5197 9.42001 20.8317 8.18401 21.0717 5.66401H13.5237C13.8957 4.30801 14.3757 2.01601 14.6517 0.324007L15.7917 0.432007C15.7197 0.816007 15.6477 1.22401 15.5637 1.64401H22.0677V2.71201H15.3597C15.2277 3.38401 15.0837 4.04401 14.9517 4.63201ZM37.507 1.86001V2.94001H29.143V5.38801C29.143 7.16401 28.927 9.66001 27.643 11.232C27.451 10.992 26.971 10.572 26.719 10.416C27.847 9.00001 27.955 6.94801 27.955 5.37601V1.86001H32.299C32.179 1.38001 31.975 0.756007 31.795 0.276008L32.959 0.0480072C33.199 0.624008 33.463 1.36801 33.571 1.86001H37.507ZM39.763 9.90001L38.707 9.34801C39.307 8.42401 39.763 7.04401 40.003 5.83201L41.059 6.14401C40.795 7.36801 40.375 8.90401 39.763 9.90001ZM42.691 3.88801H41.587V2.66401H39.055V1.58401H41.587V0.0840075H42.691V1.58401H45.799V0.0960073H46.903V1.58401H49.471V2.66401H46.903V3.90001H45.799V2.66401H42.691V3.88801ZM43.363 3.97201L44.323 3.51601C44.995 4.47601 45.703 5.74801 45.991 6.58801L44.935 7.11601C44.695 6.28801 44.011 4.96801 43.363 3.97201ZM43.579 9.79201H45.667C46.267 9.79201 46.375 9.54001 46.447 8.06401C46.687 8.25601 47.179 8.42401 47.479 8.50801C47.323 10.38 46.999 10.872 45.739 10.872H43.483C42.067 10.872 41.695 10.524 41.695 9.28801V5.40001H42.811V9.27601C42.811 9.72001 42.931 9.79201 43.579 9.79201ZM47.311 6.04801L48.367 5.74801C48.955 6.92401 49.519 8.44801 49.675 9.42001L48.535 9.78001C48.391 8.82001 47.863 7.24801 47.311 6.04801ZM60.6383 2.77201V2.14801H58.8503V2.77201H60.6383ZM60.6383 4.08001V3.45601H58.8503V4.08001H60.6383ZM60.6383 5.43601V4.76401H58.8503V5.43601H60.6383ZM56.9183 6.15601L55.8023 6.57601V9.82801C55.8023 10.38 55.6943 10.68 55.3943 10.848C55.0583 11.04 54.6023 11.076 53.8823 11.076C53.8583 10.788 53.7143 10.308 53.5823 10.02C54.0263 10.032 54.4343 10.032 54.5663 10.032C54.7103 10.02 54.7583 9.98401 54.7583 9.82801V6.97201L53.7023 7.36801L53.4023 6.30001C53.7863 6.18001 54.2543 6.02401 54.7583 5.84401V3.45601H53.5103V2.42401H54.7583V0.0840075H55.8023V2.42401H56.7983V2.95201C57.5063 2.22001 58.0943 1.17601 58.4063 0.0720077L59.3663 0.312007C59.2583 0.660008 59.1383 1.00801 58.9823 1.34401H60.7103C60.5543 1.04401 60.3503 0.684008 60.1703 0.408008L61.1663 0.0480072C61.4543 0.432007 61.7903 0.960008 61.9343 1.30801L61.8383 1.34401H63.9983V2.14801H61.6343V2.77201H63.6143V3.45601H61.6343V4.08001H63.6143V4.76401H61.6343V5.43601H64.1183V6.25201H58.8503V6.52801H57.8903V3.24001C57.6623 3.54001 57.4343 3.80401 57.1823 4.03201C57.1103 3.90001 56.9423 3.62401 56.7983 3.39601V3.45601H55.8023V5.48401L56.7503 5.14801L56.9183 6.15601ZM62.1023 7.83601H64.2263C64.2263 7.83601 64.2023 8.11201 64.1783 8.25601C64.0343 9.74401 63.8903 10.416 63.5783 10.704C63.3623 10.932 63.1223 11.004 62.7623 11.028C62.4623 11.052 61.8863 11.052 61.2863 11.016C61.2743 10.728 61.1543 10.344 60.9863 10.08C61.5503 10.128 62.1143 10.14 62.3423 10.14C62.5463 10.14 62.6663 10.128 62.7623 10.044C62.9183 9.91201 63.0383 9.50401 63.1343 8.66401H60.8543C60.9503 8.38801 61.0703 8.06401 61.1783 7.72801H59.8343C59.5703 9.48001 58.7543 10.5 57.2543 11.148C57.1343 10.932 56.7623 10.512 56.5343 10.332C57.8423 9.85201 58.5383 9.06001 58.7303 7.72801H57.1823V6.82801H62.4383C62.3303 7.15201 62.2103 7.50001 62.1023 7.83601ZM76.3583 6.21601V7.30801H71.5463V9.66001C71.5463 10.392 71.3423 10.704 70.8383 10.872C70.3463 11.052 69.5303 11.076 68.2943 11.064C68.2223 10.764 68.0063 10.26 67.8263 9.96001C68.7863 9.99601 69.7463 9.99601 70.0223 9.98401C70.2863 9.98401 70.3823 9.90001 70.3823 9.64801V7.30801H65.5583V6.21601H70.3823V4.51201H66.3743V3.44401H70.3823V1.81201C69.0983 1.92001 67.7903 2.00401 66.5783 2.05201C66.5663 1.77601 66.4223 1.32001 66.3143 1.08001C69.1463 0.948008 72.5303 0.636008 74.4023 0.0960073L75.2303 1.00801C74.1863 1.30801 72.9143 1.51201 71.5463 1.68001V3.44401H75.6743V4.51201H71.5463V6.21601H76.3583ZM83.4863 7.60801V9.70801C84.1343 9.84001 84.8423 9.87601 85.5743 9.87601C86.0303 9.88801 87.9023 9.87601 88.4903 9.86401C88.3343 10.128 88.1543 10.644 88.0943 10.944H85.5263C83.0543 10.944 81.1343 10.524 79.9103 8.56801C79.5263 9.57601 78.9743 10.488 78.1823 11.124C77.9903 10.908 77.6063 10.56 77.3543 10.392C78.7463 9.31201 79.3103 7.24801 79.4903 5.53201L80.6543 5.67601C80.5703 6.20401 80.4623 6.74401 80.3183 7.28401C80.7983 8.34001 81.4823 8.98801 82.3463 9.37201V4.90801H77.7143V3.87601H82.3343V2.43601H78.7583V1.40401H82.3343V0.0960073H83.4743V1.40401H87.2783V2.43601H83.4743V3.87601H88.1663V4.90801H83.4863V6.60001H87.3743V7.60801H83.4863ZM97.4903 7.59601V3.24001H92.9783V2.18401H97.4903V0.144007H98.6303V2.18401H100.19V3.24001H98.6303V7.60801C98.6303 8.30401 98.4623 8.61601 97.9943 8.78401C97.5383 8.96401 96.7703 9.00001 95.6543 9.00001C95.6063 8.67601 95.4263 8.17201 95.2703 7.86001C96.0863 7.89601 96.9383 7.89601 97.1783 7.88401C97.4063 7.87201 97.4903 7.81201 97.4903 7.59601ZM93.4463 4.48801L94.3343 3.99601C94.9343 4.70401 95.6903 5.68801 96.0263 6.31201L95.0903 6.88801C94.7663 6.26401 94.0343 5.23201 93.4463 4.48801ZM92.5103 2.42401L91.5863 3.07201C91.2623 2.49601 90.4943 1.63201 89.8463 1.00801L90.7103 0.432007C91.3703 1.03201 92.1503 1.86001 92.5103 2.42401ZM92.1983 4.51201V8.55601C92.4143 8.70001 92.6543 8.88001 93.0143 9.08401C93.7823 9.55201 94.8503 9.63601 96.1703 9.63601C97.4903 9.63601 99.3503 9.52801 100.514 9.38401C100.37 9.69601 100.19 10.272 100.166 10.608C99.3383 10.656 97.2983 10.728 96.1343 10.728C94.6463 10.728 93.6503 10.596 92.7863 10.092C92.2703 9.79201 91.8743 9.39601 91.6103 9.39601C91.2383 9.39601 90.6863 10.14 90.1583 10.908L89.3663 9.81601C89.9663 9.16801 90.5783 8.67601 91.1063 8.46001V5.55601H89.5823V4.51201H92.1983ZM104.186 1.90801H103.658C103.274 2.50801 102.854 3.03601 102.434 3.44401C102.23 3.27601 101.774 3.03601 101.498 2.90401C102.326 2.20801 103.046 1.12801 103.454 0.0240076L104.474 0.276008C104.366 0.552008 104.246 0.804008 104.126 1.06801H107.066V1.90801H105.302C105.494 2.28001 105.674 2.66401 105.77 2.95201L104.786 3.31201C104.69 2.94001 104.426 2.36401 104.186 1.90801ZM106.298 6.20401H103.922C103.886 6.52801 103.838 6.84001 103.79 7.14001H106.298V6.20401ZM107.402 4.34401V5.28001H110.222V4.34401H107.402ZM107.402 7.14001H111.794C111.794 7.14001 111.782 7.41601 111.758 7.57201C111.614 9.19201 111.47 9.92401 111.158 10.236C110.93 10.476 110.69 10.56 110.33 10.584C110.03 10.608 109.442 10.62 108.83 10.584C108.818 10.272 108.686 9.85201 108.518 9.56401C109.058 9.62401 109.61 9.63601 109.814 9.62401C110.018 9.62401 110.138 9.61201 110.234 9.52801C110.378 9.37201 110.486 8.97601 110.594 8.08801H107.402V11.088H106.298V8.54401C105.266 9.63601 103.814 10.56 102.458 11.076C102.29 10.824 101.99 10.404 101.738 10.2C103.07 9.79201 104.474 8.98801 105.434 8.08801H102.542C102.71 7.33201 102.878 6.19201 102.974 5.28001H106.298V4.34401H102.554V3.42001H111.314V6.20401H107.402V7.14001ZM108.914 1.05601H112.334V1.89601H110.39C110.678 2.24401 110.918 2.62801 111.05 2.91601L110.09 3.31201C109.922 2.92801 109.55 2.35201 109.178 1.89601H108.518C108.206 2.47201 107.846 2.98801 107.486 3.38401C107.258 3.21601 106.778 2.94001 106.514 2.80801C107.222 2.14801 107.798 1.09201 108.122 0.0240076L109.202 0.264007C109.118 0.540007 109.022 0.792008 108.914 1.05601ZM117.274 6.70801H119.698V4.39201C119.698 3.91201 119.746 3.16801 119.77 2.68801H119.722C119.506 3.13201 119.266 3.58801 119.014 4.04401L117.274 6.70801ZM122.122 6.70801V7.77601H120.994V10.152H119.698V7.77601H115.882V6.85201L119.398 1.32001H120.994V6.70801H122.122ZM128.817 7.36801H131.229V5.24401H128.817V7.36801ZM136.593 7.36801V8.44801H132.381V11.1H131.229V8.44801H125.769V7.36801H127.701V4.20001H131.229V2.54401H128.481C127.965 3.43201 127.365 4.22401 126.753 4.82401C126.537 4.63201 126.057 4.27201 125.781 4.10401C126.885 3.15601 127.845 1.63201 128.397 0.0360074L129.525 0.336008C129.381 0.708007 129.213 1.10401 129.057 1.46401H136.005V2.54401H132.381V4.20001H135.729V5.24401H132.381V7.36801H136.593ZM139.233 8.88001H141.465V6.22801H139.233V8.88001ZM141.465 2.97601H139.233V5.25601H141.465V2.97601ZM144.861 1.94401H148.341C148.341 1.94401 148.341 2.32801 148.329 2.47201C148.161 7.88401 148.017 9.74401 147.537 10.344C147.237 10.74 146.949 10.848 146.493 10.908C146.073 10.956 145.365 10.944 144.681 10.908C144.657 10.608 144.525 10.14 144.321 9.82801C145.089 9.88801 145.785 9.90001 146.085 9.90001C146.325 9.90001 146.457 9.86401 146.589 9.69601C146.973 9.30001 147.129 7.48801 147.285 2.96401H144.453C144.117 3.73201 143.745 4.42801 143.361 4.98001C143.181 4.81201 142.761 4.51201 142.485 4.35601V9.86401H139.233V10.776H138.213V2.00401H139.557C139.725 1.42801 139.905 0.636008 139.977 0.0600078L141.189 0.264007C140.985 0.864007 140.757 1.50001 140.565 2.00401H142.485V4.27201C143.277 3.24001 143.913 1.64401 144.273 0.0600078L145.353 0.312007C145.209 0.864007 145.053 1.41601 144.861 1.94401ZM146.397 7.35601L145.461 7.94401C145.125 7.21201 144.345 6.03601 143.709 5.17201L144.585 4.68001C145.221 5.50801 146.037 6.64801 146.397 7.35601ZM160.101 8.19601L159.237 9.00001C158.649 8.40001 157.761 7.64401 156.765 6.84001C155.865 7.77601 154.737 8.49601 153.357 9.03601C153.237 8.79601 152.913 8.29201 152.697 8.06401C154.005 7.62001 155.073 6.99601 155.913 6.16801C154.965 5.42401 153.969 4.70401 153.093 4.09201L153.849 3.42001C154.689 4.00801 155.649 4.68001 156.597 5.36401C157.125 4.68001 157.521 3.86401 157.833 2.91601H152.733V1.87201H156.093C155.925 1.41601 155.637 0.804008 155.361 0.348008L156.429 7.86781e-06C156.753 0.528008 157.137 1.24801 157.293 1.71601L156.825 1.87201H160.473V2.91601H158.997C158.613 4.12801 158.109 5.16001 157.461 6.02401C158.493 6.80401 159.453 7.58401 160.101 8.19601ZM152.481 2.41201L151.533 3.08401C151.221 2.54401 150.489 1.74001 149.877 1.17601L150.753 0.576008C151.377 1.10401 152.121 1.87201 152.481 2.41201ZM152.325 4.53601V8.73601C152.565 8.84401 152.829 9.04801 153.225 9.26401C153.993 9.67201 155.061 9.74401 156.345 9.74401C157.629 9.74401 159.513 9.64801 160.713 9.49201C160.581 9.81601 160.389 10.404 160.365 10.74C159.477 10.8 157.509 10.86 156.309 10.86C154.881 10.86 153.861 10.728 153.033 10.296C152.529 10.02 152.133 9.69601 151.869 9.69601C151.485 9.69601 150.921 10.368 150.381 11.028L149.601 9.93601C150.153 9.40801 150.741 8.96401 151.257 8.76001V5.56801H149.805V4.53601H152.325ZM161.733 4.87201H172.653V6.08401H161.733V4.87201ZM176.817 7.36801H179.229V5.24401H176.817V7.36801ZM184.593 7.36801V8.44801H180.381V11.1H179.229V8.44801H173.769V7.36801H175.701V4.20001H179.229V2.54401H176.481C175.965 3.43201 175.365 4.22401 174.753 4.82401C174.537 4.63201 174.057 4.27201 173.781 4.10401C174.885 3.15601 175.845 1.63201 176.397 0.0360074L177.525 0.336008C177.381 0.708007 177.213 1.10401 177.057 1.46401H184.005V2.54401H180.381V4.20001H183.729V5.24401H180.381V7.36801H184.593Z" fill="white"/>
</svg>
