<svg width="296" height="344" viewBox="0 0 296 344" fill="none" xmlns="http://www.w3.org/2000/svg">
<path d="M199.193 92.86L200.381 93.148C200.225 93.652 200.045 94.156 199.853 94.648H205.913V95.74H199.385C198.977 96.592 198.509 97.396 197.957 98.152V103.972H196.817V99.484C196.433 99.868 196.013 100.216 195.557 100.54C195.437 100.228 195.173 99.736 194.993 99.46C196.313 98.56 197.345 97.216 198.101 95.74H195.317V94.648H198.593C198.833 94.048 199.037 93.448 199.193 92.86ZM201.725 96.304H202.865V98.488H205.433V99.532H202.865V102.664H205.901V103.72H198.653V102.664H201.725V99.532H199.121V98.488H201.725V96.304ZM207.257 100.024H214.745V101.116H207.257V100.024ZM209.669 93.1L210.821 93.22L210.605 94.444H217.181V95.536H210.389L209.981 97.456H217.421C217.421 97.456 217.397 97.816 217.373 97.984C217.049 101.404 216.725 102.82 216.173 103.36C215.813 103.72 215.465 103.816 214.901 103.852C214.433 103.888 213.569 103.876 212.705 103.828C212.681 103.492 212.513 103.012 212.273 102.688C213.209 102.772 214.169 102.784 214.541 102.784C214.841 102.784 215.021 102.772 215.189 102.64C215.597 102.304 215.909 101.056 216.161 98.512H208.529C208.913 97.132 209.393 94.828 209.669 93.1ZM231.565 94.372L232.597 94.924C231.829 95.74 230.857 96.64 229.993 97.336C231.001 97.852 232.117 98.5 232.717 99.004L232.129 99.904C231.565 99.4 230.497 98.74 229.489 98.188C229.765 100.9 230.365 102.544 231.553 102.532C231.865 102.532 231.985 101.788 232.033 100.456C232.297 100.72 232.633 101.02 232.897 101.152C232.765 103.096 232.417 103.708 231.505 103.72C228.901 103.708 228.289 100.24 228.169 94.708H222.049V93.52H229.309C229.309 94.624 229.333 95.668 229.381 96.616C230.173 95.92 231.013 95.068 231.565 94.372ZM237.709 99.712L238.177 99.052C239.161 99.244 240.397 99.628 241.093 99.952L240.625 100.684C239.941 100.348 238.693 99.916 237.709 99.712ZM236.557 101.248L237.085 100.492C238.705 100.672 240.757 101.116 241.957 101.524L241.453 102.34C240.301 101.92 238.225 101.44 236.557 101.248ZM234.253 93.364H244.369V104.02H243.241V103.54H235.345V104.02H234.253V93.364ZM235.345 102.532H243.241V94.396H235.345V102.532ZM238.237 94.516L239.173 94.828C239.041 95.044 238.885 95.26 238.717 95.464H241.621L241.789 95.416L242.425 95.8C241.921 96.58 241.189 97.264 240.325 97.84C241.213 98.212 242.197 98.5 243.181 98.668C242.965 98.872 242.677 99.268 242.545 99.52C241.453 99.292 240.361 98.896 239.389 98.392C238.297 98.968 237.073 99.4 235.933 99.676C235.825 99.4 235.597 98.956 235.405 98.752C236.413 98.56 237.469 98.236 238.429 97.816C238.009 97.54 237.637 97.24 237.313 96.916C237.001 97.18 236.689 97.42 236.377 97.624C236.209 97.444 235.825 97.108 235.609 96.94C236.617 96.364 237.637 95.452 238.237 94.516ZM237.949 96.316C238.333 96.7 238.801 97.048 239.353 97.36C239.917 97.048 240.421 96.7 240.817 96.328L237.949 96.316ZM252.212 99.688H257.54L257.204 100.708H259.34C259.34 100.708 259.316 100.984 259.292 101.128C259.16 102.628 258.992 103.312 258.68 103.612C258.464 103.84 258.212 103.9 257.852 103.936C257.552 103.948 256.964 103.948 256.376 103.924C256.352 103.636 256.232 103.24 256.064 102.976C256.64 103.024 257.204 103.036 257.432 103.036C257.624 103.036 257.756 103.024 257.852 102.94C258.008 102.808 258.128 102.4 258.224 101.548H255.92C256.028 101.272 256.148 100.948 256.256 100.612H254.9C254.636 102.376 253.808 103.396 252.296 104.056C252.176 103.828 251.792 103.408 251.564 103.228C252.884 102.76 253.58 101.956 253.784 100.612H252.212V99.688ZM255.236 93.196L256.268 92.836C256.556 93.22 256.88 93.748 257.024 94.108L256.928 94.144H259.124V94.96H256.724V95.584H258.716V96.268H256.724V96.916H258.716V97.612H256.724V98.272H259.232V99.1H253.904V99.388H252.932V96.064C252.704 96.364 252.476 96.628 252.224 96.868C252.152 96.724 251.984 96.448 251.828 96.232V96.28H250.832V98.332L251.78 97.996L251.96 99.004L250.832 99.436V102.712C250.832 103.276 250.724 103.576 250.4 103.756C250.076 103.936 249.608 103.972 248.876 103.972C248.852 103.684 248.708 103.204 248.564 102.904C249.02 102.916 249.44 102.916 249.572 102.916C249.716 102.904 249.776 102.868 249.776 102.712V99.832L248.696 100.228L248.396 99.148L249.776 98.692V96.28H248.504V95.224H249.776V92.872H250.832V95.224H251.828V95.74C252.548 95.008 253.124 93.976 253.46 92.86L254.432 93.1C254.324 93.448 254.192 93.808 254.036 94.144H255.788C255.632 93.832 255.428 93.484 255.236 93.196ZM255.704 97.612H253.904V98.272H255.704V97.612ZM255.704 96.916V96.268H253.904V96.916H255.704ZM255.704 95.584V94.96H253.904V95.584H255.704ZM260.552 99.076H265.424V97.348H261.368V96.268H265.424V94.612C264.128 94.732 262.808 94.816 261.596 94.864C261.56 94.576 261.416 94.12 261.308 93.868C264.188 93.736 267.596 93.412 269.492 92.872L270.332 93.796C269.288 94.096 267.992 94.312 266.612 94.48V96.268H270.776V97.348H266.612V99.076H271.472V100.18H266.612V102.556C266.612 103.288 266.408 103.6 265.904 103.78C265.388 103.96 264.572 103.984 263.324 103.972C263.24 103.66 263.024 103.156 262.844 102.856C263.804 102.88 264.776 102.88 265.052 102.868C265.328 102.868 265.424 102.784 265.424 102.532V100.18H260.552V99.076ZM277.376 92.836L278.612 93.124C278.384 93.388 278.144 93.64 277.88 93.892H280.76L280.952 93.832L281.696 94.288C280.148 97.012 276.68 98.572 273.392 99.22C273.296 98.932 273.056 98.464 272.852 98.212C274.148 97.996 275.492 97.624 276.692 97.096C276.332 96.772 275.876 96.424 275.468 96.16L276.308 95.608C276.764 95.872 277.292 96.256 277.7 96.604C278.588 96.124 279.356 95.548 279.932 94.888H276.704C275.924 95.476 275.036 96.016 273.992 96.496C273.824 96.244 273.464 95.86 273.212 95.692C275.144 94.924 276.584 93.82 277.376 92.836ZM279.344 97.072L280.592 97.36C280.352 97.648 280.1 97.936 279.824 98.212H282.404L282.62 98.164L283.388 98.62C281.708 102.22 277.652 103.564 273.248 104.032C273.164 103.72 272.972 103.216 272.792 102.94C274.796 102.784 276.728 102.412 278.336 101.74C277.964 101.38 277.496 100.984 277.1 100.684L278.024 100.144C278.456 100.456 278.984 100.864 279.392 101.236C280.328 100.708 281.108 100.048 281.672 99.232H278.648C277.652 99.988 276.452 100.672 275 101.224C274.856 100.96 274.544 100.552 274.304 100.36C276.752 99.52 278.456 98.26 279.344 97.072ZM284.528 100.228H286.484V97.036H290.048V95.356H287.276C286.736 96.256 286.136 97.06 285.512 97.672C285.296 97.468 284.816 97.096 284.54 96.94C285.656 95.968 286.616 94.42 287.18 92.824L288.332 93.124C288.188 93.508 288.032 93.892 287.852 94.264H294.872V95.356H291.212V97.036H294.596V98.092H291.212V100.228H295.484V101.332H291.212V104.008H290.048V101.332H284.528V100.228ZM287.612 100.228H290.048V98.092H287.612V100.228Z" fill="white"/>
<path d="M187.435 340.099C187.545 340.136 187.727 340.212 187.984 340.324C188.057 340.324 188.13 340.344 188.205 340.382C188.095 341.249 187.965 341.909 187.819 342.362C187.563 343.229 186.958 343.664 186.004 343.664C185.307 343.664 184.702 343.455 184.188 343.039C182.683 342.099 181.896 340.005 181.821 336.76V332.292H175V331.557H182.592V332.576C182.556 333.783 182.556 334.745 182.592 335.462C184.389 334.105 185.693 333.068 186.499 332.352L187.159 332.917C186.132 333.747 184.812 334.727 183.198 335.858C184.152 336.311 185.6 337.047 187.547 338.064L187.05 338.743C186.867 338.629 186.465 338.405 185.84 338.064C184.301 337.235 183.216 336.65 182.593 336.311C182.593 336.499 182.613 336.688 182.649 336.876C182.722 339.705 183.344 341.535 184.519 342.364C184.995 342.664 185.49 342.817 186.004 342.817C186.627 342.817 186.995 342.553 187.104 342.025C187.287 341.384 187.397 340.743 187.435 340.102" fill="white"/>
<path d="M189.744 331.047H201.574V344H200.859V343.321H190.459V344H189.744V331.047ZM190.459 342.586H200.859V331.725H190.459V342.586ZM191.781 335.912C191.671 335.726 191.525 335.554 191.342 335.403C192.477 334.497 193.45 333.442 194.258 332.236L194.863 332.574C194.79 332.688 194.644 332.877 194.423 333.139C194.313 333.253 194.238 333.347 194.204 333.422H199.209V334.101C198.476 335.006 197.615 335.76 196.626 336.363C197.688 336.818 198.898 337.158 200.257 337.383C200.147 337.611 200.054 337.835 199.981 338.062C198.515 337.762 197.177 337.327 195.965 336.76C194.681 337.439 193.158 337.968 191.398 338.344C191.288 338.118 191.178 337.894 191.068 337.667C192.681 337.403 194.092 336.97 195.304 336.363C194.569 335.876 193.873 335.289 193.213 334.61C193.103 334.686 192.938 334.838 192.717 335.062C192.644 335.177 192.333 335.459 191.783 335.91M192.277 340.72L192.496 340.041C194.77 340.382 196.861 340.739 198.768 341.117L198.549 341.794C196.163 341.267 194.073 340.907 192.277 340.72ZM198.384 334.044H193.706L193.651 334.101C194.311 334.894 195.082 335.535 195.964 336.024C196.916 335.459 197.724 334.798 198.384 334.044ZM193.706 338.853L193.927 338.174C194.329 338.248 194.989 338.364 195.907 338.512C196.859 338.701 197.521 338.833 197.887 338.909L197.667 339.53C196.347 339.229 195.026 339.003 193.705 338.851" fill="white"/>
<path d="M203.059 335.347C204.891 334.065 206.323 332.424 207.35 330.424L208.12 330.594C208.085 330.631 208.028 330.727 207.957 330.877C207.882 330.989 207.827 331.083 207.791 331.159C208.707 331.989 209.828 333.045 211.148 334.327L210.542 334.892C209.736 333.988 208.709 332.95 207.463 331.78C206.435 333.365 205.133 334.778 203.556 336.024C203.519 335.988 203.464 335.91 203.391 335.797C203.281 335.61 203.171 335.457 203.06 335.345M204.601 335.459H210.047C210.047 336.401 210.011 337.364 209.938 338.344C209.864 339.512 209.223 340.08 208.013 340.041C207.499 340.079 207.022 340.097 206.581 340.097C206.581 339.983 206.562 339.851 206.526 339.7C206.489 339.512 206.451 339.38 206.416 339.304H207.131C207.498 339.342 207.772 339.36 207.957 339.36C208.727 339.398 209.147 339.023 209.222 338.23C209.257 338.042 209.277 337.701 209.277 337.21C209.312 336.723 209.33 336.362 209.33 336.136H205.315V341.85C205.277 342.529 205.679 342.85 206.524 342.812H208.56C209.403 342.812 209.898 342.565 210.044 342.077C210.154 341.624 210.245 341.077 210.32 340.436C210.576 340.588 210.832 340.683 211.09 340.72C211.053 341.249 210.924 341.794 210.704 342.359C210.521 343.152 209.861 343.549 208.725 343.549H206.357C205.148 343.585 204.56 343.038 204.598 341.908V335.459H204.601ZM211.972 332.009H212.687V340.721H211.972V332.009ZM214.888 330.538H215.659V342.191C215.659 343.173 215.144 343.682 214.118 343.718C213.568 343.755 212.999 343.776 212.413 343.776C212.376 343.473 212.321 343.211 212.248 342.985H214.008C214.595 342.985 214.888 342.702 214.888 342.137V330.539V330.538Z" fill="white"/>
<path d="M217.255 338.909L217.145 338.06C217.475 337.985 217.988 337.835 218.685 337.609C218.906 337.535 219.07 337.477 219.18 337.439V334.047H217.31V333.366H219.18V330.597H219.895V333.366H221.545V334.047H219.895V337.212C220.078 337.177 220.37 337.082 220.774 336.93C221.068 336.818 221.288 336.742 221.434 336.703V337.495C220.957 337.647 220.445 337.817 219.895 338.006V342.305C219.931 343.323 219.473 343.832 218.52 343.832C218.41 343.832 218.226 343.852 217.97 343.888H217.531C217.531 343.814 217.511 343.72 217.475 343.606C217.438 343.343 217.401 343.153 217.365 343.041H218.354C218.94 343.079 219.216 342.814 219.18 342.25V338.233C218.959 338.309 218.648 338.423 218.246 338.573C217.805 338.723 217.475 338.836 217.255 338.912M222.372 337.723V337.044H229.084V337.723C228.387 339.308 227.489 340.57 226.389 341.512C227.305 342.191 228.681 342.736 230.517 343.151C230.442 343.267 230.332 343.453 230.186 343.718C230.148 343.794 230.131 343.85 230.131 343.886C228.371 343.399 226.921 342.756 225.784 341.965C224.647 342.756 223.199 343.435 221.436 344C221.363 343.886 221.253 343.718 221.107 343.491C221.069 343.377 221.032 343.303 220.996 343.265C222.647 342.847 224.06 342.265 225.234 341.51C224.206 340.568 223.453 339.306 222.978 337.721H222.373L222.372 337.723ZM229.248 334.95H230.458C230.422 335.177 230.367 335.401 230.294 335.629H229.084C228.021 335.668 227.506 335.159 227.544 334.101V331.897H224.187V332.52C224.26 334.18 223.637 335.48 222.317 336.423C222.133 336.195 221.95 335.989 221.767 335.802C223.012 335.047 223.582 333.953 223.471 332.52V331.162H228.259V333.989C228.222 334.668 228.553 334.989 229.248 334.951M228.314 337.723H223.692C224.204 339.118 224.92 340.232 225.838 341.061C226.937 340.08 227.763 338.968 228.314 337.723Z" fill="white"/>
<path d="M187.903 293.251H180.141V297.167H186.897V300.197H180.141V306.553H176.547V290.221H187.903V293.251Z" fill="white"/>
<path d="M200.496 306.553H188.781V290.221H192.375V303.67H200.496V306.553Z" fill="white"/>
<path d="M213.636 290.221L207.311 300.123V306.552H203.719V300.197L197.465 290.221H201.56L204.724 295.689C205.058 296.183 205.37 296.725 205.657 297.315C206.039 296.676 206.328 296.134 206.52 295.689L209.466 290.221H213.635H213.636Z" fill="white"/>
<path d="M225.219 293.251H217.457V297.167H224.214V300.197H217.457V306.553H213.863V290.221H225.219V293.251Z" fill="white"/>
<path d="M241.406 298.497C241.119 303.769 238.508 306.552 233.572 306.847C228.589 306.552 225.953 303.769 225.666 298.497C225.906 293.028 228.543 290.196 233.572 290C238.459 290.293 241.072 293.127 241.406 298.497ZM237.453 298.497C237.356 295.098 236.039 293.325 233.501 293.175C230.913 293.323 229.547 295.096 229.404 298.497C229.5 301.848 230.841 303.598 233.43 303.744C236.018 303.645 237.358 301.896 237.455 298.497" fill="white"/>
<path d="M255.796 293.251H250.692V306.553H247.027V293.251H241.852V290.221H255.796V293.251Z" fill="white"/>
<path d="M191.423 310.144L185.458 326.475H181.433L175.396 310.144H179.278L183.014 321.599C183.159 322.141 183.326 322.683 183.517 323.224C183.755 322.484 183.922 321.919 184.02 321.524L187.541 310.144H191.422H191.423Z" fill="white"/>
<path d="M204.163 326.475H191.729V310.144H203.946V313.173H195.322V316.721H203.372V319.751H195.322V323.593H204.163V326.475Z" fill="white"/>
<path d="M219.124 326.475H215.459L209.205 316.276C208.774 315.536 208.487 315.019 208.344 314.724C208.389 315.462 208.415 316.398 208.415 317.531V326.473H205.037V310.14H208.918L214.956 320.191C215.389 320.832 215.676 321.372 215.819 321.817V321.744C215.77 321.202 215.746 320.365 215.746 319.23V310.14H219.124V326.473V326.475Z" fill="white"/>
<path d="M234.019 313.173H228.915V326.475H225.25V313.173H220.076V310.144H234.019V313.173Z" fill="white"/>
<path d="M234.895 319.528V310.143H238.489V319.528C238.536 322.239 239.734 323.618 242.082 323.667C244.334 323.667 245.461 322.263 245.461 319.454V310.142H249.126V319.38C249.126 324.257 246.706 326.697 241.868 326.697C237.03 326.697 234.943 324.308 234.896 319.528" fill="white"/>
<path d="M264.523 326.4H259.995L256.114 320.12H254.028V326.475H250.436V310.144H257.696C261.578 310.242 263.589 311.867 263.735 315.019C263.78 317.729 262.487 319.355 259.854 319.897L264.524 326.4H264.523ZM257.119 313.025H254.028V317.385H257.119C259.035 317.385 259.969 316.673 259.922 315.243C260.019 313.717 259.085 312.977 257.119 313.025Z" fill="white"/>
<path d="M277.259 326.475H264.824V310.144H277.041V313.173H268.418V316.721H276.469V319.751H268.418V323.593H277.259V326.475Z" fill="white"/>
<path d="M277.561 321.303L281.083 320.637C281.37 322.855 282.567 323.962 284.676 323.962C286.257 323.912 287.094 323.273 287.191 322.041C287.191 321.107 286.64 320.415 285.538 319.971C284.388 319.578 283.334 319.258 282.376 319.011C279.453 318.37 278.039 316.82 278.136 314.355C278.423 311.597 280.365 310.119 283.957 309.923C287.694 309.873 289.898 311.401 290.571 314.503L287.048 315.241C286.808 313.617 285.825 312.803 284.101 312.803C282.711 312.852 281.97 313.37 281.875 314.355C281.777 315.292 282.713 315.981 284.677 316.424C286.067 316.719 287.313 317.162 288.415 317.754C290.092 318.642 290.954 320.021 291.002 321.893C290.858 325.044 288.774 326.669 284.749 326.769C280.674 326.819 278.279 324.997 277.561 321.301" fill="white"/>
</svg>
