<svg width="77" height="47" viewBox="240 290 77 47" fill="none" xmlns="http://www.w3.org/2000/svg">
<path d="M121.396 99.52V102.616H124.408V103.66H117.244V102.616H120.268V99.52H117.7V98.488H120.268V96.328H121.396V98.488H123.952V99.52H121.396ZM118.42 94.684H124.42V95.752H117.964C117.556 96.604 117.088 97.42 116.536 98.164V103.924H115.42V99.46C115.036 99.832 114.616 100.192 114.172 100.504C114.052 100.204 113.8 99.724 113.62 99.46C114.94 98.56 115.96 97.216 116.704 95.752H113.944V94.684H117.184C117.436 94.096 117.616 93.508 117.772 92.92L118.936 93.208C118.78 93.7 118.612 94.192 118.42 94.684ZM133.288 100.012V101.08H125.884V100.012H133.288ZM128.572 97.48H135.928C135.928 97.48 135.916 97.828 135.88 97.996C135.568 101.368 135.244 102.772 134.692 103.312C134.344 103.66 133.996 103.756 133.444 103.792C132.976 103.828 132.124 103.816 131.272 103.768C131.248 103.444 131.08 102.976 130.852 102.652C131.776 102.736 132.712 102.748 133.096 102.748C133.384 102.748 133.564 102.736 133.732 102.604C134.14 102.268 134.452 101.032 134.692 98.512H127.144C127.516 97.156 127.996 94.864 128.272 93.172L129.412 93.28C129.34 93.664 129.268 94.072 129.184 94.492H135.688V95.56H128.98C128.848 96.232 128.704 96.892 128.572 97.48ZM142.835 103V95.332H140.243V94.168H146.831V95.332H144.227V103H142.835ZM148.359 103V94.168H153.579V95.332H149.751V97.792H152.991V98.968H149.751V101.824H153.711V103H148.359ZM155.555 103V94.168H156.947V101.824H160.679V103H155.555ZM171.458 95.62V94.996H169.67V95.62H171.458ZM171.458 96.928V96.304H169.67V96.928H171.458ZM171.458 98.284V97.612H169.67V98.284H171.458ZM167.738 99.004L166.622 99.424V102.676C166.622 103.228 166.514 103.528 166.214 103.696C165.878 103.888 165.422 103.924 164.702 103.924C164.678 103.636 164.534 103.156 164.402 102.868C164.846 102.88 165.254 102.88 165.386 102.88C165.53 102.868 165.578 102.832 165.578 102.676V99.82L164.522 100.216L164.222 99.148C164.606 99.028 165.074 98.872 165.578 98.692V96.304H164.33V95.272H165.578V92.932H166.622V95.272H167.618V95.8C168.326 95.068 168.914 94.024 169.226 92.92L170.186 93.16C170.078 93.508 169.958 93.856 169.802 94.192H171.53C171.374 93.892 171.17 93.532 170.99 93.256L171.986 92.896C172.274 93.28 172.61 93.808 172.754 94.156L172.658 94.192H174.818V94.996H172.454V95.62H174.434V96.304H172.454V96.928H174.434V97.612H172.454V98.284H174.938V99.1H169.67V99.376H168.71V96.088C168.482 96.388 168.254 96.652 168.002 96.88C167.93 96.748 167.762 96.472 167.618 96.244V96.304H166.622V98.332L167.57 97.996L167.738 99.004ZM172.922 100.684H175.046C175.046 100.684 175.022 100.96 174.998 101.104C174.854 102.592 174.71 103.264 174.398 103.552C174.182 103.78 173.942 103.852 173.582 103.876C173.282 103.9 172.706 103.9 172.106 103.864C172.094 103.576 171.974 103.192 171.806 102.928C172.37 102.976 172.934 102.988 173.162 102.988C173.366 102.988 173.486 102.976 173.582 102.892C173.738 102.76 173.858 102.352 173.954 101.512H171.674C171.77 101.236 171.89 100.912 171.998 100.576H170.654C170.39 102.328 169.574 103.348 168.074 103.996C167.954 103.78 167.582 103.36 167.354 103.18C168.662 102.7 169.358 101.908 169.55 100.576H168.002V99.676H173.258C173.15 100 173.03 100.348 172.922 100.684ZM187.178 99.064V100.156H182.366V102.508C182.366 103.24 182.162 103.552 181.658 103.72C181.166 103.9 180.35 103.924 179.114 103.912C179.042 103.612 178.826 103.108 178.646 102.808C179.606 102.844 180.566 102.844 180.842 102.832C181.106 102.832 181.202 102.748 181.202 102.496V100.156H176.378V99.064H181.202V97.36H177.194V96.292H181.202V94.66C179.918 94.768 178.61 94.852 177.398 94.9C177.386 94.624 177.242 94.168 177.134 93.928C179.966 93.796 183.35 93.484 185.222 92.944L186.05 93.856C185.006 94.156 183.734 94.36 182.366 94.528V96.292H186.494V97.36H182.366V99.064H187.178ZM194.306 100.456V102.556C194.954 102.688 195.662 102.724 196.394 102.724C196.85 102.736 198.722 102.724 199.31 102.712C199.154 102.976 198.974 103.492 198.914 103.792H196.346C193.874 103.792 191.954 103.372 190.73 101.416C190.346 102.424 189.794 103.336 189.002 103.972C188.81 103.756 188.426 103.408 188.174 103.24C189.566 102.16 190.13 100.096 190.31 98.38L191.474 98.524C191.39 99.052 191.282 99.592 191.138 100.132C191.618 101.188 192.302 101.836 193.166 102.22V97.756H188.534V96.724H193.154V95.284H189.578V94.252H193.154V92.944H194.294V94.252H198.098V95.284H194.294V96.724H198.986V97.756H194.306V99.448H198.194V100.456H194.306ZM208.31 100.444V96.088H203.798V95.032H208.31V92.992H209.45V95.032H211.01V96.088H209.45V100.456C209.45 101.152 209.282 101.464 208.814 101.632C208.358 101.812 207.59 101.848 206.474 101.848C206.426 101.524 206.246 101.02 206.09 100.708C206.906 100.744 207.758 100.744 207.998 100.732C208.226 100.72 208.31 100.66 208.31 100.444ZM204.266 97.336L205.154 96.844C205.754 97.552 206.51 98.536 206.846 99.16L205.91 99.736C205.586 99.112 204.854 98.08 204.266 97.336ZM203.33 95.272L202.406 95.92C202.082 95.344 201.314 94.48 200.666 93.856L201.53 93.28C202.19 93.88 202.97 94.708 203.33 95.272ZM203.018 97.36V101.404C203.234 101.548 203.474 101.728 203.834 101.932C204.602 102.4 205.67 102.484 206.99 102.484C208.31 102.484 210.17 102.376 211.334 102.232C211.19 102.544 211.01 103.12 210.986 103.456C210.158 103.504 208.118 103.576 206.954 103.576C205.466 103.576 204.47 103.444 203.606 102.94C203.09 102.64 202.694 102.244 202.43 102.244C202.058 102.244 201.506 102.988 200.978 103.756L200.186 102.664C200.786 102.016 201.398 101.524 201.926 101.308V98.404H200.402V97.36H203.018ZM215.006 94.756H214.478C214.094 95.356 213.674 95.884 213.254 96.292C213.05 96.124 212.594 95.884 212.318 95.752C213.146 95.056 213.866 93.976 214.274 92.872L215.294 93.124C215.186 93.4 215.066 93.652 214.946 93.916H217.886V94.756H216.122C216.314 95.128 216.494 95.512 216.59 95.8L215.606 96.16C215.51 95.788 215.246 95.212 215.006 94.756ZM217.118 99.052H214.742C214.706 99.376 214.658 99.688 214.61 99.988H217.118V99.052ZM218.222 97.192V98.128H221.042V97.192H218.222ZM218.222 99.988H222.614C222.614 99.988 222.602 100.264 222.578 100.42C222.434 102.04 222.29 102.772 221.978 103.084C221.75 103.324 221.51 103.408 221.15 103.432C220.85 103.456 220.262 103.468 219.65 103.432C219.638 103.12 219.506 102.7 219.338 102.412C219.878 102.472 220.43 102.484 220.634 102.472C220.838 102.472 220.958 102.46 221.054 102.376C221.198 102.22 221.306 101.824 221.414 100.936H218.222V103.936H217.118V101.392C216.086 102.484 214.634 103.408 213.278 103.924C213.11 103.672 212.81 103.252 212.558 103.048C213.89 102.64 215.294 101.836 216.254 100.936H213.362C213.53 100.18 213.698 99.04 213.794 98.128H217.118V97.192H213.374V96.268H222.134V99.052H218.222V99.988ZM219.734 93.904H223.154V94.744H221.21C221.498 95.092 221.738 95.476 221.87 95.764L220.91 96.16C220.742 95.776 220.37 95.2 219.998 94.744H219.338C219.026 95.32 218.666 95.836 218.306 96.232C218.078 96.064 217.598 95.788 217.334 95.656C218.042 94.996 218.618 93.94 218.942 92.872L220.022 93.112C219.938 93.388 219.842 93.64 219.734 93.904ZM230.133 102.1C230.901 102.1 231.501 101.404 231.501 100.264C231.501 99.124 230.997 98.488 230.049 98.488C229.533 98.488 228.933 98.764 228.405 99.52C228.549 101.272 229.185 102.1 230.133 102.1ZM232.641 94.948L231.885 95.788C231.561 95.404 231.021 95.128 230.505 95.128C229.377 95.128 228.441 95.98 228.381 98.5C228.897 97.864 229.665 97.48 230.301 97.48C231.789 97.48 232.785 98.392 232.785 100.264C232.785 102.016 231.585 103.156 230.145 103.156C228.465 103.156 227.097 101.752 227.097 98.752C227.097 95.356 228.693 94 230.433 94C231.417 94 232.137 94.42 232.641 94.948ZM239.636 100.216H242.048V98.092H239.636V100.216ZM247.412 100.216V101.296H243.2V103.948H242.048V101.296H236.588V100.216H238.52V97.048H242.048V95.392H239.3C238.784 96.28 238.184 97.072 237.572 97.672C237.356 97.48 236.876 97.12 236.6 96.952C237.704 96.004 238.664 94.48 239.216 92.884L240.344 93.184C240.2 93.556 240.032 93.952 239.876 94.312H246.824V95.392H243.2V97.048H246.548V98.092H243.2V100.216H247.412ZM250.052 101.728H252.284V99.076H250.052V101.728ZM252.284 95.824H250.052V98.104H252.284V95.824ZM255.68 94.792H259.16C259.16 94.792 259.16 95.176 259.148 95.32C258.98 100.732 258.836 102.592 258.356 103.192C258.056 103.588 257.768 103.696 257.312 103.756C256.892 103.804 256.184 103.792 255.5 103.756C255.476 103.456 255.344 102.988 255.14 102.676C255.908 102.736 256.604 102.748 256.904 102.748C257.144 102.748 257.276 102.712 257.408 102.544C257.792 102.148 257.948 100.336 258.104 95.812H255.272C254.936 96.58 254.564 97.276 254.18 97.828C254 97.66 253.58 97.36 253.304 97.204V102.712H250.052V103.624H249.032V94.852H250.376C250.544 94.276 250.724 93.484 250.796 92.908L252.008 93.112C251.804 93.712 251.576 94.348 251.384 94.852H253.304V97.12C254.096 96.088 254.732 94.492 255.092 92.908L256.172 93.16C256.028 93.712 255.872 94.264 255.68 94.792ZM257.216 100.204L256.28 100.792C255.944 100.06 255.164 98.884 254.528 98.02L255.404 97.528C256.04 98.356 256.856 99.496 257.216 100.204ZM270.92 101.044L270.056 101.848C269.468 101.248 268.58 100.492 267.584 99.688C266.684 100.624 265.556 101.344 264.176 101.884C264.056 101.644 263.732 101.14 263.516 100.912C264.824 100.468 265.892 99.844 266.732 99.016C265.784 98.272 264.788 97.552 263.912 96.94L264.668 96.268C265.508 96.856 266.468 97.528 267.416 98.212C267.944 97.528 268.34 96.712 268.652 95.764H263.552V94.72H266.912C266.744 94.264 266.456 93.652 266.18 93.196L267.248 92.848C267.572 93.376 267.956 94.096 268.112 94.564L267.644 94.72H271.292V95.764H269.816C269.432 96.976 268.928 98.008 268.28 98.872C269.312 99.652 270.272 100.432 270.92 101.044ZM263.3 95.26L262.352 95.932C262.04 95.392 261.308 94.588 260.696 94.024L261.572 93.424C262.196 93.952 262.94 94.72 263.3 95.26ZM263.144 97.384V101.584C263.384 101.692 263.648 101.896 264.044 102.112C264.812 102.52 265.88 102.592 267.164 102.592C268.448 102.592 270.332 102.496 271.532 102.34C271.4 102.664 271.208 103.252 271.184 103.588C270.296 103.648 268.328 103.708 267.128 103.708C265.7 103.708 264.68 103.576 263.852 103.144C263.348 102.868 262.952 102.544 262.688 102.544C262.304 102.544 261.74 103.216 261.2 103.876L260.42 102.784C260.972 102.256 261.56 101.812 262.076 101.608V98.416H260.624V97.384H263.144ZM272.552 97.72H283.472V98.932H272.552V97.72ZM287.636 100.216H290.048V98.092H287.636V100.216ZM295.412 100.216V101.296H291.2V103.948H290.048V101.296H284.588V100.216H286.52V97.048H290.048V95.392H287.3C286.784 96.28 286.184 97.072 285.572 97.672C285.356 97.48 284.876 97.12 284.6 96.952C285.704 96.004 286.664 94.48 287.216 92.884L288.344 93.184C288.2 93.556 288.032 93.952 287.876 94.312H294.824V95.392H291.2V97.048H294.548V98.092H291.2V100.216H295.412Z" fill="white"/>
<path d="M246.608 304.424H224.72V310.305H232.1V332.789H239.174V310.305H246.608V304.424Z" fill="white"/>
<path d="M283.85 326.59V304.424H276.776V332.789H295.28V326.59H283.85Z" fill="white"/>
<path d="M251.468 304.424V332.789H270.8V326.59H258.29V310.305H270.8V304.424H251.468Z" fill="white"/>
<path d="M268.136 314.88H260.81V317.688V321.962H268.136V314.88Z" fill="white"/>
<path d="M229.526 340.595H227.726V345.505H226.538V340.595H224.72V339.624H229.526V340.595Z" fill="white"/>
<path d="M235.322 342.574C235.322 344.287 234.242 345.594 232.406 345.594C230.66 345.594 229.544 344.534 229.544 342.609C229.544 340.843 230.642 339.553 232.424 339.553C234.134 339.553 235.322 340.454 235.322 342.574ZM234.062 342.574C234.062 341.09 233.54 340.507 232.424 340.507C231.326 340.507 230.804 341.125 230.804 342.609C230.804 343.916 231.272 344.622 232.406 344.622C233.522 344.622 234.062 343.951 234.062 342.574Z" fill="white"/>
<path d="M237.392 339.624V342.132H237.734L239.462 339.624H240.794L238.778 342.432L240.992 345.505H239.534L237.752 342.998H237.392V345.505H236.186V339.624H237.392Z" fill="white"/>
<path d="M243.674 342.273L244.898 339.624H246.086L244.214 343.209V345.505H243.026V343.227L241.046 339.624H242.342L243.008 340.949L243.674 342.273Z" fill="white"/>
<path d="M251.576 342.574C251.576 344.287 250.496 345.594 248.66 345.594C246.914 345.594 245.798 344.534 245.798 342.609C245.798 340.843 246.896 339.553 248.678 339.553C250.388 339.553 251.576 340.454 251.576 342.574ZM250.316 342.574C250.316 341.09 249.794 340.507 248.678 340.507C247.58 340.507 247.058 341.125 247.058 342.609C247.058 343.916 247.526 344.622 248.66 344.622C249.776 344.622 250.316 343.951 250.316 342.574Z" fill="white"/>
<path d="M258.524 339.624V340.595H255.842V342.026H258.254V342.98H255.842V344.516H258.506V345.505H254.636V339.624H258.524Z" fill="white"/>
<path d="M260.702 339.624V344.516H263.15V345.505H259.496V339.624H260.702Z" fill="white"/>
<path d="M267.65 339.624V340.595H264.968V342.026H267.362V342.98H264.968V344.516H267.632V345.505H263.762V339.624H267.65Z" fill="white"/>
<path d="M278.126 340.595H276.308V345.505H275.12V340.595H273.32V339.624H278.126V340.595Z" fill="white"/>
<path d="M278.738 339.624H280.772C282.374 339.624 282.986 340.366 282.986 341.514C282.986 342.309 282.644 342.909 281.978 343.227L283.364 345.488H281.96L280.808 343.457H279.926V345.505H278.738V339.624ZM281.726 341.549C281.726 340.896 281.456 340.595 280.664 340.595H279.944V342.521H280.7C281.294 342.521 281.726 342.273 281.726 341.549Z" fill="white"/>
<path d="M289.304 342.574C289.304 344.287 288.224 345.594 286.388 345.594C284.642 345.594 283.526 344.534 283.526 342.609C283.526 340.843 284.624 339.553 286.406 339.553C288.116 339.553 289.304 340.454 289.304 342.574ZM288.044 342.574C288.044 341.09 287.522 340.507 286.388 340.507C285.29 340.507 284.768 341.125 284.768 342.609C284.768 343.916 285.236 344.622 286.37 344.622C287.504 344.622 288.044 343.951 288.044 342.574Z" fill="white"/>
<path d="M291.176 345.505H290.06V339.624H291.338L293.066 342.097L294.182 343.739L294.164 342.132V339.624H295.28V345.505H294.074L292.31 342.98L291.176 341.267V343.015V345.505Z" fill="white"/>
<path d="M272.816 344.075C272.438 344.41 271.736 344.64 271.178 344.64C270.08 344.64 269.486 343.951 269.486 342.574C269.486 341.214 270.134 340.525 271.16 340.525C271.628 340.525 272.132 340.613 272.69 340.896V339.818C272.276 339.659 271.682 339.571 271.214 339.571C269.486 339.571 268.226 340.684 268.226 342.609C268.226 344.622 269.27 345.611 271.052 345.611C271.628 345.611 272.366 345.523 272.816 345.188V344.075Z" fill="white"/>
</svg>
