<svg width="296" height="345" viewBox="0 0 296 345" fill="none" xmlns="http://www.w3.org/2000/svg">
<path d="M111.329 99.52V102.616H114.341V103.66H107.177V102.616H110.201V99.52H107.633V98.488H110.201V96.328H111.329V98.488H113.885V99.52H111.329ZM108.353 94.684H114.353V95.752H107.897C107.489 96.604 107.021 97.42 106.469 98.164V103.924H105.353V99.46C104.969 99.832 104.549 100.192 104.105 100.504C103.985 100.204 103.733 99.724 103.553 99.46C104.873 98.56 105.893 97.216 106.637 95.752H103.877V94.684H107.117C107.369 94.096 107.549 93.508 107.705 92.92L108.869 93.208C108.713 93.7 108.545 94.192 108.353 94.684ZM123.221 100.012V101.08H115.817V100.012H123.221ZM118.505 97.48H125.861C125.861 97.48 125.849 97.828 125.813 97.996C125.501 101.368 125.177 102.772 124.625 103.312C124.277 103.66 123.929 103.756 123.377 103.792C122.909 103.828 122.057 103.816 121.205 103.768C121.181 103.444 121.013 102.976 120.785 102.652C121.709 102.736 122.645 102.748 123.029 102.748C123.317 102.748 123.497 102.736 123.665 102.604C124.073 102.268 124.385 101.032 124.625 98.512H117.077C117.449 97.156 117.929 94.864 118.205 93.172L119.345 93.28C119.273 93.664 119.201 94.072 119.117 94.492H125.621V95.56H118.913C118.781 96.232 118.637 96.892 118.505 97.48ZM131.917 98.548C131.917 100.684 132.865 102.016 134.329 102.016C135.793 102.016 136.753 100.684 136.753 98.548C136.753 96.472 135.793 95.212 134.329 95.212C132.865 95.212 131.917 96.472 131.917 98.548ZM138.193 104.02L138.457 105.064C138.169 105.196 137.677 105.292 137.101 105.292C135.385 105.292 134.209 104.368 133.669 103.108C131.761 102.784 130.489 101.104 130.489 98.548C130.489 95.704 132.061 94 134.329 94C136.597 94 138.181 95.704 138.181 98.548C138.181 101.032 136.969 102.688 135.157 103.072C135.553 103.816 136.369 104.152 137.257 104.152C137.641 104.152 137.953 104.092 138.193 104.02ZM139.896 103V96.4H141.024L141.132 97.312H141.168C141.78 96.724 142.452 96.232 143.352 96.232C144.756 96.232 145.38 97.168 145.38 98.848V103H144V99.016C144 97.876 143.664 97.42 142.884 97.42C142.272 97.42 141.852 97.732 141.264 98.32V103H139.896ZM147.384 103V96.4H148.752V103H147.384ZM148.068 95.164C147.564 95.164 147.192 94.828 147.192 94.348C147.192 93.856 147.564 93.532 148.068 93.532C148.572 93.532 148.956 93.856 148.956 94.348C148.956 94.828 148.572 95.164 148.068 95.164ZM153.049 103.156C151.561 103.156 151.045 102.232 151.045 100.84V97.504H150.085V96.472L151.105 96.4L151.261 94.576H152.425V96.4H154.141V97.504H152.425V100.852C152.425 101.644 152.701 102.052 153.385 102.052C153.613 102.052 153.901 101.98 154.093 101.896L154.345 102.916C153.973 103.036 153.529 103.156 153.049 103.156ZM160.915 96.4L158.491 103.396C157.975 104.812 157.279 105.76 155.887 105.76C155.551 105.76 155.287 105.712 155.059 105.628L155.323 104.548C155.443 104.584 155.635 104.644 155.803 104.644C156.523 104.644 156.943 104.116 157.183 103.408L157.315 102.952L154.699 96.4H156.115L157.339 99.796C157.531 100.384 157.735 101.044 157.939 101.656H157.999L158.515 99.796L159.571 96.4H160.915ZM171.458 95.62V94.996H169.67V95.62H171.458ZM171.458 96.928V96.304H169.67V96.928H171.458ZM171.458 98.284V97.612H169.67V98.284H171.458ZM167.738 99.004L166.622 99.424V102.676C166.622 103.228 166.514 103.528 166.214 103.696C165.878 103.888 165.422 103.924 164.702 103.924C164.678 103.636 164.534 103.156 164.402 102.868C164.846 102.88 165.254 102.88 165.386 102.88C165.53 102.868 165.578 102.832 165.578 102.676V99.82L164.522 100.216L164.222 99.148C164.606 99.028 165.074 98.872 165.578 98.692V96.304H164.33V95.272H165.578V92.932H166.622V95.272H167.618V95.8C168.326 95.068 168.914 94.024 169.226 92.92L170.186 93.16C170.078 93.508 169.958 93.856 169.802 94.192H171.53C171.374 93.892 171.17 93.532 170.99 93.256L171.986 92.896C172.274 93.28 172.61 93.808 172.754 94.156L172.658 94.192H174.818V94.996H172.454V95.62H174.434V96.304H172.454V96.928H174.434V97.612H172.454V98.284H174.938V99.1H169.67V99.376H168.71V96.088C168.482 96.388 168.254 96.652 168.002 96.88C167.93 96.748 167.762 96.472 167.618 96.244V96.304H166.622V98.332L167.57 97.996L167.738 99.004ZM172.922 100.684H175.046C175.046 100.684 175.022 100.96 174.998 101.104C174.854 102.592 174.71 103.264 174.398 103.552C174.182 103.78 173.942 103.852 173.582 103.876C173.282 103.9 172.706 103.9 172.106 103.864C172.094 103.576 171.974 103.192 171.806 102.928C172.37 102.976 172.934 102.988 173.162 102.988C173.366 102.988 173.486 102.976 173.582 102.892C173.738 102.76 173.858 102.352 173.954 101.512H171.674C171.77 101.236 171.89 100.912 171.998 100.576H170.654C170.39 102.328 169.574 103.348 168.074 103.996C167.954 103.78 167.582 103.36 167.354 103.18C168.662 102.7 169.358 101.908 169.55 100.576H168.002V99.676H173.258C173.15 100 173.03 100.348 172.922 100.684ZM187.178 99.064V100.156H182.366V102.508C182.366 103.24 182.162 103.552 181.658 103.72C181.166 103.9 180.35 103.924 179.114 103.912C179.042 103.612 178.826 103.108 178.646 102.808C179.606 102.844 180.566 102.844 180.842 102.832C181.106 102.832 181.202 102.748 181.202 102.496V100.156H176.378V99.064H181.202V97.36H177.194V96.292H181.202V94.66C179.918 94.768 178.61 94.852 177.398 94.9C177.386 94.624 177.242 94.168 177.134 93.928C179.966 93.796 183.35 93.484 185.222 92.944L186.05 93.856C185.006 94.156 183.734 94.36 182.366 94.528V96.292H186.494V97.36H182.366V99.064H187.178ZM194.306 100.456V102.556C194.954 102.688 195.662 102.724 196.394 102.724C196.85 102.736 198.722 102.724 199.31 102.712C199.154 102.976 198.974 103.492 198.914 103.792H196.346C193.874 103.792 191.954 103.372 190.73 101.416C190.346 102.424 189.794 103.336 189.002 103.972C188.81 103.756 188.426 103.408 188.174 103.24C189.566 102.16 190.13 100.096 190.31 98.38L191.474 98.524C191.39 99.052 191.282 99.592 191.138 100.132C191.618 101.188 192.302 101.836 193.166 102.22V97.756H188.534V96.724H193.154V95.284H189.578V94.252H193.154V92.944H194.294V94.252H198.098V95.284H194.294V96.724H198.986V97.756H194.306V99.448H198.194V100.456H194.306ZM208.31 100.444V96.088H203.798V95.032H208.31V92.992H209.45V95.032H211.01V96.088H209.45V100.456C209.45 101.152 209.282 101.464 208.814 101.632C208.358 101.812 207.59 101.848 206.474 101.848C206.426 101.524 206.246 101.02 206.09 100.708C206.906 100.744 207.758 100.744 207.998 100.732C208.226 100.72 208.31 100.66 208.31 100.444ZM204.266 97.336L205.154 96.844C205.754 97.552 206.51 98.536 206.846 99.16L205.91 99.736C205.586 99.112 204.854 98.08 204.266 97.336ZM203.33 95.272L202.406 95.92C202.082 95.344 201.314 94.48 200.666 93.856L201.53 93.28C202.19 93.88 202.97 94.708 203.33 95.272ZM203.018 97.36V101.404C203.234 101.548 203.474 101.728 203.834 101.932C204.602 102.4 205.67 102.484 206.99 102.484C208.31 102.484 210.17 102.376 211.334 102.232C211.19 102.544 211.01 103.12 210.986 103.456C210.158 103.504 208.118 103.576 206.954 103.576C205.466 103.576 204.47 103.444 203.606 102.94C203.09 102.64 202.694 102.244 202.43 102.244C202.058 102.244 201.506 102.988 200.978 103.756L200.186 102.664C200.786 102.016 201.398 101.524 201.926 101.308V98.404H200.402V97.36H203.018ZM215.006 94.756H214.478C214.094 95.356 213.674 95.884 213.254 96.292C213.05 96.124 212.594 95.884 212.318 95.752C213.146 95.056 213.866 93.976 214.274 92.872L215.294 93.124C215.186 93.4 215.066 93.652 214.946 93.916H217.886V94.756H216.122C216.314 95.128 216.494 95.512 216.59 95.8L215.606 96.16C215.51 95.788 215.246 95.212 215.006 94.756ZM217.118 99.052H214.742C214.706 99.376 214.658 99.688 214.61 99.988H217.118V99.052ZM218.222 97.192V98.128H221.042V97.192H218.222ZM218.222 99.988H222.614C222.614 99.988 222.602 100.264 222.578 100.42C222.434 102.04 222.29 102.772 221.978 103.084C221.75 103.324 221.51 103.408 221.15 103.432C220.85 103.456 220.262 103.468 219.65 103.432C219.638 103.12 219.506 102.7 219.338 102.412C219.878 102.472 220.43 102.484 220.634 102.472C220.838 102.472 220.958 102.46 221.054 102.376C221.198 102.22 221.306 101.824 221.414 100.936H218.222V103.936H217.118V101.392C216.086 102.484 214.634 103.408 213.278 103.924C213.11 103.672 212.81 103.252 212.558 103.048C213.89 102.64 215.294 101.836 216.254 100.936H213.362C213.53 100.18 213.698 99.04 213.794 98.128H217.118V97.192H213.374V96.268H222.134V99.052H218.222V99.988ZM219.734 93.904H223.154V94.744H221.21C221.498 95.092 221.738 95.476 221.87 95.764L220.91 96.16C220.742 95.776 220.37 95.2 219.998 94.744H219.338C219.026 95.32 218.666 95.836 218.306 96.232C218.078 96.064 217.598 95.788 217.334 95.656C218.042 94.996 218.618 93.94 218.942 92.872L220.022 93.112C219.938 93.388 219.842 93.64 219.734 93.904ZM230.133 102.1C230.901 102.1 231.501 101.404 231.501 100.264C231.501 99.124 230.997 98.488 230.049 98.488C229.533 98.488 228.933 98.764 228.405 99.52C228.549 101.272 229.185 102.1 230.133 102.1ZM232.641 94.948L231.885 95.788C231.561 95.404 231.021 95.128 230.505 95.128C229.377 95.128 228.441 95.98 228.381 98.5C228.897 97.864 229.665 97.48 230.301 97.48C231.789 97.48 232.785 98.392 232.785 100.264C232.785 102.016 231.585 103.156 230.145 103.156C228.465 103.156 227.097 101.752 227.097 98.752C227.097 95.356 228.693 94 230.433 94C231.417 94 232.137 94.42 232.641 94.948ZM239.636 100.216H242.048V98.092H239.636V100.216ZM247.412 100.216V101.296H243.2V103.948H242.048V101.296H236.588V100.216H238.52V97.048H242.048V95.392H239.3C238.784 96.28 238.184 97.072 237.572 97.672C237.356 97.48 236.876 97.12 236.6 96.952C237.704 96.004 238.664 94.48 239.216 92.884L240.344 93.184C240.2 93.556 240.032 93.952 239.876 94.312H246.824V95.392H243.2V97.048H246.548V98.092H243.2V100.216H247.412ZM250.052 101.728H252.284V99.076H250.052V101.728ZM252.284 95.824H250.052V98.104H252.284V95.824ZM255.68 94.792H259.16C259.16 94.792 259.16 95.176 259.148 95.32C258.98 100.732 258.836 102.592 258.356 103.192C258.056 103.588 257.768 103.696 257.312 103.756C256.892 103.804 256.184 103.792 255.5 103.756C255.476 103.456 255.344 102.988 255.14 102.676C255.908 102.736 256.604 102.748 256.904 102.748C257.144 102.748 257.276 102.712 257.408 102.544C257.792 102.148 257.948 100.336 258.104 95.812H255.272C254.936 96.58 254.564 97.276 254.18 97.828C254 97.66 253.58 97.36 253.304 97.204V102.712H250.052V103.624H249.032V94.852H250.376C250.544 94.276 250.724 93.484 250.796 92.908L252.008 93.112C251.804 93.712 251.576 94.348 251.384 94.852H253.304V97.12C254.096 96.088 254.732 94.492 255.092 92.908L256.172 93.16C256.028 93.712 255.872 94.264 255.68 94.792ZM257.216 100.204L256.28 100.792C255.944 100.06 255.164 98.884 254.528 98.02L255.404 97.528C256.04 98.356 256.856 99.496 257.216 100.204ZM270.92 101.044L270.056 101.848C269.468 101.248 268.58 100.492 267.584 99.688C266.684 100.624 265.556 101.344 264.176 101.884C264.056 101.644 263.732 101.14 263.516 100.912C264.824 100.468 265.892 99.844 266.732 99.016C265.784 98.272 264.788 97.552 263.912 96.94L264.668 96.268C265.508 96.856 266.468 97.528 267.416 98.212C267.944 97.528 268.34 96.712 268.652 95.764H263.552V94.72H266.912C266.744 94.264 266.456 93.652 266.18 93.196L267.248 92.848C267.572 93.376 267.956 94.096 268.112 94.564L267.644 94.72H271.292V95.764H269.816C269.432 96.976 268.928 98.008 268.28 98.872C269.312 99.652 270.272 100.432 270.92 101.044ZM263.3 95.26L262.352 95.932C262.04 95.392 261.308 94.588 260.696 94.024L261.572 93.424C262.196 93.952 262.94 94.72 263.3 95.26ZM263.144 97.384V101.584C263.384 101.692 263.648 101.896 264.044 102.112C264.812 102.52 265.88 102.592 267.164 102.592C268.448 102.592 270.332 102.496 271.532 102.34C271.4 102.664 271.208 103.252 271.184 103.588C270.296 103.648 268.328 103.708 267.128 103.708C265.7 103.708 264.68 103.576 263.852 103.144C263.348 102.868 262.952 102.544 262.688 102.544C262.304 102.544 261.74 103.216 261.2 103.876L260.42 102.784C260.972 102.256 261.56 101.812 262.076 101.608V98.416H260.624V97.384H263.144ZM272.552 97.72H283.472V98.932H272.552V97.72ZM287.636 100.216H290.048V98.092H287.636V100.216ZM295.412 100.216V101.296H291.2V103.948H290.048V101.296H284.588V100.216H286.52V97.048H290.048V95.392H287.3C286.784 96.28 286.184 97.072 285.572 97.672C285.356 97.48 284.876 97.12 284.6 96.952C285.704 96.004 286.664 94.48 287.216 92.884L288.344 93.184C288.2 93.556 288.032 93.952 287.876 94.312H294.824V95.392H291.2V97.048H294.548V98.092H291.2V100.216H295.412Z" fill="white"/>
<path d="M292.337 336.82H291.661V336.532H293.369V336.82H292.693V338.691H292.337V336.82ZM293.61 336.532H294.161L294.805 338.172L295.45 336.532H296V338.691H295.644V336.888H295.633L294.926 338.691H294.685L293.977 336.888H293.967V338.691H293.61V336.532Z" fill="white"/>
<path d="M198.569 321.138C199.988 321.138 201.138 322.289 201.138 323.708V333.984C201.138 335.403 199.988 336.554 198.569 336.554C197.15 336.554 196 335.403 196 333.984C196 332.565 197.15 331.415 198.569 331.415H203.708C205.127 331.415 206.277 330.265 206.277 328.846C206.277 327.427 205.127 326.277 203.708 326.277H198.569C197.15 326.277 196 325.127 196 323.708C196 322.289 197.15 321.138 198.569 321.138ZM221.692 333.984C221.692 332.565 220.542 331.415 219.123 331.415H213.984C212.565 331.415 211.415 330.265 211.415 328.846C211.415 327.427 212.565 326.277 213.984 326.277H219.123C220.542 326.277 221.692 325.127 221.692 323.708C221.692 322.289 220.542 321.138 219.123 321.138C217.704 321.138 216.554 322.289 216.554 323.708V333.984C216.554 335.403 217.704 336.554 219.123 336.554C220.542 336.554 221.692 335.403 221.692 333.984ZM213.984 316C212.565 316 211.415 317.15 211.415 318.569V323.708C211.415 325.127 210.265 326.277 208.846 326.277C207.427 326.277 206.277 325.127 206.277 323.708V318.569C206.277 317.15 205.127 316 203.708 316C202.289 316 201.138 317.15 201.138 318.569C201.138 319.988 202.289 321.138 203.708 321.138H213.984C215.403 321.138 216.554 319.988 216.554 318.569C216.554 317.15 215.403 316 213.984 316ZM203.708 341.692C205.127 341.692 206.277 340.542 206.277 339.123V333.984C206.277 332.565 207.427 331.415 208.846 331.415C210.265 331.415 211.415 332.565 211.415 333.984V339.123C211.415 340.542 212.565 341.692 213.984 341.692C215.403 341.692 216.554 340.542 216.554 339.123C216.554 337.704 215.403 336.554 213.984 336.554H203.708C202.289 336.554 201.138 337.704 201.138 339.123C201.138 340.542 202.289 341.692 203.708 341.692Z" fill="white"/>
<path d="M228.115 328.414C228.115 322.83 231.425 317.648 237.96 317.648C244.494 317.648 247.805 322.83 247.805 328.414C247.805 333.653 244.897 338.518 239.169 339.123V342.261H236.722V339.123C230.994 338.489 228.115 333.625 228.115 328.414ZM236.722 336.791V329.307H239.169V336.791C243.314 336.158 245.07 332.214 245.07 328.414C245.07 324.269 242.969 319.951 237.96 319.951C232.951 319.951 230.85 324.269 230.85 328.414C230.85 332.214 232.606 336.129 236.722 336.791ZM257.42 323.463C261.335 323.463 262.544 325.708 262.544 328.904V338.691H260.097V328.616C260.097 326.802 258.945 325.622 257.074 325.622C254.109 325.622 252.67 327.608 252.67 330.285V338.691H250.223V323.808H252.526V326.169H252.583C253.62 324.327 255.289 323.463 257.42 323.463ZM265.307 318.137H268.33V321.131H265.307V318.137ZM268.042 323.808V338.691H265.595V323.808H268.042ZM272.59 336.993V325.967H269.913V323.808H272.59V319.346H275.037V323.808H278.146V325.967H275.037V336.532H278.146V338.691H274.288C273.367 338.691 272.59 337.914 272.59 336.993ZM283.817 342.261L285.227 338.691L279.441 323.808H282.176L286.407 335.64H286.465L290.725 323.808H293.374L286.033 342.836C285.688 343.729 284.709 344.391 283.759 344.391H280.737V342.261H283.817Z" fill="white"/>
</svg>
