<svg width="296" height="346" viewBox="0 0 296 346" fill="none" xmlns="http://www.w3.org/2000/svg">
<path d="M120.493 99.52V102.616H123.505V103.66H116.341V102.616H119.365V99.52H116.797V98.488H119.365V96.328H120.493V98.488H123.049V99.52H120.493ZM117.517 94.684H123.517V95.752H117.061C116.653 96.604 116.185 97.42 115.633 98.164V103.924H114.517V99.46C114.133 99.832 113.713 100.192 113.269 100.504C113.149 100.204 112.897 99.724 112.717 99.46C114.037 98.56 115.057 97.216 115.801 95.752H113.041V94.684H116.281C116.533 94.096 116.713 93.508 116.869 92.92L118.033 93.208C117.877 93.7 117.709 94.192 117.517 94.684ZM132.385 100.012V101.08H124.981V100.012H132.385ZM127.669 97.48H135.025C135.025 97.48 135.013 97.828 134.977 97.996C134.665 101.368 134.341 102.772 133.789 103.312C133.441 103.66 133.093 103.756 132.541 103.792C132.073 103.828 131.221 103.816 130.369 103.768C130.345 103.444 130.177 102.976 129.949 102.652C130.873 102.736 131.809 102.748 132.193 102.748C132.481 102.748 132.661 102.736 132.829 102.604C133.237 102.268 133.549 101.032 133.789 98.512H126.241C126.613 97.156 127.093 94.864 127.369 93.172L128.509 93.28C128.437 93.664 128.365 94.072 128.281 94.492H134.785V95.56H128.077C127.945 96.232 127.801 96.892 127.669 97.48ZM140.133 103V94.168H141.525V98.344H141.561L144.921 94.168H146.469L143.733 97.576L146.925 103H145.377L142.881 98.68L141.525 100.336V103H140.133ZM148.09 103V94.168H149.482V101.824H153.214V103H148.09ZM156.101 99.388H158.513L158.165 98.2C157.865 97.24 157.601 96.256 157.325 95.26H157.277C157.025 96.268 156.749 97.24 156.461 98.2L156.101 99.388ZM159.593 103L158.849 100.48H155.777L155.021 103H153.605L156.533 94.168H158.141L161.069 103H159.593ZM171.458 95.62V94.996H169.67V95.62H171.458ZM171.458 96.928V96.304H169.67V96.928H171.458ZM171.458 98.284V97.612H169.67V98.284H171.458ZM167.738 99.004L166.622 99.424V102.676C166.622 103.228 166.514 103.528 166.214 103.696C165.878 103.888 165.422 103.924 164.702 103.924C164.678 103.636 164.534 103.156 164.402 102.868C164.846 102.88 165.254 102.88 165.386 102.88C165.53 102.868 165.578 102.832 165.578 102.676V99.82L164.522 100.216L164.222 99.148C164.606 99.028 165.074 98.872 165.578 98.692V96.304H164.33V95.272H165.578V92.932H166.622V95.272H167.618V95.8C168.326 95.068 168.914 94.024 169.226 92.92L170.186 93.16C170.078 93.508 169.958 93.856 169.802 94.192H171.53C171.374 93.892 171.17 93.532 170.99 93.256L171.986 92.896C172.274 93.28 172.61 93.808 172.754 94.156L172.658 94.192H174.818V94.996H172.454V95.62H174.434V96.304H172.454V96.928H174.434V97.612H172.454V98.284H174.938V99.1H169.67V99.376H168.71V96.088C168.482 96.388 168.254 96.652 168.002 96.88C167.93 96.748 167.762 96.472 167.618 96.244V96.304H166.622V98.332L167.57 97.996L167.738 99.004ZM172.922 100.684H175.046C175.046 100.684 175.022 100.96 174.998 101.104C174.854 102.592 174.71 103.264 174.398 103.552C174.182 103.78 173.942 103.852 173.582 103.876C173.282 103.9 172.706 103.9 172.106 103.864C172.094 103.576 171.974 103.192 171.806 102.928C172.37 102.976 172.934 102.988 173.162 102.988C173.366 102.988 173.486 102.976 173.582 102.892C173.738 102.76 173.858 102.352 173.954 101.512H171.674C171.77 101.236 171.89 100.912 171.998 100.576H170.654C170.39 102.328 169.574 103.348 168.074 103.996C167.954 103.78 167.582 103.36 167.354 103.18C168.662 102.7 169.358 101.908 169.55 100.576H168.002V99.676H173.258C173.15 100 173.03 100.348 172.922 100.684ZM187.178 99.064V100.156H182.366V102.508C182.366 103.24 182.162 103.552 181.658 103.72C181.166 103.9 180.35 103.924 179.114 103.912C179.042 103.612 178.826 103.108 178.646 102.808C179.606 102.844 180.566 102.844 180.842 102.832C181.106 102.832 181.202 102.748 181.202 102.496V100.156H176.378V99.064H181.202V97.36H177.194V96.292H181.202V94.66C179.918 94.768 178.61 94.852 177.398 94.9C177.386 94.624 177.242 94.168 177.134 93.928C179.966 93.796 183.35 93.484 185.222 92.944L186.05 93.856C185.006 94.156 183.734 94.36 182.366 94.528V96.292H186.494V97.36H182.366V99.064H187.178ZM194.306 100.456V102.556C194.954 102.688 195.662 102.724 196.394 102.724C196.85 102.736 198.722 102.724 199.31 102.712C199.154 102.976 198.974 103.492 198.914 103.792H196.346C193.874 103.792 191.954 103.372 190.73 101.416C190.346 102.424 189.794 103.336 189.002 103.972C188.81 103.756 188.426 103.408 188.174 103.24C189.566 102.16 190.13 100.096 190.31 98.38L191.474 98.524C191.39 99.052 191.282 99.592 191.138 100.132C191.618 101.188 192.302 101.836 193.166 102.22V97.756H188.534V96.724H193.154V95.284H189.578V94.252H193.154V92.944H194.294V94.252H198.098V95.284H194.294V96.724H198.986V97.756H194.306V99.448H198.194V100.456H194.306ZM208.31 100.444V96.088H203.798V95.032H208.31V92.992H209.45V95.032H211.01V96.088H209.45V100.456C209.45 101.152 209.282 101.464 208.814 101.632C208.358 101.812 207.59 101.848 206.474 101.848C206.426 101.524 206.246 101.02 206.09 100.708C206.906 100.744 207.758 100.744 207.998 100.732C208.226 100.72 208.31 100.66 208.31 100.444ZM204.266 97.336L205.154 96.844C205.754 97.552 206.51 98.536 206.846 99.16L205.91 99.736C205.586 99.112 204.854 98.08 204.266 97.336ZM203.33 95.272L202.406 95.92C202.082 95.344 201.314 94.48 200.666 93.856L201.53 93.28C202.19 93.88 202.97 94.708 203.33 95.272ZM203.018 97.36V101.404C203.234 101.548 203.474 101.728 203.834 101.932C204.602 102.4 205.67 102.484 206.99 102.484C208.31 102.484 210.17 102.376 211.334 102.232C211.19 102.544 211.01 103.12 210.986 103.456C210.158 103.504 208.118 103.576 206.954 103.576C205.466 103.576 204.47 103.444 203.606 102.94C203.09 102.64 202.694 102.244 202.43 102.244C202.058 102.244 201.506 102.988 200.978 103.756L200.186 102.664C200.786 102.016 201.398 101.524 201.926 101.308V98.404H200.402V97.36H203.018ZM215.006 94.756H214.478C214.094 95.356 213.674 95.884 213.254 96.292C213.05 96.124 212.594 95.884 212.318 95.752C213.146 95.056 213.866 93.976 214.274 92.872L215.294 93.124C215.186 93.4 215.066 93.652 214.946 93.916H217.886V94.756H216.122C216.314 95.128 216.494 95.512 216.59 95.8L215.606 96.16C215.51 95.788 215.246 95.212 215.006 94.756ZM217.118 99.052H214.742C214.706 99.376 214.658 99.688 214.61 99.988H217.118V99.052ZM218.222 97.192V98.128H221.042V97.192H218.222ZM218.222 99.988H222.614C222.614 99.988 222.602 100.264 222.578 100.42C222.434 102.04 222.29 102.772 221.978 103.084C221.75 103.324 221.51 103.408 221.15 103.432C220.85 103.456 220.262 103.468 219.65 103.432C219.638 103.12 219.506 102.7 219.338 102.412C219.878 102.472 220.43 102.484 220.634 102.472C220.838 102.472 220.958 102.46 221.054 102.376C221.198 102.22 221.306 101.824 221.414 100.936H218.222V103.936H217.118V101.392C216.086 102.484 214.634 103.408 213.278 103.924C213.11 103.672 212.81 103.252 212.558 103.048C213.89 102.64 215.294 101.836 216.254 100.936H213.362C213.53 100.18 213.698 99.04 213.794 98.128H217.118V97.192H213.374V96.268H222.134V99.052H218.222V99.988ZM219.734 93.904H223.154V94.744H221.21C221.498 95.092 221.738 95.476 221.87 95.764L220.91 96.16C220.742 95.776 220.37 95.2 219.998 94.744H219.338C219.026 95.32 218.666 95.836 218.306 96.232C218.078 96.064 217.598 95.788 217.334 95.656C218.042 94.996 218.618 93.94 218.942 92.872L220.022 93.112C219.938 93.388 219.842 93.64 219.734 93.904ZM230.133 102.1C230.901 102.1 231.501 101.404 231.501 100.264C231.501 99.124 230.997 98.488 230.049 98.488C229.533 98.488 228.933 98.764 228.405 99.52C228.549 101.272 229.185 102.1 230.133 102.1ZM232.641 94.948L231.885 95.788C231.561 95.404 231.021 95.128 230.505 95.128C229.377 95.128 228.441 95.98 228.381 98.5C228.897 97.864 229.665 97.48 230.301 97.48C231.789 97.48 232.785 98.392 232.785 100.264C232.785 102.016 231.585 103.156 230.145 103.156C228.465 103.156 227.097 101.752 227.097 98.752C227.097 95.356 228.693 94 230.433 94C231.417 94 232.137 94.42 232.641 94.948ZM239.636 100.216H242.048V98.092H239.636V100.216ZM247.412 100.216V101.296H243.2V103.948H242.048V101.296H236.588V100.216H238.52V97.048H242.048V95.392H239.3C238.784 96.28 238.184 97.072 237.572 97.672C237.356 97.48 236.876 97.12 236.6 96.952C237.704 96.004 238.664 94.48 239.216 92.884L240.344 93.184C240.2 93.556 240.032 93.952 239.876 94.312H246.824V95.392H243.2V97.048H246.548V98.092H243.2V100.216H247.412ZM250.052 101.728H252.284V99.076H250.052V101.728ZM252.284 95.824H250.052V98.104H252.284V95.824ZM255.68 94.792H259.16C259.16 94.792 259.16 95.176 259.148 95.32C258.98 100.732 258.836 102.592 258.356 103.192C258.056 103.588 257.768 103.696 257.312 103.756C256.892 103.804 256.184 103.792 255.5 103.756C255.476 103.456 255.344 102.988 255.14 102.676C255.908 102.736 256.604 102.748 256.904 102.748C257.144 102.748 257.276 102.712 257.408 102.544C257.792 102.148 257.948 100.336 258.104 95.812H255.272C254.936 96.58 254.564 97.276 254.18 97.828C254 97.66 253.58 97.36 253.304 97.204V102.712H250.052V103.624H249.032V94.852H250.376C250.544 94.276 250.724 93.484 250.796 92.908L252.008 93.112C251.804 93.712 251.576 94.348 251.384 94.852H253.304V97.12C254.096 96.088 254.732 94.492 255.092 92.908L256.172 93.16C256.028 93.712 255.872 94.264 255.68 94.792ZM257.216 100.204L256.28 100.792C255.944 100.06 255.164 98.884 254.528 98.02L255.404 97.528C256.04 98.356 256.856 99.496 257.216 100.204ZM270.92 101.044L270.056 101.848C269.468 101.248 268.58 100.492 267.584 99.688C266.684 100.624 265.556 101.344 264.176 101.884C264.056 101.644 263.732 101.14 263.516 100.912C264.824 100.468 265.892 99.844 266.732 99.016C265.784 98.272 264.788 97.552 263.912 96.94L264.668 96.268C265.508 96.856 266.468 97.528 267.416 98.212C267.944 97.528 268.34 96.712 268.652 95.764H263.552V94.72H266.912C266.744 94.264 266.456 93.652 266.18 93.196L267.248 92.848C267.572 93.376 267.956 94.096 268.112 94.564L267.644 94.72H271.292V95.764H269.816C269.432 96.976 268.928 98.008 268.28 98.872C269.312 99.652 270.272 100.432 270.92 101.044ZM263.3 95.26L262.352 95.932C262.04 95.392 261.308 94.588 260.696 94.024L261.572 93.424C262.196 93.952 262.94 94.72 263.3 95.26ZM263.144 97.384V101.584C263.384 101.692 263.648 101.896 264.044 102.112C264.812 102.52 265.88 102.592 267.164 102.592C268.448 102.592 270.332 102.496 271.532 102.34C271.4 102.664 271.208 103.252 271.184 103.588C270.296 103.648 268.328 103.708 267.128 103.708C265.7 103.708 264.68 103.576 263.852 103.144C263.348 102.868 262.952 102.544 262.688 102.544C262.304 102.544 261.74 103.216 261.2 103.876L260.42 102.784C260.972 102.256 261.56 101.812 262.076 101.608V98.416H260.624V97.384H263.144ZM272.552 97.72H283.472V98.932H272.552V97.72ZM287.636 100.216H290.048V98.092H287.636V100.216ZM295.412 100.216V101.296H291.2V103.948H290.048V101.296H284.588V100.216H286.52V97.048H290.048V95.392H287.3C286.784 96.28 286.184 97.072 285.572 97.672C285.356 97.48 284.876 97.12 284.6 96.952C285.704 96.004 286.664 94.48 287.216 92.884L288.344 93.184C288.2 93.556 288.032 93.952 287.876 94.312H294.824V95.392H291.2V97.048H294.548V98.092H291.2V100.216H295.412Z" fill="white"/>
<path d="M199.11 343.011H219.794V345.61H199.11C199.105 345.61 199.096 345.61 199.091 345.61C197.221 345.606 195.714 344.085 195.719 342.214V315.02H198.326V342.214C198.326 342.219 198.326 342.224 198.326 342.228C198.331 342.661 198.681 343.011 199.11 343.011ZM186.964 315.02H183.656L161.88 342.809C161.7 343.062 161.368 343.159 161.083 343.039C160.793 342.947 160.599 342.67 160.608 342.366V315.02H158V342.366C157.982 343.79 158.89 345.057 160.24 345.5C160.594 345.619 160.968 345.684 161.345 345.684C162.359 345.684 163.318 345.218 163.935 344.412L174.33 331.137L185.6 345.606H188.973L175.989 329.032L186.964 315.02ZM254.784 345.61H257.668L244.279 316.964C243.5 315.269 241.491 314.531 239.8 315.31C239.072 315.647 238.482 316.232 238.146 316.964L224.761 345.615H227.654L240.523 318.084C240.648 317.817 240.92 317.646 241.215 317.655C241.509 317.642 241.786 317.812 241.906 318.084L254.784 345.61Z" fill="white"/>
<path d="M265.332 315.02H296V345.61H265.332V315.02Z" fill="#00A7E1"/>
<path d="M293.701 328.88H282.108V317.315H279.223V328.88H267.63V331.755H279.223V343.32H282.108V331.755H293.701V328.88Z" fill="white"/>
</svg>
