<svg preserveAspectRatio="none" width="100%" height="100%" overflow="visible" style="display: block;" viewBox="0 0 50.5842 43.0394" fill="none" xmlns="http://www.w3.org/2000/svg">
<path id="path30038" d="M21.1233 14.9504C18.6488 14.3293 16.474 13.8586 14.5453 13.5598V19.1974H20.3827V23.1714H14.5453V31.4655H9.84456V23.1714H5.64045C7.42142 27.6656 8.68223 31.2183 9.39932 33.8018H20.9007V37.75H10.5381L11.6748 42.3946L6.80279 43.0394C6.52879 41.3264 6.15847 39.5619 5.64045 37.75H0.567257V33.8018H4.64936C3.95795 30.7713 2.79561 27.3432 1.21157 23.5196V19.1974H9.84456V12.5669C6.55448 11.9199 3.29008 11.4492 0 11.1505L1.08742 7.25168C1.80452 7.30112 4.72428 7.72238 9.84456 8.51761V0H14.5453V9.48694C16.9684 9.9082 19.4665 10.4305 22.0395 11.0516L21.1233 14.9504ZM41.7051 21.9034H28.594V24.7834H41.7051V21.9034ZM41.7051 15.2986H28.594V18.3291H41.7051V15.2986ZM41.7051 8.88944C36.238 8.61648 31.8605 8.46818 28.594 8.41874V11.9199H41.7051V8.88944ZM50.2375 9.13875C48.6299 9.0141 47.4183 8.99045 46.6263 9.03989V24.7855H50.0148V28.4866H20.7787V24.7855H23.6728V8.16943C21.742 8.02113 20.2328 7.99534 19.1454 8.02113L19.5157 4.32006L41.7051 5.0895V0H46.6263V5.33882C48.4308 5.41405 49.743 5.43769 50.5842 5.43769L50.2375 9.13875ZM22.7309 41.7971V30.7219H27.605V38.1476H42.6683V34.3219H29.4845V30.7219H47.7137V41.7971H22.7309Z" fill="var(--fill-0, white)"/>
</svg>
