<svg preserveAspectRatio="none" width="100%" height="100%" overflow="visible" style="display: block;" viewBox="0 0 47.4439 41.8466" fill="none" xmlns="http://www.w3.org/2000/svg">
<path id="path30028" d="M42.4713 19.1223H28.3714V26.4492H42.4713V19.1223ZM23.4994 19.1223H10.1422V26.4492H23.4994V19.1223ZM12.0215 41.8466V37.5996H42.4713V30.4983H28.3714V35.7126H23.4994V30.4983H10.1422V41.8466H5.04758V20.1905C5.04758 17.1363 4.60011 13.9317 3.73532 10.5788C2.84483 7.22589 1.60758 4.54357 0 2.5082L4.52732 0C7.29724 3.72471 9.00539 8.71541 9.62402 15.0257H23.4994V1.3412H28.3714V15.0257H42.4713V6.20713C42.4713 5.83531 42.2979 5.46346 41.9254 5.13892C41.5808 4.81653 41.1849 4.64253 40.7396 4.64253L34.3328 4.61878L35.8677 0.322445C37.2526 0.221429 38.5883 0.197822 39.8726 0.197822C42.6939 0.197822 44.6482 0.69419 45.7613 1.66352C46.898 2.65649 47.4439 3.82356 47.4439 5.13892V41.8466H12.0215Z" fill="var(--fill-0, white)"/>
</svg>
