<svg preserveAspectRatio="none" width="100%" height="100%" overflow="visible" style="display: block;" viewBox="0 0 108.824 18.5972" fill="none" xmlns="http://www.w3.org/2000/svg">
<g id="&#194;&#160;&#194;&#160;&#194;&#160;&#194;&#160;&#194;&#160;&#194;&#160;&#194;&#160;&#194;&#160;&#194;&#160;simple&#194;&#160;logic">
<path id="Vector" d="M104.242 14.7209C103.191 14.7209 102.287 14.4973 101.53 14.0502C100.778 13.5986 100.199 12.9727 99.7936 12.1724C99.3929 11.3721 99.1925 10.451 99.1925 9.40928C99.1925 8.35411 99.3951 7.42861 99.8003 6.63277C100.21 5.83245 100.791 5.20874 101.544 4.76164C102.296 4.31007 103.191 4.08428 104.229 4.08428C105.124 4.08428 105.908 4.24747 106.58 4.57386C107.252 4.90024 107.784 5.35852 108.176 5.9487C108.568 6.53888 108.784 7.23189 108.824 8.02773H106.139C106.063 7.51356 105.863 7.09999 105.538 6.78702C105.217 6.46957 104.797 6.31085 104.276 6.31085C103.835 6.31085 103.449 6.43157 103.12 6.67301C102.795 6.90997 102.541 7.25648 102.359 7.71252C102.176 8.16857 102.085 8.72074 102.085 9.36904C102.085 10.0263 102.174 10.5852 102.352 11.0457C102.534 11.5062 102.79 11.8572 103.12 12.0986C103.449 12.34 103.835 12.4608 104.276 12.4608C104.601 12.4608 104.892 12.3937 105.151 12.2596C105.413 12.1254 105.629 11.9309 105.798 11.6761C105.972 11.4168 106.086 11.106 106.139 10.7439H108.824C108.78 11.5308 108.566 12.2238 108.183 12.8229C107.804 13.4176 107.281 13.8825 106.613 14.2179C105.945 14.5532 105.155 14.7209 104.242 14.7209Z" fill="var(--fill-0, white)"/>
<path id="Vector_2" d="M94.482 14.5197V4.21841H97.3274V14.5197H94.482ZM95.9113 2.89052C95.4883 2.89052 95.1254 2.74968 94.8226 2.46801C94.5243 2.18186 94.3751 1.83983 94.3751 1.44191C94.3751 1.04846 94.5243 0.710894 94.8226 0.42922C95.1254 0.143073 95.4883 0 95.9113 0C96.3344 0 96.6951 0.143073 96.9934 0.42922C97.2962 0.710894 97.4476 1.04846 97.4476 1.44191C97.4476 1.83983 97.2962 2.18186 96.9934 2.46801C96.6951 2.74968 96.3344 2.89052 95.9113 2.89052Z" fill="var(--fill-0, white)"/>
<path id="Vector_3" d="M87.2014 18.5972C86.2797 18.5972 85.4893 18.4698 84.8302 18.215C84.1757 17.9646 83.6547 17.6226 83.2672 17.1889C82.8798 16.7552 82.6283 16.2678 82.5125 15.7268L85.1442 15.3714C85.2243 15.5771 85.3512 15.7693 85.5249 15.9482C85.6986 16.127 85.9279 16.2701 86.2129 16.3774C86.5023 16.4891 86.8541 16.545 87.2682 16.545C87.8872 16.545 88.397 16.393 88.7978 16.089C89.203 15.7894 89.4056 15.2864 89.4056 14.58V12.6955H89.2854C89.1607 12.9816 88.9737 13.2521 88.7243 13.507C88.475 13.7618 88.1544 13.9697 87.7625 14.1307C87.3706 14.2916 86.9031 14.3721 86.3598 14.3721C85.5895 14.3721 84.8881 14.1933 84.2558 13.8356C83.6279 13.4734 83.127 12.9213 82.7529 12.1791C82.3834 11.4324 82.1985 10.489 82.1985 9.34892C82.1985 8.18198 82.3878 7.20729 82.7663 6.42486C83.1448 5.64243 83.648 5.05673 84.2758 4.66775C84.9082 4.27877 85.6006 4.08428 86.3531 4.08428C86.9276 4.08428 87.4085 4.18264 87.7959 4.37937C88.1833 4.57162 88.495 4.81306 88.731 5.10368C88.9715 5.38982 89.1563 5.6715 89.2854 5.9487H89.3923V4.21841H92.2177V14.6203C92.2177 15.4966 92.0039 16.2298 91.5764 16.82C91.149 17.4102 90.5567 17.8528 89.7997 18.1479C89.0472 18.4475 88.1811 18.5972 87.2014 18.5972ZM87.2615 12.226C87.7202 12.226 88.1076 12.112 88.4238 11.884C88.7444 11.6515 88.9893 11.3206 89.1585 10.8914C89.3322 10.4577 89.419 9.93909 89.419 9.3355C89.419 8.73191 89.3344 8.2088 89.1652 7.76617C88.996 7.31907 88.751 6.97256 88.4304 6.72666C88.1098 6.48075 87.7202 6.3578 87.2615 6.3578C86.794 6.3578 86.3999 6.48522 86.0793 6.74007C85.7587 6.99045 85.516 7.33919 85.3512 7.78629C85.1865 8.23339 85.1041 8.7498 85.1041 9.3355C85.1041 9.93015 85.1865 10.4443 85.3512 10.878C85.5204 11.3072 85.7631 11.6403 86.0793 11.8773C86.3999 12.1098 86.794 12.226 87.2615 12.226Z" fill="var(--fill-0, white)"/>
<path id="Vector_4" d="M75.6795 14.7209C74.642 14.7209 73.7447 14.4995 72.9877 14.0569C72.2351 13.6098 71.654 12.9883 71.2444 12.1925C70.8347 11.3922 70.6299 10.4644 70.6299 9.40928C70.6299 8.34517 70.8347 7.4152 71.2444 6.61935C71.654 5.81904 72.2351 5.19757 72.9877 4.75493C73.7447 4.30783 74.642 4.08428 75.6795 4.08428C76.717 4.08428 77.6121 4.30783 78.3646 4.75493C79.1216 5.19757 79.705 5.81904 80.1146 6.61935C80.5243 7.4152 80.7291 8.34517 80.7291 9.40928C80.7291 10.4644 80.5243 11.3922 80.1146 12.1925C79.705 12.9883 79.1216 13.6098 78.3646 14.0569C77.6121 14.4995 76.717 14.7209 75.6795 14.7209ZM75.6929 12.5077C76.1649 12.5077 76.559 12.3736 76.8751 12.1053C77.1913 11.8326 77.4295 11.4615 77.5898 10.992C77.7546 10.5226 77.8369 9.98827 77.8369 9.38916C77.8369 8.79004 77.7546 8.25575 77.5898 7.78629C77.4295 7.31683 77.1913 6.94574 76.8751 6.67301C76.559 6.40027 76.1649 6.26391 75.6929 6.26391C75.2164 6.26391 74.8156 6.40027 74.4906 6.67301C74.1699 6.94574 73.9273 7.31683 73.7625 7.78629C73.6022 8.25575 73.522 8.79004 73.522 9.38916C73.522 9.98827 73.6022 10.5226 73.7625 10.992C73.9273 11.4615 74.1699 11.8326 74.4906 12.1053C74.8156 12.3736 75.2164 12.5077 75.6929 12.5077Z" fill="var(--fill-0, white)"/>
<path id="Vector_5" d="M68.7645 0.784657V14.5197H65.9191V0.784657H68.7645Z" fill="var(--fill-0, white)"/>
<path id="Vector_6" d="M54.9999 14.7209C53.9445 14.7209 53.0361 14.5062 52.2747 14.077C51.5177 13.6433 50.9343 13.0308 50.5247 12.2394C50.115 11.4436 49.9102 10.5024 49.9102 9.41598C49.9102 8.35635 50.115 7.42637 50.5247 6.62606C50.9343 5.82575 51.511 5.20204 52.2546 4.75493C53.0027 4.30783 53.8799 4.08428 54.8863 4.08428C55.5632 4.08428 56.1933 4.19382 56.7766 4.4129C57.3644 4.62751 57.8765 4.95166 58.3128 5.38535C58.7537 5.81904 59.0966 6.36451 59.3415 7.02175C59.5864 7.67452 59.7089 8.43906 59.7089 9.31538V10.1H51.0457V8.32952H57.0304C57.0304 7.91819 56.9413 7.5538 56.7632 7.23636C56.5851 6.91891 56.338 6.67077 56.0218 6.49193C55.7101 6.30862 55.3472 6.21696 54.9331 6.21696C54.5011 6.21696 54.1182 6.31756 53.7842 6.51876C53.4547 6.71548 53.1964 6.98151 53.0094 7.31683C52.8224 7.64769 52.7266 8.01655 52.7222 8.42341V10.1068C52.7222 10.6165 52.8157 11.0568 53.0027 11.4279C53.1942 11.799 53.4636 12.0852 53.8109 12.2864C54.1583 12.4876 54.5702 12.5882 55.0466 12.5882C55.3628 12.5882 55.6522 12.5435 55.9149 12.454C56.1777 12.3646 56.4025 12.2305 56.5896 12.0517C56.7766 11.8728 56.9191 11.6537 57.017 11.3944L59.6487 11.5688C59.5151 12.2037 59.2413 12.7581 58.8272 13.232C58.4175 13.7015 57.8876 14.0681 57.2375 14.3319C56.5918 14.5912 55.8459 14.7209 54.9999 14.7209Z" fill="var(--fill-0, white)"/>
<path id="Vector_7" d="M48.045 0.784657V14.5197H45.1996V0.784657H48.045Z" fill="var(--fill-0, white)"/>
<path id="Vector_8" d="M33.2967 18.3826V4.21841H36.1021V5.9487H36.229C36.3537 5.6715 36.534 5.38982 36.77 5.10368C37.0105 4.81306 37.3222 4.57162 37.7052 4.37937C38.0926 4.18264 38.5735 4.08428 39.1479 4.08428C39.896 4.08428 40.5862 4.28101 41.2185 4.67446C41.8508 5.06344 42.3562 5.65138 42.7347 6.43828C43.1132 7.22071 43.3025 8.2021 43.3025 9.38245C43.3025 10.5315 43.1177 11.5017 42.7481 12.2931C42.383 13.08 41.8842 13.6769 41.2519 14.0837C40.6241 14.4861 39.9205 14.6873 39.1412 14.6873C38.5891 14.6873 38.1193 14.5957 37.7319 14.4124C37.3489 14.229 37.035 13.9988 36.7901 13.7216C36.5452 13.4399 36.3581 13.156 36.229 12.8698H36.1422V18.3826H33.2967ZM36.0821 9.36904C36.0821 9.98157 36.1667 10.5159 36.3359 10.9719C36.5051 11.4279 36.75 11.7834 37.0706 12.0382C37.3912 12.2886 37.7809 12.4138 38.2395 12.4138C38.7026 12.4138 39.0945 12.2864 39.4151 12.0315C39.7357 11.7722 39.9784 11.4145 40.1431 10.9585C40.3123 10.498 40.397 9.96815 40.397 9.36904C40.397 8.77439 40.3146 8.25128 40.1498 7.7997C39.9851 7.34813 39.7424 6.99492 39.4218 6.74007C39.1011 6.48522 38.7071 6.3578 38.2395 6.3578C37.7764 6.3578 37.3845 6.48075 37.0639 6.72666C36.7478 6.97256 36.5051 7.3213 36.3359 7.77288C36.1667 8.22445 36.0821 8.7565 36.0821 9.36904Z" fill="var(--fill-0, white)"/>
<path id="Vector_9" d="M16.1407 14.5197V4.21841H18.8526V6.03588H18.9728C19.1866 5.4323 19.5428 4.95613 20.0415 4.60739C20.5402 4.25865 21.1369 4.08428 21.8316 4.08428C22.5352 4.08428 23.1341 4.26089 23.6284 4.6141C24.1226 4.96284 24.4522 5.43677 24.6169 6.03588H24.7238C24.9331 5.44571 25.3116 4.97402 25.8593 4.6208C26.4114 4.26312 27.0638 4.08428 27.8163 4.08428C28.7737 4.08428 29.5508 4.39055 30.1475 5.00308C30.7486 5.61114 31.0492 6.47405 31.0492 7.5918V14.5197H28.2104V8.15515C28.2104 7.58286 28.059 7.15364 27.7562 6.8675C27.4534 6.58135 27.0749 6.43828 26.6207 6.43828C26.1042 6.43828 25.7012 6.60371 25.4118 6.93456C25.1223 7.26095 24.9776 7.6924 24.9776 8.22892V14.5197H22.219V8.09479C22.219 7.58957 22.0743 7.18717 21.7848 6.88761C21.4999 6.58806 21.1236 6.43828 20.656 6.43828C20.3399 6.43828 20.0549 6.51876 19.8011 6.67971C19.5517 6.8362 19.3535 7.05751 19.2066 7.34366C19.0596 7.62533 18.9862 7.95619 18.9862 8.33623V14.5197H16.1407Z" fill="var(--fill-0, white)"/>
<path id="Vector_10" d="M11.016 14.5197V4.21841H13.8615V14.5197H11.016ZM12.4454 2.89052C12.0224 2.89052 11.6595 2.74968 11.3567 2.46801C11.0583 2.18186 10.9092 1.83983 10.9092 1.44191C10.9092 1.04846 11.0583 0.710894 11.3567 0.42922C11.6595 0.143073 12.0224 0 12.4454 0C12.8685 0 13.2291 0.143073 13.5275 0.42922C13.8303 0.710894 13.9817 1.04846 13.9817 1.44191C13.9817 1.83983 13.8303 2.18186 13.5275 2.46801C13.2291 2.74968 12.8685 2.89052 12.4454 2.89052Z" fill="var(--fill-0, white)"/>
<path id="Vector_11" d="M8.99049 7.15588L6.38552 7.31683C6.34099 7.09328 6.24525 6.89209 6.0983 6.71325C5.95135 6.52993 5.75765 6.38462 5.51719 6.27732C5.28119 6.16554 4.99842 6.10966 4.66891 6.10966C4.22807 6.10966 3.85625 6.20355 3.55345 6.39133C3.25065 6.57464 3.09925 6.82055 3.09925 7.12905C3.09925 7.37496 3.19721 7.58286 3.39314 7.75276C3.58907 7.92266 3.92527 8.05902 4.40173 8.16186L6.25861 8.53742C7.25606 8.74309 7.99971 9.07395 8.48953 9.52999C8.97935 9.98604 9.22426 10.5852 9.22426 11.3273C9.22426 12.0025 9.02611 12.5949 8.62979 13.1046C8.23794 13.6143 7.69913 14.0122 7.01338 14.2983C6.33208 14.58 5.54614 14.7209 4.65555 14.7209C3.2974 14.7209 2.21534 14.4369 1.40936 13.8691C0.607828 13.2968 0.138041 12.5189 0 11.5352L2.79867 11.3877C2.88328 11.8035 3.08811 12.121 3.41318 12.34C3.73824 12.5546 4.15459 12.6619 4.66223 12.6619C5.16096 12.6619 5.56172 12.5658 5.86452 12.3736C6.17177 12.1768 6.32763 11.9242 6.33208 11.6157C6.32763 11.3564 6.21853 11.144 6.00479 10.9786C5.79105 10.8087 5.46153 10.679 5.01624 10.5896L3.23951 10.2342C2.2376 10.033 1.49173 9.68424 1.00191 9.18796C0.516541 8.69168 0.273856 8.05903 0.273856 7.29001C0.273856 6.6283 0.451973 6.05824 0.808208 5.57984C1.1689 5.10144 1.67431 4.73258 2.32443 4.47326C2.97902 4.21394 3.74492 4.08428 4.62215 4.08428C5.91796 4.08428 6.93768 4.35925 7.68132 4.90919C8.42942 5.45912 8.8658 6.20802 8.99049 7.15588Z" fill="var(--fill-0, white)"/>
</g>
</svg>
