<svg preserveAspectRatio="none" width="100%" height="100%" overflow="visible" style="display: block;" viewBox="0 0 51.3998 43.5123" fill="none" xmlns="http://www.w3.org/2000/svg">
<path id="path30040" d="M8.48529 43.5123C6.60371 35.6631 3.78456 29.2066 0 24.115L2.57299 19.595C3.71178 21.1103 4.62581 22.3762 5.31936 23.4208V0.371827H10.1913V32.7078L13.4065 42.1475L8.48529 43.5123ZM25.032 9.11512H18.5503V17.9078H25.032V9.11512ZM13.8025 4.99279H29.7563V21.8324H13.8025V4.99279ZM24.118 34.4229V43.1899H19.2439V34.4229H12.4176V30.3737H19.2439V23.7174H24.118V30.3737H30.9936V34.4229H24.118ZM43.2634 11.5481C45.86 16.1669 47.4932 22.675 48.1354 31.0701H50.6356V35.317H39.1813C40.0483 37.8489 40.7654 40.3335 41.3091 42.717L36.5356 43.5123C34.4314 34.7195 31.7107 28.3877 28.397 24.4868L32.477 21.8797C34.5555 24.4137 36.2637 27.4679 37.623 31.0701H43.09C42.9659 25.9526 42.1503 21.2586 40.5663 16.9879C39.7764 18.9739 39.1085 21.2844 38.6119 23.8678L34.0846 22.0044C34.9023 18.3291 36.1139 14.8516 37.7471 11.5975C35.8185 8.74114 32.7018 5.8611 28.397 3.0047L31.959 0.0494351C35.1249 2.08696 37.9462 4.56938 40.3694 7.501C42.2488 5.01643 44.7233 2.53401 47.7415 0L51.3998 3.03049C48.1846 5.53871 45.4896 8.36931 43.2634 11.5481Z" fill="var(--fill-0, white)"/>
</svg>
