<svg preserveAspectRatio="none" width="100%" height="100%" overflow="visible" style="display: block;" viewBox="0 0 48.0368 43.091" fill="none" xmlns="http://www.w3.org/2000/svg">
<path id="path30034" d="M15.41 22.2537H5.04522V31.3194H15.41V22.2537ZM15.41 7.89859H5.04522V18.155H15.41V7.89859ZM11.0818 35.5663C12.5909 38.4721 13.4792 40.731 13.751 42.272L8.4594 42.9921C7.66738 40.3098 6.55441 37.8252 5.12022 35.5663H0V0H5.04522V3.70103H15.41V0.472779H20.3311V35.5663H11.0818ZM32.2309 32.8583C32.5755 33.703 32.8986 34.5218 33.1705 35.317C34.1338 38.2229 34.8017 40.5076 35.1977 42.1733L30.1522 43.091C28.4697 36.1123 25.5756 29.7783 21.4699 24.1171L25.4022 21.136C27.6541 23.8678 29.6814 27.197 31.4624 31.07C31.7342 31.6417 31.9825 32.263 32.2309 32.8583ZM35.1742 35.317L33.4422 31.07H42.9636C42.9893 27.4205 42.7924 22.3032 42.3707 15.7479C41.9747 9.19039 41.3561 5.66332 40.5405 5.1174C39.6993 4.59513 38.9328 4.34802 38.2157 4.34802L30.5483 4.29857L32.4511 0C37.8946 0.0257914 41.3068 0.348211 42.7174 0.995146C44.1281 1.61414 45.192 2.60921 45.8834 3.92457C46.5512 5.26572 47.095 9.66098 47.4418 17.1125C47.7886 24.5641 47.9875 30.6488 48.0368 35.317H35.1742ZM31.8091 23.9431L27.333 21.5595C30.1522 18.7267 32.7723 15.2255 35.2468 11.0279L39.725 13.4868C38.2394 16.3926 35.5937 19.8702 31.8091 23.9431Z" fill="var(--fill-0, white)"/>
</svg>
