<svg preserveAspectRatio="none" width="100%" height="100%" overflow="visible" style="display: block;" viewBox="0 0 24 25" fill="none" xmlns="http://www.w3.org/2000/svg">
<path id="Vector" d="M6 0C5.33556 0 4.8 0.53131 4.8 1.19048V4.7619C4.8 5.42107 5.33556 5.95238 6 5.95238C6.66444 5.95238 7.2 5.42107 7.2 4.7619V1.19048C7.2 0.53131 6.66444 0 6 0ZM18 0C17.3356 0 16.8 0.53131 16.8 1.19048V4.7619C16.8 5.42107 17.3356 5.95238 18 5.95238C18.6644 5.95238 19.2 5.42107 19.2 4.7619V1.19048C19.2 0.53131 18.6644 0 18 0ZM1.8 2.97619C0.80274 2.97619 0 3.77256 0 4.7619V8.92857H24V4.7619C24 3.77256 23.1973 2.97619 22.2 2.97619H20.4V4.7619C20.4 6.06051 19.309 7.14286 18 7.14286C16.691 7.14286 15.6 6.06051 15.6 4.7619V2.97619H8.4V4.7619C8.4 6.06051 7.30899 7.14286 6 7.14286C4.69101 7.14286 3.6 6.06051 3.6 4.7619V2.97619H1.8ZM0 10.119V23.2143C0 24.2036 0.80274 25 1.8 25H22.2C23.1973 25 24 24.2036 24 23.2143V10.119H0Z" fill="var(--fill-0, #FF7600)"/>
</svg>
