<svg preserveAspectRatio="none" width="100%" height="100%" overflow="visible" style="display: block;" viewBox="0 0 25 25" fill="none" xmlns="http://www.w3.org/2000/svg">
<path id="Vector" d="M23.3295 7.29013L15.1023 0.894581C13.5682 -0.298194 11.4318 -0.298194 9.89773 0.894581L1.67045 7.29013C0.613636 8.10803 0 9.36897 0 10.7094V20.6833C0 23.0688 1.90909 25 4.27273 25H20.7273C23.0909 25 25 23.0688 25 20.6833V10.7094C25 9.36897 24.3864 8.10803 23.3295 7.29013ZM16.6591 20.831H8.32955C7.75 20.831 7.28409 20.3652 7.28409 19.7859C7.28409 19.2065 7.75 18.7408 8.32955 18.7408H16.6591C17.2386 18.7408 17.7045 19.2065 17.7045 19.7859C17.7045 20.3652 17.2386 20.831 16.6591 20.831Z" fill="var(--fill-0, #5B5652)"/>
</svg>
