<svg preserveAspectRatio="none" width="100%" height="100%" overflow="visible" style="display: block;" viewBox="0 0 123 30.035" fill="none" xmlns="http://www.w3.org/2000/svg">
<g id="logo">
<path id="path3" fill-rule="evenodd" clip-rule="evenodd" d="M73.3982 17.5752H78.198C80.1609 17.5752 80.5426 15.3466 78.7649 15.3466H77.0763C74.1777 15.3466 72.9128 12.5561 75.8159 10.461C76.4766 9.98441 77.3771 9.74764 78.5178 9.74764H83.6866L83.3447 11.3099H79.1314C76.8793 11.3099 76.3129 13.2603 78.069 13.2603H80.3331C81.3693 13.2603 82.0954 13.5206 82.5124 14.0349C83.7965 15.6202 82.0358 19.1418 79.4905 19.1418H74.2173L73.3982 17.5752ZM89.0967 17.5818H90.3838L90.0035 19.1711H87.7032C86.764 19.1711 86.013 19.0817 85.4523 18.9059C84.8895 18.7266 84.4309 18.4405 84.0806 18.0442C83.7021 17.6148 83.4551 17.087 83.3319 16.4673C83.2087 15.847 83.2278 15.1914 83.3938 14.4994C83.5677 13.7724 83.8645 13.0927 84.2844 12.4603C84.7041 11.8286 85.2077 11.2979 85.7967 10.8747C86.3431 10.4783 86.9455 10.1917 87.6004 10.0129C88.2514 9.8372 89.0389 9.74764 89.9585 9.74764H92.2587L91.8743 11.3547H90.5872C89.3036 11.3547 88.3604 11.5897 87.7633 12.0599C87.1636 12.5267 86.7262 13.3431 86.4482 14.5048C86.2885 15.1717 86.2542 15.7253 86.3488 16.1643C86.44 16.6034 86.6634 16.9562 87.0144 17.226C87.1898 17.3572 87.4038 17.4471 87.6623 17.5022C87.9216 17.5542 88.3995 17.5818 89.0967 17.5818ZM94.821 19.1346C93.1086 19.1346 91.9073 18.7403 91.2168 17.9485C90.5262 17.16 90.3688 15.9917 90.7389 14.4532C91.1099 12.9111 91.8321 11.7458 92.9039 10.9512C93.9784 10.1598 95.3706 9.76239 97.0758 9.76239H100.114L99.7236 11.3846H97.2664C95.4951 11.5554 94.5928 12.3994 94.1782 13.6211H99.1852L98.7821 15.2967H93.7751C93.7079 16.8108 94.4611 17.4582 95.7758 17.5124H98.2491L97.8585 19.1346H94.821ZM116.9 17.5947L119.671 6.41391H123L119.275 17.7451C119.138 18.2546 119.144 18.7387 119.662 19.3491H113.974C112.39 19.3491 111.254 18.933 110.567 18.1042C109.228 16.4807 110.027 12.9485 112.06 11.1616C112.633 10.6553 113.258 10.2945 113.944 10.0765C114.626 9.85797 115.481 9.74764 116.512 9.74764H118.008L117.611 11.3659H116.806C113.104 11.3659 111.737 17.5947 115.031 17.5947H116.9ZM66.2439 13.7221L63.723 9.74764H67.1346L68.476 11.9487L66.2439 13.7221ZM71.9824 9.74764H75.6614L70.2272 14.6694L72.9951 19.1418H69.5763L67.9542 16.5345L65.0845 19.1418H61.898V19.1427H54.5483C53.5204 19.1427 52.7842 18.9125 52.3437 18.453C51.9041 17.9908 51.7888 17.1632 51.9967 16.3165C52.2534 15.2692 52.8589 14.0941 53.6095 13.6377C54.3557 13.1839 55.3825 12.9569 56.8587 12.9569H59.514L59.1061 14.5854H57.2329C54.7004 14.5854 54.2733 17.5979 56.3427 17.5979H59.1755C59.5559 15.9423 59.9228 14.3206 60.3282 12.6686H60.3207C60.4346 12.1525 60.3447 11.9043 60.0497 11.6921C59.741 11.4705 58.916 11.3606 57.9897 11.3606H53.9219L54.2827 9.77127H59.7974C61.2119 9.77127 62.2917 10.0592 62.8673 10.6348C63.4422 11.2142 63.5895 12.0693 63.3109 13.2039L62.0265 18.6016L71.9824 9.74764ZM33.4454 18.9971L42.212 9.85496H45.5218L44.6012 14.9382L49.8398 9.85496H53.2718L50.6192 18.9971H47.4101L48.8021 14.3104L44.1532 18.9971H40.7072L41.7773 14.6009L37.8967 18.9971H33.4454ZM101.054 9.76239H106.197C107.749 9.76239 108.795 10.0263 109.332 10.5565C109.869 11.087 109.992 11.9639 109.696 13.1905L108.267 19.1279H105.159L106.622 13.0454C106.79 12.3461 106.779 11.8918 106.59 11.6827C106.401 11.4744 105.944 11.3712 105.221 11.3712H103.688L101.823 19.1279H98.7987L101.054 9.76239Z" fill="var(--fill-0, white)"/>
<path id="path1" fill-rule="evenodd" clip-rule="evenodd" d="M9.1089 22.4586L8.24537 22.0328L17.0106 11.9261L12.3755 11.2533L24.4084 8.22707L9.1089 22.4586ZM1.02203 6.91824e-05L5.65325 14.245L10.1665 9.04124L4.11689 8.1634L19.8213 4.21344L0 22.6513L1.06252 23.1914L7.37777 19.5489L10.6061 29.4791L31.3443 6.43979L1.02203 6.91824e-05Z" fill="var(--fill-0, white)"/>
<path id="path2" fill-rule="evenodd" clip-rule="evenodd" d="M11.3547 30.035L33.4449 16.8801H25.0062L11.3547 30.035Z" fill="var(--fill-0, white)"/>
</g>
</svg>
