<svg preserveAspectRatio="none" width="100%" height="100%" overflow="visible" style="display: block;" viewBox="0 0 31 38" fill="none" xmlns="http://www.w3.org/2000/svg">
<g id="noun-time-1983761 1">
<path id="Vector" d="M15.7351 5.21331C17.0911 5.21331 18.404 5.47464 19.6385 5.98578C20.8338 6.48155 21.9076 7.19253 22.8286 8.09568C23.7495 8.99882 24.4745 10.0518 24.9801 11.224C25.5013 12.4346 25.7678 13.7259 25.7678 15.0518C25.7678 16.3777 25.5013 17.669 24.9801 18.8796C24.4745 20.0518 23.7495 21.1048 22.8286 22.0079C21.9076 22.9111 20.8338 23.622 19.6385 24.1178C18.404 24.629 17.0872 24.8903 15.7351 24.8903C14.3792 24.8903 13.0663 24.629 11.8318 24.1178C10.6365 23.622 9.5627 22.9111 8.64173 22.0079C7.72076 21.1048 6.99574 20.0518 6.49019 18.8796C5.96896 17.669 5.70247 16.3777 5.70247 15.0518C5.70247 13.7259 5.96896 12.4346 6.49019 11.224C6.99574 10.0518 7.72076 8.99882 8.64173 8.09568C9.5627 7.19253 10.6365 6.48155 11.8318 5.98578C13.0663 5.47464 14.3792 5.21331 15.7351 5.21331ZM15.7351 3.52232C9.24134 3.52232 3.9781 8.68368 3.9781 15.0518C3.9781 21.4199 9.24134 26.5813 15.7351 26.5813C22.2289 26.5813 27.4922 21.4199 27.4922 15.0518C27.4922 8.68368 22.2289 3.52232 15.7351 3.52232Z" fill="var(--fill-0, black)"/>
<path id="Vector_2" d="M18.7489 18.8527C18.5294 18.8527 18.306 18.772 18.1375 18.6067L14.873 15.4015V7.86125C14.873 7.39238 15.257 7.01575 15.7351 7.01575C16.2133 7.01575 16.5973 7.39238 16.5973 7.86125V14.6982L19.3563 17.4038C19.6933 17.7343 19.6933 18.2685 19.3563 18.599C19.1878 18.7681 18.9683 18.8527 18.7489 18.8527Z" fill="var(--fill-0, black)"/>
</g>
</svg>
