<svg preserveAspectRatio="none" width="100%" height="100%" overflow="visible" style="display: block;" viewBox="0 0 138.688 141.6" fill="none" xmlns="http://www.w3.org/2000/svg">
<path id="Subtract" d="M34.7373 141.6H18.2373V60.8994C14.6373 65.9994 11.0371 70.8 7.28711 75C6.08153 71.7449 2.74328 65.0021 0 60.2998H34.7373V141.6ZM129.537 140.55H113.637V136.35H65.0371V141H49.7373V90.75H129.537V140.55ZM65.0371 121.95H113.637V105H65.0371V121.95ZM127.587 82.2002H51.9873V68.25H127.587V82.2002ZM127.587 60.4502H51.9873V60.2998H127.587V60.4502ZM45.8369 5.84961C42.8014 14.2335 39.2081 22.8957 35.1924 31.2998H16.4131C21.7137 21.7484 26.3425 11.3065 29.7871 0.899414L45.8369 5.84961ZM90.6875 0C94.7375 6.14997 99.3868 14.5503 101.637 19.9502L92.7871 23.8496H138.688V31.2998H41.4873V23.8496H84.6875C82.4375 18.4496 78.6867 11.2496 75.3867 5.84961L90.6875 0Z" fill="var(--fill-0, white)"/>
</svg>
