<svg preserveAspectRatio="none" width="100%" height="100%" overflow="visible" style="display: block;" viewBox="0 0 134.4 139.351" fill="none" xmlns="http://www.w3.org/2000/svg">
<path id="Subtract" d="M70.2002 60H48.1504V62.4004C54.0003 68.2503 67.9495 84.4495 71.25 88.5L60.9004 103.5C58.0504 98.4 53.1003 90.7501 48.1504 83.7002V139.351H30.1504V85.9502C24.3004 100.05 17.1004 112.95 9.15039 121.65C7.3504 116.55 3 109.351 0 104.851C10.35 93.9006 19.9498 76.65 25.7998 60H3.2998V58.6504H70.2002V60ZM134.4 131.25H115.8V120.301H91.6504V132.301H74.1006V58.6504H91.6504V103.051H115.8V58.6504H134.4V131.25ZM70.7998 14.1006C64.05 16.5005 56.2502 18.6004 48.1504 20.4004V29.6504H30.1504V24C22.8004 25.2 15.6002 26.25 8.7002 27C7.95012 23.1 5.69994 16.8003 3.75 12.9004C23.4 10.2004 45.3006 5.55 59.1006 0L70.7998 14.1006ZM134.4 29.6504H74.1006V12.75H134.4V29.6504Z" fill="var(--fill-0, white)"/>
</svg>
