<svg preserveAspectRatio="none" width="100%" height="100%" overflow="visible" style="display: block;" viewBox="0 0 802.645 626.797" fill="none" xmlns="http://www.w3.org/2000/svg">
<path id="Vector" d="M795.61 486.986C780.777 502.855 807.806 501.41 724.982 521.23C724.982 521.23 577.745 610.812 471.758 622.728C397.682 631.884 330.878 622.728 330.878 622.728C224.891 610.805 141.03 550.44 141.03 550.44C58.1984 530.619 21.8517 502.855 7.02643 486.986C-0.483411 478.962 -2.18266 467.534 2.9439 458.009C27.1655 412.769 128.221 338.056 128.221 338.056C128.221 338.056 251.669 63.9001 514.902 4.31848C580.143 -8.68967 592.952 9.72403 588.286 32.4782C583.642 55.2324 572.129 77.2967 586.666 126.315C627.153 262.827 674.43 338.056 674.43 338.056C674.43 338.056 775.485 412.769 799.707 458.009C804.826 467.534 803.127 478.962 795.624 486.986" fill="var(--fill-0, #FF7600)"/>
</svg>
