<svg preserveAspectRatio="none" width="100%" height="100%" overflow="visible" style="display: block;" viewBox="0 0 329.866 35.2095" fill="none" xmlns="http://www.w3.org/2000/svg">
<g id="logo">
<path id="path3" fill-rule="evenodd" clip-rule="evenodd" d="M86.0432 20.603H91.6699C93.971 20.603 94.4185 17.9905 92.3344 17.9905H90.355C86.957 17.9905 85.4741 14.7192 88.8774 12.2632C89.652 11.7045 90.7075 11.427 92.0449 11.427H98.104L97.7033 13.2584H92.7641C90.124 13.2584 89.46 15.5448 91.5187 15.5448H94.1729C95.3876 15.5448 96.2388 15.8499 96.7275 16.4529C98.2329 18.3113 96.1689 22.4395 93.1851 22.4395H87.0034L86.0432 20.603ZM104.446 20.6108H105.955L105.509 22.474H102.813C101.712 22.474 100.831 22.3691 100.174 22.163C99.5143 21.9529 98.9766 21.6175 98.566 21.1529C98.1222 20.6494 97.8327 20.0308 97.6883 19.3043C97.5438 18.5772 97.5662 17.8086 97.7608 16.9974C97.9647 16.1451 98.3126 15.3483 98.8049 14.607C99.2969 13.8664 99.8873 13.2443 100.578 12.7483C101.218 12.2835 101.924 11.9475 102.692 11.7379C103.455 11.532 104.379 11.427 105.456 11.427H108.153L107.702 13.311H106.193C104.689 13.311 103.583 13.5864 102.883 14.1376C102.18 14.6848 101.667 15.6419 101.341 17.0038C101.154 17.7854 101.114 18.4344 101.225 18.9491C101.332 19.4639 101.594 19.8775 102.005 20.1937C102.211 20.3475 102.462 20.4529 102.765 20.5174C103.069 20.5785 103.629 20.6108 104.446 20.6108ZM111.157 22.4311C109.149 22.4311 107.741 21.9689 106.932 21.0406C106.122 20.1164 105.937 18.7467 106.371 16.9432C106.806 15.1355 107.653 13.7694 108.909 12.8379C110.169 11.9101 111.801 11.4443 113.8 11.4443H117.361L116.904 13.3459H114.023C111.947 13.5462 110.889 14.5355 110.403 15.9678H116.273L115.8 17.9321H109.931C109.852 19.707 110.735 20.4659 112.276 20.5294H115.175L114.718 22.4311H111.157ZM137.039 20.626L140.288 7.51891H144.19L139.823 20.8022C139.663 21.3995 139.67 21.967 140.277 22.6825H133.609C131.752 22.6825 130.421 22.1948 129.616 21.2233C128.046 19.32 128.982 15.1792 131.366 13.0846C132.037 12.491 132.771 12.068 133.574 11.8125C134.373 11.5563 135.376 11.427 136.585 11.427H138.339L137.873 13.324H136.93C132.59 13.324 130.987 20.626 134.848 20.626H137.039ZM77.6564 16.0862L74.7012 11.427H78.7005L80.273 14.0072L77.6564 16.0862ZM84.3835 11.427H88.6963L82.3259 17.1966L85.5706 22.4395H81.5629L79.6613 19.383L76.2972 22.4395H72.5617V22.4406H63.9459C62.7409 22.4406 61.8779 22.1708 61.3614 21.6321C60.8461 21.0902 60.711 20.1201 60.9547 19.1275C61.2555 17.8998 61.9654 16.5222 62.8454 15.9872C63.72 15.4552 64.9238 15.1891 66.6543 15.1891H69.767L69.2889 17.0982H67.0929C64.1241 17.0982 63.6235 20.6297 66.0494 20.6297H69.3702C69.8161 18.6889 70.2463 16.7878 70.7215 14.8512H70.7127C70.8462 14.2462 70.7409 13.9552 70.395 13.7064C70.0331 13.4467 69.066 13.3178 67.9801 13.3178H63.2115L63.6344 11.4547H70.0993C71.7574 11.4547 73.0233 11.7922 73.698 12.467C74.3719 13.1462 74.5447 14.1486 74.2181 15.4787L72.7124 21.8063L84.3835 11.427ZM39.2073 22.27L49.4842 11.5528H53.3642L52.285 17.5118L58.4261 11.5528H62.4494L59.3398 22.27H55.5778L57.2096 16.7758L51.7599 22.27H47.7202L48.9746 17.1163L44.4255 22.27H39.2073ZM118.463 11.4443H124.493C126.312 11.4443 127.538 11.7536 128.168 12.3752C128.797 12.9971 128.941 14.0251 128.594 15.463L126.919 22.4233H123.276L124.99 15.2929C125.188 14.4731 125.174 13.9405 124.953 13.6954C124.732 13.4512 124.196 13.3302 123.348 13.3302H121.552L119.365 22.4233H115.82L118.463 11.4443Z" fill="var(--fill-0, white)"/>
<path id="path1" fill-rule="evenodd" clip-rule="evenodd" d="M10.6782 26.3279L9.66588 25.8287L19.9412 13.9808L14.5076 13.192L28.6135 9.64446L10.6782 26.3279ZM1.19811 0.000114181L6.6272 16.6992L11.9179 10.5989L4.82615 9.56982L23.2361 4.93936L0 26.5537L1.24558 27.1868L8.64881 22.9169L12.4334 34.5578L36.7443 7.54927L1.19811 0.000114181Z" fill="var(--fill-0, white)"/>
<path id="path2" fill-rule="evenodd" clip-rule="evenodd" d="M13.3109 35.2095L39.2069 19.7883H29.3143L13.3109 35.2095Z" fill="var(--fill-0, white)"/>
<g id="Group 305">
<g id="Group">
<path id="Vector" d="M305.386 24.9852V24.2462L304.667 23.0943C304.654 23.0764 304.662 23.0586 304.684 23.0586H304.875C304.89 23.0586 304.903 23.0637 304.908 23.079L305.501 24.0474L306.091 23.079C306.096 23.0637 306.106 23.0586 306.124 23.0586H306.309C306.33 23.0586 306.34 23.0764 306.33 23.0943L305.61 24.2411V24.9852C305.61 25.0056 305.597 25.0158 305.582 25.0158H305.417C305.399 25.0158 305.389 25.0056 305.389 24.9852H305.386Z" fill="var(--fill-0, white)"/>
<path id="Vector_2" d="M306.788 24.9852V23.0866C306.788 23.0688 306.798 23.0586 306.818 23.0586H307.993C308.011 23.0586 308.024 23.0688 308.024 23.0866V23.2395C308.024 23.2574 308.011 23.2701 307.993 23.2701H307.011V23.897H307.907C307.922 23.897 307.935 23.9072 307.935 23.9276V24.078C307.935 24.0933 307.922 24.106 307.907 24.106H307.011V24.8018H308.026C308.041 24.8018 308.052 24.8145 308.052 24.8298V24.9827C308.052 25.0031 308.041 25.0133 308.026 25.0133H306.818C306.798 25.0133 306.788 25.0031 306.788 24.9827V24.9852Z" fill="var(--fill-0, white)"/>
<path id="Vector_3" d="M308.38 24.9827L309.153 23.0815C309.16 23.0637 309.173 23.0586 309.188 23.0586H309.343C309.359 23.0586 309.371 23.0637 309.376 23.0815L310.155 24.9827C310.162 25.0031 310.155 25.0158 310.132 25.0158H309.941C309.941 25.0158 309.913 25.0107 309.908 24.9954L309.725 24.5265H308.804L308.621 24.9954C308.611 25.0107 308.601 25.0158 308.586 25.0158H308.402C308.382 25.0158 308.372 25.0031 308.382 24.9827H308.38ZM309.259 23.3364L308.881 24.3175H309.646L309.262 23.3364H309.259Z" fill="var(--fill-0, white)"/>
<path id="Vector_4" d="M310.612 24.9852V23.0866C310.612 23.0688 310.623 23.0586 310.643 23.0586H311.21C311.724 23.0586 311.942 23.2982 311.942 23.6983C311.942 23.9608 311.833 24.1723 311.592 24.2742L311.998 24.9801C312.009 25.0005 311.998 25.0158 311.978 25.0158H311.787C311.772 25.0158 311.762 25.0082 311.757 24.998L311.375 24.3303C311.325 24.3405 311.269 24.343 311.21 24.343H310.836V24.9852C310.836 25.0056 310.826 25.0158 310.806 25.0158H310.643C310.623 25.0158 310.612 25.0056 310.612 24.9852ZM310.836 24.1341H311.197C311.558 24.1341 311.711 23.9862 311.711 23.7008C311.711 23.4154 311.558 23.2701 311.197 23.2701H310.836V24.1341Z" fill="var(--fill-0, white)"/>
<path id="Vector_5" d="M312.362 24.5393C312.357 24.5189 312.365 24.5087 312.382 24.5036L312.54 24.4628C312.555 24.4577 312.568 24.4628 312.576 24.4832C312.66 24.7253 312.802 24.8349 313.054 24.8349C313.306 24.8349 313.473 24.7228 313.473 24.5189C313.473 24.315 313.323 24.2131 313.074 24.129L312.927 24.078C312.601 23.9659 312.413 23.7951 312.413 23.5352C312.413 23.2319 312.677 23.0204 313.028 23.0204C313.351 23.0204 313.58 23.1759 313.667 23.4893C313.672 23.5097 313.667 23.5224 313.649 23.525L313.481 23.5683C313.463 23.5734 313.453 23.5683 313.448 23.5505C313.377 23.3339 313.242 23.2396 313.028 23.2396C312.802 23.2396 312.644 23.3593 312.644 23.5301C312.644 23.6855 312.772 23.7977 313.044 23.8869L313.173 23.9302C313.534 24.05 313.705 24.2105 313.705 24.5215C313.705 24.8324 313.438 25.0566 313.056 25.0566C312.705 25.0566 312.466 24.8833 312.365 24.5418L312.362 24.5393Z" fill="var(--fill-0, white)"/>
</g>
<g id="Group_2">
<path id="Vector_6" d="M323.503 5.71625V1.95215H322.095C322.056 1.95215 322.039 1.92412 322.039 1.88589V1.54949C322.039 1.51126 322.056 1.48833 322.095 1.48833H325.403C325.436 1.48833 325.459 1.51126 325.459 1.54949V1.88589C325.459 1.92412 325.436 1.95215 325.403 1.95215H323.994V5.71625C323.994 5.75957 323.971 5.78251 323.928 5.78251H323.57C323.526 5.78251 323.503 5.75957 323.503 5.71625Z" fill="var(--fill-0, white)"/>
<path id="Vector_7" d="M326.509 5.71628V1.54952C326.509 1.51129 326.532 1.48836 326.575 1.48836H326.934C326.977 1.48836 327 1.51129 327 1.54952V3.336H329.381V1.54952C329.381 1.51129 329.403 1.48836 329.442 1.48836H329.805C329.843 1.48836 329.866 1.51129 329.866 1.54952V5.71628C329.866 5.7596 329.843 5.78254 329.805 5.78254H329.442C329.403 5.78254 329.381 5.7596 329.381 5.71628V3.80237H327V5.71628C327 5.7596 326.977 5.78254 326.934 5.78254H326.575C326.532 5.78254 326.509 5.7596 326.509 5.71628Z" fill="var(--fill-0, white)"/>
</g>
<path id="Vector_8" d="M322.229 7.84166C320.922 5.34161 319.033 3.39967 316.617 2.06936C315.419 1.41186 314.079 0.909809 312.629 0.581056C311.172 0.249754 309.56 0.0815531 307.84 0.0815531C306.121 0.0815531 304.545 0.249754 303.092 0.581056C301.648 0.909809 300.303 1.41186 299.095 2.06936C296.658 3.39712 294.759 5.33905 293.451 7.83911C292.129 10.3697 291.458 13.4763 291.458 17.0671C291.458 20.6579 292.129 23.7671 293.451 26.2977C294.532 28.3671 296.02 30.0542 297.884 31.3284H268.766C270.991 29.5368 273.219 27.7453 275.444 25.9537C278.19 23.5963 280.423 21.504 282.122 19.8424C282.625 19.3506 284.324 17.6762 286.089 15.2322C286.926 14.0752 287.531 13.1272 287.91 11.8555C288.218 10.8183 288.375 9.76066 288.375 8.70814C288.375 6.97008 287.808 5.4461 286.689 4.17441C285.568 2.90272 283.983 1.89352 281.974 1.17485C280.354 0.593795 278.228 0 274.747 0C274.559 0 274.363 1.08894e-06 274.17 0.00509804C272.328 0.0382282 270.251 0.265042 268.748 0.60144C267.212 0.945485 265.788 1.46792 264.516 2.15346C263.242 2.84155 262.133 3.68 261.22 4.64842C260.401 5.51745 259.715 6.51646 259.186 7.61485L259 7.99966L262.812 8.75656L262.97 8.44565C263.471 7.45429 264.101 6.59291 264.859 5.86914C268.015 2.84665 272.229 2.918 273.628 2.94858C275.088 2.98171 277.183 3.05817 279.223 4.41906C279.831 4.82427 281.084 5.68565 281.837 7.32941C281.944 7.56133 282.432 8.66737 282.417 10.2398C282.386 13.721 279.92 16.3816 278.061 18.3873C276.654 19.9036 275.367 20.8975 274.035 21.9296C272.158 23.3797 270.619 24.2921 269.546 24.9776C267.28 26.4226 263.88 28.5225 259.343 31.0939L259.315 31.1245C259.259 31.1857 259.219 31.2443 259.191 31.2978L259.16 31.3615V34.0553H308.555H309.046V34.0272C310.32 33.9661 311.528 33.8081 312.639 33.5558C314.089 33.227 315.432 32.7275 316.627 32.0675C319.043 30.7372 320.932 28.7952 322.239 26.2952C323.564 23.7645 324.236 20.6579 324.236 17.0646C324.236 13.4712 323.564 10.3672 322.239 7.83657L322.229 7.84166ZM301.345 27.5541C299.262 25.184 298.207 21.6569 298.207 17.0722C298.207 12.4875 299.262 8.96044 301.345 6.59036C301.887 5.97363 305.458 2.28344 310.452 2.91291C314.084 3.37164 316.286 5.8462 316.947 6.59036C319.968 9.98748 320.037 14.1237 320.085 17.0722C320.096 17.768 320.131 23.8283 316.965 27.995C315.638 29.7433 314.33 30.3906 313.936 30.5715C313.631 30.7117 312.428 31.2316 310.452 31.2316C306.551 31.2316 303.489 29.9956 301.345 27.5541Z" fill="var(--fill-0, white)"/>
<path id="Vector_9" d="M309.056 17.1131C308.947 17.1131 308.837 17.08 308.746 17.0137C308.603 16.9118 308.517 16.7461 308.517 16.5703V7.62512C308.517 7.32695 308.759 7.0823 309.059 7.0823C309.359 7.0823 309.6 7.3244 309.6 7.62512V15.8032L314.229 14.1467C314.511 14.0447 314.819 14.1925 314.92 14.4754C315.022 14.7583 314.875 15.0667 314.592 15.1686L309.242 17.0851C309.183 17.1055 309.122 17.1157 309.059 17.1157L309.056 17.1131Z" fill="var(--fill-0, white)"/>
</g>
</g>
</svg>
