<svg preserveAspectRatio="none" width="100%" height="100%" overflow="visible" style="display: block;" viewBox="0 0 138.002 141.149" fill="none" xmlns="http://www.w3.org/2000/svg">
<path id="Subtract" d="M106.748 62.8496C104.384 97.4105 97.6588 123.51 78 141.149C76.3499 138.149 73.0503 134.399 69.9004 131.399C45.3004 133.349 19.65 135 1.5 136.35L0 121.649L30.9004 120V112.649H7.05078V101.1H30.9004V95.3994H4.5V83.6992H30.9004V78.5996H5.40039V62.8496H20.5508V66.8994H30.9004V62.8496H47.4004V66.8994H58.0508V62.8496H74.1006V78.5996H47.4004V83.6992H75V95.3994H47.4004V101.1H72V112.649H47.4004V118.949L74.1006 117.149V119.399C84.6573 105.238 88.8021 86.5459 90.4297 62.8496H106.748ZM138.002 62.8496C136.904 108.829 135.48 126.51 131.4 132.3C128.101 137.1 125.1 138.599 120.301 139.649C116.101 140.399 109.65 140.4 102.9 140.25C102.6 135.3 100.8 128.249 98.25 123.449C103.8 124.199 108.9 124.199 111.45 124.199C113.7 124.199 115.05 123.6 116.4 121.5C119 117.806 120.349 102.505 121.363 62.8496H138.002ZM31.0508 9.75H47.1006V0H63.9004V9.75H77.8506V22.5H63.9004V33.8496H14.8506V22.5H1.2002V9.75H14.8506V0H31.0508V9.75ZM108.001 33.8496H91.3516L91.5 1.34961H108.15L108.001 33.8496ZM31.0508 29.3994H47.1006V22.5H31.0508V29.3994Z" fill="var(--fill-0, white)"/>
</svg>
