<svg preserveAspectRatio="none" width="100%" height="100%" overflow="visible" style="display: block;" viewBox="0 0 138.6 139.949" fill="none" xmlns="http://www.w3.org/2000/svg">
<path id="Subtract" d="M134.699 67.3496H104.699V114.75H119.85V73.5H138.6V139.949H119.85V132.3H52.7998V73.6494H71.25V114.75H86.3994V67.3496H56.8496V59.8496H134.699V67.3496ZM36.1494 67.1992L48.5996 63.75L51 81L36.1494 85.3496V119.85C36.1494 128.249 34.7997 133.049 30 135.899C25.3501 138.749 18.7498 139.5 9 139.5C8.40001 134.85 6.29919 127.2 4.19922 122.25C9.449 122.4 14.8492 122.4 16.6494 122.25C18.4494 122.25 19.0498 121.649 19.0498 119.699V90.4492L4.19922 94.7998L0 76.1992C5.39992 75.1492 12 73.4992 19.0498 71.6992V59.8496H36.1494V67.1992ZM36.1494 28.3496H50.3994V30.8496H2.39941V28.3496H19.0498V0H36.1494V28.3496ZM74.25 30.8496H56.8496V14.6992H74.25V30.8496ZM104.699 30.8496H86.3994V0.75H104.699V30.8496ZM134.699 30.8496H116.399V14.6992H134.699V30.8496Z" fill="var(--fill-0, white)"/>
</svg>
