<svg width="145" height="65" viewBox="0 0 145 65" fill="none" xmlns="http://www.w3.org/2000/svg">
<path d="M123.148 45.905C123.038 46.1994 122.912 46.487 122.769 46.7659C125.438 36.0994 107.112 19.9213 80.9042 10.0827C54.6971 0.24408 30.2583 0.368459 25.2583 10.1595C25.334 9.85531 25.4273 9.55603 25.538 9.26062C29.5261 -1.37577 54.6097 -1.79652 81.5636 8.32292C108.518 18.4424 127.137 35.2676 123.148 45.905Z" fill="#457093"/>
<path d="M11.819 49.9645C10.5353 49.9645 9.36515 49.8985 8.30961 49.7663C7.25212 49.6332 6.28008 49.4068 5.39447 49.0861C4.50692 48.7654 3.70482 48.3495 2.98817 47.8394C2.27055 47.3292 1.62965 46.6976 1.06352 45.9416C0.647903 45.413 0.346873 44.865 0.157515 44.2985C-0.0318424 43.7319 -0.0502926 43.0722 0.101193 42.3162C0.28958 41.1831 0.732386 40.2765 1.43155 39.5973C2.12975 38.9171 2.96875 38.578 3.95049 38.578C4.29037 38.578 4.66714 38.6343 5.08276 38.748C5.4974 38.8617 5.85572 39.0697 6.1587 39.3709C7.1016 40.3154 8.15812 41.0899 9.32922 41.6933C10.4984 42.2977 11.7637 42.5999 13.1222 42.5999C13.801 42.5999 14.4613 42.5717 15.1032 42.5144C15.745 42.458 16.3102 42.3541 16.8016 42.2025C17.291 42.0519 17.7076 41.8254 18.0465 41.5232C18.3863 41.221 18.5932 40.8246 18.6689 40.3339C18.7437 39.8801 18.6777 39.4846 18.4708 39.1445C18.263 38.8044 17.9513 38.5031 17.5367 38.2379C17.121 37.9745 16.6112 37.7559 16.0082 37.5858C15.4042 37.4158 14.7623 37.2555 14.0836 37.1039C12.6493 36.8026 11.2432 36.4528 9.86622 36.0564C8.48828 35.6599 7.29096 35.1031 6.27134 34.385C5.25269 33.6679 4.48749 32.7137 3.97866 31.5243C3.46885 30.3349 3.38436 28.7772 3.72424 26.8503C4.02527 25.2645 4.54479 23.8953 5.28085 22.7429C6.01692 21.5914 6.97925 20.6382 8.16783 19.8822C9.35641 19.1271 10.7334 18.5703 12.3007 18.2108C13.866 17.8523 15.612 17.6725 17.5367 17.6725C19.8381 17.6725 21.9327 18.0038 23.8204 18.6636C25.7072 19.3244 27.0842 20.2592 27.9533 21.468C28.1795 21.7712 28.3679 22.1579 28.5194 22.6292C28.6699 23.1015 28.6699 23.734 28.5194 24.527C28.3301 25.7358 27.8775 26.6511 27.1609 27.274C26.4433 27.8969 25.5946 28.2088 24.6128 28.2088C24.0836 28.2088 23.5845 28.1233 23.1125 27.9542C22.6406 27.7842 22.2531 27.5111 21.9521 27.1331C21.5365 26.6424 20.8567 26.1701 19.9138 25.7163C18.97 25.2635 17.7435 25.0371 16.2345 25.0371C15.6305 25.0371 15.0925 25.0847 14.6206 25.179C14.1486 25.2732 13.7427 25.4054 13.4038 25.5754C13.0639 25.7455 12.7901 25.9719 12.5833 26.2556C12.3755 26.5384 12.2337 26.8698 12.1589 27.2468C12.0832 27.6627 12.121 28.0213 12.2716 28.3235C12.4221 28.6266 12.658 28.8812 12.9795 29.0882C13.2999 29.2961 13.6592 29.4662 14.0554 29.5983C14.4516 29.7315 14.8759 29.8529 15.3294 29.9666C16.7249 30.2698 18.1882 30.6381 19.7167 31.0715C21.2452 31.5058 22.6124 32.1005 23.8214 32.8555C25.0284 33.6115 25.9723 34.6027 26.6521 35.83C27.3318 37.0572 27.5017 38.6159 27.1619 40.5039C26.822 42.4299 26.1617 44.0069 25.1809 45.2342C24.1991 46.4615 23.0106 47.4245 21.6142 48.1231C20.2178 48.8228 18.6699 49.3038 16.9715 49.5681C15.2731 49.8314 13.5553 49.9645 11.82 49.9645" fill="black"/>
<path d="M36.076 28.8909C34.9059 29.1931 33.962 29.0707 33.2454 28.5226C32.5278 27.9756 32.018 27.0971 31.7169 25.8883C31.4528 24.7553 31.5373 23.7641 31.9714 22.9139C32.4044 22.0646 33.226 21.4884 34.434 21.1862L42.756 19.0902C44.0009 18.788 45.1137 18.7414 46.0955 18.9483C47.0763 19.1563 47.8687 19.5625 48.4727 20.1659C49.0767 20.7703 49.4729 21.5448 49.6612 22.4883C49.8496 23.4328 49.7933 24.4706 49.4913 25.6046L46.2081 38.4069C45.9819 39.1998 45.8683 39.8509 45.8683 40.361C45.8683 40.8712 45.9527 41.2677 46.1227 41.5504C46.2926 41.8332 46.5276 42.0314 46.8306 42.1451C47.1316 42.2588 47.4715 42.3152 47.8492 42.3152C48.6038 42.3152 49.2835 42.0888 49.8875 41.6359C50.4905 41.1831 51.1897 40.5224 51.9821 39.6536C52.7366 38.7849 53.4911 38.3418 54.2466 38.3224C55.0011 38.3039 55.7935 38.6343 56.6238 39.3135C57.4919 40.0695 57.9347 40.8061 57.9541 41.5232C57.9726 42.2413 57.6803 43.0342 57.0763 43.9029C56.2839 44.999 55.4915 45.9338 54.6991 46.7073C53.9067 47.4818 53.0376 48.1046 52.0947 48.5769C51.1509 49.0492 50.0943 49.398 48.9242 49.6254C47.7541 49.8518 46.4334 49.9655 44.9613 49.9655C43.4892 49.9655 42.2161 49.7294 41.1401 49.2571C40.0642 48.7848 39.2155 48.1056 38.593 47.2175C37.9706 46.3303 37.5831 45.2633 37.4326 44.0166C37.2811 42.7699 37.4132 41.3541 37.8288 39.7683L40.5459 29.5148C40.6964 29.025 40.6779 28.6363 40.4895 28.3536C40.3002 28.0708 39.9603 27.9853 39.4709 28.099L36.0741 28.8919L36.076 28.8909Z" fill="black"/>
<path d="M58.7214 45.7725L62.7969 23.0557C62.8717 22.6408 62.9106 22.2822 62.9106 21.9791C62.9106 21.6759 62.8727 21.3941 62.7969 21.1298C62.494 19.8831 62.7027 18.9969 63.4194 18.4673C64.136 17.9387 65.0236 17.6744 66.0801 17.6744C67.2493 17.6744 68.1932 17.9484 68.9108 18.4955C69.6274 19.0435 70.1363 19.921 70.4392 21.1298C70.515 21.3193 70.5616 21.4981 70.581 21.6681C70.5994 21.8382 70.5897 22.0179 70.5528 22.2065C71.0811 20.8101 71.8638 19.7053 72.9018 18.8929C73.9389 18.0815 75.2509 17.6753 76.8366 17.6753C78.4223 17.6753 79.6478 18.1379 80.2897 19.063C80.9316 19.989 81.2705 21.0365 81.3084 22.2065C81.723 21.0365 82.4591 19.988 83.5166 19.063C84.5731 18.1379 85.9879 17.6753 87.7621 17.6753C88.705 17.6753 89.5255 17.8269 90.2247 18.1282C90.9229 18.4313 91.4705 18.8744 91.8667 19.4594C92.2629 20.0454 92.5261 20.7625 92.6591 21.6118C92.7912 22.462 92.763 23.4162 92.5746 24.4725L88.7817 45.7725C88.5554 47.1698 88.0543 48.2183 87.2814 48.917C86.5074 49.6156 85.516 49.9645 84.3089 49.9645C83.1019 49.9645 82.2046 49.6049 81.6201 48.8878C81.0345 48.1707 80.8743 47.1135 81.1394 45.7152L84.4226 27.134C84.4983 26.7939 84.5265 26.4733 84.508 26.1711C84.4886 25.8689 84.4226 25.6143 84.3099 25.4063C84.1963 25.1993 84.0458 25.0293 83.8564 24.8962C83.6671 24.764 83.4224 24.6979 83.1204 24.6979C82.5164 24.6979 82.0347 24.9341 81.6774 25.4063C81.3181 25.8786 81.0831 26.4548 80.9695 27.134L77.63 46.0543C77.4037 47.3768 76.8657 48.3582 76.017 49.0005C75.1673 49.6428 74.1953 49.9635 73.1019 49.9635C72.0085 49.9635 71.1578 49.6419 70.5548 49.0005C69.9508 48.3592 69.7624 47.3768 69.9886 46.0543L73.3291 27.134C73.4039 26.7939 73.4223 26.4733 73.3854 26.1711C73.3476 25.8689 73.2718 25.6143 73.1592 25.4063C73.0456 25.1993 72.8853 25.0293 72.6775 24.8962C72.4697 24.764 72.2153 24.6979 71.9133 24.6979C71.2714 24.6979 70.7616 24.9341 70.3848 25.4063C70.0071 25.8786 69.7614 26.4548 69.6488 27.134L66.3656 45.7152C66.1015 47.1125 65.582 48.1707 64.809 48.8878C64.035 49.6049 63.0446 49.9645 61.8366 49.9645C60.6286 49.9645 59.742 49.6147 59.1758 48.917C58.6097 48.2183 58.4592 47.1708 58.7233 45.7725" fill="black"/>
<path d="M105.433 29.5138C105.508 29.023 105.47 28.6353 105.319 28.3525C105.168 28.0698 104.847 27.9843 104.357 28.098L100.96 28.8909C99.7899 29.1941 98.846 29.0706 98.1294 28.5226C97.4117 27.9755 96.9019 27.0971 96.6009 25.8883C96.3368 24.7553 96.4213 23.7641 96.8553 22.9139C97.2884 22.0646 98.11 21.4893 99.318 21.1861L107.64 19.0902C108.886 18.788 109.98 18.7413 110.923 18.9483C111.866 19.1562 112.622 19.5624 113.188 20.1658C113.754 20.7703 114.14 21.5447 114.348 22.4882C114.555 23.4328 114.565 24.4705 114.376 25.6045L110.641 46.7908C110.037 50.3036 109.367 53.211 108.63 55.5149C107.894 57.8179 106.913 59.6505 105.687 61.01C104.46 62.3694 102.913 63.3226 101.045 63.8707C99.1771 64.4178 96.7903 64.6918 93.8839 64.6918C93.2799 64.6918 92.6098 64.6539 91.8738 64.5781C91.1377 64.5023 90.3638 64.2953 89.5529 63.9552C88.7411 63.6151 87.9011 63.1059 87.034 62.4257C86.1668 61.7465 85.2987 60.8205 84.4306 59.6496C84.1285 59.2337 83.9402 58.7517 83.8644 58.2046C83.7887 57.6566 83.7887 57.1561 83.8644 56.7033C83.9402 56.2116 84.1285 55.7122 84.4306 55.202C84.7335 54.6919 85.1103 54.2293 85.5628 53.8144C86.0153 53.3985 86.5164 53.0584 87.0631 52.7951C87.6108 52.5298 88.1672 52.3986 88.7333 52.3986C89.3364 52.3986 89.8559 52.559 90.29 52.8806C90.7231 53.2013 91.1863 53.6823 91.6776 54.3255C91.9039 54.5889 92.1301 54.8726 92.3564 55.1748C92.5826 55.477 92.8565 55.7695 93.1769 56.0532C93.4974 56.336 93.8654 56.5721 94.281 56.7616C94.6957 56.9501 95.187 57.0444 95.7532 57.0444C96.5456 57.0444 97.2535 56.8743 97.8759 56.5342C98.4984 56.1941 99.0645 55.6655 99.5743 54.9484C100.084 54.2303 100.527 53.3149 100.905 52.2014C101.281 51.0868 101.621 49.7371 101.923 48.1512L105.433 29.5138ZM111.15 14.4454C109.603 14.4454 108.442 14.0489 107.669 13.256C106.895 12.4631 106.621 11.3864 106.849 10.027C107.075 8.66754 107.726 7.59088 108.801 6.79796C109.877 6.00504 111.187 5.60858 112.736 5.60858C114.285 5.60858 115.443 6.00504 116.217 6.79796C116.99 7.59088 117.265 8.66754 117.038 10.027C116.812 11.3864 116.16 12.4631 115.085 13.256C114.009 14.0489 112.697 14.4454 111.15 14.4454Z" fill="black"/>
<path d="M127.898 49.9645C125.558 49.9645 123.595 49.5302 122.011 48.6614C120.426 47.7927 119.189 46.6131 118.302 45.1205C117.415 43.6289 116.858 41.9109 116.632 39.9656C116.406 38.0212 116.48 35.9718 116.858 33.8195C117.235 31.6671 117.886 29.6187 118.811 27.6734C119.735 25.729 120.905 24.01 122.321 22.5184C123.737 21.0268 125.387 19.8472 127.275 18.9785C129.161 18.1097 131.275 17.6754 133.615 17.6754C135.955 17.6754 137.918 18.1097 139.502 18.9785C141.087 19.8472 142.323 21.0181 143.21 22.4902C144.096 23.9634 144.654 25.6726 144.88 27.617C145.106 29.5624 145.012 31.6302 144.598 33.8204C144.22 35.9728 143.579 38.0221 142.673 39.9665C141.767 41.9119 140.606 43.6299 139.192 45.1215C137.777 46.614 136.125 47.7937 134.238 48.6624C132.35 49.5302 130.237 49.9655 127.898 49.9655M129.143 42.8836C130.049 42.8836 130.888 42.6387 131.662 42.1471C132.435 41.6563 133.115 40.9956 133.7 40.1648C134.285 39.3339 134.785 38.371 135.201 37.2759C135.615 36.1807 135.917 35.0292 136.107 33.8204C136.333 32.5737 136.437 31.4038 136.418 30.3077C136.399 29.2126 136.248 28.2593 135.965 27.447C135.682 26.6356 135.237 25.9835 134.634 25.4928C134.03 25.0031 133.276 24.7563 132.37 24.7563C131.464 24.7563 130.624 25.0021 129.851 25.4928C129.077 25.9845 128.397 26.6453 127.813 27.4761C127.227 28.3069 126.727 29.2709 126.312 30.365C125.897 31.4611 125.576 32.6126 125.35 33.8204C125.161 35.0292 125.075 36.1807 125.096 37.2759C125.114 38.3719 125.274 39.3349 125.576 40.1648C125.878 40.9956 126.321 41.6573 126.907 42.1471C127.491 42.6387 128.237 42.8836 129.143 42.8836Z" fill="black"/>
<path d="M138.467 33.6951C138.467 39.0259 134.724 43.3471 130.105 43.3471C125.487 43.3471 121.744 39.0259 121.744 33.6951C121.744 28.3642 125.487 24.043 130.105 24.043C134.724 24.043 138.467 28.3642 138.467 33.6951Z" fill="black"/>
<path d="M139.328 37.5149C138.981 37.9142 138.13 38.6129 136.193 39.1114C136.193 39.1114 134.231 40.6302 131.752 40.9304C130.02 41.1607 128.457 40.9304 128.457 40.9304C125.978 40.6302 124.018 39.1114 124.018 39.1114C122.08 38.6129 121.231 37.9142 120.883 37.5149C120.707 37.3127 120.668 37.0251 120.788 36.7861C121.354 35.6482 123.718 33.7689 123.718 33.7689C123.718 33.7689 126.605 26.8717 132.761 25.3733C134.287 25.0458 134.587 25.5093 134.477 26.0817C134.368 26.654 134.099 27.2089 134.439 28.442C135.386 31.876 136.492 33.7689 136.492 33.7689C136.492 33.7689 138.856 35.6482 139.422 36.7861C139.541 37.0261 139.501 37.3137 139.327 37.5149" fill="white"/>
<path d="M120.328 53.9174C116.339 64.5548 91.2559 64.9746 64.301 54.8551C37.3472 44.7367 18.7289 27.9104 22.7171 17.2731C22.8278 16.9786 22.9541 16.691 23.0968 16.4121C20.4273 27.0787 38.7533 43.2567 64.9614 53.0954C91.1694 62.934 115.607 62.8096 120.607 53.0186C120.532 53.3227 120.438 53.622 120.328 53.9174Z" fill="#0082FF"/>
<path d="M53.6504 5.60763L52.2307 5.09068C51.0781 4.6709 49.874 4.67478 48.7902 5.02363C48.5747 5.09068 48.3639 5.17425 48.1581 5.2685C48.0619 5.31417 47.9678 5.36179 47.8745 5.41232C47.5667 5.57945 47.2764 5.77379 47.0093 5.99923C46.819 6.15179 46.6423 6.3199 46.4781 6.50258C46.0198 7.00204 45.6508 7.59868 45.4041 8.27596C44.3981 11.0424 45.8236 14.0995 48.5873 15.1061L50.007 15.6231C51.3898 16.1264 52.8444 16.0215 54.0787 15.4453C55.3139 14.869 56.3286 13.8215 56.8316 12.4378C57.8367 9.67232 56.4131 6.61433 53.6485 5.60763M50.5323 14.3463L49.0068 13.7904C47.0006 13.0597 45.9664 10.8403 46.6966 8.83275L46.752 8.6802C47.4822 6.67263 49.7001 5.63775 51.7064 6.36848L53.2319 6.92431C55.2381 7.65504 56.2723 9.87443 55.5421 11.882L55.4867 12.0346C54.7565 14.0421 52.5386 15.077 50.5323 14.3463Z" fill="black"/>
<path d="M54.9685 11.6595L54.9199 11.7916C54.2858 13.5349 52.3592 14.4337 50.6171 13.7992L49.2926 13.3172C47.5505 12.6827 46.6523 10.7558 47.2864 9.01157L47.3349 8.87941C47.969 7.13616 49.8947 6.23732 51.6377 6.87088L52.9623 7.35382C54.7043 7.98835 55.6026 9.91526 54.9685 11.6595Z" fill="black"/>
<path d="M48.7907 5.02366C48.5751 5.09071 48.3644 5.17427 48.1585 5.26853C48.0624 5.3142 47.9682 5.36182 47.8749 5.41234C47.5671 5.57948 47.2768 5.77382 47.0097 5.99926C46.8194 6.15182 46.6427 6.31993 46.4786 6.50261C46.4591 6.50261 46.4387 6.50358 46.4193 6.50455C45.7949 6.09935 44.8598 6.0459 43.9645 5.54547C42.1175 4.51545 43.2439 2.85479 43.2439 2.85479C42.2952 1.80922 42.4982 -0.519977 45.2482 0.104836C48.1954 0.77532 48.7547 4.76324 48.7897 5.02269" fill="black"/>
<path d="M48.2613 10.8141C48.1496 10.8627 48.0195 10.8131 47.969 10.7014C47.9185 10.5887 47.968 10.4565 48.0807 10.406L49.6946 9.67525L48.9022 8.16617C48.8449 8.05734 48.8866 7.92227 48.9954 7.86494C49.1042 7.80761 49.2391 7.84939 49.2964 7.95823L50.1995 9.67719C50.2286 9.73161 50.2335 9.79574 50.2131 9.85404C50.1927 9.91235 50.15 9.95996 50.0946 9.98522L48.2652 10.8131C48.2652 10.8131 48.2632 10.8131 48.2622 10.8141" fill="white"/>
<path d="M53.1905 12.6088C53.0808 12.6564 52.9526 12.6088 52.9011 12.501L52.032 10.6897C52.0058 10.6343 52.0029 10.5702 52.0252 10.5128C52.0476 10.4555 52.0932 10.4098 52.1486 10.3865L53.9441 9.64994C54.0577 9.6033 54.1888 9.65771 54.2354 9.7714C54.282 9.88509 54.2286 10.0153 54.113 10.0629L52.536 10.7091L53.3032 12.3066C53.3566 12.4174 53.31 12.5515 53.1983 12.6049C53.1954 12.6059 53.1934 12.6069 53.1905 12.6088Z" fill="white"/>
<path d="M56.3286 7.78526C56.451 7.97571 56.5587 8.17491 56.6549 8.37898C56.6986 8.47517 56.7413 8.57332 56.7792 8.67146C56.9074 8.99699 57.0054 9.3332 57.0647 9.67816C57.1122 9.9172 57.1394 10.1601 57.1482 10.405C57.1627 10.4176 57.1783 10.4312 57.1919 10.4448C57.9309 10.5362 58.6815 11.0959 59.6885 11.2893C61.7646 11.6877 61.9685 9.69079 61.9685 9.69079C63.3669 9.50033 64.707 7.58508 62.1987 6.29465C59.5098 4.91384 56.5209 7.6084 56.3267 7.78526" fill="black"/>
</svg>
