<svg width="384" height="177" viewBox="0 0 384 177" fill="none" xmlns="http://www.w3.org/2000/svg">
<path d="M16.184 14.276H12.656C12.208 15.172 11.676 15.956 11.144 16.628C10.5 16.152 9.128 15.424 8.344 15.088C9.8 13.492 10.948 11 11.592 8.564L14.672 9.264C14.476 10.02 14.224 10.72 13.972 11.448H16.184V8.312H19.488V11.448H25.564V14.276H19.488V16.628H26.712V19.428H8.708V16.628H16.184V14.276ZM13.804 23.768V26.568H21.448V23.768H13.804ZM24.752 29.228H10.696V21.108H24.752V29.228ZM8.148 13.576L5.516 15.592C4.732 14.304 2.912 12.4 1.372 11L3.836 9.236C5.376 10.468 7.28 12.288 8.148 13.576ZM7.616 19.036V28.892C8.036 29.144 8.54 29.536 9.24 29.956C10.948 30.964 13.412 31.076 16.38 31.076C19.404 31.076 24.388 30.852 27.412 30.404C27.076 31.272 26.544 32.812 26.516 33.68C24.024 33.848 19.292 33.988 16.268 33.988C12.88 33.988 10.668 33.708 8.904 32.672C7.868 32.084 7.028 31.356 6.496 31.356C5.656 31.356 4.312 32.868 3.08 34.436L1.092 31.524C2.156 30.516 3.332 29.704 4.424 29.172V22.116H1.26V19.036H7.616ZM53.068 8.592V20.548C53.068 22.088 52.788 22.872 51.724 23.348C50.716 23.796 49.288 23.88 47.328 23.88C47.188 23.012 46.74 21.752 46.348 20.94C47.608 20.996 48.952 20.996 49.372 20.968C49.764 20.94 49.904 20.856 49.904 20.492V8.592H53.068ZM47.86 9.88V19.344H44.808V9.88H47.86ZM35.54 15.116H37.892V12.176H35.54V15.116ZM43.408 30.46H54.272V33.54H29.044V30.46H39.992V28.22H31.872V25.196H39.964V23.432H37.892V18.056H35.316C34.868 20.352 33.692 22.648 30.92 24.188C30.5 23.572 29.324 22.312 28.736 21.864C30.808 20.8 31.732 19.456 32.152 18.056H29.324V15.116H32.488V12.176H30.276V9.264H42.988V12.176H41V15.116H43.632V18.056H41V22.956H43.408V25.196H51.5V28.22H43.408V30.46ZM59.936 32.392C58.48 32.392 57.388 31.216 57.388 29.704C57.388 28.192 58.48 27.016 59.936 27.016C61.42 27.016 62.512 28.192 62.512 29.704C62.512 31.216 61.42 32.392 59.936 32.392ZM75.2095 32.392C69.9735 32.392 65.7175 28.64 65.7175 21.724C65.7175 14.892 70.1135 10.888 75.3495 10.888C77.9815 10.888 80.0815 12.148 81.4255 13.548L79.2415 16.18C78.2055 15.172 77.0015 14.444 75.4335 14.444C72.2975 14.444 69.9455 17.132 69.9455 21.584C69.9455 26.092 72.0735 28.808 75.3495 28.808C77.1135 28.808 78.5135 27.968 79.6335 26.764L81.8175 29.34C80.1095 31.328 77.8975 32.392 75.2095 32.392ZM84.8558 32V11.28H88.9998V19.428H96.8398V11.28H100.956V32H96.8398V23.04H88.9998V32H84.8558ZM109.639 23.46H114.567L113.951 21.192C113.307 19.036 112.747 16.656 112.131 14.416H112.019C111.487 16.684 110.871 19.036 110.255 21.192L109.639 23.46ZM116.919 32L115.463 26.68H108.743L107.287 32H103.087L109.723 11.28H114.595L121.259 32H116.919ZM127.529 14.556V20.884H130.217C132.877 20.884 134.333 19.764 134.333 17.552C134.333 15.312 132.877 14.556 130.217 14.556H127.529ZM139.289 32H134.669L130.413 24.16H127.529V32H123.385V11.28H130.609C134.949 11.28 138.393 12.792 138.393 17.552C138.393 20.66 136.825 22.592 134.445 23.516L139.289 32ZM145.844 23.46H150.772L150.156 21.192C149.512 19.036 148.952 16.656 148.336 14.416H148.224C147.692 16.684 147.076 19.036 146.46 21.192L145.844 23.46ZM153.124 32L151.668 26.68H144.948L143.492 32H139.292L145.928 11.28H150.8L157.464 32H153.124ZM167.717 32.392C162.481 32.392 158.225 28.64 158.225 21.724C158.225 14.892 162.621 10.888 167.857 10.888C170.489 10.888 172.589 12.148 173.933 13.548L171.749 16.18C170.713 15.172 169.509 14.444 167.941 14.444C164.805 14.444 162.453 17.132 162.453 21.584C162.453 26.092 164.581 28.808 167.857 28.808C169.621 28.808 171.021 27.968 172.141 26.764L174.325 29.34C172.617 31.328 170.405 32.392 167.717 32.392ZM181.042 32V14.724H175.218V11.28H191.066V14.724H185.186V32H181.042ZM194.126 32V11.28H206.838V14.724H198.27V19.512H205.55V22.984H198.27V28.528H207.146V32H194.126ZM215.197 14.556V20.884H217.885C220.545 20.884 222.001 19.764 222.001 17.552C222.001 15.312 220.545 14.556 217.885 14.556H215.197ZM226.957 32H222.337L218.081 24.16H215.197V32H211.053V11.28H218.277C222.617 11.28 226.061 12.792 226.061 17.552C226.061 20.66 224.493 22.592 222.113 23.516L226.957 32Z" fill="white"/>
<path d="M0.684 74.732V72.536L4.482 71.24L7.236 70.268V70.178L4.482 69.206L0.684 67.91V65.732L9.918 69.296V71.168L0.684 74.732ZM17.0477 69.476L15.9137 68.648L17.1017 66.596L14.9597 65.642L15.3917 64.31L17.6957 64.832L17.9297 62.456H19.3517L19.5677 64.832L21.8717 64.31L22.3037 65.642L20.1437 66.596L21.3497 68.648L20.2157 69.476L18.6317 67.676L17.0477 69.476ZM25.8532 69.476L24.7192 68.648L25.9072 66.596L23.7652 65.642L24.1972 64.31L26.5012 64.832L26.7352 62.456H28.1572L28.3732 64.832L30.6772 64.31L31.1092 65.642L28.9492 66.596L30.1552 68.648L29.0212 69.476L27.4372 67.676L25.8532 69.476ZM33.1107 80.87V66.92H35.2707L35.4507 67.964H35.5227C36.3687 67.244 37.4127 66.668 38.4927 66.668C40.9767 66.668 42.4527 68.702 42.4527 71.798C42.4527 75.254 40.3827 77.252 38.1687 77.252C37.2867 77.252 36.4407 76.856 35.6667 76.154L35.7387 77.81V80.87H33.1107ZM37.5747 75.074C38.7987 75.074 39.7347 74.03 39.7347 71.834C39.7347 69.908 39.1227 68.846 37.7367 68.846C37.0527 68.846 36.4407 69.188 35.7387 69.89V74.318C36.3867 74.876 37.0347 75.074 37.5747 75.074ZM44.3947 77V66.92H46.5547L46.7347 68.702H46.8067C47.5447 67.388 48.6247 66.668 49.6687 66.668C50.2267 66.668 50.5507 66.758 50.8567 66.884L50.3887 69.17C50.0467 69.062 49.7587 69.008 49.3447 69.008C48.5527 69.008 47.5987 69.53 47.0227 70.988V77H44.3947ZM51.9345 77V66.92H54.5625V77H51.9345ZM53.2665 65.3C52.3485 65.3 51.6825 64.688 51.6825 63.86C51.6825 62.996 52.3485 62.42 53.2665 62.42C54.1665 62.42 54.8325 62.996 54.8325 63.86C54.8325 64.688 54.1665 65.3 53.2665 65.3ZM57.1013 77V66.92H59.2613L59.4413 68.252H59.5133C60.3953 67.388 61.4213 66.668 62.7893 66.668C64.9673 66.668 65.9033 68.18 65.9033 70.718V77H63.2573V71.042C63.2573 69.494 62.8253 68.936 61.8353 68.936C61.0073 68.936 60.4853 69.332 59.7293 70.07V77H57.1013ZM72.0225 77.252C69.6285 77.252 68.7105 75.74 68.7105 73.472V69.008H67.2885V67.046L68.8365 66.92L69.1425 64.22H71.3565V66.92H73.8405V69.008H71.3565V73.472C71.3565 74.624 71.8245 75.164 72.7245 75.164C73.0485 75.164 73.4445 75.056 73.7145 74.948L74.1465 76.874C73.6065 77.054 72.9045 77.252 72.0225 77.252ZM78.3811 80.636C76.6891 77.846 75.6991 74.93 75.6991 71.312C75.6991 67.73 76.6891 64.778 78.3811 62.006L80.0371 62.708C78.5251 65.336 77.8411 68.378 77.8411 71.312C77.8411 74.282 78.5251 77.306 80.0371 79.934L78.3811 80.636Z" fill="white"/>
<path d="M92.532 69.17H89.112V72.05H92.532V69.17ZM94.656 74.102H89.112V75.47H87.024V67.136H94.656V74.102ZM101.586 62.96V65.12H99.516V75.848C99.516 77.144 99.21 77.774 98.364 78.134C97.464 78.494 96.132 78.53 94.296 78.53C94.17 77.9 93.738 76.838 93.414 76.262C94.692 76.334 96.258 76.316 96.69 76.316C97.104 76.316 97.266 76.19 97.266 75.812V65.12H85.368V62.96H101.586ZM107.892 70.34V65.372H103.392V63.482H110.322C110.106 62.996 109.836 62.474 109.602 62.042L111.672 61.556C112.032 62.132 112.482 62.942 112.716 63.482H118.926V65.372H114.336V66.776L115.848 65.822C117 66.668 118.296 67.928 118.926 68.756L117.306 69.926C116.676 69.044 115.398 67.73 114.336 66.848V70.34H112.176V65.372H110.07V70.34H107.892ZM105.57 65.804L107.496 66.308C106.92 67.694 105.894 69.062 104.958 69.926C104.562 69.62 103.752 69.062 103.302 68.81C104.238 68.054 105.12 66.92 105.57 65.804ZM114.138 72.608H108.234C109.008 73.436 109.998 74.12 111.168 74.696C112.338 74.12 113.346 73.454 114.138 72.608ZM116.028 70.664L117.396 71.6C116.46 73.274 115.092 74.57 113.418 75.596C115.2 76.172 117.216 76.55 119.448 76.748C119.016 77.18 118.512 78.062 118.242 78.62C115.506 78.296 113.13 77.702 111.096 76.784C108.936 77.684 106.47 78.26 103.914 78.62C103.734 78.08 103.266 77.162 102.906 76.73C105.048 76.514 107.082 76.136 108.918 75.56C107.694 74.75 106.65 73.76 105.768 72.608H104.418V70.736H115.686L116.028 70.664ZM134.628 62.006L136.662 62.834C135.294 64.616 133.35 66.182 131.496 67.262C131.172 66.794 130.542 66.146 129.984 65.75C131.64 64.922 133.602 63.464 134.628 62.006ZM134.988 66.956L136.95 67.748C135.582 69.602 133.584 71.294 131.73 72.428C131.388 71.978 130.776 71.348 130.236 70.934C131.91 70.034 133.944 68.486 134.988 66.956ZM124.53 68.666H126.618V64.796H124.53V68.666ZM130.434 70.646H128.706V78.566H126.618V70.646H124.512C124.422 73.58 123.936 76.496 121.812 78.71C121.488 78.278 120.732 77.558 120.246 77.234C121.974 75.398 122.424 73.058 122.532 70.646H120.462V68.666H122.55V64.796H120.786V62.798H130.2V64.796H128.706V68.666H130.434V70.646ZM135.294 71.708L137.328 72.5C135.816 75.11 133.44 77.18 130.812 78.548C130.47 77.99 129.858 77.252 129.318 76.802C131.712 75.74 134.07 73.922 135.294 71.708ZM140.862 74.822H143.724V71.294H140.862V74.822ZM143.724 69.44V66.524H140.862V69.44H143.724ZM149.43 64.526H154.506C154.506 64.526 154.506 65.246 154.488 65.498C154.254 73.544 154.056 76.406 153.318 77.36C152.814 78.026 152.31 78.224 151.59 78.35C150.906 78.44 149.826 78.422 148.764 78.386C148.728 77.792 148.44 76.892 148.062 76.298C149.214 76.406 150.276 76.406 150.744 76.406C151.104 76.406 151.302 76.334 151.536 76.1C152.058 75.524 152.292 72.824 152.49 66.47H148.638C148.17 67.55 147.612 68.54 147.054 69.314C146.766 69.044 146.154 68.63 145.668 68.306V76.712H140.862V78.026H138.918V64.652H140.952C141.186 63.752 141.402 62.6 141.474 61.754L143.814 62.078C143.508 62.978 143.184 63.878 142.878 64.652H145.668V67.568C146.712 66.056 147.576 63.878 148.098 61.772L150.132 62.24C149.952 63.014 149.7 63.77 149.43 64.526ZM151.518 72.734L149.7 73.85C149.196 72.77 148.08 71.006 147.198 69.692L148.872 68.738C149.772 69.98 150.96 71.69 151.518 72.734ZM162.054 69.242L162.324 71.186C161.694 71.384 161.028 71.582 160.362 71.762V76.064C160.362 77.09 160.2 77.666 159.606 78.008C159.048 78.386 158.22 78.458 157.032 78.458C156.96 77.882 156.708 76.946 156.438 76.352C157.104 76.37 157.734 76.37 157.968 76.352C158.184 76.352 158.256 76.28 158.256 76.046V72.356C157.518 72.554 156.852 72.734 156.204 72.914L155.736 70.844C156.456 70.682 157.32 70.484 158.256 70.25V67.19H156.024V65.156H158.256V61.772H160.362V65.156H162.144V67.19H160.362V69.71L162.054 69.242ZM165.168 69.386H169.938V66.722H165.168V69.386ZM167.976 64.814H172.062V72.356H169.938V71.42H165.096C164.916 73.904 164.304 76.73 162.612 78.62C162.288 78.17 161.388 77.36 160.902 77.09C162.828 74.93 163.026 71.78 163.026 69.386V64.814H167.058C166.788 64.112 166.284 63.23 165.798 62.528L167.742 61.826C168.336 62.582 168.948 63.608 169.218 64.31L167.976 64.814ZM177.684 75.164H186.018V73.04H177.684V75.164ZM186.018 68.9H177.684V71.024H186.018V68.9ZM186.018 64.814H177.684V66.884H186.018V64.814ZM175.524 62.726H188.286V78.368H186.018V77.252H177.684V78.368H175.524V62.726ZM204.402 64.508H201.666C201.882 64.976 202.098 65.57 202.206 66.002H203.898C204.096 65.516 204.276 64.958 204.402 64.508ZM207.84 66.002V67.748H198.138V66.002H200.298C200.208 65.606 200.046 65.156 199.902 64.778L201.27 64.508H198.642V62.816H202.026C201.918 62.546 201.828 62.276 201.72 62.024L203.628 61.61C203.808 61.952 204.006 62.402 204.15 62.816H207.444V64.508H204.834L206.364 64.778C206.166 65.228 205.95 65.624 205.77 66.002H207.84ZM195.762 74.876L197.688 73.796C197.76 74.39 197.958 75.218 198.138 75.668C194.718 77.72 194.088 78.134 193.746 78.512C193.566 77.99 193.008 77.054 192.666 76.622C193.08 76.334 193.746 75.65 193.746 74.84V72.428H191.604V70.52H193.746V68.756H192.504V67.478C192.342 67.658 192.198 67.802 192.036 67.946C191.892 67.496 191.37 66.38 191.064 65.894C192.126 64.904 193.044 63.392 193.584 61.808L195.438 62.384C195.312 62.744 195.168 63.104 195.006 63.482H197.742V65.408H194.016C193.71 65.912 193.368 66.398 193.026 66.848H197.544V68.756H195.762V70.52H197.958V72.428H195.762V74.876ZM200.748 71.726V72.518H205.212V71.726H200.748ZM200.748 69.71V70.502H205.212V69.71H200.748ZM205.662 76.784H206.22C206.49 76.784 206.544 76.532 206.58 75.2C206.976 75.488 207.732 75.74 208.218 75.866C208.056 77.756 207.606 78.296 206.454 78.296H205.284C203.754 78.296 203.412 77.81 203.412 76.298V73.832H202.35C202.116 76.226 201.342 77.72 198.282 78.602C198.084 78.116 197.58 77.342 197.184 76.982C199.614 76.406 200.154 75.488 200.334 73.832H198.876V68.396H207.192V73.832H205.392V76.28C205.392 76.712 205.428 76.784 205.662 76.784ZM211.842 79.484L211.266 78.026C212.67 77.576 213.48 76.802 213.588 75.848C213.534 75.866 213.462 75.866 213.39 75.866C212.49 75.866 211.68 75.29 211.68 74.264C211.68 73.256 212.49 72.644 213.444 72.644C214.722 72.644 215.388 73.598 215.388 75.11C215.388 77.162 214.074 78.818 211.842 79.484ZM60.1155 89.006L62.1495 89.834C60.7815 91.616 58.8375 93.182 56.9835 94.262C56.6595 93.794 56.0295 93.146 55.4715 92.75C57.1275 91.922 59.0895 90.464 60.1155 89.006ZM60.4755 93.956L62.4375 94.748C61.0695 96.602 59.0715 98.294 57.2175 99.428C56.8755 98.978 56.2635 98.348 55.7235 97.934C57.3975 97.034 59.4315 95.486 60.4755 93.956ZM50.0175 95.666H52.1055V91.796H50.0175V95.666ZM55.9215 97.646H54.1935V105.566H52.1055V97.646H49.9995C49.9095 100.58 49.4235 103.496 47.2995 105.71C46.9755 105.278 46.2195 104.558 45.7335 104.234C47.4615 102.398 47.9115 100.058 48.0195 97.646H45.9495V95.666H48.0375V91.796H46.2735V89.798H55.6875V91.796H54.1935V95.666H55.9215V97.646ZM60.7815 98.708L62.8155 99.5C61.3035 102.11 58.9275 104.18 56.2995 105.548C55.9575 104.99 55.3455 104.252 54.8055 103.802C57.1995 102.74 59.5575 100.922 60.7815 98.708ZM65.7195 104.954L63.7755 103.982C64.5135 102.776 65.1075 101.03 65.4135 99.446L67.3215 100.094C66.9615 101.696 66.4575 103.676 65.7195 104.954ZM71.1375 103.298H74.2335C75.1155 103.298 75.2595 103.028 75.3675 101.21C75.8355 101.552 76.7175 101.858 77.2935 101.984C77.0415 104.558 76.4115 105.206 74.3955 105.206H70.9215C68.4375 105.206 67.7895 104.612 67.7895 102.668V99.59H69.9135V102.65C69.9135 103.226 70.0935 103.298 71.1375 103.298ZM69.7875 96.944L71.6415 95.828C72.6675 96.368 74.0175 97.214 74.7195 97.862L72.7395 99.05C72.1275 98.438 70.8315 97.52 69.7875 96.944ZM70.3275 99.374L71.9655 98.402C72.9015 99.248 74.0715 100.49 74.5755 101.354L72.8115 102.452C72.3435 101.624 71.2455 100.292 70.3275 99.374ZM76.3215 99.86L78.2115 99.248C79.0935 100.778 80.0115 102.794 80.3535 104.126L78.3375 104.828C78.0315 103.532 77.1855 101.444 76.3215 99.86ZM80.1915 93.02H74.4675C75.7095 95.036 77.6715 96.458 80.5695 97.088C80.0835 97.538 79.4535 98.456 79.1475 99.05C75.7815 98.096 73.6755 96.188 72.3075 93.308C71.3535 95.882 69.3915 98.024 64.9275 99.266C64.7115 98.762 64.1895 97.934 63.7215 97.466C67.5195 96.512 69.2295 94.928 70.0935 93.02H63.9195V91.04H70.6695C70.8315 90.23 70.9215 89.42 70.9935 88.556H73.2075C73.1355 89.402 73.0455 90.23 72.9015 91.04H80.1915V93.02ZM94.1115 90.122L95.5155 90.968C93.1935 95.108 88.0815 97.34 82.8975 98.312C82.6995 97.772 82.2855 96.89 81.9075 96.422C83.7435 96.152 85.5795 95.702 87.2355 95.054C86.7675 94.622 86.2275 94.208 85.7595 93.866L87.3615 92.876C87.9375 93.236 88.5855 93.722 89.1615 94.208C90.2955 93.596 91.3215 92.894 92.1135 92.102H87.6315C86.5155 92.894 85.2555 93.596 83.8155 94.244C83.4915 93.758 82.8255 93.02 82.3575 92.714C85.2555 91.634 87.3975 90.104 88.6035 88.7L90.9075 89.24C90.6015 89.564 90.2775 89.888 89.9355 90.212H93.7335L94.1115 90.122ZM96.4155 96.746L97.8915 97.592C95.3535 103.064 89.4495 104.954 82.5915 105.602C82.4295 105.008 82.0695 104.072 81.7275 103.532C84.6075 103.334 87.3255 102.92 89.6115 102.092C89.1255 101.642 88.5495 101.192 88.0635 100.832L89.8275 99.806C90.3855 100.202 91.0695 100.706 91.6275 101.192C92.8335 100.544 93.8415 99.734 94.6155 98.744H90.5295C89.0895 99.77 87.3795 100.67 85.3275 101.426C85.0755 100.94 84.4635 100.148 84.0135 99.77C87.7215 98.618 90.2055 96.854 91.5735 95.108L93.8955 95.648C93.5355 96.062 93.1935 96.458 92.7975 96.854H96.0195L96.4155 96.746ZM104.18 97.34V92.372H99.6795V90.482H106.61C106.394 89.996 106.124 89.474 105.89 89.042L107.96 88.556C108.32 89.132 108.77 89.942 109.004 90.482H115.214V92.372H110.624V93.776L112.136 92.822C113.288 93.668 114.584 94.928 115.214 95.756L113.594 96.926C112.964 96.044 111.686 94.73 110.624 93.848V97.34H108.464V92.372H106.358V97.34H104.18ZM101.858 92.804L103.784 93.308C103.208 94.694 102.182 96.062 101.246 96.926C100.85 96.62 100.04 96.062 99.5895 95.81C100.526 95.054 101.408 93.92 101.858 92.804ZM110.426 99.608H104.522C105.296 100.436 106.286 101.12 107.456 101.696C108.626 101.12 109.634 100.454 110.426 99.608ZM112.316 97.664L113.684 98.6C112.748 100.274 111.38 101.57 109.706 102.596C111.488 103.172 113.504 103.55 115.736 103.748C115.304 104.18 114.8 105.062 114.53 105.62C111.794 105.296 109.418 104.702 107.384 103.784C105.224 104.684 102.758 105.26 100.202 105.62C100.022 105.08 99.5535 104.162 99.1935 103.73C101.336 103.514 103.37 103.136 105.206 102.56C103.982 101.75 102.938 100.76 102.056 99.608H100.706V97.736H111.974L112.316 97.664ZM123.985 92.102V91.382H117.523V89.852H123.985V88.754H126.145V89.852H132.787V91.382H126.145V92.102H131.653V93.578H118.747V92.102H123.985ZM129.079 102.578H121.285V103.658H129.079V102.578ZM119.179 105.638V101.138H131.293V105.638H129.079V105.098H121.285V105.638H119.179ZM127.423 97.754H122.761C122.959 98.114 123.157 98.51 123.247 98.852H126.973C127.135 98.492 127.297 98.096 127.423 97.754ZM121.555 95.522V96.44H128.737V95.522H121.555ZM129.151 98.852H133.273V100.472H116.911V98.852H121.033C120.925 98.528 120.763 98.186 120.619 97.916L121.213 97.754H119.521V94.19H130.897V97.754H129.097L129.781 97.898C129.565 98.24 129.349 98.564 129.151 98.852ZM148.705 93.2H144.421C144.043 94.622 143.503 95.864 142.837 96.818C142.477 96.494 141.613 95.864 141.145 95.612C142.333 94.046 142.927 91.472 143.197 88.772L145.231 89.024C145.141 89.798 145.015 90.536 144.871 91.274H149.353L149.677 91.202L151.117 91.598C150.739 93.236 150.199 95.036 149.677 96.206L147.985 95.666C148.237 95.018 148.489 94.1 148.705 93.2ZM141.523 101.48L139.831 102.938C139.543 102.29 139.129 101.516 138.643 100.706C137.797 102.146 136.771 103.352 135.583 104.288C135.241 103.802 134.629 103.046 134.143 102.686C135.403 101.786 136.519 100.4 137.419 98.708C136.501 97.268 135.457 95.792 134.539 94.55L136.033 93.362C136.771 94.334 137.599 95.432 138.391 96.548C138.859 95.306 139.237 93.956 139.489 92.57H134.611V90.68H140.065L140.407 90.608L141.721 91.058C141.343 93.902 140.695 96.422 139.777 98.528C140.497 99.608 141.109 100.652 141.523 101.48ZM146.869 94.064V95.45C146.869 95.81 146.869 96.188 146.833 96.584C147.517 99.896 148.831 102.56 151.459 103.766C151.009 104.162 150.379 105.008 150.091 105.584C148.111 104.504 146.869 102.758 146.023 100.526C145.339 102.326 144.025 104.144 141.703 105.602C141.379 105.134 140.659 104.414 140.191 104.09C144.457 101.552 144.835 97.826 144.835 95.396V94.064H146.869ZM161.798 98.294H165.596V96.08H161.798V98.294ZM156.2 98.294H159.638V96.08H156.254V96.404C156.254 96.98 156.236 97.628 156.2 98.294ZM159.638 91.994H156.254V94.082H159.638V91.994ZM165.596 94.082V91.994H161.798V94.082H165.596ZM167.72 89.96V103.028C167.72 104.18 167.468 104.756 166.748 105.08C166.01 105.44 164.912 105.476 163.292 105.458C163.22 104.882 162.878 103.964 162.608 103.406C163.616 103.46 164.804 103.442 165.128 103.442C165.47 103.442 165.596 103.334 165.596 103.01V100.31H161.798V105.332H159.638V100.31H155.966C155.642 102.272 154.994 104.252 153.698 105.656C153.356 105.26 152.492 104.522 152.006 104.27C153.968 102.11 154.13 98.906 154.13 96.386V89.96H167.72ZM177.104 92.768H174.17C174.8 93.74 175.466 95.018 175.7 95.9L173.99 96.566H177.104V92.768ZM182.414 92.768H179.372V96.566H182.396L180.884 96.044C181.406 95.162 182.054 93.812 182.414 92.768ZM186.284 98.618H180.65C182.198 100.49 184.502 102.218 186.752 103.154C186.266 103.586 185.582 104.432 185.258 104.954C183.098 103.874 180.992 102.074 179.372 100.022V105.548H177.104V100.058C175.466 102.074 173.36 103.838 171.2 104.918C170.858 104.396 170.192 103.55 169.688 103.118C171.956 102.182 174.278 100.472 175.844 98.618H170.192V96.566H173.594C173.396 95.702 172.82 94.442 172.244 93.47L174.098 92.768H171.038V90.716H177.104V88.754H179.372V90.716H185.6V92.768H182.612L184.682 93.38C184.052 94.55 183.368 95.756 182.792 96.566H186.284V98.618ZM200.762 89.294L203.156 89.996C202.364 91.598 201.446 93.308 200.672 94.442L198.8 93.794C199.502 92.552 200.33 90.698 200.762 89.294ZM193.058 93.506L190.988 94.37C190.646 93.236 189.764 91.49 188.882 90.23L190.826 89.456C191.78 90.698 192.662 92.354 193.058 93.506ZM197.126 88.736V94.964H202.85V105.566H200.564V104.828H188.9V102.704H200.564V100.832H189.926V98.762H200.564V97.106H189.313V94.964H194.768V88.736H197.126ZM209.173 88.826L211.261 89.474C210.793 90.734 210.199 92.012 209.533 93.218V105.548H207.373V96.548C206.995 96.998 206.617 97.448 206.257 97.844C206.059 97.322 205.447 96.098 205.069 95.558C206.707 93.938 208.273 91.382 209.173 88.826ZM222.079 93.722H216.967V95.612H221.629V97.556H216.967V99.59H221.863V101.57H216.967V105.566H214.771V93.722H214.087C213.367 95.054 212.539 96.278 211.729 97.214C211.387 96.818 210.541 96.062 210.091 95.72C211.675 94.1 213.097 91.508 213.907 88.934L215.977 89.456C215.725 90.212 215.437 90.95 215.095 91.688H222.079V93.722ZM239.401 91.778L237.673 92.894C237.223 92.048 236.143 90.788 235.207 89.87L236.809 88.88C237.763 89.744 238.879 90.932 239.401 91.778ZM227.467 88.898L229.519 89.564C229.051 90.662 228.493 91.778 227.845 92.876V105.53H225.613V96.08C225.001 96.836 224.389 97.52 223.741 98.096C223.543 97.592 222.931 96.44 222.553 95.918C224.497 94.262 226.387 91.616 227.467 88.898ZM239.671 95.36L234.451 96.08C234.955 100.076 235.909 102.74 237.349 102.92C237.763 102.956 237.979 102.056 238.123 100.058C238.519 100.526 239.473 101.066 239.869 101.282C239.419 104.756 238.447 105.584 237.439 105.53C234.397 105.242 232.975 101.858 232.327 96.368L228.781 96.854L228.475 94.784L232.111 94.298C231.985 92.678 231.877 90.914 231.823 89.024H234.001C234.037 90.788 234.109 92.48 234.235 94.01L239.365 93.344L239.671 95.36ZM245.078 101.516V96.998H243.764V101.516H245.078ZM240.866 91.49V89.546H247.31V91.49H244.772C244.52 92.714 244.214 93.956 243.8 95.126H246.914V103.388H243.764V104.702H241.946V99.122C241.712 99.464 241.46 99.806 241.208 100.112C241.136 99.536 240.758 98.168 240.47 97.556C241.586 96.062 242.324 93.866 242.792 91.49H240.866ZM253.97 100.058V101.966H247.598V100.058H253.97ZM255.122 96.512H257.084C257.084 96.512 257.066 97.106 257.03 97.376C256.67 102.092 256.274 104.036 255.662 104.702C255.23 105.188 254.798 105.368 254.204 105.44C253.736 105.494 252.926 105.512 252.044 105.476C252.008 104.9 251.81 104.09 251.504 103.568C252.224 103.64 252.926 103.64 253.268 103.64C253.556 103.64 253.736 103.604 253.916 103.406C254.294 103.01 254.654 101.606 254.924 98.33H248.156C248.408 96.746 248.678 94.226 248.804 92.3L250.802 92.408C250.694 93.704 250.55 95.198 250.388 96.512H253.07C253.268 94.892 253.466 93.074 253.592 91.598H247.922V89.672H253.916L254.258 89.6L255.788 89.726C255.662 91.742 255.392 94.262 255.122 96.512ZM270.643 92.426V91.22H262.741V92.426H270.643ZM270.643 95.18V93.974H262.741V95.18H270.643ZM272.857 89.564V96.854H260.635V89.564H272.857ZM271.741 101.984L270.103 101.228C270.805 100.31 271.705 98.834 272.173 97.718L273.973 98.51C273.307 99.77 272.443 101.084 271.741 101.984ZM263.047 101.264L261.319 102.074C260.977 101.174 260.239 99.662 259.645 98.546L261.283 97.844C261.895 98.906 262.687 100.364 263.047 101.264ZM269.743 102.722H275.161V104.774H258.331V102.722H263.623V97.412H265.657V102.722H267.727V97.412H269.743V102.722ZM290.774 89.906V92.03H278.083V89.906H290.774ZM279.002 97.682L281.27 98.276C280.478 100.382 279.128 102.56 277.85 103.91C277.4 103.532 276.428 102.902 275.87 102.632C277.166 101.444 278.372 99.536 279.002 97.682ZM292.448 96.368H285.662V103.046C285.662 104.252 285.41 104.846 284.564 105.188C283.736 105.53 282.548 105.566 280.982 105.566C280.874 104.9 280.55 103.928 280.226 103.28C281.252 103.334 282.512 103.352 282.854 103.334C283.196 103.334 283.322 103.244 283.322 102.992V96.368H276.446V94.226H292.448V96.368ZM287.498 98.456L289.514 97.61C290.702 99.266 291.998 101.444 292.502 102.974L290.27 103.964C289.874 102.488 288.65 100.166 287.498 98.456ZM302.426 99.824H305.108V97.952H302.426V99.626V99.824ZM305.954 94.334H301.49C301.778 94.784 302.102 95.342 302.264 95.702L300.806 96.188H305.162C305.468 95.576 305.756 94.892 305.954 94.334ZM297.494 91.328V92.516H307.304V91.328H297.494ZM310.328 99.824L310.31 101.624H307.268V105.566H305.108V101.624H302.246C301.922 103.154 301.04 104.594 298.79 105.602C298.52 105.134 297.836 104.342 297.368 103.982C298.88 103.334 299.636 102.524 300.014 101.624H297.62V99.824H300.356V99.59V97.952H298.034V96.188H300.122C299.942 95.774 299.654 95.234 299.438 94.802L301.004 94.334H297.494V96.188C297.494 99.086 297.224 103.154 295.46 105.674C295.064 105.296 294.11 104.684 293.588 104.432C295.208 102.164 295.334 98.78 295.334 96.188V89.528H309.608V94.334H306.188L308.24 94.856C307.952 95.306 307.628 95.756 307.322 96.188H309.806V97.952H307.268V99.824H310.328Z" fill="#FF7600"/>
<path d="M8.442 124.31L7.218 126.02C6.372 125.3 4.518 124.328 3.06 123.788L4.23 122.276C5.652 122.744 7.524 123.59 8.442 124.31ZM6.948 127.892L5.598 129.548C4.734 128.81 2.898 127.784 1.422 127.19L2.682 125.696C4.122 126.218 6.012 127.118 6.948 127.892ZM17.136 131.762H10.494C9.432 134.912 7.074 137.216 1.962 138.53C1.746 137.99 1.188 137.198 0.738 136.73C4.986 135.722 7.092 134.066 8.154 131.762H0.936V129.764H8.784C9.252 127.586 9.198 124.958 9.216 121.826H11.448C11.43 124.814 11.43 127.46 10.998 129.764H17.136V131.762ZM9.72 134.588L10.836 133.058C13.266 134.066 15.858 135.542 17.262 136.676L15.858 138.332C14.49 137.144 12.06 135.632 9.72 134.588ZM33.522 124.292L31.794 125.408C31.344 124.742 30.408 123.626 29.706 122.816L31.362 121.826C32.064 122.582 33.036 123.626 33.522 124.292ZM30.516 131.15H26.088C26.7 132.14 27.456 133.022 28.356 133.778C29.238 133.022 29.958 132.14 30.516 131.15ZM32.064 128.99L33.558 129.692C32.838 131.924 31.686 133.67 30.21 135.02C31.632 135.776 33.306 136.334 35.268 136.658C34.8 137.126 34.224 138.008 33.936 138.602C31.74 138.152 29.922 137.414 28.392 136.406C26.844 137.396 25.062 138.098 23.118 138.602C22.884 138.026 22.398 137.198 22.002 136.712C23.694 136.352 25.26 135.776 26.646 134.984C25.89 134.264 25.26 133.454 24.702 132.536C23.478 134.426 21.84 135.974 19.662 137.198C19.374 136.73 18.618 135.848 18.096 135.47C21.282 133.76 23.208 131.078 24.378 127.604H22.038C21.066 127.604 20.31 127.748 20.148 128.018C20.022 127.568 19.68 126.596 19.446 126.074C19.716 125.984 19.986 125.732 20.22 125.336C20.454 124.958 21.12 123.554 21.462 122.15L23.73 122.51C23.424 123.536 22.956 124.634 22.47 125.552H24.954C25.242 124.328 25.476 123.014 25.638 121.628L28.032 122.024C27.87 123.248 27.672 124.436 27.438 125.552H34.656V127.604H26.916C26.754 128.126 26.592 128.594 26.412 129.08H31.668L32.064 128.99ZM39.108 126.092V121.772H41.178V138.548H39.108V132.86C38.388 133.472 37.686 134.084 37.02 134.606L35.976 132.752C36.768 132.212 37.938 131.33 39.108 130.394V127.496L38.172 128.27C37.74 127.496 36.75 126.254 35.94 125.372L37.416 124.202C37.956 124.76 38.604 125.462 39.108 126.092ZM52.644 130.448V132.41H50.7V136.28C50.7 137.306 50.502 137.864 49.764 138.17C49.044 138.476 48 138.512 46.614 138.512C46.542 137.936 46.236 137.09 45.948 136.514C46.884 136.55 47.892 136.55 48.198 136.55C48.486 136.55 48.576 136.478 48.576 136.244V132.41H44.508C45.318 133.31 46.272 134.57 46.686 135.434L44.814 136.46C44.454 135.578 43.554 134.246 42.726 133.274L44.4 132.41H41.754V130.448H42.726C42.492 129.944 42.078 129.242 41.718 128.846C43.032 128.594 44.328 128.216 45.516 127.712C45.174 127.262 44.688 126.74 44.238 126.362L45.822 125.462C46.308 125.84 46.866 126.362 47.226 126.848C48.144 126.272 48.936 125.624 49.566 124.85H45.93C44.994 125.588 43.986 126.218 42.978 126.704C42.654 126.29 41.97 125.642 41.556 125.3C43.518 124.526 45.3 123.104 46.254 121.754L48.468 122.312C48.252 122.6 48.018 122.888 47.748 123.158H50.826L51.186 123.086L52.59 123.806C50.88 127.532 47.19 129.476 43.068 130.448H48.576V128.702H50.7V130.448H52.644ZM57.636 121.826L59.724 122.474C59.256 123.734 58.662 125.012 57.996 126.218V138.548H55.836V129.548C55.458 129.998 55.08 130.448 54.72 130.844C54.522 130.322 53.91 129.098 53.532 128.558C55.17 126.938 56.736 124.382 57.636 121.826ZM70.542 126.722H65.43V128.612H70.092V130.556H65.43V132.59H70.326V134.57H65.43V138.566H63.234V126.722H62.55C61.83 128.054 61.002 129.278 60.192 130.214C59.85 129.818 59.004 129.062 58.554 128.72C60.138 127.1 61.56 124.508 62.37 121.934L64.44 122.456C64.188 123.212 63.9 123.95 63.558 124.688H70.542V126.722ZM76.938 124.886L74.958 125.714C74.67 124.994 73.914 123.806 73.284 122.96L75.156 122.186C75.822 122.996 76.614 124.112 76.938 124.886ZM79.89 125.93H87.216C87.216 125.93 87.198 126.668 87.18 126.956C86.946 133.868 86.712 136.46 86.01 137.342C85.506 138.008 84.984 138.224 84.228 138.332C83.544 138.44 82.428 138.422 81.348 138.386C81.312 137.72 81.006 136.766 80.61 136.136C81.708 136.226 82.734 136.226 83.22 136.226C83.58 136.226 83.778 136.172 83.994 135.938C84.48 135.434 84.714 133.22 84.894 128.108H79.674C79.17 131.546 77.676 135.434 73.428 138.224C73.086 137.738 72.258 136.982 71.718 136.64C75.48 134.282 76.902 131.042 77.442 128.108H72.168V125.93H77.694C77.73 125.318 77.748 124.742 77.748 124.202V121.772H79.926V124.22C79.926 124.76 79.908 125.318 79.89 125.93ZM83.472 133.058L81.546 134.012C81.168 133.094 80.268 131.672 79.476 130.61L81.276 129.782C82.086 130.772 83.04 132.158 83.472 133.058ZM102.666 126.542L104.754 127.28C102.936 130.322 99.912 133.022 96.222 134.552C95.952 134.084 95.358 133.274 94.998 132.86C96.816 132.194 98.49 131.168 99.858 129.998C96.96 130.214 96.366 130.34 95.952 130.502C95.844 129.962 95.52 128.936 95.34 128.45C95.808 128.342 96.546 128.162 96.87 127.802C97.176 127.514 97.896 126.488 98.436 125.642H95.034V123.698H99.606C99.426 123.176 99.192 122.636 98.976 122.15L101.1 121.628C101.46 122.258 101.802 123.05 101.982 123.698H105.6V125.642H100.848C100.308 126.47 99.696 127.424 99.12 128.234L101.676 128.108C102.054 127.586 102.396 127.082 102.666 126.542ZM94.134 125.012L92.478 126.308C92.028 125.426 91.002 124.04 90.21 122.978L91.776 121.844C92.604 122.798 93.666 124.166 94.134 125.012ZM93.882 134.462L95.304 133.454C95.43 134.03 95.7 134.894 95.916 135.326C92.856 137.594 92.298 138.062 91.992 138.476C91.794 138.026 91.218 137.27 90.894 136.964C91.272 136.622 91.794 135.938 91.794 134.984V129.278H89.22V127.226H93.882V134.462ZM103.584 130.196L105.78 131.042C104.97 132.302 103.944 133.49 102.756 134.534C103.818 135.38 105.006 136.334 105.672 137.018L103.998 138.35C103.404 137.666 102.27 136.658 101.19 135.776C99.552 136.964 97.644 137.918 95.556 138.62C95.286 138.098 94.692 137.234 94.296 136.784C98.454 135.542 101.982 133.004 103.584 130.196ZM119.574 121.52L120.078 122.474C118.998 122.978 118.44 123.986 118.44 124.544C118.512 124.508 118.656 124.454 118.818 124.454C119.574 124.454 120.078 125.03 120.078 125.768C120.078 126.488 119.556 127.1 118.674 127.1C117.774 127.1 117.09 126.254 117.09 125.174C117.09 123.392 118.26 122.132 119.574 121.52ZM123.228 121.52L123.75 122.474C122.652 122.978 122.094 123.986 122.094 124.544C122.166 124.508 122.31 124.454 122.49 124.454C123.228 124.454 123.732 125.03 123.732 125.768C123.732 126.488 123.228 127.1 122.328 127.1C121.428 127.1 120.744 126.254 120.744 125.174C120.744 123.392 121.914 122.132 123.228 121.52ZM128.004 127.622V128.45C128.832 128.378 129.732 128.324 130.614 128.252V127.622H128.004ZM130.614 123.95H128.004V124.616H130.614V123.95ZM128.004 125.804V126.434H130.614V125.804H128.004ZM124.728 130.214L124.494 128.684C124.98 128.648 125.52 128.63 126.114 128.576V123.95H124.836V122.438H133.494V123.95H132.522V128.09L133.368 128.018V128.432C134.16 128.144 134.898 127.766 135.582 127.298C134.808 126.866 134.034 126.434 133.332 126.074L134.592 124.85C135.33 125.21 136.176 125.624 137.022 126.092C137.454 125.624 137.85 125.12 138.174 124.562H133.728V122.888H139.146L139.488 122.816L140.784 123.356C140.316 124.796 139.596 126.02 138.696 127.028C139.614 127.568 140.46 128.108 141.054 128.576L139.686 129.998C139.11 129.512 138.264 128.918 137.292 128.324C136.374 129.026 135.348 129.602 134.232 130.034C134.034 129.674 133.692 129.17 133.368 128.792V129.44L132.522 129.512V130.286H130.614V129.692C128.454 129.89 126.348 130.07 124.728 130.214ZM138.822 131.924L140.514 133.076C139.362 133.706 137.958 134.318 136.734 134.768C138.12 135.452 139.776 135.956 141.54 136.226C141.09 136.64 140.532 137.432 140.262 137.972C137.814 137.432 135.636 136.442 133.98 135.02V138.674H131.856V136.118C130.128 136.946 127.896 137.702 126.114 138.188C125.718 137.738 124.944 136.982 124.44 136.622C126.672 136.208 129.174 135.47 130.686 134.714L131.856 135.308V133.652C130.164 134.3 127.806 134.966 125.988 135.29C125.646 134.912 124.962 134.174 124.512 133.832C126.546 133.58 128.85 133.13 130.326 132.644L131.856 133.454V132.23C130.038 132.374 128.238 132.482 126.654 132.554C126.366 132.086 125.862 131.186 125.484 130.772C129.696 130.79 134.916 130.43 137.94 129.872L139.452 131.204C137.922 131.546 135.996 131.816 133.98 132.032V132.662C134.304 133.058 134.7 133.436 135.15 133.778C136.41 133.274 137.886 132.518 138.822 131.924ZM154.29 132.932H147.162V135.776H154.29V132.932ZM144.966 138.548V131.042H156.576V138.476H154.29V137.756H147.162V138.548H144.966ZM147.792 127.532H153.894C152.868 126.83 151.824 126.002 150.762 124.958C149.844 125.912 148.854 126.758 147.792 127.532ZM150.762 121.664L152.67 122.654C152.472 122.924 152.274 123.194 152.076 123.446C154.38 125.588 156.774 126.812 159.204 127.694C158.646 128.198 158.016 128.99 157.728 129.656C156.864 129.242 155.982 128.81 155.136 128.324V129.494H146.136V128.612C145.344 129.098 144.534 129.548 143.724 129.926C143.382 129.314 142.752 128.504 142.158 127.964C145.47 126.65 148.872 124.472 150.762 121.664ZM163.926 127.226L163.422 126.29C164.502 125.768 165.06 124.778 165.06 124.202C164.988 124.256 164.844 124.292 164.682 124.292C163.926 124.292 163.422 123.716 163.422 122.978C163.422 122.276 163.944 121.646 164.826 121.646C165.726 121.646 166.41 122.492 166.41 123.59C166.41 125.372 165.24 126.632 163.926 127.226ZM160.272 127.226L159.75 126.29C160.848 125.768 161.406 124.778 161.406 124.202C161.334 124.256 161.19 124.292 161.01 124.292C160.272 124.292 159.768 123.716 159.768 122.978C159.768 122.276 160.272 121.646 161.172 121.646C162.072 121.646 162.756 122.492 162.756 123.59C162.756 125.372 161.586 126.632 160.272 127.226ZM191.778 122.006L193.812 122.834C192.444 124.616 190.5 126.182 188.646 127.262C188.322 126.794 187.692 126.146 187.134 125.75C188.79 124.922 190.752 123.464 191.778 122.006ZM192.138 126.956L194.1 127.748C192.732 129.602 190.734 131.294 188.88 132.428C188.538 131.978 187.926 131.348 187.386 130.934C189.06 130.034 191.094 128.486 192.138 126.956ZM181.68 128.666H183.768V124.796H181.68V128.666ZM187.584 130.646H185.856V138.566H183.768V130.646H181.662C181.572 133.58 181.086 136.496 178.962 138.71C178.638 138.278 177.882 137.558 177.396 137.234C179.124 135.398 179.574 133.058 179.682 130.646H177.612V128.666H179.7V124.796H177.936V122.798H187.35V124.796H185.856V128.666H187.584V130.646ZM192.444 131.708L194.478 132.5C192.966 135.11 190.59 137.18 187.962 138.548C187.62 137.99 187.008 137.252 186.468 136.802C188.862 135.74 191.22 133.922 192.444 131.708ZM197.382 137.954L195.438 136.982C196.176 135.776 196.77 134.03 197.076 132.446L198.984 133.094C198.624 134.696 198.12 136.676 197.382 137.954ZM202.8 136.298H205.896C206.778 136.298 206.922 136.028 207.03 134.21C207.498 134.552 208.38 134.858 208.956 134.984C208.704 137.558 208.074 138.206 206.058 138.206H202.584C200.1 138.206 199.452 137.612 199.452 135.668V132.59H201.576V135.65C201.576 136.226 201.756 136.298 202.8 136.298ZM201.45 129.944L203.304 128.828C204.33 129.368 205.68 130.214 206.382 130.862L204.402 132.05C203.79 131.438 202.494 130.52 201.45 129.944ZM201.99 132.374L203.628 131.402C204.564 132.248 205.734 133.49 206.238 134.354L204.474 135.452C204.006 134.624 202.908 133.292 201.99 132.374ZM207.984 132.86L209.874 132.248C210.756 133.778 211.674 135.794 212.016 137.126L210 137.828C209.694 136.532 208.848 134.444 207.984 132.86ZM211.854 126.02H206.13C207.372 128.036 209.334 129.458 212.232 130.088C211.746 130.538 211.116 131.456 210.81 132.05C207.444 131.096 205.338 129.188 203.97 126.308C203.016 128.882 201.054 131.024 196.59 132.266C196.374 131.762 195.852 130.934 195.384 130.466C199.182 129.512 200.892 127.928 201.756 126.02H195.582V124.04H202.332C202.494 123.23 202.584 122.42 202.656 121.556H204.87C204.798 122.402 204.708 123.23 204.564 124.04H211.854V126.02ZM215.712 134.822H218.574V131.294H215.712V134.822ZM218.574 129.44V126.524H215.712V129.44H218.574ZM224.28 124.526H229.356C229.356 124.526 229.356 125.246 229.338 125.498C229.104 133.544 228.906 136.406 228.168 137.36C227.664 138.026 227.16 138.224 226.44 138.35C225.756 138.44 224.676 138.422 223.614 138.386C223.578 137.792 223.29 136.892 222.912 136.298C224.064 136.406 225.126 136.406 225.594 136.406C225.954 136.406 226.152 136.334 226.386 136.1C226.908 135.524 227.142 132.824 227.34 126.47H223.488C223.02 127.55 222.462 128.54 221.904 129.314C221.616 129.044 221.004 128.63 220.518 128.306V136.712H215.712V138.026H213.768V124.652H215.802C216.036 123.752 216.252 122.6 216.324 121.754L218.664 122.078C218.358 122.978 218.034 123.878 217.728 124.652H220.518V127.568C221.562 126.056 222.426 123.878 222.948 121.772L224.982 122.24C224.802 123.014 224.55 123.77 224.28 124.526ZM226.368 132.734L224.55 133.85C224.046 132.77 222.93 131.006 222.048 129.692L223.722 128.738C224.622 129.98 225.81 131.69 226.368 132.734ZM238.02 124.364L238.434 124.292L239.964 124.742C239.118 131.978 236.418 136.316 232.386 138.368C232.026 137.846 231.126 136.946 230.604 136.568C232.602 135.65 234.204 134.282 235.374 132.356C234.672 131.708 233.754 130.97 233.052 130.412L234.348 128.954C234.906 129.368 235.662 129.926 236.31 130.448C236.796 129.26 237.156 127.91 237.408 126.398H234.69C234.06 128.18 233.25 129.782 232.35 130.97C231.972 130.61 231.036 129.926 230.55 129.602C232.116 127.802 233.178 124.832 233.736 121.736L235.896 122.114C235.734 122.888 235.554 123.626 235.356 124.364H238.02ZM247.668 131.24L245.85 132.698C245.256 131.816 244.05 130.502 242.952 129.332V138.566H240.684V121.754H242.952V127.73L243.744 127.154C244.986 128.378 246.804 130.142 247.668 131.24ZM260.706 125.426V124.22H252.804V125.426H260.706ZM260.706 128.18V126.974H252.804V128.18H260.706ZM262.92 122.564V129.854H250.698V122.564H262.92ZM261.804 134.984L260.166 134.228C260.868 133.31 261.768 131.834 262.236 130.718L264.036 131.51C263.37 132.77 262.506 134.084 261.804 134.984ZM253.11 134.264L251.382 135.074C251.04 134.174 250.302 132.662 249.708 131.546L251.346 130.844C251.958 131.906 252.75 133.364 253.11 134.264ZM259.806 135.722H265.224V137.774H248.394V135.722H253.686V130.412H255.72V135.722H257.79V130.412H259.806V135.722ZM282.402 124.382L280.746 125.48C280.368 124.76 279.468 123.68 278.73 122.906L280.278 121.952C281.034 122.654 281.97 123.698 282.402 124.382ZM280.224 128.09L282.132 128.63C281.484 130.916 280.602 132.95 279.468 134.732C279.828 135.758 280.26 136.352 280.746 136.352C281.07 136.352 281.25 135.614 281.34 133.742C281.754 134.21 282.456 134.66 282.942 134.858C282.654 137.648 282.042 138.386 280.548 138.386C279.504 138.386 278.712 137.72 278.082 136.604C277.416 137.378 276.714 138.062 275.904 138.692C275.598 138.224 274.986 137.576 274.482 137.216C275.526 136.478 276.462 135.56 277.272 134.48C276.732 132.554 276.444 130.052 276.282 127.316H270.252L271.674 127.694C271.53 128.018 271.368 128.342 271.206 128.684H275.742V130.34H270.288C270 130.862 269.676 131.348 269.352 131.798H271.062V130.736H273.042V131.798H275.526L275.508 133.544H273.042V134.57L275.832 134.372L275.814 136.082C274.914 136.172 273.96 136.262 273.042 136.352V138.494H271.062V136.514C269.46 136.658 267.948 136.802 266.706 136.91L266.544 135.002C267.75 134.93 269.334 134.822 271.062 134.696V133.544H268.92C268.218 133.544 267.588 133.652 267.426 133.832C267.336 133.436 267.012 132.482 266.778 131.96C267.102 131.87 267.408 131.546 267.696 131.078C267.786 130.952 267.966 130.682 268.146 130.34H266.616V128.684H268.992C269.19 128.234 269.37 127.784 269.514 127.316H266.364V125.66H270.27V124.598H267.264V122.978H270.27V121.772H272.322V122.978H275.256V124.598H272.322V125.66H276.21C276.174 124.382 276.156 123.086 276.156 121.79H278.262C278.226 123.104 278.244 124.4 278.28 125.66H282.69V127.316H278.334C278.442 129.026 278.604 130.61 278.82 131.942C279.396 130.754 279.864 129.458 280.224 128.09ZM287.214 121.826L289.248 122.438C288.852 123.59 288.366 124.76 287.808 125.912V138.53H285.774V129.386C285.414 129.872 285.036 130.358 284.676 130.79C284.478 130.268 283.884 129.098 283.488 128.558C285 126.92 286.404 124.364 287.214 121.826ZM295.476 133.634H297.69C296.844 132.248 296.088 130.628 295.476 128.936V133.634ZM291.192 133.634H293.388V129.062C292.794 130.718 292.038 132.302 291.192 133.634ZM300.444 126.992H296.538C297.528 129.764 299.184 132.572 300.93 134.21C300.444 134.588 299.706 135.308 299.328 135.866C298.824 135.308 298.356 134.66 297.888 133.958V135.542H295.476V138.44H293.388V135.542H291.03V133.886C290.526 134.642 290.004 135.344 289.428 135.92C289.068 135.416 288.384 134.66 287.898 134.3C289.716 132.68 291.39 129.836 292.38 126.992H288.834V124.958H293.388V121.844H295.476V124.958H300.444V126.992ZM304.392 139.484L303.816 138.026C305.22 137.576 306.03 136.802 306.138 135.848C306.084 135.866 306.012 135.866 305.94 135.866C305.04 135.866 304.23 135.29 304.23 134.264C304.23 133.256 305.04 132.644 305.994 132.644C307.272 132.644 307.938 133.598 307.938 135.11C307.938 137.162 306.624 138.818 304.392 139.484Z" fill="#FF7600"/>
<path d="M70.038 163.538H73.998V160.406H70.038V163.376V163.538ZM80.19 163.538V165.608H76.266V171.584H73.998V165.608H69.894C69.57 167.912 68.544 170.18 65.502 171.746C65.16 171.224 64.44 170.36 63.936 169.964C66.276 168.794 67.212 167.228 67.572 165.608H63.864V163.538H67.788V163.322V160.406H64.458V158.354H68.256C67.932 157.508 67.302 156.338 66.708 155.474L68.742 154.664C69.408 155.6 70.2 156.86 70.524 157.706L68.94 158.354H73.71C74.268 157.256 74.844 155.798 75.132 154.646L77.67 155.33C77.166 156.356 76.59 157.454 76.068 158.354H79.65V160.406H76.266V163.538H80.19ZM89.844 159.092L88.314 159.974C88.08 159.29 87.522 158.264 86.946 157.418C86.586 158.75 86.19 160.226 85.848 161.324C86.82 162.8 87 164.114 87 165.212C87 166.382 86.784 167.156 86.244 167.57C85.992 167.786 85.668 167.894 85.308 167.966C85.02 168.002 84.678 168.002 84.318 168.002C84.3 167.498 84.156 166.724 83.886 166.202C84.156 166.238 84.336 166.238 84.516 166.238C84.696 166.22 84.84 166.184 84.948 166.076C85.146 165.914 85.218 165.5 85.218 164.942C85.218 164.042 85.038 162.854 84.12 161.522C84.444 160.352 84.804 158.696 85.056 157.436H83.85V171.584H81.996V155.528H85.65L85.938 155.438L87.27 156.212L87.108 156.788L88.134 156.266C88.8 157.13 89.556 158.318 89.844 159.092ZM95.46 161.018H93.12V161.99H95.46V161.018ZM93.12 164.42H95.46V163.448H93.12V164.42ZM89.88 161.954V168.038C90.078 168.2 90.312 168.362 90.564 168.542C91.464 169.154 92.544 169.352 94.002 169.352C95.118 169.352 96.972 169.244 98.214 169.082C98.016 169.586 97.764 170.558 97.746 171.062C96.828 171.134 95.118 171.206 93.984 171.206C92.364 171.206 91.302 170.9 90.312 170.252C89.682 169.82 89.142 169.298 88.836 169.298C88.386 169.298 87.72 170.45 87.198 171.476L85.938 169.604C86.64 168.776 87.378 168.11 88.044 167.786V163.268H86.802V161.486H89.412C89.34 161.414 89.268 161.342 89.196 161.288C90.114 160.532 90.852 159.542 91.446 158.372H89.808V156.572H92.184C92.364 155.978 92.526 155.384 92.652 154.754L94.524 155.096C94.416 155.6 94.29 156.086 94.164 156.572H97.98V158.372H93.516C93.354 158.75 93.192 159.092 93.012 159.452H97.35V166.868C97.35 167.66 97.242 168.074 96.738 168.326C96.27 168.596 95.64 168.614 94.776 168.614C94.722 168.128 94.506 167.498 94.308 167.048C94.704 167.066 95.118 167.066 95.262 167.066C95.424 167.066 95.46 167.012 95.46 166.85V165.896H93.12V168.596H91.32V161.972C91.068 162.26 90.816 162.494 90.564 162.728C90.42 162.53 90.15 162.26 89.88 161.954ZM111.558 165.86V165.194H105.276V165.86H111.558ZM105.276 169.532H111.558V168.884H105.276V169.532ZM111.558 167.678V167.048H105.276V167.678H111.558ZM115.338 163.034H105.852C105.708 163.25 105.582 163.466 105.438 163.682H113.808V171.548H111.558V171.044H105.276V171.566H103.134V166.49C102.288 167.354 101.406 168.092 100.452 168.722C100.128 168.29 99.264 167.48 98.796 167.102C100.56 166.112 102.072 164.708 103.314 163.034H99.462V161.36H104.394C104.52 161.108 104.664 160.856 104.79 160.604H101.154V159.056H105.51C105.618 158.804 105.708 158.57 105.798 158.318H100.272V156.644H103.386C103.134 156.194 102.81 155.69 102.54 155.276L104.628 154.646C105.042 155.186 105.528 155.906 105.798 156.392L105.114 156.644H109.182C109.578 156.014 109.992 155.294 110.226 154.718L112.584 155.294C112.242 155.762 111.882 156.23 111.54 156.644H114.636V158.318H108.084C107.994 158.57 107.904 158.804 107.814 159.056H113.7V160.604H107.148C107.022 160.856 106.896 161.108 106.77 161.36H115.338V163.034ZM126.756 165.788H129.942V164.186H126.756V165.788ZM121.446 165.788H124.578V164.186H121.554C121.536 164.69 121.5 165.23 121.446 165.788ZM126.918 157.544H122.508C122.202 157.994 121.842 158.426 121.482 158.858H125.802C126.198 158.444 126.576 157.994 126.918 157.544ZM121.554 160.784V162.332H124.578V160.784H121.554ZM129.942 162.332V160.784H126.756V162.332H129.942ZM132.138 158.858V169.154C132.138 170.252 131.922 170.81 131.202 171.17C130.482 171.494 129.456 171.53 128.034 171.53C127.944 170.936 127.584 170 127.314 169.442C128.196 169.496 129.24 169.496 129.528 169.496C129.834 169.478 129.942 169.388 129.942 169.118V167.678H126.756V171.134H124.578V167.678H121.104C120.726 169.172 120.078 170.63 118.89 171.71C118.548 171.278 117.684 170.45 117.216 170.18C119.196 168.344 119.358 165.68 119.358 163.538V160.928C119.088 161.162 118.8 161.378 118.512 161.576C118.17 161.072 117.45 160.298 116.946 159.974C119.25 158.462 120.798 156.446 121.644 154.682L123.984 155.096C123.858 155.33 123.75 155.564 123.624 155.798H128.25L128.592 155.69L130.05 156.698C129.6 157.382 128.988 158.156 128.322 158.858H132.138ZM143.97 158.048H139.938C139.452 158.642 138.966 159.2 138.426 159.74H142.458C142.98 159.254 143.502 158.66 143.97 158.048ZM147.3 163.862V161.72H144.024V163.862H147.3ZM138.588 161.72V163.862H141.936V161.72H138.588ZM140.856 169.298H146.94C148.668 169.298 148.938 168.902 149.172 166.67C149.712 166.976 150.594 167.318 151.188 167.426C150.81 170.378 150.072 171.242 147.048 171.242H140.892C137.544 171.242 136.518 170.594 136.518 168.02V161.468C136.158 161.756 135.798 162.008 135.456 162.26C135.258 161.756 134.682 160.694 134.304 160.208C136.428 158.93 138.606 156.86 139.812 154.628L141.756 155.366C141.612 155.618 141.45 155.888 141.306 156.14H145.446L145.86 156.032L147.228 157.058C146.616 157.922 145.842 158.894 145.014 159.74H149.406V166.508H147.3V165.896H138.588V168.02C138.588 169.118 138.894 169.298 140.856 169.298ZM168.366 158.21L166.62 159.236C166.278 158.39 165.432 157.058 164.748 156.032L166.35 155.15C167.07 156.086 167.97 157.364 168.366 158.21ZM168.654 161.864H164.19C165.054 165.23 166.674 168.182 169.158 169.712C168.654 170.108 167.952 170.918 167.61 171.512C165.594 170.054 164.208 167.786 163.218 165.068C162.588 167.354 161.346 169.622 159.132 171.548C158.772 171.17 158.214 170.72 157.674 170.36V171.53H155.55V165.716C154.722 166.454 153.894 167.192 153.138 167.804L152.058 165.968C152.922 165.338 154.254 164.294 155.55 163.178V160.622L154.11 161.504C153.768 160.586 152.886 159.092 152.166 158.012L153.84 157.04C154.416 157.814 155.082 158.84 155.55 159.668V154.736H157.674V169.946C160.446 167.444 161.364 164.492 161.652 161.864H158.124V159.74H161.778V159.362V154.79H163.902V159.362V159.74H168.654V161.864ZM171.882 170.954L169.938 169.982C170.676 168.776 171.27 167.03 171.576 165.446L173.484 166.094C173.124 167.696 172.62 169.676 171.882 170.954ZM177.3 169.298H180.396C181.278 169.298 181.422 169.028 181.53 167.21C181.998 167.552 182.88 167.858 183.456 167.984C183.204 170.558 182.574 171.206 180.558 171.206H177.084C174.6 171.206 173.952 170.612 173.952 168.668V165.59H176.076V168.65C176.076 169.226 176.256 169.298 177.3 169.298ZM175.95 162.944L177.804 161.828C178.83 162.368 180.18 163.214 180.882 163.862L178.902 165.05C178.29 164.438 176.994 163.52 175.95 162.944ZM176.49 165.374L178.128 164.402C179.064 165.248 180.234 166.49 180.738 167.354L178.974 168.452C178.506 167.624 177.408 166.292 176.49 165.374ZM182.484 165.86L184.374 165.248C185.256 166.778 186.174 168.794 186.516 170.126L184.5 170.828C184.194 169.532 183.348 167.444 182.484 165.86ZM186.354 159.02H180.63C181.872 161.036 183.834 162.458 186.732 163.088C186.246 163.538 185.616 164.456 185.31 165.05C181.944 164.096 179.838 162.188 178.47 159.308C177.516 161.882 175.554 164.024 171.09 165.266C170.874 164.762 170.352 163.934 169.884 163.466C173.682 162.512 175.392 160.928 176.256 159.02H170.082V157.04H176.832C176.994 156.23 177.084 155.42 177.156 154.556H179.37C179.298 155.402 179.208 156.23 179.064 157.04H186.354V159.02ZM204.09 157.598H196.836C196.62 158.264 196.404 158.894 196.188 159.488H203.298V169.298C203.298 170.306 203.118 170.828 202.47 171.17C201.822 171.476 200.922 171.53 199.716 171.53C199.626 170.954 199.302 170.108 199.032 169.586C199.752 169.622 200.544 169.604 200.796 169.604C201.048 169.604 201.12 169.532 201.12 169.28V161.486H198.996V171.008H196.854V161.486H194.874V171.008H192.75V161.486H190.824V171.566H188.61V159.488H193.848C194.028 158.876 194.172 158.228 194.298 157.598H187.764V155.42H204.09V157.598ZM215.94 159.938L215.904 160.028C216.246 161.756 216.75 163.358 217.434 164.762C218.082 163.394 218.532 161.792 218.802 159.938H215.94ZM221.844 159.938H221.034C220.584 162.71 219.882 165.014 218.766 166.904C219.684 168.056 220.818 169.01 222.222 169.622C221.736 170.054 221.07 170.9 220.764 171.458C219.432 170.774 218.352 169.838 217.434 168.722C216.408 169.91 215.13 170.882 213.528 171.638C213.33 171.134 212.7 170.126 212.286 169.658C213.924 168.974 215.184 168.02 216.174 166.814C215.526 165.626 215.022 164.276 214.608 162.818C214.32 163.304 214.014 163.754 213.69 164.15C213.456 163.862 212.934 163.286 212.502 162.854V163.106H208.164V167.732L212.484 166.238C212.484 166.886 212.61 167.786 212.718 168.254C207.516 170.216 206.688 170.63 206.148 171.044C206.04 170.45 205.68 169.352 205.338 168.83C205.698 168.668 206.004 168.362 206.004 167.678V161H210.378V157.976H205.824V155.87H212.502V162.044C213.78 160.226 214.662 157.508 215.148 154.754L217.254 155.132C217.074 156.086 216.858 157.04 216.588 157.958H221.844V159.938ZM228.042 163.34V158.372H223.542V156.482H230.472C230.256 155.996 229.986 155.474 229.752 155.042L231.822 154.556C232.182 155.132 232.632 155.942 232.866 156.482H239.076V158.372H234.486V159.776L235.998 158.822C237.15 159.668 238.446 160.928 239.076 161.756L237.456 162.926C236.826 162.044 235.548 160.73 234.486 159.848V163.34H232.326V158.372H230.22V163.34H228.042ZM225.72 158.804L227.646 159.308C227.07 160.694 226.044 162.062 225.108 162.926C224.712 162.62 223.902 162.062 223.452 161.81C224.388 161.054 225.27 159.92 225.72 158.804ZM234.288 165.608H228.384C229.158 166.436 230.148 167.12 231.318 167.696C232.488 167.12 233.496 166.454 234.288 165.608ZM236.178 163.664L237.546 164.6C236.61 166.274 235.242 167.57 233.568 168.596C235.35 169.172 237.366 169.55 239.598 169.748C239.166 170.18 238.662 171.062 238.392 171.62C235.656 171.296 233.28 170.702 231.246 169.784C229.086 170.684 226.62 171.26 224.064 171.62C223.884 171.08 223.416 170.162 223.056 169.73C225.198 169.514 227.232 169.136 229.068 168.56C227.844 167.75 226.8 166.76 225.918 165.608H224.568V163.736H235.836L236.178 163.664Z" fill="#FF7600"/>
<path d="M267.311 173.114V171.674H267.725C268.643 171.674 268.895 171.314 268.895 170.126C268.895 168.992 268.805 167.984 268.805 166.706C268.805 165.23 269.255 164.6 270.245 164.366V164.276C269.255 164.042 268.805 163.43 268.805 161.936C268.805 160.658 268.895 159.65 268.895 158.516C268.895 157.328 268.643 156.95 267.725 156.95H267.311V155.546H268.481C270.245 155.546 271.037 156.212 271.037 158.408C271.037 159.848 270.839 160.694 270.839 162.008C270.839 162.746 271.253 163.52 272.585 163.538V165.104C271.253 165.14 270.839 165.896 270.839 166.652C270.839 167.966 271.037 168.794 271.037 170.252C271.037 172.43 270.245 173.114 268.481 173.114H267.311Z" fill="white"/>
</svg>
