<svg preserveAspectRatio="none" width="100%" height="100%" overflow="visible" style="display: block;" viewBox="0 0 551 462" fill="none" xmlns="http://www.w3.org/2000/svg">
<path id="Vector" d="M546.17 358.948C535.988 370.644 511.037 391.109 454.179 405.718C454.179 405.718 396.611 450.217 323.852 459C273.001 465.75 227.141 459 227.141 459C154.383 450.212 96.8142 405.718 96.8142 405.718C39.9521 391.109 15.0008 370.644 4.8235 358.948C-0.331852 353.033 -1.49836 344.61 2.02093 337.59C18.6485 304.244 88.0209 249.174 88.0209 249.174C88.0209 249.174 172.765 47.0995 353.47 3.18307C398.257 -6.40498 407.05 7.16739 403.847 23.9391C400.659 40.7107 392.755 56.9739 402.735 93.1043C430.528 193.725 462.983 249.174 462.983 249.174C462.983 249.174 532.355 304.244 548.983 337.59C552.497 344.61 551.33 353.033 546.18 358.948" fill="var(--fill-0, white)"/>
</svg>
