<svg preserveAspectRatio="none" width="100%" height="100%" overflow="visible" style="display: block;" viewBox="0 0 487 408" fill="none" xmlns="http://www.w3.org/2000/svg">
<path id="Vector" d="M482.731 316.993C473.732 327.322 451.678 345.395 401.425 358.296C401.425 358.296 350.543 397.594 286.236 405.351C241.291 411.311 200.758 405.351 200.758 405.351C136.451 397.59 85.569 358.296 85.569 358.296C35.3115 345.395 13.2584 327.322 4.26324 316.993C-0.293306 311.77 -1.32432 304.331 1.78619 298.131C16.4825 268.683 77.7971 220.05 77.7971 220.05C77.7971 220.05 152.698 41.5943 312.413 2.81102C351.998 -5.65635 359.77 6.32964 356.939 21.141C354.121 35.9523 347.136 50.3146 355.956 82.222C380.521 171.081 409.206 220.05 409.206 220.05C409.206 220.05 470.521 268.683 485.217 298.131C488.323 304.331 487.292 311.77 482.74 316.993" fill="var(--fill-0, white)"/>
</svg>
