<svg width="135" height="71" viewBox="0 0 135 71" fill="none" xmlns="http://www.w3.org/2000/svg">
<path d="M5.9039 14.2199H12.6539V10.8179H5.9039V14.2199ZM14.8679 8.87395V16.9379H12.6539V16.1459H5.9039V16.9379H3.76189V11.3579C2.87989 11.6639 1.99789 11.8979 1.09789 12.1139C0.899895 11.5379 0.395895 10.6199 -0.000105444 10.1339C2.05189 9.73795 4.10389 9.07195 5.9399 8.17195C5.2379 7.54195 4.40989 6.85795 3.72589 6.33595L5.38189 5.11195C6.17389 5.66995 7.1459 6.38995 7.9379 7.09195C9.3959 6.17395 10.6559 5.07595 11.6099 3.83395H5.84989C4.71589 4.80595 3.38389 5.72395 1.81789 6.51595C1.49389 5.99395 0.827895 5.18395 0.341895 4.80595C3.27589 3.52795 5.25589 1.72795 6.35389 0.0359472L8.74789 0.539947C8.42389 0.989948 8.0999 1.43995 7.73989 1.88995H12.9959L13.3559 1.78195L14.8319 2.66395C13.5899 5.25595 11.5379 7.30795 9.0539 8.87395H14.8679ZM20.5079 3.85195V5.95795H18.4019V1.83595H25.1339C24.9179 1.42195 24.6839 0.989948 24.4319 0.647948L26.5739 -5.23329e-05C27.0059 0.539947 27.4379 1.25995 27.6719 1.83595H33.8639V5.95795H31.6499V3.85195H20.5079ZM33.9899 9.73795V11.7719H27.2759V14.4899C27.2759 15.6419 27.0059 16.2179 26.1239 16.5419C25.2599 16.8839 24.1079 16.9019 22.6319 16.9019C22.4879 16.2539 22.0739 15.2999 21.6959 14.7239C22.8119 14.7599 24.1619 14.7599 24.5219 14.7599C24.8819 14.7599 24.9899 14.6879 24.9899 14.4359V11.7719H18.3119V9.73795H24.9899V8.78395C25.7459 8.40595 26.5019 7.86595 27.1859 7.30795H21.3899V5.30995H29.3459L29.8319 5.20195L31.2539 6.31795C30.2099 7.41595 28.7879 8.56795 27.2759 9.43195V9.73795H33.9899ZM1.07989 42.3719V29.0519H4.03189L6.29989 35.2799C6.58789 36.1079 6.83989 36.9899 7.1099 37.8539H7.19989C7.4879 36.9899 7.72189 36.1079 8.00989 35.2799L10.2239 29.0519H13.1759V42.3719H10.7459V36.8099C10.7459 35.5499 10.9439 33.6959 11.0699 32.4359H10.9979L9.91789 35.5679L7.86589 41.1659H6.33589L4.26589 35.5679L3.20389 32.4359H3.13189C3.25789 33.6959 3.47389 35.5499 3.47389 36.8099V42.3719H1.07989ZM16.1432 42.3719V29.0519H20.5532C23.2892 29.0519 25.3772 29.8439 25.3772 32.3279C25.3772 33.5519 24.6932 34.8119 23.5592 35.2079V35.2979C24.9992 35.6399 26.0612 36.6479 26.0612 38.4479C26.0612 41.1299 23.8292 42.3719 20.8952 42.3719H16.1432ZM18.8072 34.4699H20.3552C22.0472 34.4699 22.7852 33.7859 22.7852 32.7239C22.7852 31.5539 21.9932 31.0859 20.3912 31.0859H18.8072V34.4699ZM18.8072 40.3199H20.6612C22.4792 40.3199 23.4692 39.6719 23.4692 38.2859C23.4692 36.9899 22.4972 36.4499 20.6612 36.4499H18.8072V40.3199ZM30.1786 42.3719V31.2659H26.4346V29.0519H36.6226V31.2659H32.8426V42.3719H30.1786ZM38.4826 42.3719V29.0519H41.1466V42.3719H38.4826ZM50.082 27.1439H52.548C52.53 27.8999 52.494 28.8719 52.422 29.9519C52.674 32.3819 53.772 39.1679 60.054 41.9399C59.388 42.4619 58.776 43.1819 58.488 43.7939C54.492 41.8859 52.494 38.3759 51.45 35.2799C50.46 38.4479 48.57 41.7059 44.826 43.9019C44.448 43.3259 43.764 42.6419 43.044 42.1559C50.352 38.2499 50.01 30.1859 50.082 27.1439ZM67.35 35.0459C68.484 34.7039 69.528 34.2719 70.482 33.7499C69.924 33.2279 69.42 32.6879 68.97 32.0939C68.646 32.5079 68.286 32.9039 67.926 33.2279C67.692 32.8319 67.116 31.9499 66.756 31.5359V32.4539H65.172C65.622 32.8859 67.044 34.5959 67.35 35.0459ZM74.064 30.5999H70.194C70.68 31.3739 71.328 32.0579 72.102 32.6699C72.876 32.0579 73.542 31.3919 74.064 30.5999ZM74.118 38.8979H69.708V41.0219H74.118V38.8979ZM75.666 28.6559L77.016 29.4479C76.278 31.1759 75.198 32.6159 73.866 33.7859C75.036 34.3799 76.35 34.8119 77.772 35.0819C77.484 35.6039 77.178 36.5219 77.088 37.1159C75.252 36.6479 73.614 35.9639 72.192 35.0459C70.914 35.9099 69.474 36.5579 67.98 37.0439H76.26V43.7939H74.118V42.8939H69.708V43.8479H67.674V37.1339C67.494 37.1879 67.314 37.2419 67.134 37.2959C67.008 36.9899 66.774 36.5039 66.504 36.1079L66.09 36.6299C65.874 36.1979 65.514 35.5139 65.136 34.8659V43.9199H63.102V36.7739C62.652 38.2679 62.112 39.6539 61.518 40.5719C61.338 39.9599 60.87 38.9699 60.528 38.4119C61.518 37.0439 62.4 34.5599 62.85 32.4539H60.924V30.4739H63.102V27.1259H65.136V30.4739H66.756V31.4639C68.016 30.3839 69.132 28.7099 69.762 26.9639L71.616 27.4859C71.454 27.8819 71.274 28.3139 71.076 28.7279H75.288L75.666 28.6559ZM4.39189 58.8419V59.8139H12.3479V58.8419H4.39189ZM4.39189 56.3759V57.3299H12.3479V56.3759H4.39189ZM9.61189 68.6339H16.3979V70.4879H0.539895V68.6339H7.3979V67.4099H2.75389V65.7359H7.3979V64.6379H3.58189C3.05989 65.3219 2.48389 65.9519 1.92589 66.4379C1.51189 66.0599 0.647895 65.3939 0.125895 65.1239C1.33189 64.2239 2.46589 62.8559 3.11389 61.4519H2.26789V54.7559H14.5799V61.4519H3.81589L5.30989 61.8839C5.14789 62.2079 4.9859 62.5319 4.78789 62.8739H7.3979V61.7759H9.61189V62.8739H15.2639V64.6379H9.61189V65.7359H14.4359V67.4099H9.61189V68.6339ZM28.7339 66.9059V68.6879H34.4579V70.5239H20.9579V68.6879H26.6639V66.9059H22.0919V65.0519H26.6639V62.8739L25.6019 64.1699C25.2779 63.7379 24.7019 63.1079 24.0899 62.4959C23.6759 63.2879 23.1539 63.9539 22.5239 64.4759C22.2179 64.1699 21.4979 63.6479 21.0299 63.3419C20.8679 65.8979 20.4179 68.7779 19.3199 70.8119C18.9419 70.4519 18.0059 69.8219 17.5019 69.6059C18.9059 67.0499 19.0139 63.2879 19.0139 60.6419V55.7639H26.0879C25.8899 55.3319 25.6559 54.9179 25.4399 54.5579L27.4919 53.9099C27.8879 54.4859 28.2659 55.1519 28.5539 55.7639H34.3319V57.7439H21.1199V60.6599C21.1199 61.4339 21.1019 62.2979 21.0479 63.2159C22.3799 62.1899 23.0639 60.5159 23.3339 58.5719L25.2599 58.7699C25.1519 59.4899 25.0079 60.1559 24.8099 60.7679C25.4939 61.3619 26.2139 62.0639 26.6639 62.5679V58.3379H28.7339V62.7479C29.7959 61.7399 30.4259 60.2819 30.6959 58.5719L32.6039 58.8059C32.4779 59.5799 32.2799 60.3179 32.0279 60.9659C32.9459 61.7039 33.9359 62.5139 34.4939 63.0899L33.2879 64.4759C32.8559 63.9899 32.0639 63.2519 31.2899 62.5679C30.8579 63.2699 30.3359 63.8819 29.7419 64.3679C29.5439 64.1519 29.1299 63.7919 28.7339 63.5039V65.0519H33.4679V66.9059H28.7339Z" fill="white"/>
<path d="M37.7579 8.78395C36.8219 8.78395 36.1199 8.04595 36.1199 7.07395C36.1199 6.08395 36.8219 5.34595 37.7579 5.34595C38.7119 5.34595 39.4139 6.08395 39.4139 7.07395C39.4139 8.04595 38.7119 8.78395 37.7579 8.78395ZM37.7579 15.6239C36.8219 15.6239 36.1199 14.8679 36.1199 13.8959C36.1199 12.9239 36.8219 12.1679 37.7579 12.1679C38.7119 12.1679 39.4139 12.9239 39.4139 13.8959C39.4139 14.8679 38.7119 15.6239 37.7579 15.6239ZM48.2794 0.377947H50.6014V14.2379C50.6014 15.5519 50.3134 16.1639 49.5034 16.5059C48.6754 16.8659 47.4514 16.9199 45.7054 16.9199C45.5974 16.2719 45.2014 15.2639 44.8774 14.6519C46.0474 14.7059 47.3434 14.7059 47.7394 14.7059C48.1354 14.6879 48.2794 14.5799 48.2794 14.2199V0.377947ZM52.5634 5.07595L54.6334 4.26595C56.0914 6.78595 57.5494 10.0079 57.9994 12.2399L55.6954 13.1939C55.3354 11.0339 53.9674 7.66795 52.5634 5.07595ZM43.5814 4.48195L46.0114 4.89595C45.3814 7.63195 44.3914 11.0159 42.8434 13.0319C42.3394 12.6539 41.3854 12.1319 40.8094 11.8619C42.2854 10.0259 43.1854 6.85795 43.5814 4.48195ZM62.8834 8.51395V9.57595H71.3434V8.51395H62.8834ZM62.8834 5.84995V6.91195H71.3434V5.84995H62.8834ZM75.2494 12.3299V14.2739H68.1574V16.9379H65.9254V14.2739H58.9774V12.3299H65.9254V11.2679H60.7414V4.15795H65.7634V0.125947H67.9954V1.34995H74.4574V3.14995H67.9954V4.15795H73.5754V11.2679H68.1574V12.3299H75.2494ZM80.0074 19.0079C78.3154 16.2179 77.3254 13.3019 77.3254 9.68395C77.3254 6.10195 78.3154 3.14995 80.0074 0.377947L81.6634 1.07995C80.1514 3.70795 79.4674 6.74995 79.4674 9.68395C79.4674 12.6539 80.1514 15.6779 81.6634 18.3059L80.0074 19.0079ZM86.6001 15.6239C85.2501 15.6239 83.7561 15.0299 82.7661 14.2019L83.9721 12.5459C84.8721 13.2479 85.7361 13.6439 86.6721 13.6439C87.6801 13.6439 88.1301 13.2119 88.1301 12.5819C88.1301 11.8259 87.0861 11.4839 86.0241 11.0699C84.7461 10.5839 83.2701 9.80995 83.2701 8.13595C83.2701 6.31795 84.7461 5.03995 87.0141 5.03995C88.4901 5.03995 89.6061 5.65195 90.4521 6.28195L89.2641 7.88395C88.5441 7.37995 87.8421 7.01995 87.0861 7.01995C86.1861 7.01995 85.7541 7.41595 85.7541 7.99195C85.7541 8.72995 86.7441 8.99995 87.8061 9.39595C89.1381 9.89995 90.6141 10.5659 90.6141 12.4379C90.6141 14.2019 89.2281 15.6239 86.6001 15.6239ZM92.3323 15.3719V5.29195H94.9603V15.3719H92.3323ZM93.6643 3.67195C92.7463 3.67195 92.0803 3.05995 92.0803 2.23195C92.0803 1.36795 92.7463 0.791947 93.6643 0.791947C94.5643 0.791947 95.2303 1.36795 95.2303 2.23195C95.2303 3.05995 94.5643 3.67195 93.6643 3.67195ZM97.499 15.3719V5.29195H99.659L99.839 6.64195H99.911C100.757 5.75995 101.693 5.03995 103.007 5.03995C104.447 5.03995 105.293 5.68795 105.779 6.80395C106.697 5.83195 107.669 5.03995 108.983 5.03995C111.125 5.03995 112.115 6.55195 112.115 9.08995V15.3719H109.469V9.41395C109.469 7.86595 109.019 7.30795 108.065 7.30795C107.489 7.30795 106.841 7.68595 106.121 8.44195V15.3719H103.475V9.41395C103.475 7.86595 103.025 7.30795 102.071 7.30795C101.495 7.30795 100.847 7.68595 100.127 8.44195V15.3719H97.499ZM113.847 19.4939C113.073 19.4939 112.551 19.3679 112.155 19.2239L112.623 17.2619C112.893 17.3519 113.163 17.4059 113.451 17.4059C114.315 17.4059 114.567 16.8299 114.567 15.6959V5.29195H117.213V15.6239C117.213 17.7839 116.385 19.4939 113.847 19.4939ZM115.899 3.67195C114.981 3.67195 114.315 3.05995 114.315 2.23195C114.315 1.36795 114.981 0.791947 115.899 0.791947C116.799 0.791947 117.483 1.36795 117.483 2.23195C117.483 3.05995 116.799 3.67195 115.899 3.67195ZM123.945 15.6239C121.425 15.6239 119.103 13.6799 119.103 10.3499C119.103 6.98395 121.425 5.03995 123.945 5.03995C126.465 5.03995 128.787 6.98395 128.787 10.3499C128.787 13.6799 126.465 15.6239 123.945 15.6239ZM123.945 13.4639C125.313 13.4639 126.087 12.2399 126.087 10.3499C126.087 8.44195 125.313 7.19995 123.945 7.19995C122.577 7.19995 121.803 8.44195 121.803 10.3499C121.803 12.2399 122.577 13.4639 123.945 13.4639ZM131.853 19.0079L130.215 18.3059C131.727 15.6779 132.411 12.6539 132.411 9.68395C132.411 6.74995 131.727 3.70795 130.215 1.07995L131.853 0.377947C133.563 3.14995 134.553 6.10195 134.553 9.68395C134.553 13.3019 133.563 16.2179 131.853 19.0079ZM80.802 35.7839C79.866 35.7839 79.164 35.0459 79.164 34.0739C79.164 33.0839 79.866 32.3459 80.802 32.3459C81.756 32.3459 82.458 33.0839 82.458 34.0739C82.458 35.0459 81.756 35.7839 80.802 35.7839ZM80.802 42.6239C79.866 42.6239 79.164 41.8679 79.164 40.8959C79.164 39.9239 79.866 39.1679 80.802 39.1679C81.756 39.1679 82.458 39.9239 82.458 40.8959C82.458 41.8679 81.756 42.6239 80.802 42.6239ZM85.0776 42.3719V29.0519H87.7416V42.3719H85.0776ZM94.697 42.6239C92.915 42.6239 91.133 41.9219 89.837 40.6799L91.367 38.8439C92.321 39.7259 93.581 40.3199 94.751 40.3199C96.137 40.3199 96.875 39.7259 96.875 38.7899C96.875 37.7999 96.065 37.4939 94.877 36.9899L93.095 36.2339C91.745 35.6759 90.395 34.5959 90.395 32.6519C90.395 30.4739 92.303 28.7999 95.003 28.7999C96.551 28.7999 98.099 29.4119 99.179 30.5099L97.829 32.1839C96.983 31.4819 96.101 31.0859 95.003 31.0859C93.833 31.0859 93.077 31.6079 93.077 32.4899C93.077 33.4439 94.031 33.7859 95.165 34.2359L96.911 34.9739C98.531 35.6399 99.593 36.6659 99.593 38.5919C99.593 40.7699 97.775 42.6239 94.697 42.6239ZM103.876 42.3719V31.2659H100.132V29.0519H110.32V31.2659H106.54V42.3719H103.876ZM112.18 42.3719V29.0519H116.554C119.506 29.0519 121.774 30.0779 121.774 33.2279C121.774 36.2699 119.488 37.6379 116.626 37.6379H114.844V42.3719H112.18ZM114.844 35.5319H116.446C118.282 35.5319 119.164 34.7579 119.164 33.2279C119.164 31.6799 118.192 31.1579 116.356 31.1579H114.844V35.5319ZM37.7579 62.7839C36.8219 62.7839 36.1199 62.0459 36.1199 61.0739C36.1199 60.0839 36.8219 59.3459 37.7579 59.3459C38.7119 59.3459 39.4139 60.0839 39.4139 61.0739C39.4139 62.0459 38.7119 62.7839 37.7579 62.7839ZM37.7579 69.6239C36.8219 69.6239 36.1199 68.8679 36.1199 67.8959C36.1199 66.9239 36.8219 66.1679 37.7579 66.1679C38.7119 66.1679 39.4139 66.9239 39.4139 67.8959C39.4139 68.8679 38.7119 69.6239 37.7579 69.6239ZM49.0894 66.9779L47.2894 68.4899C46.9834 67.8239 46.5514 67.0859 46.0474 66.2759C45.0754 68.1839 43.8334 69.7319 42.3574 70.9199C42.0154 70.3979 41.3494 69.5879 40.8274 69.1919C42.3574 68.0939 43.6354 66.3479 44.6074 64.1699C43.5814 62.7659 42.3934 61.3259 41.3314 60.1199L42.9154 58.8419C43.7254 59.7599 44.6254 60.7679 45.4894 61.8119C45.8854 60.4619 46.2094 59.0039 46.4254 57.4919H41.4574V55.4579H46.9654L47.3434 55.3679L48.7294 55.7639C48.4414 58.8599 47.9014 61.5599 47.0914 63.8279C47.9194 64.9799 48.6394 66.0419 49.0894 66.9779ZM54.8494 57.4919H51.3394C51.6814 59.7239 52.2034 61.7939 52.9774 63.5939C53.8414 61.8659 54.4714 59.8319 54.8494 57.4919ZM55.7674 55.3679L57.1714 55.7459C56.7574 60.0479 55.7674 63.3599 54.2374 65.8979C55.1374 67.2659 56.2894 68.3639 57.7114 69.1019C57.2074 69.5339 56.5414 70.3799 56.1994 70.9559C54.8494 70.1459 53.7334 69.0839 52.8514 67.8239C51.7534 69.0839 50.4574 70.0919 48.9814 70.8839C48.6754 70.3259 48.0454 69.4439 47.5594 69.0299C49.1614 68.2919 50.5114 67.1939 51.6274 65.7359C50.5294 63.4859 49.8274 60.7319 49.3234 57.6179L50.1514 57.4919H49.2514V55.4579H55.4074L55.7674 55.3679ZM75.2854 61.9019V64.0439H68.3014V68.3819C68.3014 69.5879 68.0314 70.1819 67.1854 70.5239C66.3034 70.8659 65.0794 70.9199 63.4234 70.9019C63.2974 70.2719 62.8654 69.2999 62.5054 68.6879C63.7654 68.7599 65.1694 68.7599 65.5474 68.7419C65.9434 68.7239 66.0694 68.6339 66.0694 68.3279V64.0439H58.9414V61.9019H66.0694V59.3999C67.2034 58.8599 68.4994 58.0499 69.5434 57.2759H60.7234V55.1519H71.9374L72.4414 55.0439L74.0614 56.2859C72.5314 57.7979 70.3714 59.4179 68.3014 60.5339V61.9019H75.2854ZM87.3874 66.9059V68.6879H93.1114V70.5239H79.6114V68.6879H85.3174V66.9059H80.7454V65.0519H85.3174V62.8739L84.2554 64.1699C83.9314 63.7379 83.3554 63.1079 82.7434 62.4959C82.3294 63.2879 81.8074 63.9539 81.1774 64.4759C80.8714 64.1699 80.1514 63.6479 79.6834 63.3419C79.5214 65.8979 79.0714 68.7779 77.9734 70.8119C77.5954 70.4519 76.6594 69.8219 76.1554 69.6059C77.5594 67.0499 77.6674 63.2879 77.6674 60.6419V55.7639H84.7414C84.5434 55.3319 84.3094 54.9179 84.0934 54.5579L86.1454 53.9099C86.5414 54.4859 86.9194 55.1519 87.2074 55.7639H92.9854V57.7439H79.7734V60.6599C79.7734 61.4339 79.7554 62.2979 79.7014 63.2159C81.0334 62.1899 81.7174 60.5159 81.9874 58.5719L83.9134 58.7699C83.8054 59.4899 83.6614 60.1559 83.4634 60.7679C84.1474 61.3619 84.8674 62.0639 85.3174 62.5679V58.3379H87.3874V62.7479C88.4494 61.7399 89.0794 60.2819 89.3494 58.5719L91.2574 58.8059C91.1314 59.5799 90.9334 60.3179 90.6814 60.9659C91.5994 61.7039 92.5894 62.5139 93.1474 63.0899L91.9414 64.4759C91.5094 63.9899 90.7174 63.2519 89.9434 62.5679C89.5114 63.2699 88.9894 63.8819 88.3954 64.3679C88.1974 64.1519 87.7834 63.7919 87.3874 63.5039V65.0519H92.1214V66.9059H87.3874Z" fill="#FF7600"/>
</svg>
