<svg width="350" height="260" viewBox="0 0 350 260" fill="none" xmlns="http://www.w3.org/2000/svg">
<path d="M18.648 26.932H12.6C13.552 27.716 14.644 28.36 15.876 28.92C16.94 28.36 17.892 27.716 18.648 26.932ZM4.676 19.988H8.848C8.96 19.428 9.072 18.868 9.156 18.252L12.32 18.616C12.236 19.064 12.152 19.54 12.068 19.988H23.268V18H4.676V19.988ZM12.264 12.988L14.196 12.26C12.32 12.372 10.36 12.456 8.456 12.512C8.848 13.408 9.268 14.416 9.492 15.228H12.992C12.74 14.472 12.488 13.66 12.264 12.988ZM15.904 15.228H18.284C18.872 14.192 19.544 12.876 19.936 11.84C18.34 12.008 16.604 12.12 14.84 12.232C15.232 13.184 15.652 14.36 15.904 15.228ZM21.476 24.048L23.296 25.308C22.26 27.268 20.86 28.836 19.096 30.124C21.28 30.768 23.716 31.16 26.292 31.384C25.676 32.084 24.976 33.428 24.584 34.24C21.392 33.876 18.48 33.148 15.904 32C13.692 33.092 11.2 33.82 8.624 34.268C8.372 33.512 7.616 32.14 7.112 31.524C9.1 31.244 11.004 30.88 12.74 30.292C11.536 29.48 10.444 28.528 9.52 27.492C7.98 30.376 5.908 32.616 3.052 34.268C2.716 33.652 1.596 32.336 0.98 31.748C4.62 29.9 6.86 26.876 8.176 22.732H4.312V20.408H1.932V15.228H6.636C6.412 14.556 6.16 13.884 5.908 13.296L7.588 12.54C6.188 12.596 4.76 12.624 3.416 12.624C3.36 11.84 3.024 10.776 2.772 10.076C9.856 9.936 18.2 9.46 23.576 8.676L24.5 11.336C23.212 11.504 21.784 11.672 20.272 11.812L22.904 12.568C22.344 13.492 21.756 14.416 21.252 15.228H26.124V20.408H23.8V22.732H11.396C11.256 23.208 11.116 23.684 10.948 24.132H20.972L21.476 24.048ZM36.744 16.88H33.86C33.496 18.784 33.048 20.66 32.6 22.312C33.356 22.9 34.112 23.516 34.868 24.104C35.764 22.004 36.38 19.596 36.744 16.88ZM38.144 13.744L40.188 14.192C39.768 19.12 38.872 23.096 37.444 26.26C38.732 27.408 39.796 28.5 40.524 29.452L38.34 32.308C37.724 31.412 36.8 30.376 35.764 29.34C34.28 31.468 32.46 33.12 30.276 34.408C29.8 33.596 28.904 32.392 28.204 31.776C30.276 30.74 31.984 29.172 33.356 27.072C31.9 25.812 30.388 24.552 28.988 23.516C29.576 21.696 30.164 19.372 30.668 16.88H28.68V13.828H31.256C31.592 11.924 31.844 10.048 32.012 8.34L35.316 8.592C35.092 10.244 34.812 12.008 34.476 13.828H37.584L38.144 13.744ZM54.776 19.792V22.956H49.176V30.824C49.176 32.532 48.812 33.372 47.636 33.904C46.516 34.38 44.92 34.464 42.736 34.436C42.568 33.512 42.064 32.14 41.588 31.272C43.016 31.3 44.64 31.3 45.088 31.3C45.564 31.3 45.704 31.188 45.704 30.768V22.956H39.796V19.792H45.704V17.132C46.908 16.068 48.14 14.5 49.12 13.016H40.916V9.992H51.304L52.088 9.824L54.328 11.448C53.012 13.492 51.164 15.844 49.176 17.692V19.792H54.776ZM59.936 32.392C58.48 32.392 57.388 31.216 57.388 29.704C57.388 28.192 58.48 27.016 59.936 27.016C61.42 27.016 62.512 28.192 62.512 29.704C62.512 31.216 61.42 32.392 59.936 32.392ZM75.2095 32.392C69.9735 32.392 65.7175 28.64 65.7175 21.724C65.7175 14.892 70.1135 10.888 75.3495 10.888C77.9815 10.888 80.0815 12.148 81.4255 13.548L79.2415 16.18C78.2055 15.172 77.0015 14.444 75.4335 14.444C72.2975 14.444 69.9455 17.132 69.9455 21.584C69.9455 26.092 72.0735 28.808 75.3495 28.808C77.1135 28.808 78.5135 27.968 79.6335 26.764L81.8175 29.34C80.1095 31.328 77.8975 32.392 75.2095 32.392ZM84.8558 32V11.28H88.9998V19.428H96.8398V11.28H100.956V32H96.8398V23.04H88.9998V32H84.8558ZM109.639 23.46H114.567L113.951 21.192C113.307 19.036 112.747 16.656 112.131 14.416H112.019C111.487 16.684 110.871 19.036 110.255 21.192L109.639 23.46ZM116.919 32L115.463 26.68H108.743L107.287 32H103.087L109.723 11.28H114.595L121.259 32H116.919ZM127.529 14.556V20.884H130.217C132.877 20.884 134.333 19.764 134.333 17.552C134.333 15.312 132.877 14.556 130.217 14.556H127.529ZM139.289 32H134.669L130.413 24.16H127.529V32H123.385V11.28H130.609C134.949 11.28 138.393 12.792 138.393 17.552C138.393 20.66 136.825 22.592 134.445 23.516L139.289 32ZM145.844 23.46H150.772L150.156 21.192C149.512 19.036 148.952 16.656 148.336 14.416H148.224C147.692 16.684 147.076 19.036 146.46 21.192L145.844 23.46ZM153.124 32L151.668 26.68H144.948L143.492 32H139.292L145.928 11.28H150.8L157.464 32H153.124ZM167.717 32.392C162.481 32.392 158.225 28.64 158.225 21.724C158.225 14.892 162.621 10.888 167.857 10.888C170.489 10.888 172.589 12.148 173.933 13.548L171.749 16.18C170.713 15.172 169.509 14.444 167.941 14.444C164.805 14.444 162.453 17.132 162.453 21.584C162.453 26.092 164.581 28.808 167.857 28.808C169.621 28.808 171.021 27.968 172.141 26.764L174.325 29.34C172.617 31.328 170.405 32.392 167.717 32.392ZM181.042 32V14.724H175.218V11.28H191.066V14.724H185.186V32H181.042ZM194.126 32V11.28H206.838V14.724H198.27V19.512H205.55V22.984H198.27V28.528H207.146V32H194.126ZM215.197 14.556V20.884H217.885C220.545 20.884 222.001 19.764 222.001 17.552C222.001 15.312 220.545 14.556 217.885 14.556H215.197ZM226.957 32H222.337L218.081 24.16H215.197V32H211.053V11.28H218.277C222.617 11.28 226.061 12.792 226.061 17.552C226.061 20.66 224.493 22.592 222.113 23.516L226.957 32Z" fill="white"/>
<path d="M0.684 74.732V72.536L4.482 71.24L7.236 70.268V70.178L4.482 69.206L0.684 67.91V65.732L9.918 69.296V71.168L0.684 74.732ZM17.0477 69.476L15.9137 68.648L17.1017 66.596L14.9597 65.642L15.3917 64.31L17.6957 64.832L17.9297 62.456H19.3517L19.5677 64.832L21.8717 64.31L22.3037 65.642L20.1437 66.596L21.3497 68.648L20.2157 69.476L18.6317 67.676L17.0477 69.476ZM25.8532 69.476L24.7192 68.648L25.9072 66.596L23.7652 65.642L24.1972 64.31L26.5012 64.832L26.7352 62.456H28.1572L28.3732 64.832L30.6772 64.31L31.1092 65.642L28.9492 66.596L30.1552 68.648L29.0212 69.476L27.4372 67.676L25.8532 69.476ZM33.1107 80.87V66.92H35.2707L35.4507 67.964H35.5227C36.3687 67.244 37.4127 66.668 38.4927 66.668C40.9767 66.668 42.4527 68.702 42.4527 71.798C42.4527 75.254 40.3827 77.252 38.1687 77.252C37.2867 77.252 36.4407 76.856 35.6667 76.154L35.7387 77.81V80.87H33.1107ZM37.5747 75.074C38.7987 75.074 39.7347 74.03 39.7347 71.834C39.7347 69.908 39.1227 68.846 37.7367 68.846C37.0527 68.846 36.4407 69.188 35.7387 69.89V74.318C36.3867 74.876 37.0347 75.074 37.5747 75.074ZM44.3947 77V66.92H46.5547L46.7347 68.702H46.8067C47.5447 67.388 48.6247 66.668 49.6687 66.668C50.2267 66.668 50.5507 66.758 50.8567 66.884L50.3887 69.17C50.0467 69.062 49.7587 69.008 49.3447 69.008C48.5527 69.008 47.5987 69.53 47.0227 70.988V77H44.3947ZM51.9345 77V66.92H54.5625V77H51.9345ZM53.2665 65.3C52.3485 65.3 51.6825 64.688 51.6825 63.86C51.6825 62.996 52.3485 62.42 53.2665 62.42C54.1665 62.42 54.8325 62.996 54.8325 63.86C54.8325 64.688 54.1665 65.3 53.2665 65.3ZM57.1013 77V66.92H59.2613L59.4413 68.252H59.5133C60.3953 67.388 61.4213 66.668 62.7893 66.668C64.9673 66.668 65.9033 68.18 65.9033 70.718V77H63.2573V71.042C63.2573 69.494 62.8253 68.936 61.8353 68.936C61.0073 68.936 60.4853 69.332 59.7293 70.07V77H57.1013ZM72.0225 77.252C69.6285 77.252 68.7105 75.74 68.7105 73.472V69.008H67.2885V67.046L68.8365 66.92L69.1425 64.22H71.3565V66.92H73.8405V69.008H71.3565V73.472C71.3565 74.624 71.8245 75.164 72.7245 75.164C73.0485 75.164 73.4445 75.056 73.7145 74.948L74.1465 76.874C73.6065 77.054 72.9045 77.252 72.0225 77.252ZM78.3811 80.636C76.6891 77.846 75.6991 74.93 75.6991 71.312C75.6991 67.73 76.6891 64.778 78.3811 62.006L80.0371 62.708C78.5251 65.336 77.8411 68.378 77.8411 71.312C77.8411 74.282 78.5251 77.306 80.0371 79.934L78.3811 80.636Z" fill="white"/>
<path d="M101.496 66.092H95.898C95.304 67.424 94.638 68.63 93.864 69.548C93.504 69.188 92.622 68.558 92.136 68.27C93.54 66.776 94.584 64.31 95.142 61.772L97.194 62.186C97.032 62.852 96.852 63.5 96.654 64.148H101.496V66.092ZM95.844 67.658L97.482 66.56C98.598 67.388 99.966 68.63 100.632 69.476L98.886 70.718C98.292 69.872 96.942 68.576 95.844 67.658ZM92.082 61.772V70.502H89.958V61.772H92.082ZM88.482 62.366V70.016H86.412V62.366H88.482ZM89.112 73.076V76.244H90.696V73.076H89.112ZM94.278 73.076H92.658V76.244H94.278V73.076ZM97.842 73.076H96.222V76.244H97.842V73.076ZM99.948 76.244H101.658V78.152H85.278V76.244H87.114V71.276H99.948V76.244ZM106.884 65.372H105.408V71.978H106.884V65.372ZM108.99 74.066H105.408V75.506H103.356V63.32H108.99V74.066ZM119.268 67.406V69.53H117.45V78.512H115.254V69.53H112.806C112.734 72.428 112.266 76.244 110.394 78.656C110.016 78.26 109.08 77.522 108.558 77.27C110.43 74.84 110.592 71.204 110.592 68.576V63.698C112.932 63.284 115.488 62.564 117.09 61.862L118.818 63.572C117.072 64.274 114.912 64.796 112.824 65.192V67.406H119.268ZM127.716 65.768H124.782C125.412 66.74 126.078 68.018 126.312 68.9L124.602 69.566H127.716V65.768ZM133.026 65.768H129.984V69.566H133.008L131.496 69.044C132.018 68.162 132.666 66.812 133.026 65.768ZM136.896 71.618H131.262C132.81 73.49 135.114 75.218 137.364 76.154C136.878 76.586 136.194 77.432 135.87 77.954C133.71 76.874 131.604 75.074 129.984 73.022V78.548H127.716V73.058C126.078 75.074 123.972 76.838 121.812 77.918C121.47 77.396 120.804 76.55 120.3 76.118C122.568 75.182 124.89 73.472 126.456 71.618H120.804V69.566H124.206C124.008 68.702 123.432 67.442 122.856 66.47L124.71 65.768H121.65V63.716H127.716V61.754H129.984V63.716H136.212V65.768H133.224L135.294 66.38C134.664 67.55 133.98 68.756 133.404 69.566H136.896V71.618ZM142.338 75.668H150.888V73.796H142.338V75.668ZM150.888 69.962H142.338V71.816H150.888V69.962ZM150.888 66.128H142.338V67.982H150.888V66.128ZM147 64.076H153.174V78.53H150.888V77.648H142.338V78.548H140.16V64.076H144.768C144.966 63.302 145.164 62.438 145.254 61.718L147.846 62.006C147.576 62.726 147.288 63.428 147 64.076ZM162.954 64.4V66.254H161.082V62.582H172.044V66.146H170.082V64.4H162.954ZM166.932 66.02L168.462 65.03C169.668 66.11 171.18 67.658 171.882 68.738L170.244 69.872C169.614 68.81 168.156 67.19 166.932 66.02ZM164.034 65.174L165.96 65.786C165.06 67.352 163.602 68.936 162.27 69.872C161.946 69.494 161.226 68.774 160.794 68.414C162.054 67.64 163.332 66.416 164.034 65.174ZM160.578 63.554L159.48 65.39C158.832 64.868 157.482 64.058 156.528 63.554L157.59 61.916C158.526 62.348 159.912 63.068 160.578 63.554ZM159.984 68.648L158.94 70.43C158.256 69.836 156.834 68.954 155.808 68.396L156.78 66.812C157.788 67.28 159.246 68.072 159.984 68.648ZM159.012 71.222L160.38 72.698C159.588 74.57 158.616 76.604 157.698 78.35L156.096 76.838C156.906 75.506 158.076 73.274 159.012 71.222ZM172.044 72.356H168.75C169.722 73.832 171.198 75.218 172.656 76.01C172.17 76.388 171.504 77.126 171.144 77.666C169.848 76.802 168.606 75.434 167.616 73.904V78.404H165.438V73.85C164.358 75.488 162.936 76.892 161.352 77.774C161.028 77.27 160.398 76.55 159.948 76.154C161.694 75.362 163.26 73.958 164.304 72.356H161.046V70.448H165.438V68.666H167.616V70.448H172.044V72.356ZM183.03 72.5V76.028H189.744V77.972H174.246V76.028H180.744V72.5H176.424V70.682C176.082 70.844 175.758 70.988 175.434 71.132L174.228 69.188C176.208 68.576 178.188 67.586 179.754 66.434L181.23 67.748C179.952 68.774 178.26 69.8 176.622 70.592H187.602V72.5H183.03ZM189.708 69.17L188.268 70.88C187.026 70.07 184.47 68.738 182.688 67.892L184.038 66.416C185.73 67.172 188.376 68.396 189.708 69.17ZM183.462 63.788H189.816V67.838H187.602V65.732H176.208V68.18H174.102V63.788H180.834C180.636 63.248 180.402 62.69 180.186 62.222L182.472 61.592C182.796 62.276 183.21 63.104 183.462 63.788ZM193.962 74.822H196.824V71.294H193.962V74.822ZM196.824 69.44V66.524H193.962V69.44H196.824ZM202.53 64.526H207.606C207.606 64.526 207.606 65.246 207.588 65.498C207.354 73.544 207.156 76.406 206.418 77.36C205.914 78.026 205.41 78.224 204.69 78.35C204.006 78.44 202.926 78.422 201.864 78.386C201.828 77.792 201.54 76.892 201.162 76.298C202.314 76.406 203.376 76.406 203.844 76.406C204.204 76.406 204.402 76.334 204.636 76.1C205.158 75.524 205.392 72.824 205.59 66.47H201.738C201.27 67.55 200.712 68.54 200.154 69.314C199.866 69.044 199.254 68.63 198.768 68.306V76.712H193.962V78.026H192.018V64.652H194.052C194.286 63.752 194.502 62.6 194.574 61.754L196.914 62.078C196.608 62.978 196.284 63.878 195.978 64.652H198.768V67.568C199.812 66.056 200.676 63.878 201.198 61.772L203.232 62.24C203.052 63.014 202.8 63.77 202.53 64.526ZM204.618 72.734L202.8 73.85C202.296 72.77 201.18 71.006 200.298 69.692L201.972 68.738C202.872 69.98 204.06 71.69 204.618 72.734ZM220.554 76.028H222.768C223.488 76.028 223.596 75.65 223.704 73.346C224.172 73.724 225.144 74.102 225.756 74.246C225.504 77.306 224.892 78.134 222.948 78.134H220.266C217.998 78.134 217.404 77.432 217.404 75.272V70.646C216.558 73.868 214.704 76.784 210.366 78.566C210.06 77.99 209.484 77.198 208.926 76.766C212.886 75.254 214.56 72.842 215.298 70.106H209.232V67.982H215.712C215.82 66.992 215.874 65.966 215.91 64.976H210.294V62.87H224.604V64.976H218.124C218.07 65.966 218.016 66.992 217.89 67.982H225.594V70.106H219.654V75.236C219.654 75.92 219.798 76.028 220.554 76.028ZM242.268 63.482L240.99 64.742C240.486 64.274 239.478 63.536 238.758 63.05L240 61.934C240.738 62.366 241.746 63.032 242.268 63.482ZM230.352 71.294L233.178 70.826C233.106 71.366 233.088 72.176 233.124 72.608C228.732 73.454 228.012 73.67 227.544 73.94C227.436 73.544 227.112 72.59 226.878 72.068C227.346 71.96 227.76 71.564 228.318 70.916C228.606 70.628 229.128 69.962 229.74 69.134C228.138 69.314 227.706 69.422 227.418 69.566C227.31 69.17 226.968 68.162 226.734 67.604C227.112 67.496 227.418 67.118 227.814 66.542C228.21 66.02 229.434 63.842 230.082 61.79L232.08 62.762C231.396 64.346 230.406 66.02 229.416 67.406L230.928 67.28C231.306 66.668 231.666 66.038 231.972 65.39L233.7 66.488C232.746 68.18 231.576 69.854 230.352 71.294ZM233.052 73.886L233.376 75.632C231.324 76.352 229.128 77.144 227.382 77.72L226.95 75.704C228.462 75.308 230.802 74.57 233.052 73.886ZM241.53 70.682L243.33 71.492C242.484 72.824 241.404 74.012 240.162 75.002C240.558 75.92 240.99 76.478 241.44 76.478C241.782 76.478 241.944 76.01 242.034 74.57C242.448 75.074 243.078 75.542 243.528 75.758C243.186 77.972 242.628 78.548 241.206 78.548C240.036 78.548 239.154 77.666 238.434 76.226C237.102 77.072 235.644 77.738 234.096 78.296C233.844 77.756 233.304 77.036 232.8 76.532C234.546 76.01 236.238 75.29 237.714 74.354C237.444 73.364 237.192 72.266 236.994 71.078L233.79 71.654L233.448 69.764L236.742 69.152C236.67 68.594 236.616 68.018 236.562 67.442L234.168 67.82L233.808 65.894L236.436 65.498C236.364 64.238 236.328 62.96 236.328 61.7H238.452C238.434 62.87 238.452 64.04 238.506 65.174L242.358 64.598L242.718 66.452L238.632 67.1C238.686 67.676 238.74 68.234 238.794 68.774L242.844 68.054L243.186 69.908L239.064 70.682C239.208 71.51 239.352 72.302 239.514 73.004C240.324 72.32 241.008 71.528 241.53 70.682ZM254.91 76.208H257.862C258.708 76.208 258.924 75.74 259.086 73.904H253.794V74.912C253.794 76.028 253.92 76.208 254.91 76.208ZM247.998 71.816H251.49V70.142H247.998V71.816ZM251.49 66.434H247.998V68.18H251.49V66.434ZM257.286 70.142H253.794V71.816H257.286V70.142ZM257.286 66.434H253.794V68.18H257.286V66.434ZM259.482 64.346V73.814C260.022 74.102 260.706 74.39 261.228 74.498C260.922 77.324 260.274 78.368 258.078 78.368H254.658C252.192 78.368 251.49 77.63 251.49 74.894V73.904H247.998V74.966H245.784V64.346H251.49V61.844H253.794V64.346H259.482ZM3.294 101.246H6.12V100.436H3.294V101.246ZM6.12 98.24H3.294V99.032H6.12V98.24ZM8.028 96.692V103.622C8.028 104.45 7.884 104.936 7.344 105.224C6.822 105.53 6.138 105.548 5.148 105.548C5.058 105.026 4.788 104.306 4.572 103.82C5.112 103.856 5.688 103.838 5.868 103.838C6.066 103.838 6.12 103.784 6.12 103.604V102.65H3.294V105.566H1.44V96.692H8.028ZM14.688 99.734V98.33H13.23V99.734H14.688ZM13.23 95.252V96.566H14.688V95.252H13.23ZM13.122 92.048H11.25C10.944 92.57 10.62 93.056 10.296 93.506H12.204C12.51 93.056 12.852 92.552 13.122 92.048ZM17.46 96.566V98.33H16.56V102.128H14.688V101.462H13.23V103.316C13.23 104.27 13.068 104.81 12.456 105.134C11.88 105.458 11.052 105.53 9.918 105.53C9.828 104.954 9.54 104.108 9.252 103.55C9.99 103.586 10.71 103.586 10.944 103.586C11.178 103.586 11.25 103.532 11.25 103.298V101.462H9.108V99.734H11.25V98.33H8.514V96.566H11.25V95.27H9.198V94.226C8.892 93.956 8.46 93.632 8.136 93.38V93.812H5.706V94.532H8.73V96.062H0.612V94.532H3.726V93.812H1.332V92.372H3.726V91.706H0.9V90.212H3.726V88.754H5.706V90.212H8.55V91.706H5.706V92.372H8.136V93.056C9.234 91.958 10.116 90.356 10.656 88.754L12.528 89.204C12.384 89.6 12.24 90.014 12.078 90.428H14.166L14.472 90.356L15.768 91.202C15.39 91.922 14.85 92.768 14.292 93.506H16.56V96.566H17.46ZM20.76 91.598V94.73H22.29V90.734H20.76V91.544L21.588 91.31C21.876 92.12 22.11 93.218 22.164 93.884L21.264 94.172C21.228 93.47 21.03 92.426 20.76 91.598ZM25.044 91.544V90.734H23.532V93.776C23.766 93.056 24.072 91.976 24.198 91.274L25.044 91.544ZM23.532 94.73H25.044V92.156C24.756 92.894 24.486 93.704 24.252 94.226L23.532 93.956V94.73ZM18.87 101.462L18.816 99.626C19.698 99.608 20.814 99.572 22.002 99.536V98.654H19.23V96.998H22.002V96.17H19.212V89.312H26.646V96.17H23.82V96.998H26.52V98.654H23.82V99.464C24.792 99.446 25.818 99.392 26.808 99.356L26.772 101.03C23.946 101.192 20.994 101.354 18.87 101.462ZM19.824 105.476L18.384 104.81C18.888 103.946 19.392 102.578 19.68 101.606L21.066 102.182C20.742 103.172 20.292 104.576 19.824 105.476ZM21.264 102.002L22.524 101.858C22.704 102.83 22.83 104.09 22.812 104.936L21.48 105.098C21.516 104.252 21.426 102.974 21.264 102.002ZM23.01 101.966L24.198 101.714C24.504 102.56 24.738 103.694 24.81 104.414L23.532 104.702C23.496 103.964 23.28 102.83 23.01 101.966ZM24.702 101.858L25.944 101.39C26.322 102.038 26.646 102.902 26.772 103.478L25.44 103.982C25.35 103.424 25.044 102.506 24.702 101.858ZM34.818 95.774H31.578C32.208 99.104 33.378 102.182 35.376 103.766C34.926 104.108 34.26 104.864 33.972 105.422C32.514 104.072 31.542 102.02 30.858 99.59C30.336 101.642 29.382 103.658 27.744 105.44C27.348 105.026 26.7 104.522 26.142 104.198C28.608 101.624 29.4 98.528 29.652 95.774H27.024V93.758H29.742V93.326V88.79H31.56V90.086L32.622 89.492C33.36 90.392 34.242 91.58 34.602 92.39L33.162 93.254C32.856 92.57 32.19 91.508 31.56 90.644V93.344V93.758H34.818V95.774ZM48.18 99.104H40.71V100.292H48.18V99.104ZM40.71 103.208H48.18V101.912H40.71V103.208ZM38.568 105.602V97.322H50.43V105.584H48.18V104.972H40.71V105.602H38.568ZM47.136 92.102H41.7C42.132 92.786 42.492 93.668 42.618 94.316H46.326C46.614 93.65 46.938 92.804 47.136 92.102ZM48.666 94.316H52.482V96.224H36.336V94.316H40.278C40.116 93.704 39.846 93.002 39.558 92.444L41.304 92.102H37.344V90.212H43.41C43.266 89.762 43.05 89.294 42.852 88.916L45.084 88.556C45.39 89.06 45.66 89.672 45.84 90.212H51.636V92.102H47.91L49.566 92.462C49.26 93.128 48.954 93.758 48.666 94.316ZM57.024 98.906L59.094 99.608C58.122 101.3 56.628 103.244 55.458 104.468C55.044 104.108 54.162 103.442 53.658 103.136C54.882 102.074 56.214 100.4 57.024 98.906ZM69.75 97.862H63.594V102.992C63.594 104.162 63.36 104.738 62.604 105.098C61.866 105.44 60.768 105.494 59.256 105.476C59.166 104.864 58.86 103.91 58.536 103.298C59.526 103.334 60.606 103.316 60.948 103.316C61.254 103.316 61.38 103.244 61.38 102.956V97.862H57.672C56.628 97.862 55.584 97.952 55.404 98.15C55.296 97.7 54.954 96.728 54.702 96.188C55.008 96.062 55.188 95.666 55.35 95.018C55.476 94.406 55.908 92.066 55.908 89.942C60.12 89.852 64.926 89.51 68.022 88.88L69.102 90.806C66.024 91.454 61.812 91.76 58.014 91.85C57.888 93.164 57.636 94.55 57.384 95.702H61.38V92.606H63.594V95.702H69.75V97.862ZM65.304 99.716L67.176 98.924C68.31 100.328 69.804 102.254 70.47 103.514L68.436 104.432C67.842 103.19 66.438 101.192 65.304 99.716ZM81.636 100.724L83.472 99.788C85.038 101.156 86.694 103.046 87.486 104.396L85.578 105.566C85.362 105.152 85.056 104.684 84.696 104.198C75.822 104.846 74.58 104.918 73.698 105.26C73.59 104.792 73.23 103.694 72.978 103.082C73.446 102.974 73.842 102.686 74.4 102.2C74.832 101.876 75.804 100.904 76.776 99.716H72.42V97.646H87.306V99.716H79.746C78.918 100.742 77.928 101.786 76.92 102.686L83.184 102.326C82.68 101.768 82.158 101.21 81.636 100.724ZM76.83 94.172H83.022C81.834 93.38 80.718 92.534 79.836 91.706C78.936 92.606 77.91 93.416 76.83 94.172ZM79.728 88.664L81.672 89.6C81.474 89.852 81.276 90.104 81.078 90.356C82.824 91.832 85.668 93.452 88.314 94.298C87.846 94.748 87.162 95.612 86.82 96.188C85.884 95.81 84.93 95.324 84.03 94.802V96.134H75.624V94.946C74.742 95.45 73.842 95.936 72.87 96.368C72.564 95.828 71.844 94.892 71.34 94.46C74.76 93.164 78.018 90.968 79.728 88.664Z" fill="#FF7600"/>
<path d="M10.134 206.436V214.104H8.1V204.564H16.722V214.104H14.616V206.436H10.134ZM7.704 216.57L5.94 217.884C5.688 217.254 5.364 216.516 4.932 215.742C4.086 217.416 3.096 218.838 1.908 219.972C1.584 219.486 0.882 218.712 0.342 218.334C1.638 217.218 2.718 215.508 3.582 213.438C2.718 212.088 1.782 210.72 0.882 209.532L2.448 208.416C3.078 209.244 3.744 210.144 4.41 211.08C4.788 209.82 5.094 208.488 5.31 207.12H0.864V205.086H5.85L6.228 204.996L7.596 205.428C7.29 208.38 6.75 211.026 5.922 213.33C6.696 214.5 7.308 215.652 7.704 216.57ZM14.526 218.694H15.264C15.678 218.694 15.786 218.172 15.84 215.868C16.326 216.21 17.01 216.498 17.496 216.624C17.316 219.414 17.028 220.26 15.228 220.26H14.094C12.69 220.26 12.096 219.828 12.096 218.316V216.102C11.232 217.794 9.846 219.378 7.614 220.548C7.38 220.116 6.678 219.324 6.282 219.018C10.836 216.642 11.34 213.078 11.34 210.342V207.516H13.356V210.378C13.356 211.494 13.248 212.79 12.888 214.104H14.076V218.082C14.076 218.55 14.202 218.694 14.526 218.694ZM22.74 216.336L24.702 217.002C23.568 218.334 21.732 219.54 20.112 220.26C19.806 219.864 19.104 219.072 18.654 218.712C20.22 218.172 21.858 217.29 22.74 216.336ZM28.86 217.614L30.282 216.336C31.686 216.984 33.63 218.064 34.638 218.82L33.108 220.278C32.19 219.522 30.3 218.352 28.86 217.614ZM24.846 211.908H28.914C28.068 211.026 27.366 209.982 26.826 208.776C26.322 209.982 25.638 211.008 24.846 211.908ZM31.29 209.568H29.292C29.634 210 29.994 210.414 30.408 210.756C30.732 210.396 31.038 209.982 31.29 209.568ZM33.126 208.128L33.918 208.65C33.396 209.73 32.622 210.864 31.794 211.782C32.784 212.376 33.918 212.808 35.25 213.096C34.818 213.492 34.278 214.302 34.008 214.824C32.334 214.356 30.948 213.654 29.796 212.736V213.672H23.748V212.952C23.064 213.546 22.272 214.068 21.48 214.5H32.874V216.318H27.96V218.55C27.96 219.486 27.78 219.954 27.078 220.224C26.394 220.494 25.476 220.494 24.234 220.494C24.144 219.936 23.874 219.234 23.658 218.712C24.414 218.748 25.296 218.748 25.548 218.748C25.8 218.748 25.872 218.676 25.872 218.478V216.318H20.688V214.896C20.238 215.094 19.77 215.292 19.302 215.436C19.086 215.004 18.618 214.302 18.258 213.942C19.23 213.654 20.148 213.258 21.012 212.772C20.724 212.448 20.364 212.106 20.04 211.818L21.354 211.08C21.66 211.314 22.002 211.62 22.29 211.926C22.488 211.764 22.704 211.584 22.902 211.404C22.578 211.116 22.218 210.81 21.894 210.594L22.956 209.73C23.244 209.91 23.586 210.162 23.856 210.396C24.144 210.054 24.396 209.676 24.612 209.298H22.794C21.93 210.216 20.814 211.026 19.41 211.728C19.176 211.314 18.636 210.684 18.258 210.414C20.382 209.496 21.75 208.218 22.434 206.976L24.27 207.3C24.126 207.534 23.982 207.786 23.82 208.02H25.098V207.984H25.422L25.728 207.912L26.61 208.308C26.466 208.002 26.34 207.678 26.232 207.372L27.888 206.958C28.014 207.318 28.158 207.642 28.32 207.966H32.352L32.406 207.948V206.778H20.868V208.128H18.834V205.05H25.638C25.494 204.708 25.35 204.366 25.188 204.096L27.312 203.61C27.564 204.06 27.834 204.564 28.014 205.05H34.566V208.128H33.126ZM42.438 212.538H46.398V209.406H42.438V212.376V212.538ZM52.59 212.538V214.608H48.666V220.584H46.398V214.608H42.294C41.97 216.912 40.944 219.18 37.902 220.746C37.56 220.224 36.84 219.36 36.336 218.964C38.676 217.794 39.612 216.228 39.972 214.608H36.264V212.538H40.188V212.322V209.406H36.858V207.354H40.656C40.332 206.508 39.702 205.338 39.108 204.474L41.142 203.664C41.808 204.6 42.6 205.86 42.924 206.706L41.34 207.354H46.11C46.668 206.256 47.244 204.798 47.532 203.646L50.07 204.33C49.566 205.356 48.99 206.454 48.468 207.354H52.05V209.406H48.666V212.538H52.59ZM57.474 203.808L59.49 204.456C59.004 205.734 58.392 207.084 57.726 208.326V220.548H55.674V211.512C55.314 211.98 54.954 212.394 54.612 212.79C54.414 212.25 53.82 211.08 53.46 210.558C55.044 208.938 56.592 206.382 57.474 203.808ZM65.97 215.022L67.212 214.626C67.572 215.31 67.932 216.174 68.184 216.894V214.32H65.484V216.048L66.384 215.94C66.258 215.616 66.114 215.292 65.97 215.022ZM61.776 209.874H63.612V208.74H61.776V209.874ZM61.776 206.13V207.264H63.612V206.13H61.776ZM67.41 207.264V206.13H65.484V207.264H67.41ZM67.41 209.874V208.74H65.484V209.874H67.41ZM70.164 212.538V218.586C70.164 219.522 69.984 220.008 69.318 220.296C68.67 220.566 67.752 220.602 66.474 220.584C66.402 220.062 66.132 219.324 65.88 218.82C66.69 218.874 67.59 218.856 67.824 218.856C68.094 218.856 68.184 218.784 68.184 218.568V217.974L67.14 218.334C67.086 218.1 67.014 217.812 66.924 217.506C65.016 217.776 63.072 218.064 61.578 218.262L61.182 216.48C61.866 216.426 62.712 216.336 63.612 216.246V214.32H60.93V220.566H58.914V212.538H63.612V211.476H59.796V204.528H69.48V211.476H65.484V212.538H70.164ZM84.984 208.326H75.768C75.048 209.586 74.274 210.738 73.482 211.602C73.05 211.224 72.096 210.558 71.538 210.27C73.158 208.74 74.598 206.202 75.444 203.718L77.658 204.294C77.406 204.96 77.136 205.608 76.83 206.256H85.974L86.352 206.166L88.008 206.706C87.396 208.308 86.532 210 85.704 211.116L83.85 210.36C84.228 209.82 84.624 209.1 84.984 208.326ZM74.832 211.602L77.028 212.124C76.272 214.41 75.03 216.75 73.77 218.19C73.356 217.83 72.42 217.218 71.898 216.93C73.122 215.67 74.238 213.6 74.832 211.602ZM78.882 218.028V209.586H81.114V218.064C81.114 219.252 80.862 219.828 80.034 220.152C79.242 220.476 78.054 220.512 76.47 220.512C76.38 219.882 76.038 218.964 75.75 218.352C76.794 218.388 78.072 218.406 78.414 218.388C78.756 218.388 78.882 218.298 78.882 218.028ZM82.5 212.34L84.426 211.566C85.596 213.33 87.018 215.67 87.594 217.2L85.506 218.1C84.984 216.588 83.67 214.158 82.5 212.34ZM92.496 212.574H98.652C98.652 212.574 98.634 213.186 98.598 213.474C98.31 217.272 97.986 218.946 97.374 219.612C96.87 220.17 96.348 220.314 95.574 220.386C94.962 220.458 93.864 220.458 92.766 220.422C92.73 219.738 92.406 218.82 91.956 218.19C93.054 218.298 94.188 218.298 94.692 218.298C95.052 218.298 95.268 218.28 95.484 218.1C95.844 217.812 96.096 216.75 96.294 214.554H89.904C90.264 212.934 90.696 210.468 90.93 208.488H96.348V206.436H90.48V204.438H98.454V210.486H92.838C92.712 211.206 92.604 211.908 92.496 212.574ZM102.018 204.024H104.196V220.566H102.018V204.024ZM118.962 206.058H110.682V207.246H118.962V206.058ZM119.304 211.998H113.004C109.53 211.998 108.432 211.494 108.432 209.442V204.222H121.068V209.082H110.682V209.406C110.682 210.144 111.042 210.27 112.986 210.27H119.106C120.492 210.27 120.798 210.108 120.96 209.172C121.482 209.46 122.346 209.676 122.976 209.766C122.67 211.584 121.878 211.998 119.304 211.998ZM123.21 213.402V215.4H119.52V218.37C119.52 219.486 119.25 219.99 118.404 220.26C117.54 220.53 116.334 220.548 114.678 220.548C114.57 219.972 114.246 219.162 113.958 218.622C115.056 218.676 116.478 218.676 116.82 218.676C117.18 218.658 117.306 218.568 117.306 218.298V215.4H111.834C112.788 216.12 113.778 216.984 114.282 217.686L112.734 219.144C112.158 218.262 110.808 217.02 109.638 216.192L110.502 215.4H107.262V213.402H117.306V212.394H119.52V213.402H123.21ZM124.638 210.828H141.162V213.15H124.638V210.828ZM149.466 220.548V209.55H151.698V220.548H149.466ZM150.582 203.736L152.508 204.654C152.328 204.924 152.148 205.212 151.968 205.5C154.722 208.218 157.17 209.55 159.258 210.342C158.664 210.846 157.98 211.674 157.674 212.376C155.712 211.422 153.48 210.09 150.672 207.174C148.71 209.424 146.244 211.17 143.634 212.358C143.292 211.71 142.68 210.864 142.068 210.27C145.488 208.992 148.746 206.778 150.582 203.736ZM176.436 207.93V209.73H164.664V207.93H169.452V206.832H165.636V205.068H169.452V203.754H171.558V205.068H175.338V206.832H171.558V207.93H176.436ZM171.612 211.134L172.782 209.928C174.024 210.468 175.734 211.332 176.616 211.962L175.374 213.312C174.546 212.682 172.872 211.728 171.612 211.134ZM167.958 209.856L169.686 210.648C168.534 211.602 166.824 212.7 165.546 213.366C165.24 213.006 164.61 212.232 164.214 211.89C165.492 211.368 166.986 210.594 167.958 209.856ZM164.286 209.154L162.252 210.072C161.856 208.848 160.848 206.868 159.948 205.392L161.82 204.6C162.738 206.004 163.818 207.912 164.286 209.154ZM162.396 212.34L164.214 213.204C163.476 215.418 162.594 217.74 161.784 219.576L159.732 218.766C160.524 217.2 161.586 214.68 162.396 212.34ZM168.894 214.788L168.84 214.842C169.272 215.508 169.848 216.066 170.514 216.552C171.306 216.03 171.936 215.454 172.386 214.788H168.894ZM173.772 213.132L175.158 213.78C174.618 215.292 173.7 216.552 172.386 217.578C173.664 218.118 175.176 218.496 176.886 218.694C176.436 219.144 175.914 219.972 175.644 220.53C173.592 220.206 171.864 219.63 170.424 218.802C168.84 219.558 166.932 220.152 164.664 220.548C164.43 220.008 163.944 219.252 163.53 218.82C165.564 218.532 167.292 218.082 168.678 217.506C168.21 217.056 167.76 216.552 167.364 216.012C166.806 216.408 166.266 216.768 165.708 217.074C165.402 216.678 164.7 215.922 164.268 215.58C166.212 214.68 168.174 213.204 169.254 211.602L171.144 212.304C170.928 212.61 170.694 212.916 170.442 213.222H173.376L173.772 213.132ZM184.506 217.704V214.878H180.384V217.704H184.506ZM183.48 206.274V208.722H187.116V210.63H183.48V213.006H186.594V219.99H184.506V219.594H180.384V220.17H178.386V213.006H181.392V210.63H177.576V208.722H181.392V206.598C180.384 206.742 179.376 206.85 178.422 206.922C178.332 206.454 178.044 205.68 177.81 205.23C180.492 204.942 183.498 204.438 185.334 203.808L186.882 205.482C185.856 205.806 184.704 206.04 183.48 206.274ZM190.374 218.406H191.814C192.336 218.406 192.426 217.722 192.516 215.112C193.02 215.472 193.866 215.886 194.46 216.012C194.244 219.18 193.758 220.404 191.994 220.404H190.032C188.196 220.404 187.656 219.684 187.656 217.29V204.06H189.78V217.308C189.78 218.262 189.87 218.406 190.374 218.406ZM198.012 216.822H200.874V213.294H198.012V216.822ZM200.874 211.44V208.524H198.012V211.44H200.874ZM206.58 206.526H211.656C211.656 206.526 211.656 207.246 211.638 207.498C211.404 215.544 211.206 218.406 210.468 219.36C209.964 220.026 209.46 220.224 208.74 220.35C208.056 220.44 206.976 220.422 205.914 220.386C205.878 219.792 205.59 218.892 205.212 218.298C206.364 218.406 207.426 218.406 207.894 218.406C208.254 218.406 208.452 218.334 208.686 218.1C209.208 217.524 209.442 214.824 209.64 208.47H205.788C205.32 209.55 204.762 210.54 204.204 211.314C203.916 211.044 203.304 210.63 202.818 210.306V218.712H198.012V220.026H196.068V206.652H198.102C198.336 205.752 198.552 204.6 198.624 203.754L200.964 204.078C200.658 204.978 200.334 205.878 200.028 206.652H202.818V209.568C203.862 208.056 204.726 205.878 205.248 203.772L207.282 204.24C207.102 205.014 206.85 205.77 206.58 206.526ZM208.668 214.734L206.85 215.85C206.346 214.77 205.23 213.006 204.348 211.692L206.022 210.738C206.922 211.98 208.11 213.69 208.668 214.734ZM224.604 218.028H226.818C227.538 218.028 227.646 217.65 227.754 215.346C228.222 215.724 229.194 216.102 229.806 216.246C229.554 219.306 228.942 220.134 226.998 220.134H224.316C222.048 220.134 221.454 219.432 221.454 217.272V212.646C220.608 215.868 218.754 218.784 214.416 220.566C214.11 219.99 213.534 219.198 212.976 218.766C216.936 217.254 218.61 214.842 219.348 212.106H213.282V209.982H219.762C219.87 208.992 219.924 207.966 219.96 206.976H214.344V204.87H228.654V206.976H222.174C222.12 207.966 222.066 208.992 221.94 209.982H229.644V212.106H223.704V217.236C223.704 217.92 223.848 218.028 224.604 218.028ZM246.318 205.482L245.04 206.742C244.536 206.274 243.528 205.536 242.808 205.05L244.05 203.934C244.788 204.366 245.796 205.032 246.318 205.482ZM234.402 213.294L237.228 212.826C237.156 213.366 237.138 214.176 237.174 214.608C232.782 215.454 232.062 215.67 231.594 215.94C231.486 215.544 231.162 214.59 230.928 214.068C231.396 213.96 231.81 213.564 232.368 212.916C232.656 212.628 233.178 211.962 233.79 211.134C232.188 211.314 231.756 211.422 231.468 211.566C231.36 211.17 231.018 210.162 230.784 209.604C231.162 209.496 231.468 209.118 231.864 208.542C232.26 208.02 233.484 205.842 234.132 203.79L236.13 204.762C235.446 206.346 234.456 208.02 233.466 209.406L234.978 209.28C235.356 208.668 235.716 208.038 236.022 207.39L237.75 208.488C236.796 210.18 235.626 211.854 234.402 213.294ZM237.102 215.886L237.426 217.632C235.374 218.352 233.178 219.144 231.432 219.72L231 217.704C232.512 217.308 234.852 216.57 237.102 215.886ZM245.58 212.682L247.38 213.492C246.534 214.824 245.454 216.012 244.212 217.002C244.608 217.92 245.04 218.478 245.49 218.478C245.832 218.478 245.994 218.01 246.084 216.57C246.498 217.074 247.128 217.542 247.578 217.758C247.236 219.972 246.678 220.548 245.256 220.548C244.086 220.548 243.204 219.666 242.484 218.226C241.152 219.072 239.694 219.738 238.146 220.296C237.894 219.756 237.354 219.036 236.85 218.532C238.596 218.01 240.288 217.29 241.764 216.354C241.494 215.364 241.242 214.266 241.044 213.078L237.84 213.654L237.498 211.764L240.792 211.152C240.72 210.594 240.666 210.018 240.612 209.442L238.218 209.82L237.858 207.894L240.486 207.498C240.414 206.238 240.378 204.96 240.378 203.7H242.502C242.484 204.87 242.502 206.04 242.556 207.174L246.408 206.598L246.768 208.452L242.682 209.1C242.736 209.676 242.79 210.234 242.844 210.774L246.894 210.054L247.236 211.908L243.114 212.682C243.258 213.51 243.402 214.302 243.564 215.004C244.374 214.32 245.058 213.528 245.58 212.682ZM262.236 215.22L260.832 216.57C260.58 216.012 260.22 215.382 259.806 214.698C259.194 216.228 258.402 217.56 257.43 218.604C257.07 218.298 256.206 217.704 255.774 217.47C257.016 216.3 257.88 214.698 258.51 212.754C257.808 211.8 257.034 210.846 256.26 210.018L257.556 208.848C258.06 209.37 258.582 209.946 259.086 210.558C259.284 209.604 259.446 208.614 259.554 207.588L261.444 207.768C261.246 209.442 260.958 211.008 260.562 212.466C261.264 213.438 261.858 214.41 262.236 215.22ZM251.364 210.198V216.894C252.318 215.85 253.038 214.446 253.578 212.826C252.84 211.926 252.084 210.99 251.364 210.198ZM264.414 204.744V217.974C264.414 219.18 264.144 219.774 263.352 220.116C262.596 220.476 261.444 220.53 259.734 220.512C259.626 219.918 259.266 218.928 258.942 218.352C260.076 218.442 261.39 218.424 261.75 218.424C262.128 218.406 262.272 218.28 262.272 217.938V206.778H251.364V209.874L252.408 208.758C252.966 209.352 253.56 210.018 254.136 210.684C254.352 209.694 254.496 208.632 254.622 207.552L256.53 207.75C256.314 209.442 256.008 211.026 255.63 212.466C256.26 213.258 256.818 214.032 257.232 214.626L255.936 216.12C255.684 215.688 255.324 215.166 254.91 214.59C254.316 216.102 253.578 217.416 252.624 218.442C252.372 218.208 251.832 217.812 251.364 217.542V220.53H249.222V204.744H264.414ZM266.58 219.9L266.094 217.758C267.606 217.326 269.964 216.552 272.214 215.76L272.592 217.596C270.522 218.406 268.326 219.216 266.58 219.9ZM274.248 213.618H280.926C279.702 213.15 278.532 212.574 277.542 211.872C276.498 212.574 275.4 213.15 274.248 213.618ZM275.472 217.614H279.504V215.49H275.472V217.614ZM269.784 213.006L272.142 212.538C272.07 212.376 271.998 212.232 271.926 212.124C273.348 211.764 274.716 211.242 275.922 210.54C275.4 210.036 274.932 209.496 274.518 208.92C274.122 209.406 273.69 209.838 273.24 210.234C273.096 209.982 272.844 209.586 272.574 209.19C271.746 210.504 270.792 211.836 269.784 213.006ZM279.432 207.336H275.706C276.174 208.11 276.768 208.83 277.488 209.46C278.262 208.83 278.91 208.128 279.432 207.336ZM281.016 205.338L282.258 206.112C281.538 207.876 280.458 209.37 279.126 210.594C280.242 211.242 281.52 211.71 282.924 212.016C282.618 212.538 282.33 213.456 282.204 214.032C281.988 213.978 281.772 213.906 281.556 213.834V220.386H279.504V219.486H275.472V220.422H273.51V213.888C273.24 213.996 272.97 214.068 272.718 214.158C272.628 213.78 272.448 213.222 272.25 212.772C272.196 213.312 272.214 213.996 272.268 214.392C267.912 215.4 267.174 215.634 266.706 215.94C266.598 215.526 266.256 214.536 266.022 213.978C266.49 213.87 266.886 213.492 267.462 212.844C267.714 212.592 268.254 211.944 268.848 211.134C267.282 211.296 266.85 211.422 266.562 211.548V211.566V211.548C266.454 211.152 266.112 210.108 265.842 209.55C266.256 209.442 266.562 209.064 266.976 208.488C267.372 207.966 268.614 205.788 269.28 203.736L271.332 204.726C270.63 206.31 269.64 207.966 268.632 209.352L270.108 209.226C270.45 208.686 270.756 208.11 271.026 207.57L272.178 208.29C273.546 207.138 274.77 205.356 275.472 203.52L277.38 204.078C277.2 204.51 277.002 204.96 276.786 205.41H280.656L281.016 205.338ZM286.692 221.484L286.116 220.026C287.52 219.576 288.33 218.802 288.438 217.848C288.384 217.866 288.312 217.866 288.24 217.866C287.34 217.866 286.53 217.29 286.53 216.264C286.53 215.256 287.34 214.644 288.294 214.644C289.572 214.644 290.238 215.598 290.238 217.11C290.238 219.162 288.924 220.818 286.692 221.484Z" fill="#FF7600"/>
<path d="M108.742 246.34V241.372H104.242V239.482H111.172C110.956 238.996 110.686 238.474 110.452 238.042L112.522 237.556C112.882 238.132 113.332 238.942 113.566 239.482H119.776V241.372H115.186V242.776L116.698 241.822C117.85 242.668 119.146 243.928 119.776 244.756L118.156 245.926C117.526 245.044 116.248 243.73 115.186 242.848V246.34H113.026V241.372H110.92V246.34H108.742ZM106.42 241.804L108.346 242.308C107.77 243.694 106.744 245.062 105.808 245.926C105.412 245.62 104.602 245.062 104.152 244.81C105.088 244.054 105.97 242.92 106.42 241.804ZM114.988 248.608H109.084C109.858 249.436 110.848 250.12 112.018 250.696C113.188 250.12 114.196 249.454 114.988 248.608ZM116.878 246.664L118.246 247.6C117.31 249.274 115.942 250.57 114.268 251.596C116.05 252.172 118.066 252.55 120.298 252.748C119.866 253.18 119.362 254.062 119.092 254.62C116.356 254.296 113.98 253.702 111.946 252.784C109.786 253.684 107.32 254.26 104.764 254.62C104.584 254.08 104.116 253.162 103.756 252.73C105.898 252.514 107.932 252.136 109.768 251.56C108.544 250.75 107.5 249.76 106.618 248.608H105.268V246.736H116.536L116.878 246.664ZM134.74 240.67V239.77H130.06V240.67H134.74ZM134.74 243.01V242.074H130.06V243.01H134.74ZM136.9 238.276V244.504H127.99V238.276H136.9ZM124.894 237.772L126.928 238.6C125.74 240.256 123.904 242.02 122.212 243.118C121.996 242.632 121.474 241.75 121.15 241.3C122.554 240.436 124.138 238.978 124.894 237.772ZM125.362 241.696L127.234 242.506C126.802 243.262 126.262 244.018 125.668 244.774V254.548H123.598V247.078C123.058 247.618 122.518 248.122 121.978 248.536C121.816 248.068 121.276 246.844 120.952 246.322C122.554 245.206 124.318 243.46 125.362 241.696ZM137.854 248.068L137.872 249.886H135.406V252.442C135.406 253.432 135.226 253.936 134.524 254.242C133.858 254.548 132.958 254.548 131.734 254.548C131.644 253.972 131.338 253.18 131.068 252.64C131.824 252.676 132.67 252.676 132.904 252.676C133.156 252.658 133.228 252.586 133.228 252.388V249.886H129.448C130.168 250.57 131.05 251.506 131.5 252.136L129.898 253.27C129.502 252.586 128.584 251.524 127.828 250.768L129.16 249.886H126.64V248.068H133.228V247.042H127.072V245.296H137.494V247.042H135.406V248.068H137.854ZM145.438 246.772H149.47V243.334H145.492V244.666C145.492 245.368 145.474 246.07 145.438 246.772ZM155.5 246.772V248.95H151.756V254.584H149.47V248.95H145.15C144.7 251.164 143.692 253.18 141.478 254.728C141.064 254.242 140.164 253.486 139.552 253.162C141.352 251.974 142.288 250.534 142.738 248.95H139.336V246.772H143.152C143.206 246.07 143.224 245.368 143.224 244.648V243.334H139.858V241.174H143.224V237.826H145.492V241.174H149.47V237.79H151.756V241.174H155.032V243.334H151.756V246.772H155.5ZM173.092 240.292L171.454 241.246C171.166 240.58 170.482 239.554 169.852 238.816L171.4 237.952C172.048 238.672 172.768 239.644 173.092 240.292ZM158.674 254.638L156.64 253.792C157.36 252.964 158.26 251.524 158.854 250.282L160.87 250.804C160.294 252.1 159.412 253.63 158.674 254.638ZM161.986 250.984L163.966 250.768C164.2 251.848 164.416 253.252 164.434 254.134L162.328 254.44C162.328 253.558 162.184 252.1 161.986 250.984ZM173.092 243.298H169.816C170.482 245.566 171.616 247.438 173.452 248.374C172.984 248.806 172.354 249.598 172.048 250.174C170.626 249.292 169.618 247.942 168.88 246.268C168.178 247.798 166.882 249.256 164.686 250.408C164.344 249.922 163.678 249.31 163.192 248.914C166.306 247.312 167.314 245.242 167.62 243.298H165.334V242.02C164.02 246.124 161.59 248.698 158.512 250.048C158.206 249.58 157.486 248.752 157.018 248.41C158.332 247.888 159.502 247.186 160.492 246.25C159.952 245.8 159.304 245.332 158.746 244.972L159.898 243.874C160.438 244.198 161.068 244.612 161.608 245.008C161.86 244.666 162.112 244.288 162.328 243.91C161.77 243.532 161.086 243.118 160.492 242.812L161.428 241.624C161.914 241.822 162.508 242.146 163.03 242.47C163.228 241.984 163.372 241.48 163.516 240.94H161.212C160.312 242.542 159.214 244.036 157.936 245.134C157.612 244.72 156.946 244.09 156.514 243.766C158.35 242.272 159.826 239.698 160.492 237.592L162.526 238.114C162.382 238.474 162.22 238.852 162.04 239.248H164.218L164.596 239.194L165.928 239.698C165.82 240.238 165.694 240.778 165.55 241.282H167.728V238.006H169.762V241.282H173.092V243.298ZM165.622 250.948L167.62 250.606C168.07 251.65 168.52 253.072 168.682 253.954L166.558 254.368C166.45 253.486 166.036 252.046 165.622 250.948ZM169.294 250.912L171.184 250.12C172.012 251.218 173.002 252.712 173.452 253.702L171.436 254.62C171.04 253.648 170.104 252.064 169.294 250.912ZM186.706 246.376V245.224H180.208V246.376H186.706ZM180.208 249.328H186.706V248.158H180.208V249.328ZM190.81 241.93H181.18C180.964 242.416 180.73 242.884 180.46 243.352H188.794V252.244C188.794 253.306 188.596 253.882 187.858 254.206C187.156 254.548 186.13 254.566 184.672 254.566C184.582 253.972 184.294 253.072 184.024 252.496C184.942 252.55 185.986 252.55 186.292 252.55C186.598 252.532 186.706 252.442 186.706 252.19V251.11H180.208V254.548H178.084V246.718C177.364 247.51 176.59 248.23 175.708 248.824C175.402 248.356 174.718 247.582 174.304 247.186C176.212 245.908 177.706 244.018 178.786 241.93H174.844V239.914H179.686C179.974 239.176 180.208 238.456 180.388 237.736L182.602 238.24C182.422 238.798 182.242 239.356 182.026 239.914H190.81V241.93ZM206.818 247.024L207.16 246.898L208.69 247.528C207.97 248.86 207.07 250.336 206.296 251.308L204.586 250.534C204.928 250.066 205.324 249.454 205.702 248.824H203.128V252.388C203.128 253.468 202.876 253.99 202.048 254.296C201.22 254.584 200.05 254.584 198.502 254.584C198.412 253.972 198.106 253.162 197.818 252.604C198.88 252.64 200.176 252.658 200.518 252.64C200.86 252.622 200.95 252.568 200.95 252.334V248.824H196.072V247.024H200.914C200.014 246.538 199.006 246.07 198.178 245.692L199.474 244.486C200.158 244.774 201.004 245.152 201.832 245.53C202.462 245.134 203.128 244.63 203.704 244.126H196.9V242.434H205.504L205.954 242.326L207.322 243.37C206.296 244.432 204.982 245.548 203.596 246.394C203.92 246.556 204.208 246.736 204.46 246.88L204.316 247.024H206.818ZM202.786 239.608H208.69V241.588H195.604V244.504C195.604 247.42 195.334 251.848 193.696 254.638C193.318 254.278 192.4 253.648 191.896 253.45C193.39 250.876 193.498 247.132 193.498 244.486V239.608H200.32C200.14 239.122 199.96 238.618 199.78 238.186L201.904 237.61C202.192 238.222 202.552 238.996 202.786 239.608ZM215.716 252.586L213.79 254.242C212.692 252.892 211.162 251.344 209.92 250.264L211.792 248.644C213.07 249.688 214.816 251.47 215.716 252.586ZM236.584 243.856L240.526 243.64C240.22 243.262 239.914 242.884 239.626 242.56L240.85 241.822H238.186C237.682 242.506 237.106 243.226 236.584 243.856ZM244.216 245.386L242.506 246.484C242.326 246.16 242.074 245.764 241.768 245.332C235 245.818 234.064 245.89 233.38 246.16C233.308 245.638 233.056 244.612 232.894 244.162C233.29 244.09 233.938 243.946 234.316 243.586C234.586 243.334 235.216 242.578 235.81 241.822H232.75V239.914H237.43C237.25 239.338 237.016 238.708 236.782 238.186L238.762 237.718C239.104 238.402 239.464 239.248 239.662 239.914H243.91V241.822H241.444C242.452 242.938 243.64 244.414 244.216 245.386ZM232.714 239.914L231.454 241.642C230.788 240.976 229.366 240.076 228.25 239.518L229.438 237.952C230.536 238.438 231.994 239.248 232.714 239.914ZM232.03 244.648L230.842 246.43C230.14 245.818 228.664 244.972 227.512 244.486L228.628 242.866C229.762 243.28 231.292 244.054 232.03 244.648ZM231.238 247.24L232.804 248.68C231.85 250.552 230.716 252.604 229.636 254.35L227.818 252.91C228.79 251.56 230.158 249.328 231.238 247.24ZM234.028 248.23V246.592H235.954V248.302C235.954 250.246 235.648 252.73 233.218 254.458C232.93 254.026 232.21 253.378 231.724 253.072C233.794 251.65 234.028 249.76 234.028 248.23ZM237.052 253.774V246.574H238.924V253.774H237.052ZM242.272 252.55H242.56C242.65 252.55 242.74 252.532 242.794 252.496C242.848 252.424 242.884 252.298 242.92 252.028C242.956 251.74 242.974 251.11 242.992 250.3C243.316 250.606 243.946 250.93 244.432 251.092C244.396 251.884 244.324 252.838 244.198 253.198C244.072 253.558 243.892 253.828 243.622 253.99C243.37 254.152 242.956 254.242 242.632 254.242H241.696C241.264 254.242 240.796 254.098 240.508 253.792C240.184 253.486 240.058 253.108 240.058 251.902V246.592H242.038V251.956C242.038 252.226 242.038 252.406 242.092 252.46C242.128 252.514 242.2 252.55 242.272 252.55ZM247.048 245.404V247.186H247.966V245.404H247.048ZM247.966 242.092H247.048V243.748H247.966V242.092ZM250.522 243.748V242.092H249.568V243.748H250.522ZM249.568 247.186H250.522V245.404H249.568V247.186ZM252.196 249.004H249.73V254.53H247.786V249.004H247.048V249.868H245.5V240.274H247.786V237.754H249.73V240.274H252.196V249.004ZM256.552 243.334H261.916C261.916 243.334 261.898 243.982 261.88 244.27C261.52 250.426 261.16 252.766 260.548 253.522C260.134 254.08 259.738 254.26 259.18 254.35C258.73 254.44 258.028 254.458 257.254 254.422C257.236 253.828 257.02 252.982 256.714 252.424C257.272 252.478 257.794 252.496 258.082 252.478C258.352 252.496 258.514 252.442 258.694 252.208C259.072 251.722 259.414 249.922 259.684 245.35H259.306C258.28 249.274 256.48 252.406 253.96 254.404C253.654 254.08 252.808 253.504 252.34 253.252C254.842 251.578 256.462 248.77 257.38 245.35H256.624C255.886 247.564 254.608 249.472 253.132 250.678C252.79 250.372 252.016 249.814 251.584 249.562C252.952 248.572 254.014 247.06 254.644 245.35C254.014 245.35 253.384 245.44 253.222 245.62C253.078 245.17 252.628 244.144 252.322 243.64C252.844 243.532 253.528 243.136 254.176 242.686C254.626 242.398 255.778 241.588 256.93 240.526H252.61V238.564H258.964L259.54 238.348L261.07 239.518C259.612 240.958 258.046 242.272 256.552 243.334ZM267.088 251.668H275.638V249.796H267.088V251.668ZM275.638 245.962H267.088V247.816H275.638V245.962ZM275.638 242.128H267.088V243.982H275.638V242.128ZM271.75 240.076H277.924V254.53H275.638V253.648H267.088V254.548H264.91V240.076H269.518C269.716 239.302 269.914 238.438 270.004 237.718L272.596 238.006C272.326 238.726 272.038 239.428 271.75 240.076ZM286.678 243.28H284.5C284.248 244.522 283.942 245.728 283.654 246.826C284.23 247.294 284.824 247.798 285.436 248.302C286.048 246.916 286.444 245.26 286.678 243.28ZM287.578 241.264L288.874 241.462C288.658 244.99 288.1 247.654 287.092 249.706C287.794 250.318 288.406 250.912 288.82 251.398L287.434 253.198C287.038 252.73 286.516 252.172 285.922 251.596C284.86 252.928 283.528 253.882 281.872 254.62C281.602 254.062 281.062 253.27 280.648 252.838C282.178 252.298 283.402 251.416 284.356 250.138C283.348 249.238 282.304 248.338 281.386 247.564L281.35 247.546V247.528L281.368 247.51C281.746 246.358 282.142 244.864 282.466 243.28H280.738V241.318H282.844C283.06 240.13 283.24 238.924 283.33 237.844L285.436 237.97C285.292 239.032 285.112 240.184 284.896 241.318H287.2L287.578 241.264ZM291.484 250.714H294.652V241.624H291.484V250.714ZM289.45 239.608H296.776V253.792H294.652V252.748H291.484V254.08H289.45V239.608Z" fill="#FF7600"/>
<path d="M328.789 256.114V254.674H329.203C330.121 254.674 330.373 254.314 330.373 253.126C330.373 251.992 330.283 250.984 330.283 249.706C330.283 248.23 330.733 247.6 331.723 247.366V247.276C330.733 247.042 330.283 246.43 330.283 244.936C330.283 243.658 330.373 242.65 330.373 241.516C330.373 240.328 330.121 239.95 329.203 239.95H328.789V238.546H329.959C331.723 238.546 332.515 239.212 332.515 241.408C332.515 242.848 332.317 243.694 332.317 245.008C332.317 245.746 332.731 246.52 334.063 246.538V248.104C332.731 248.14 332.317 248.896 332.317 249.652C332.317 250.966 332.515 251.794 332.515 253.252C332.515 255.43 331.723 256.114 329.959 256.114H328.789Z" fill="white"/>
<path d="M85.69 126.032V130.136H89.956V132.116H79.174V130.136H83.53V126.032H79.876V124.052H83.53V121.064H85.69V124.052H89.254V126.032H85.69ZM81.244 118.238H90.01V120.29H80.38C79.786 121.532 79.102 122.738 78.274 123.836V132.548H76.096V126.284C75.592 126.752 75.088 127.148 74.512 127.544C74.278 126.968 73.792 125.996 73.45 125.474C75.34 124.25 76.852 122.36 77.932 120.29H74.026V118.238H78.886C79.192 117.392 79.462 116.564 79.678 115.736L81.928 116.276C81.73 116.942 81.496 117.59 81.244 118.238ZM91.672 131.738L91.312 129.722C92.824 129.452 95.146 128.966 97.378 128.462L97.558 130.208C95.506 130.766 93.364 131.306 91.672 131.738ZM93.616 121.478L95.29 121.334C95.632 120.74 95.974 120.128 96.28 119.498L97.864 120.506C96.928 122.198 95.74 123.908 94.534 125.366L97.396 124.916C97.342 125.42 97.324 126.212 97.342 126.644C93.058 127.454 92.338 127.67 91.888 127.94C91.798 127.562 91.51 126.698 91.294 126.23C91.744 126.122 92.122 125.708 92.698 125.06C92.986 124.754 93.526 124.034 94.138 123.134C92.482 123.332 92.05 123.44 91.762 123.584C91.672 123.188 91.366 122.252 91.132 121.748C91.51 121.64 91.78 121.244 92.158 120.65C92.554 120.092 93.742 117.806 94.372 115.7L96.226 116.582C95.56 118.256 94.606 120.02 93.616 121.478ZM105.442 121.532H103.804C103.75 122.108 103.66 122.666 103.534 123.26C104.2 124.286 104.902 125.456 105.442 126.446V121.532ZM99.988 121.532V126.572C101.032 124.97 101.518 123.206 101.734 121.532H99.988ZM107.422 119.606V130.1C107.422 131.126 107.224 131.702 106.576 132.044C105.946 132.368 105.01 132.422 103.66 132.422C103.588 131.846 103.318 130.928 103.048 130.388C103.894 130.424 104.812 130.424 105.082 130.424C105.352 130.424 105.442 130.334 105.442 130.082V127.796L104.2 128.534C103.894 127.814 103.372 126.806 102.814 125.798C102.382 126.86 101.788 127.922 100.978 128.876C100.762 128.642 100.384 128.336 99.988 128.084V132.53H98.008V119.606H101.896C101.914 119.156 101.914 118.706 101.914 118.31V115.79H103.948V118.328C103.948 118.724 103.948 119.156 103.93 119.606H107.422ZM122.494 116.528L124.888 117.464C123.952 119.048 122.854 120.74 121.972 121.82L120.1 120.992C120.946 119.804 121.936 117.968 122.494 116.528ZM114.538 120.722L112.414 121.676C112.09 120.542 111.136 118.778 110.182 117.482L112.144 116.618C113.134 117.878 114.142 119.57 114.538 120.722ZM125.464 124.628H120.046C121.54 126.77 123.826 128.84 125.986 130.046C125.464 130.478 124.744 131.306 124.348 131.9C122.26 130.514 120.154 128.354 118.552 125.996V132.584H116.248V126.068C114.682 128.462 112.576 130.622 110.47 131.99C110.092 131.45 109.39 130.622 108.886 130.19C111.082 128.984 113.35 126.824 114.79 124.628H109.354V122.45H116.248V115.772H118.552V122.45H125.464V124.628ZM131.32 121.712V121.892H139.6V118.454H131.32V121.712ZM141.85 123.98H137.278C138.25 127.13 140.176 129.452 143.506 130.442C143.002 130.892 142.354 131.828 142.03 132.44C138.178 131.072 136.216 128.174 135.064 123.98H131.248C131.032 126.896 130.348 130.37 128.332 132.638C127.99 132.188 127.018 131.396 126.514 131.126C128.836 128.48 129.034 124.574 129.034 121.712V116.348H141.85V123.98ZM147.976 119.3V122.072C147.976 125.096 147.742 129.596 146.248 132.53C145.816 132.224 144.844 131.774 144.286 131.612C145.726 128.84 145.852 124.826 145.852 122.09V117.302H152.566C152.44 116.888 152.296 116.456 152.134 116.114L154.312 115.628C154.564 116.132 154.816 116.744 154.996 117.302H160.936V119.3H147.976ZM156.058 122.576H152.782V123.764H156.058V122.576ZM158.182 125.384H150.766V122.576H148.336V120.902H150.766V119.714H152.782V120.902H156.058V119.714H158.182V120.902H160.774V122.576H158.182V125.384ZM156.652 127.778H151.9C152.53 128.354 153.34 128.84 154.276 129.236C155.194 128.84 155.986 128.372 156.652 127.778ZM158.542 126.032L159.874 126.716C159.118 128.12 158.038 129.2 156.706 130.046C158.074 130.37 159.586 130.568 161.224 130.694C160.81 131.144 160.27 132.008 160 132.548C157.804 132.332 155.86 131.918 154.168 131.234C152.458 131.846 150.514 132.224 148.48 132.44C148.318 131.936 147.922 131.126 147.598 130.658C149.092 130.532 150.532 130.352 151.846 130.028C151.018 129.47 150.28 128.804 149.668 128.066L150.388 127.778H148.48V126.104H158.164L158.542 126.032ZM164.812 128.822H167.674V125.294H164.812V128.822ZM167.674 123.44V120.524H164.812V123.44H167.674ZM173.38 118.526H178.456C178.456 118.526 178.456 119.246 178.438 119.498C178.204 127.544 178.006 130.406 177.268 131.36C176.764 132.026 176.26 132.224 175.54 132.35C174.856 132.44 173.776 132.422 172.714 132.386C172.678 131.792 172.39 130.892 172.012 130.298C173.164 130.406 174.226 130.406 174.694 130.406C175.054 130.406 175.252 130.334 175.486 130.1C176.008 129.524 176.242 126.824 176.44 120.47H172.588C172.12 121.55 171.562 122.54 171.004 123.314C170.716 123.044 170.104 122.63 169.618 122.306V130.712H164.812V132.026H162.868V118.652H164.902C165.136 117.752 165.352 116.6 165.424 115.754L167.764 116.078C167.458 116.978 167.134 117.878 166.828 118.652H169.618V121.568C170.662 120.056 171.526 117.878 172.048 115.772L174.082 116.24C173.902 117.014 173.65 117.77 173.38 118.526ZM175.468 126.734L173.65 127.85C173.146 126.77 172.03 125.006 171.148 123.692L172.822 122.738C173.722 123.98 174.91 125.69 175.468 126.734ZM181.756 130.712L179.722 129.65C180.55 128.282 181.216 126.284 181.522 124.448L183.556 125.06C183.178 126.914 182.602 129.2 181.756 130.712ZM185.986 121.676H183.862V119.966H180.298V117.914H183.862V115.736H185.986V117.914H190.378V115.736H192.52V117.914H196.156V119.966H192.52V121.694H190.378V119.966H185.986V121.676ZM186.76 121.892L188.614 120.992C189.604 122.378 190.684 124.214 191.08 125.474L189.046 126.518C188.722 125.276 187.714 123.332 186.76 121.892ZM187.39 130.154H190.072C190.9 130.154 191.044 129.83 191.152 127.742C191.584 128.084 192.556 128.444 193.15 128.588C192.862 131.45 192.25 132.224 190.234 132.224H187.174C184.798 132.224 184.186 131.558 184.186 129.398V123.908H186.346V129.38C186.346 130.064 186.508 130.154 187.39 130.154ZM192.628 124.916L194.662 124.322C195.508 126.068 196.318 128.3 196.534 129.776L194.32 130.46C194.14 129.02 193.42 126.716 192.628 124.916ZM213.064 122.432H202.084C202.084 123.206 202.066 123.962 202.012 124.736H210.922V132.584H208.564V126.986H201.742C201.346 129.074 200.59 131.054 199.024 132.692C198.7 132.134 197.872 131.306 197.35 130.928C199.582 128.516 199.834 125.204 199.834 122.18V116.132H202.084V120.218H206.494V115.772H208.816V120.218H213.064V122.432ZM229.378 116.42L231.466 117.158C230.8 118.4 230.044 119.732 229.45 120.596L227.758 119.93C228.334 118.976 229.018 117.5 229.378 116.42ZM223.924 119.768L221.998 120.524C221.746 119.642 221.116 118.202 220.54 117.104L222.376 116.456C222.97 117.482 223.672 118.85 223.924 119.768ZM224.77 129.542V124.79C223.762 126.392 222.52 127.85 221.314 128.804C220.972 128.318 220.288 127.544 219.802 127.148C221.206 126.23 222.7 124.646 223.744 123.044H220.198V121.082H224.77V115.844H226.858V121.082H231.34V123.044H227.758C229.216 124.43 230.908 126.068 231.808 127.112L230.26 128.552C229.522 127.598 228.154 126.158 226.858 124.826V129.542H224.77ZM220 118.94L218.308 120.2C217.804 119.354 216.67 118.004 215.788 117.014L217.372 115.898C218.272 116.798 219.442 118.094 220 118.94ZM219.442 121.694V128.75C219.73 128.948 220.072 129.182 220.504 129.434C221.746 130.172 223.42 130.28 225.508 130.28C227.434 130.28 230.404 130.1 232.258 129.812C232.006 130.442 231.628 131.558 231.61 132.206C230.296 132.278 227.308 132.404 225.4 132.404C223.024 132.404 221.512 132.188 220.18 131.432C219.352 130.982 218.704 130.388 218.308 130.388C217.786 130.388 217.012 131.612 216.382 132.728L214.798 130.568C215.68 129.596 216.58 128.894 217.39 128.534V123.656H215.338V121.694H219.442ZM245.656 128.444H236.962V130.172H245.656V128.444ZM234.928 132.566V126.608H247.798V132.566H245.656V132.008H236.962V132.566H234.928ZM244.504 123.782V122.522H238.006V123.782H244.504ZM236.026 120.812H246.61V125.492H236.026V120.812ZM242.65 117.554H249.04V121.676H246.79V119.66H235.774V121.676H233.632V117.554H240.112C239.932 117.086 239.734 116.636 239.518 116.222L241.714 115.574C242.056 116.186 242.398 116.906 242.65 117.554ZM260.098 124.844H264.166V120.974H260.098V124.844ZM253.78 124.844H257.83V120.974H253.78V124.844ZM260.098 118.868H266.416V127.85H264.166V126.95H260.098V132.566H257.83V126.95H253.78V127.94H251.62V118.868H257.83V115.754H260.098V118.868ZM281.074 115.52L281.578 116.474C280.498 116.978 279.94 117.986 279.94 118.544C280.012 118.508 280.156 118.454 280.318 118.454C281.074 118.454 281.578 119.03 281.578 119.768C281.578 120.488 281.056 121.1 280.174 121.1C279.274 121.1 278.59 120.254 278.59 119.174C278.59 117.392 279.76 116.132 281.074 115.52ZM284.728 115.52L285.25 116.474C284.152 116.978 283.594 117.986 283.594 118.544C283.666 118.508 283.81 118.454 283.99 118.454C284.728 118.454 285.232 119.03 285.232 119.768C285.232 120.488 284.728 121.1 283.828 121.1C282.928 121.1 282.244 120.254 282.244 119.174C282.244 117.392 283.414 116.132 284.728 115.52ZM294.13 130.604V130.694C295.606 129.938 296.722 128.93 297.532 127.634C297.064 126.554 296.704 125.366 296.398 124.106C296.11 124.664 295.804 125.204 295.462 125.69C295.21 125.222 294.544 124.286 294.13 123.836V130.604ZM299.53 121.01H297.532L297.514 121.028C297.784 122.54 298.162 123.962 298.63 125.258C299.062 124.016 299.35 122.594 299.53 121.01ZM289.09 128.228H292.15V127.472H289.09V128.228ZM292.15 125.222H289.09V125.96H292.15V125.222ZM289.846 119.498V121.01H291.412V119.498H289.846ZM302.806 121.01H301.654C301.312 123.656 300.754 125.888 299.854 127.724C300.664 129.02 301.69 130.028 302.986 130.712C302.482 131.126 301.816 131.99 301.492 132.584C300.34 131.846 299.386 130.874 298.648 129.722C297.748 130.856 296.632 131.81 295.246 132.602C295.066 132.17 294.526 131.342 294.13 130.874C294.094 131.576 293.932 131.972 293.41 132.242C292.87 132.53 292.096 132.566 291.07 132.566C290.998 132.044 290.746 131.288 290.494 130.802C291.07 130.838 291.682 130.838 291.88 130.82C292.078 130.82 292.15 130.766 292.15 130.586V129.794H289.09V132.566H287.128V123.62H294.13V123.746C294.328 123.44 294.508 123.116 294.688 122.792H286.03V121.01H287.902V119.498H286.3V117.734H287.902V115.97H289.846V117.734H291.412V115.97H293.374V117.734H294.994V119.498H293.374V121.01H294.904V122.324C295.696 120.506 296.146 118.166 296.416 115.754L298.522 116.042C298.378 117.05 298.216 118.058 298.018 119.03H302.806V121.01ZM320.11 122.954H313.396V127.67C314.98 126.662 316.222 125.33 317.122 123.602L319.21 124.556C316.51 129.506 311.812 131.558 305.026 132.548C304.828 131.936 304.396 131.072 303.946 130.514C307.348 130.1 310.192 129.416 312.46 128.21H311.11V122.954H304.036V120.938H306.502V116.924H308.68V120.938H311.362V115.772H313.666V117.194H318.85V119.21H313.666V120.938H320.11V122.954ZM307.924 123.476L309.994 124.178C308.968 125.78 307.366 127.418 305.926 128.462C305.584 128.048 304.792 127.238 304.324 126.878C305.674 126.05 307.132 124.754 307.924 123.476ZM325.426 121.226L324.922 120.29C326.002 119.768 326.56 118.778 326.56 118.202C326.488 118.256 326.344 118.292 326.182 118.292C325.426 118.292 324.922 117.716 324.922 116.978C324.922 116.276 325.444 115.646 326.326 115.646C327.226 115.646 327.91 116.492 327.91 117.59C327.91 119.372 326.74 120.632 325.426 121.226ZM321.772 121.226L321.25 120.29C322.348 119.768 322.906 118.778 322.906 118.202C322.834 118.256 322.69 118.292 322.51 118.292C321.772 118.292 321.268 117.716 321.268 116.978C321.268 116.276 321.772 115.646 322.672 115.646C323.572 115.646 324.256 116.492 324.256 117.59C324.256 119.372 323.086 120.632 321.772 121.226Z" fill="#FF7600"/>
<path d="M31.708 147.092V142.772H33.778V159.548H31.708V153.86C30.988 154.472 30.286 155.084 29.62 155.606L28.576 153.752C29.368 153.212 30.538 152.33 31.708 151.394V148.496L30.772 149.27C30.34 148.496 29.35 147.254 28.54 146.372L30.016 145.202C30.556 145.76 31.204 146.462 31.708 147.092ZM45.244 151.448V153.41H43.3V157.28C43.3 158.306 43.102 158.864 42.364 159.17C41.644 159.476 40.6 159.512 39.214 159.512C39.142 158.936 38.836 158.09 38.548 157.514C39.484 157.55 40.492 157.55 40.798 157.55C41.086 157.55 41.176 157.478 41.176 157.244V153.41H37.108C37.918 154.31 38.872 155.57 39.286 156.434L37.414 157.46C37.054 156.578 36.154 155.246 35.326 154.274L37 153.41H34.354V151.448H35.326C35.092 150.944 34.678 150.242 34.318 149.846C35.632 149.594 36.928 149.216 38.116 148.712C37.774 148.262 37.288 147.74 36.838 147.362L38.422 146.462C38.908 146.84 39.466 147.362 39.826 147.848C40.744 147.272 41.536 146.624 42.166 145.85H38.53C37.594 146.588 36.586 147.218 35.578 147.704C35.254 147.29 34.57 146.642 34.156 146.3C36.118 145.526 37.9 144.104 38.854 142.754L41.068 143.312C40.852 143.6 40.618 143.888 40.348 144.158H43.426L43.786 144.086L45.19 144.806C43.48 148.532 39.79 150.476 35.668 151.448H41.176V149.702H43.3V151.448H45.244ZM51.424 149.288V152.816C52.234 153.392 53.98 154.76 54.448 155.174L53.224 156.83C52.81 156.344 52.09 155.606 51.424 154.94V159.548H49.588V155.534C48.922 156.812 48.094 157.928 47.14 158.684C46.942 158.108 46.492 157.352 46.15 156.866C47.698 155.606 48.94 153.554 49.588 151.376V149.288H48.562V153.014H46.744V147.56H49.588V146.498H46.564V144.554H49.588V142.754H51.424V144.554H54.196V146.498H51.424V147.56H54.196V151.196C54.196 151.934 54.106 152.33 53.656 152.582C53.242 152.834 52.684 152.852 51.982 152.852C51.91 152.384 51.712 151.772 51.532 151.358C51.82 151.358 52.072 151.376 52.198 151.358C52.324 151.358 52.36 151.304 52.36 151.178V149.288H51.424ZM59.83 149.288V152.294C60.586 153.896 61.864 155.768 63.394 156.83C62.944 157.19 62.278 157.964 61.936 158.486C61.162 157.802 60.442 156.866 59.83 155.858V159.548H57.904V155.246C57.112 156.704 56.104 157.91 54.88 158.738C54.574 158.27 53.962 157.532 53.548 157.172C55.582 156.038 57.112 153.734 57.904 151.232V149.288H56.824V153.086H54.862V147.56H57.904V146.498H54.7V144.554H57.904V142.754H59.83V144.554H62.818V146.498H59.83V147.56H62.692V151.286C62.692 152.006 62.602 152.402 62.152 152.672C61.738 152.924 61.198 152.942 60.514 152.942C60.424 152.456 60.226 151.862 60.01 151.43C60.316 151.448 60.568 151.448 60.694 151.448C60.82 151.43 60.856 151.394 60.856 151.25V149.288H59.83ZM80.644 151.97V154.058H73.534V156.992C73.534 158.27 73.21 158.828 72.364 159.17C71.5 159.494 70.204 159.548 68.368 159.53C68.242 158.918 67.828 157.982 67.486 157.406C68.818 157.46 70.33 157.46 70.726 157.46C71.14 157.442 71.302 157.316 71.302 156.956V154.058H64.192V151.97H71.302V149.864H65.416V147.812H71.302V145.706C69.43 145.868 67.54 145.976 65.776 146.048C65.722 145.49 65.452 144.626 65.236 144.158C69.574 143.978 74.506 143.492 77.458 142.718L79.006 144.5C77.404 144.914 75.514 145.22 73.534 145.454V147.812H79.582V149.864H73.534V151.97H80.644ZM84.412 155.822H87.274V152.294H84.412V155.822ZM87.274 150.44V147.524H84.412V150.44H87.274ZM92.98 145.526H98.056C98.056 145.526 98.056 146.246 98.038 146.498C97.804 154.544 97.606 157.406 96.868 158.36C96.364 159.026 95.86 159.224 95.14 159.35C94.456 159.44 93.376 159.422 92.314 159.386C92.278 158.792 91.99 157.892 91.612 157.298C92.764 157.406 93.826 157.406 94.294 157.406C94.654 157.406 94.852 157.334 95.086 157.1C95.608 156.524 95.842 153.824 96.04 147.47H92.188C91.72 148.55 91.162 149.54 90.604 150.314C90.316 150.044 89.704 149.63 89.218 149.306V157.712H84.412V159.026H82.468V145.652H84.502C84.736 144.752 84.952 143.6 85.024 142.754L87.364 143.078C87.058 143.978 86.734 144.878 86.428 145.652H89.218V148.568C90.262 147.056 91.126 144.878 91.648 142.772L93.682 143.24C93.502 144.014 93.25 144.77 92.98 145.526ZM95.068 153.734L93.25 154.85C92.746 153.77 91.63 152.006 90.748 150.692L92.422 149.738C93.322 150.98 94.51 152.69 95.068 153.734ZM109.384 148.802H107.314V149.774H109.384V148.802ZM113.416 149.774V148.802H111.292V149.774H113.416ZM111.292 152.276H113.416V151.268H111.292V152.276ZM107.314 152.276H109.384V151.268H107.314V152.276ZM107.314 153.824V156.524H105.298V147.254H109.222C108.34 146.858 107.44 146.462 106.648 146.138L108.034 145.004C108.718 145.256 109.564 145.598 110.374 145.94C110.896 145.634 111.418 145.292 111.886 144.932H105.46V143.312H113.722L114.154 143.204L115.414 144.23C114.514 145.094 113.344 146.012 112.156 146.732C112.498 146.894 112.822 147.074 113.092 147.218L113.056 147.254H115.468V154.67C115.468 155.552 115.306 155.984 114.73 156.272C114.172 156.578 113.38 156.578 112.318 156.578C112.228 156.056 112.012 155.372 111.778 154.904C112.354 154.922 112.966 154.922 113.146 154.922C113.362 154.904 113.416 154.832 113.416 154.652V153.824H111.292V156.452H109.384V153.824H107.314ZM104.344 146.282L102.796 147.758C102.148 146.912 100.726 145.616 99.664 144.68L101.104 143.402C102.166 144.23 103.642 145.49 104.344 146.282ZM103.75 149.612V155.93C104.02 156.11 104.344 156.344 104.758 156.578C105.946 157.28 107.548 157.388 109.492 157.388C111.436 157.388 114.424 157.226 116.296 156.974C116.062 157.514 115.756 158.468 115.72 159.026C114.334 159.098 111.346 159.206 109.438 159.206C107.188 159.206 105.73 159.008 104.488 158.306C103.768 157.874 103.174 157.334 102.778 157.334C102.238 157.334 101.356 158.396 100.6 159.494L99.286 157.694C100.078 156.884 100.924 156.236 101.698 155.876V151.592H99.43V149.612H103.75ZM120.748 142.826L122.656 143.402C122.278 144.464 121.846 145.544 121.324 146.588V159.638H119.38V149.954C118.948 150.566 118.498 151.16 118.066 151.664C117.886 151.178 117.31 150.062 116.968 149.558C118.48 147.92 119.92 145.364 120.748 142.826ZM130.774 155.246H124.96V157.28H130.774V155.246ZM123.142 159.548V153.536H132.664V159.494H130.774V158.99H124.96V159.548H123.142ZM123.412 152.528V150.854H132.43V152.528H123.412ZM132.43 148.244V149.918H123.412V148.244H132.43ZM128.29 145.544H133.726V147.29H122.152V145.544H127.3C127.03 144.878 126.58 144.05 126.184 143.402L128.002 142.718C128.506 143.456 129.064 144.446 129.316 145.094L128.29 145.544ZM144.55 154.796V156.416H146.746V154.796H144.55ZM146.746 149.45V147.884H144.55V149.45H146.746ZM146.746 152.87V151.358H144.55V152.87H146.746ZM151.57 156.416V158.414H144.55V159.584H142.588V150.404C142.318 150.782 142.03 151.142 141.742 151.484C141.58 150.962 141.202 150.116 140.896 149.558C140.644 150.476 140.356 151.358 140.032 152.168C140.86 153.338 141.58 154.418 142.03 155.318L140.41 156.812C140.068 156.092 139.6 155.264 139.024 154.364C138.178 155.912 137.17 157.226 136 158.234C135.676 157.712 135.01 156.974 134.542 156.614C135.784 155.642 136.846 154.148 137.71 152.366C136.774 151.016 135.802 149.666 134.902 148.496L136.342 147.272C137.044 148.154 137.818 149.162 138.592 150.188C138.97 149.036 139.294 147.812 139.51 146.57H135.082V144.68H140.05L140.41 144.608L141.742 145.058C141.58 146.516 141.328 147.902 141.004 149.18C142.3 147.488 143.398 144.86 143.938 142.826L146.044 143.402C145.756 144.248 145.45 145.094 145.072 145.958H147.286C147.034 145.238 146.602 144.32 146.17 143.6L148.024 142.826C148.564 143.636 149.104 144.716 149.356 145.418L148.186 145.958H151.354V147.884H148.672V149.45H150.94V151.358H148.672V152.87H150.976V154.796H148.672V156.416H151.57ZM169.306 156.164L168.046 157.478C167.416 156.794 166.03 155.696 165.022 154.94L166.192 153.788C167.2 154.472 168.586 155.516 169.306 156.164ZM164.104 148.712H165.868C165.76 153.572 165.292 156.11 161.062 157.424C160.882 156.992 160.45 156.344 160.108 156.02C163.798 154.958 164.032 152.978 164.104 148.712ZM161.386 146.462H163.402C163.564 146.066 163.726 145.616 163.852 145.166H160.81V143.474H169.234V145.166H165.94C165.742 145.634 165.526 146.066 165.328 146.462H168.55V153.878H166.732V147.992H163.114V153.986H161.386V146.462ZM158.11 145.724V144.878H155.464V145.724H158.11ZM158.11 147.956V147.074H155.464V147.956H158.11ZM160.09 143.456V149.396H153.556V143.456H160.09ZM157.894 154.994V157.118C158.956 157.442 160.288 157.514 161.872 157.514C163.06 157.514 167.938 157.514 169.414 157.442C169.126 157.856 168.82 158.666 168.712 159.206H161.854C158.524 159.206 156.31 158.864 154.87 156.956C154.636 157.982 154.294 158.846 153.79 159.566C153.484 159.278 152.728 158.774 152.314 158.558C153.358 157.208 153.592 155.066 153.628 152.618L155.374 152.726C155.338 153.464 155.302 154.166 155.23 154.814C155.464 155.336 155.752 155.75 156.094 156.092V151.97H152.728V150.422H160.864V151.97H157.894V153.446H160.504V154.994H157.894ZM83.3834 170.294L85.7774 170.996C84.9854 172.598 84.0674 174.308 83.2934 175.442L81.4214 174.794C82.1234 173.552 82.9514 171.698 83.3834 170.294ZM75.6794 174.506L73.6094 175.37C73.2674 174.236 72.3854 172.49 71.5034 171.23L73.4474 170.456C74.4014 171.698 75.2834 173.354 75.6794 174.506ZM79.7474 169.736V175.964H85.4714V186.566H83.1854V185.828H71.5214V183.704H83.1854V181.832H72.5474V179.762H83.1854V178.106H71.9354V175.964H77.3894V169.736H79.7474ZM91.7954 169.826L93.8834 170.474C93.4154 171.734 92.8214 173.012 92.1554 174.218V186.548H89.9954V177.548C89.6174 177.998 89.2394 178.448 88.8794 178.844C88.6814 178.322 88.0694 177.098 87.6914 176.558C89.3294 174.938 90.8954 172.382 91.7954 169.826ZM104.701 174.722H99.5894V176.612H104.251V178.556H99.5894V180.59H104.485V182.57H99.5894V186.566H97.3934V174.722H96.7094C95.9894 176.054 95.1614 177.278 94.3514 178.214C94.0094 177.818 93.1634 177.062 92.7134 176.72C94.2974 175.1 95.7194 172.508 96.5294 169.934L98.5994 170.456C98.3474 171.212 98.0594 171.95 97.7174 172.688H104.701V174.722ZM117.775 172.436V171.716H110.035V172.436H117.775ZM117.775 174.488V173.732H110.035V174.488H117.775ZM119.935 170.348V175.856H107.983V170.348H119.935ZM109.315 183.56L111.655 183.326V182.624H109.315V183.56ZM111.655 178.214H109.315V178.934H111.655V178.214ZM109.315 180.41V181.148H111.655V180.41H109.315ZM114.553 184.766L113.707 184.856V186.566H111.655V185.09C109.549 185.306 107.515 185.522 105.931 185.702L105.769 183.848C106.255 183.812 106.777 183.776 107.353 183.722V178.214H105.787V176.522H122.095V178.214H113.707V183.128L114.535 183.056L114.553 184.766ZM119.413 180.554H116.551C116.929 181.274 117.433 181.94 118.045 182.498C118.567 181.94 119.035 181.274 119.413 180.554ZM120.619 178.826L121.825 179.312C121.339 181.058 120.529 182.462 119.503 183.614C120.349 184.118 121.357 184.532 122.455 184.784C122.023 185.198 121.465 185.954 121.195 186.476C119.989 186.116 118.945 185.612 118.027 184.946C117.163 185.594 116.191 186.098 115.147 186.512C114.931 186.044 114.463 185.342 114.085 184.964C114.985 184.676 115.867 184.244 116.623 183.704C115.867 182.876 115.237 181.904 114.733 180.806L115.633 180.554H114.301V178.898H120.277L120.619 178.826ZM133.567 183.416V182.39H129.607V183.416H133.567ZM139.165 178.502V184.604C139.165 185.54 138.931 185.918 138.247 186.188C137.599 186.404 136.627 186.422 135.385 186.404C135.277 185.936 134.989 185.324 134.755 184.892H129.607V185.648H127.627V180.896H135.457V184.892H135.205C135.835 184.91 136.465 184.91 136.645 184.892C136.897 184.892 137.005 184.82 137.005 184.586V180.23H126.259V186.548H124.189V178.502H139.165ZM135.187 176.342V175.352H128.221V176.342H135.187ZM137.437 173.912V177.764H126.079V173.912H137.437ZM133.099 171.428H139.579V173.228H123.685V171.428H130.615C130.471 170.996 130.327 170.546 130.183 170.168L132.397 169.628C132.595 170.186 132.883 170.852 133.099 171.428ZM144.643 179.024L147.253 178.34C147.217 178.88 147.271 179.708 147.343 180.14C142.735 181.472 141.979 181.76 141.511 182.084C141.403 181.706 141.097 180.752 140.863 180.23C141.331 180.122 141.745 179.726 142.321 179.042C142.609 178.736 143.167 178.034 143.797 177.098C142.141 177.296 141.691 177.422 141.403 177.548C141.313 177.152 140.989 176.18 140.737 175.622C141.133 175.514 141.421 175.136 141.817 174.56C142.231 173.984 143.473 171.752 144.157 169.646L146.101 170.564C145.399 172.202 144.427 173.966 143.383 175.388L144.967 175.262C145.345 174.65 145.705 173.984 146.029 173.354L147.739 174.434C146.839 176.018 145.759 177.62 144.643 179.024ZM153.265 172.85H151.447C151.375 174.182 151.267 175.46 151.141 176.666C151.681 178.232 152.437 179.726 153.409 181.022C154.093 179.942 154.615 178.7 154.993 177.296H152.023C152.401 176.108 152.869 174.452 153.265 172.85ZM156.055 175.37L157.387 175.892C156.865 178.574 155.965 180.824 154.795 182.606C155.731 183.506 156.775 184.244 157.945 184.766C157.495 185.162 156.865 185.954 156.541 186.494C155.425 185.9 154.399 185.162 153.517 184.262C152.635 185.234 151.681 185.99 150.619 186.566C150.331 186.098 149.593 185.288 149.125 184.964C150.259 184.388 151.267 183.614 152.149 182.678C151.573 181.886 151.051 181.058 150.583 180.158C150.061 182.768 149.197 184.946 147.883 186.62C147.523 186.296 146.515 185.594 146.011 185.324C146.533 184.73 146.965 184.064 147.361 183.308C145.381 184.172 143.275 185.054 141.619 185.738L141.115 183.614C142.627 183.146 144.967 182.228 147.217 181.364L147.577 182.858C148.729 180.248 149.179 176.792 149.359 172.85H147.595V170.852H155.875C155.515 172.328 155.083 174.02 154.669 175.46H155.713L156.055 175.37ZM161.371 182.822H164.233V179.294H161.371V182.822ZM164.233 177.44V174.524H161.371V177.44H164.233ZM169.939 172.526H175.015C175.015 172.526 175.015 173.246 174.997 173.498C174.763 181.544 174.565 184.406 173.827 185.36C173.323 186.026 172.819 186.224 172.099 186.35C171.415 186.44 170.335 186.422 169.273 186.386C169.237 185.792 168.949 184.892 168.571 184.298C169.723 184.406 170.785 184.406 171.253 184.406C171.613 184.406 171.811 184.334 172.045 184.1C172.567 183.524 172.801 180.824 172.999 174.47H169.147C168.679 175.55 168.121 176.54 167.563 177.314C167.275 177.044 166.663 176.63 166.177 176.306V184.712H161.371V186.026H159.427V172.652H161.461C161.695 171.752 161.911 170.6 161.983 169.754L164.323 170.078C164.017 170.978 163.693 171.878 163.387 172.652H166.177V175.568C167.221 174.056 168.085 171.878 168.607 169.772L170.641 170.24C170.461 171.014 170.209 171.77 169.939 172.526ZM172.027 180.734L170.209 181.85C169.705 180.77 168.589 179.006 167.707 177.692L169.381 176.738C170.281 177.98 171.469 179.69 172.027 180.734ZM184.489 175.73V180.572C185.137 179.618 185.587 178.25 185.839 176.9C185.713 176.954 185.587 177.026 185.461 177.08C185.281 176.666 184.885 176.072 184.489 175.73ZM181.717 182.408V184.55C182.095 184.568 182.419 184.568 182.527 184.568C182.689 184.568 182.743 184.514 182.743 184.334V182.408H181.717ZM179.269 180.842H180.313V179.006H179.323V179.114C179.323 179.654 179.305 180.23 179.269 180.842ZM181.519 173.048H179.737C179.539 173.516 179.323 173.93 179.107 174.362H181.015C181.177 173.966 181.357 173.516 181.519 173.048ZM179.323 175.928V177.476H180.313V175.928H179.323ZM182.743 179.006H181.717V180.842H182.743V179.006ZM181.717 177.476H182.743V175.928H181.717V177.476ZM193.129 181.688V183.524H190.447V186.548H188.413V183.524H185.011V181.688H188.413V180.068H186.721C186.487 180.59 186.235 181.076 185.983 181.472C185.641 181.238 184.921 180.86 184.489 180.662V184.37C184.489 185.144 184.381 185.684 183.931 185.99C183.481 186.314 182.923 186.35 182.131 186.35C182.077 185.918 181.915 185.288 181.717 184.802V185.45H180.313V182.408H179.125C178.927 183.938 178.531 185.468 177.775 186.62C177.451 186.35 176.659 185.846 176.263 185.648C177.469 183.794 177.559 181.13 177.559 179.114V176.432C177.181 176.072 176.533 175.532 176.155 175.28C177.379 173.966 178.333 171.878 178.819 169.754L180.727 170.168C180.619 170.582 180.493 171.014 180.349 171.428H182.311L182.599 171.338L183.859 172.13C183.607 172.814 183.247 173.642 182.869 174.362H184.489V175.514C186.037 174.83 186.595 173.75 186.847 172.418H184.831V170.672H192.733C192.733 170.672 192.715 171.122 192.697 171.356C192.607 174.218 192.445 175.478 192.067 175.928C191.761 176.306 191.437 176.45 190.969 176.522C190.573 176.576 189.889 176.594 189.151 176.576C189.115 176.018 188.935 175.316 188.665 174.848C189.241 174.902 189.709 174.92 189.943 174.92C190.177 174.92 190.321 174.884 190.447 174.722C190.609 174.524 190.699 173.912 190.771 172.418H188.773C188.485 174.29 187.801 175.784 186.001 176.81L187.585 177.134C187.531 177.494 187.441 177.89 187.333 178.268H188.413V176.828H190.447V178.268H192.751V180.068H190.447V181.688H193.129ZM196.843 172.994V174.866H194.755V171.086H201.379C201.289 170.672 201.145 170.222 201.001 169.862L203.071 169.502C203.269 169.988 203.485 170.582 203.629 171.086H210.199V174.866H208.003V172.994H201.073C202.027 173.39 203.089 173.912 203.665 174.38L202.585 175.748C201.937 175.19 200.587 174.452 199.489 174.02L200.317 172.994H196.843ZM196.483 174.938L198.211 175.712C197.671 176.846 196.915 178.124 195.925 178.97L194.197 177.926C195.169 177.188 195.997 175.982 196.483 174.938ZM204.925 180.086H201.577C200.605 180.086 199.921 179.996 199.489 179.762C198.085 180.374 196.645 180.896 195.223 181.292C194.971 180.842 194.377 179.96 193.999 179.546C195.619 179.186 197.203 178.682 198.679 178.052V177.836V174.794H200.605V177.17C202.603 176.144 204.313 174.884 205.519 173.408L207.301 174.29C205.951 175.91 204.187 177.296 202.189 178.43H204.763C205.555 178.43 205.699 178.196 205.771 176.756C206.185 177.044 206.977 177.314 207.481 177.422C207.265 179.564 206.707 180.086 204.925 180.086ZM206.707 183.884V181.076H208.849V186.476H206.707V185.882H196.177V181.364H198.283V183.884H201.343V180.5H203.521V183.884H206.707ZM206.383 176.072L207.895 175.064C208.957 175.964 210.253 177.314 210.865 178.232L209.227 179.366C208.687 178.466 207.445 177.08 206.383 176.072ZM214.093 179.438L215.821 180.5C215.245 182.462 214.525 184.586 213.859 186.35L211.897 185.306C212.545 183.848 213.427 181.58 214.093 179.438ZM215.803 176.252L214.525 177.98C213.913 177.512 212.635 176.774 211.717 176.252L212.923 174.722C213.823 175.136 215.119 175.82 215.803 176.252ZM226.495 178.52V179.528H228.601V181.436H226.495V184.388C226.495 185.36 226.351 185.882 225.685 186.206C225.055 186.53 224.173 186.548 222.985 186.548C222.913 185.972 222.661 185.162 222.427 184.586C223.165 184.622 223.957 184.622 224.209 184.622C224.443 184.622 224.515 184.568 224.515 184.352V181.436H222.229V179.528H224.515V177.962C224.803 177.728 225.127 177.44 225.415 177.116H222.967V176.216C222.535 175.91 221.725 175.46 221.257 175.244C221.455 174.974 221.635 174.686 221.815 174.362H219.097C219.079 175.028 219.061 175.694 219.025 176.342H222.031C222.031 176.342 222.013 176.936 222.013 177.188C221.815 182.786 221.635 184.928 221.131 185.576C220.807 186.062 220.465 186.242 219.979 186.314C219.565 186.386 218.917 186.404 218.233 186.386C218.179 185.81 218.017 185 217.711 184.46C218.233 184.532 218.683 184.532 218.953 184.532C219.169 184.532 219.313 184.478 219.475 184.262C219.727 183.884 219.907 182.39 220.033 178.286H218.899C218.611 181.508 217.927 184.46 216.163 186.53C215.839 186.044 215.227 185.45 214.705 185.144C216.901 182.642 217.063 178.484 217.135 174.362H215.839V172.364L215.119 173.318C214.507 172.814 213.229 171.986 212.347 171.464L213.571 169.934C214.453 170.402 215.749 171.14 216.397 171.59L215.857 172.346H218.467C218.197 171.734 217.747 170.96 217.333 170.348L219.313 169.61C219.799 170.276 220.357 171.176 220.645 171.77L219.313 172.346H222.175V173.606C222.643 172.472 222.967 171.14 223.165 169.772L225.217 170.114C225.109 170.708 224.983 171.302 224.839 171.878H228.547V173.894H224.227C224.047 174.38 223.849 174.848 223.669 175.262H227.017L227.395 175.154L228.655 176.054C228.061 176.882 227.287 177.764 226.495 178.52ZM245.347 172.292L243.727 173.57C243.259 172.85 242.215 171.752 241.441 170.96L242.989 169.826C243.745 170.564 244.843 171.608 245.347 172.292ZM237.049 182.516L235.393 184.046C235.033 183.326 234.493 182.444 233.881 181.526C233.035 183.056 232.027 184.352 230.821 185.36C230.479 184.838 229.795 183.992 229.273 183.614C230.533 182.66 231.631 181.22 232.495 179.474C231.541 178.106 230.515 176.738 229.615 175.568L231.073 174.344C231.811 175.244 232.603 176.252 233.413 177.314C233.845 176.144 234.169 174.866 234.403 173.57H229.687V171.68H234.997L235.357 171.608L236.725 172.076C236.383 174.794 235.771 177.224 234.943 179.33C235.789 180.518 236.545 181.616 237.049 182.516ZM243.763 176.198L245.455 177.224C244.699 179.06 243.547 180.878 242.161 182.444C242.575 183.29 243.097 183.794 243.673 183.884C244.087 183.938 244.285 183.056 244.429 181.166C244.843 181.616 245.797 182.228 246.229 182.426C245.743 185.828 244.771 186.638 243.781 186.548C242.323 186.386 241.261 185.558 240.451 184.136C239.641 184.856 238.759 185.468 237.841 185.954C237.445 185.432 236.761 184.784 236.149 184.352C237.391 183.812 238.561 183.02 239.623 182.066C239.155 180.554 238.849 178.682 238.651 176.486L236.815 176.72L236.563 174.758L238.507 174.524C238.417 173.084 238.345 171.536 238.309 169.88H240.541C240.559 171.428 240.595 172.904 240.685 174.29L245.779 173.678L246.031 175.586L240.829 176.234C240.973 177.728 241.171 179.042 241.423 180.158C242.395 178.934 243.205 177.566 243.763 176.198ZM254.425 173.768H251.491C252.121 174.74 252.787 176.018 253.021 176.9L251.311 177.566H254.425V173.768ZM259.735 173.768H256.693V177.566H259.717L258.205 177.044C258.727 176.162 259.375 174.812 259.735 173.768ZM263.605 179.618H257.971C259.519 181.49 261.823 183.218 264.073 184.154C263.587 184.586 262.903 185.432 262.579 185.954C260.419 184.874 258.313 183.074 256.693 181.022V186.548H254.425V181.058C252.787 183.074 250.681 184.838 248.521 185.918C248.179 185.396 247.513 184.55 247.009 184.118C249.277 183.182 251.599 181.472 253.165 179.618H247.513V177.566H250.915C250.717 176.702 250.141 175.442 249.565 174.47L251.419 173.768H248.359V171.716H254.425V169.754H256.693V171.716H262.921V173.768H259.933L262.003 174.38C261.373 175.55 260.689 176.756 260.113 177.566H263.605V179.618ZM281.071 171.086V172.886H265.429V171.086H272.053C271.945 170.708 271.819 170.312 271.675 170.006L273.889 169.628C274.105 170.06 274.321 170.582 274.465 171.086H281.071ZM269.641 175.172V176.18H276.877V175.172H269.641ZM279.145 177.656H267.499V173.714H279.145V177.656ZM281.359 181.49V183.308H274.375V184.586C274.375 185.648 274.051 186.08 273.205 186.35C272.359 186.584 271.171 186.566 269.605 186.566C269.461 186.026 269.155 185.306 268.867 184.82C269.911 184.856 271.315 184.856 271.621 184.856C271.981 184.838 272.089 184.766 272.089 184.496V183.308H265.159V181.49H272.089V180.734H272.107L272.089 180.716C272.845 180.554 273.619 180.32 274.357 180.05H266.923V178.376H277.795L278.245 178.286L279.613 179.474C278.155 180.248 276.409 180.95 274.591 181.49H281.359ZM289.591 172.67L291.373 172.256C289.861 172.4 288.295 172.508 286.765 172.58C287.179 173.246 287.593 174.056 287.773 174.632L286.837 174.902H290.275C290.167 174.272 289.897 173.372 289.591 172.67ZM285.127 176.756V178.808H283.129V174.902H285.703C285.523 174.344 285.181 173.624 284.857 173.048L286.459 172.598C285.559 172.652 284.641 172.688 283.777 172.706C283.741 172.166 283.489 171.356 283.291 170.888C288.025 170.726 293.443 170.294 296.719 169.664L298.159 171.392C296.215 171.752 293.893 172.04 291.499 172.256C291.859 172.976 292.201 173.93 292.309 174.578L290.977 174.902H294.109C294.541 174.074 295.009 173.012 295.279 172.202L297.565 172.742C297.151 173.498 296.683 174.236 296.269 174.902H298.825V178.808H296.737V176.756H285.127ZM293.425 180.104H288.241C288.979 180.914 289.897 181.598 290.977 182.192C291.931 181.616 292.777 180.932 293.425 180.104ZM295.207 178.052L296.647 178.934C295.837 180.698 294.649 182.066 293.191 183.128C294.919 183.74 296.935 184.154 299.149 184.352C298.699 184.838 298.123 185.774 297.835 186.35C295.225 186.026 292.903 185.414 290.959 184.46C288.889 185.45 286.495 186.044 283.957 186.386C283.741 185.882 283.147 184.928 282.697 184.496C284.947 184.262 287.035 183.848 288.817 183.182C287.719 182.408 286.765 181.454 285.973 180.356L286.567 180.104H285.721V178.142H294.811L295.207 178.052Z" fill="#FF7600"/>
</svg>
